<?xml version="1.0" encoding="utf-8"?>
<!-- Generator: Adobe Illustrator 22.0.1, SVG Export Plug-In . SVG Version: 6.00 Build 0)  -->
<svg version="1.1" id="Layer_1" xmlns="http://www.w3.org/2000/svg" xmlns:xlink="http://www.w3.org/1999/xlink" x="0px" y="0px"
	 viewBox="0 0 91.6 95.4" style="enable-background:new 0 0 91.6 95.4;" xml:space="preserve">
<style type="text/css">
	.st0{fill:#FF6900;}
	.st1{fill:#FFFFFF;}
</style>
<title>Web RU Logo</title>
<g id="Layer_2_1_">
	<g id="Layer_1-2">
		<path class="st0" d="M42.6,0c27.7,0,49,19.1,49,47.4s-21.3,48-49,48H11.5C5.2,95.3,0,91.2,0,83.9v-72C0,4.6,5.2,0,11.5,0H42.6z"/>
		<path d="M74.5,37.1c-0.2,1.2-1.5,1.2-2.1,0.2c-1.9-3.3-4.5-3.9-8.5-4.2c-3-0.2-6.5,0.2-9.8,0.2c-0.4,0-0.7-0.2-0.7-0.6
			c0,0,0,0,0,0c0.6-2.8,3-8,5.5-8.5c1.2-0.1,3.9-0.5,5.4-0.5C71.1,23.7,74.8,31.6,74.5,37.1 M35.8,64.1c5,1.3,10.3,1.8,15.5,1.5
			c6.8-0.5,13.4-2.6,19.2-6.3c-2.2,5.7-10.7,9.2-18.8,10.1c0,0.4-0.2,0.7-0.2,1.2c6.1-0.3,11.9-2.4,14.6-4.2
			c-1.5,5.5-8.9,7.8-15.8,8.2c-0.2,0.4-0.4,0.8-0.6,1.2c3.4,0,6.8-0.4,10-1.3c-3.1,5.8-16.5,9.8-27.9,4.5
			C34.2,74.4,35.6,69.3,35.8,64.1 M73.2,24.4c-2.5-2.4-5.9-3.7-9.4-3.6c-4.5,0-8.2,1.2-13.7,1.3c-3.7,0.1-7.2-8-11.6-9.1
			c-1.9-4.3-6.4-4.9-9.1-2.7c-2.5-1.5-6.4-0.7-6.6,2.1c-2.8-0.9-6.5,0.6-4.9,4.5c-7,0.1-8.2,6.4-3.6,7c-6.1,3.4-3.3,9.4,1.8,8.2
			c0.9,8.9,4.9,20.6-1.6,23.4c-0.7,0.3-3.7,1-9.4-0.3c-1.6-0.5-3.4-0.9-5.1-1.3v4.6c4.9,1.2,9.8,2.1,13,1.8c8.6-0.9,9.1-8,8.6-14.3
			s-2.5-13.3-1.8-18.3l-0.3-0.3c-3.1,3.3-5.2,2.4-5.5,1.3c-0.4-2.1,3.3-4.8,5.4-5.7c0-0.1,0.1-0.3,0.1-0.5c-1.9,0.3-4.3,0-4.5-1.3
			c-0.1-1.6,3.3-3.3,7.8-2.8c0.1,0,0.1-0.1,0.3-0.1l-0.9-0.5c-1.2-0.6-1.5-1.6-1-2.2c0.7-0.7,1.7-1.1,2.7-1c1.4,0,2.7,0.3,4,0.9
			c0.1,0,0.1-0.1,0.3-0.1c-0.3-0.3-0.7-0.6-0.9-0.9C27,14,27,13.4,27.4,13c1.2-0.6,2.6-0.3,3.6,0.6l0.7,0.7c0.2,0,0.3,0,0.5-0.1
			c-0.3-0.3-0.4-0.6-0.5-1c-0.2-0.5,0-1,0.5-1.2c0,0,0.1,0,0.1,0c0.7-0.1,1.4,0.2,1.8,0.7c0.4,0.6,0.7,1.2,0.9,1.9
			c-3.1,0.3-6.9,1.5-9.1,4.6l0,0c-2.4,3.6-3.1,8.1-1.8,12.2c0.9,4.6,2.7,8.9,4.3,13.4l0,0V45l0,0C32,55.3,38.9,80.6,5.7,94
			c1.7,0.8,3.6,1.3,5.5,1.3h3.4c5.8-2.9,10.8-7.1,14.8-12.2c15.2,6.7,29,3.3,35-7.8c3.8-2.4,6.2-6.3,6.7-10.7c2.2-2.7,3-6.3,2.2-9.6
			c-0.2-0.6-0.7-0.6-1.6-0.2c-12.4,7.5-23.2,8.6-36.2,4.8c-0.3-4.1-0.9-8.1-1.8-12.1c-0.3-5.2,1.3-7.8,10.9-4.6
			c6.3,1.6,9.1,4.5,11.3,6c1,0.7,2.4,1.6,3.1,1c0.5-0.3,0.6-1.2,0.6-2.2c-0.2-2.8-1.5-7.6-2.7-9.4c2.8-0.2,5.7-0.2,8.5,0
			c3.6,0.6,3.9,2.5,4.3,3.3c1,3,6.8,2.2,7.3-0.3C77.9,36.1,78.2,29.2,73.2,24.4 M7,69.1c-2.3-0.1-4.7-0.1-7,0v3.1
			c4-0.9,6.6-1.3,6.6-1.3L7,69.1z"/>
		<path class="st1" d="M44.3,36.5c-5.2-1.2-11-2.7-14-7.1c0-0.1-0.1-0.1-0.3-0.1c-0.1,0-0.1,0.1-0.1,0.1c0,0.3,0,0.5,0.1,0.7
			l-0.5,0.1c-0.7-1.2-1-2.5-0.1-3.6c1.2-1.5,3.4-1.3,4.9-0.5l-0.2,0.5c-0.7-0.2-1.4-0.1-2.1,0.1c-0.4,0.2-0.6,0.7-0.4,1.1
			c0,0,0,0.1,0.1,0.1c2.5,4.8,10,5.8,18.8,5.1c0.6,0.1,1.1-0.3,1.2-0.9c0,0,0,0,0,0c0.7-3,2.1-5.7,4.2-7.9c-1.4,0.2-2.9,0.3-4.3,0.3
			c-4.5,0.3-7.2-0.3-7.9-0.9l0.2-0.5c0.5,0.1,1,0.1,1,0s0-0.3-0.2-0.5C43.8,22,39.9,18,39.9,18c-0.5-3.4-5.4-3.4-7.3-0.1L32,17.7
			c0.1-0.6,0.4-1.2,0.7-1.8c-4,0.9-6.4,4.6-6.9,8c-1.8,15.2,21.3,11.6,27.9,17.7c0.2,0.2,0.5,0.6,0.6,0.3S51.7,38.1,44.3,36.5
			 M36.3,18.3c1-0.3,2.7,0.7,3.4,2.4s0.6,3.3-0.5,3.7s-2.7-0.7-3.5-2.4c-0.2-0.3-0.2-0.5-0.3-0.7h0.2c0.3,0.3,0.6,0.4,1,0.3
			c0.5-0.3,0.3-0.9,0-1.5s-0.7-0.9-1.2-0.9L35.3,19C35.5,18.7,35.8,18.4,36.3,18.3"/>
		<path class="st1" d="M70.5,59.3c-5.8,3.6-12.4,5.8-19.2,6.3c-5.2,0.3-10.4-0.2-15.5-1.5c0,1.5-0.2,3-0.5,4.5
			c4.3,1,8.8,1.6,13.3,1.6c-0.3,1.6-2.1,7.6-6.4,11.3c8,0.3,15.3-2.8,17.6-7c-3.2,1-6.6,1.5-10,1.3c0.2-0.4,0.5-0.7,0.6-1.2
			c6.8-0.3,14.3-2.5,15.8-8.2c-2.7,1.8-8.5,3.9-14.6,4.2c0-0.4,0.2-0.7,0.2-1.2C59.7,68.4,68.2,65,70.5,59.3"/>
	</g>
</g>
</svg>
