<?xml version="1.0" encoding="utf-8"?>
<!-- Generator: Adobe Illustrator 22.0.1, SVG Export Plug-In . SVG Version: 6.00 Build 0)  -->
<svg version="1.1" id="Layer_1" xmlns="http://www.w3.org/2000/svg" xmlns:xlink="http://www.w3.org/1999/xlink" x="0px" y="0px"
	 viewBox="0 0 684 684" style="enable-background:new 0 0 684 684;" xml:space="preserve">
<style type="text/css">
	.st0{fill:#FF6900;}
	.st1{fill:#FFFFFF;}
	.st2{fill:none;stroke:#000000;stroke-width:1.5;stroke-linecap:round;stroke-linejoin:round;stroke-miterlimit:10;}
	.st3{fill:#FFFFFF;stroke:#000000;stroke-width:1.5;stroke-linecap:round;stroke-linejoin:round;stroke-miterlimit:10;}
</style>
<g id="Pizza">
	<g>
		<path class="st0" d="M435.1,483c-0.6-18.7-49.6-32.5-109.6-30.7S217.4,470.6,218,489.5c0,1.6,0.2,8,0.3,9.6
			c0.6,18.7,49.6,32.5,109.6,30.7c60-1.8,108.1-18.4,107.5-37.2C435.3,491,435.1,484.6,435.1,483z"/>
		<path class="st1" d="M430.6,479.6c0.8-11.8-39.8-30.2-104.7-27.3c-60.9,2.7-104.4,19.4-104.4,34.5c0,13.6,47.1,28,105.2,27
			C376.8,513,429.6,494.6,430.6,479.6z"/>
		<path class="st2" d="M435.1,483c-0.6-18.7-49.6-32.5-109.6-30.7S217.4,470.6,218,489.5c0,1.6,0.2,8,0.3,9.6
			c0.6,18.7,49.6,32.5,109.6,30.7c60-1.8,108.1-18.4,107.5-37.2C435.3,491,435.1,484.6,435.1,483z"/>
		
			<ellipse transform="matrix(0.9996 -2.973642e-02 2.973642e-02 0.9996 -14.2708 9.9237)" class="st3" cx="326.5" cy="484.8" rx="93.9" ry="25.2"/>
		
			<ellipse transform="matrix(0.9996 -2.716502e-02 2.716502e-02 0.9996 -12.8278 9.0151)" class="st0" cx="325.4" cy="476.6" rx="11.8" ry="4.1"/>
		
			<ellipse transform="matrix(0.9996 -2.736556e-02 2.736556e-02 0.9996 -12.4977 9.0635)" class="st0" cx="324.9" cy="461.1" rx="11.8" ry="3.4"/>
		
			<ellipse transform="matrix(0.9996 -2.736556e-02 2.736556e-02 0.9996 -12.5355 10.304)" class="st0" cx="370.2" cy="463.1" rx="11.8" ry="3.4"/>
		
			<ellipse transform="matrix(0.9996 -2.736556e-02 2.736556e-02 0.9996 -12.6313 7.8967)" class="st0" cx="282.2" cy="465.4" rx="11.8" ry="3.4"/>
		
			<ellipse transform="matrix(0.9996 -2.716502e-02 2.716502e-02 0.9996 -12.6037 8.5122)" class="st0" cx="307" cy="468.1" rx="11.8" ry="4.1"/>
		
			<ellipse transform="matrix(0.9996 -2.716502e-02 2.716502e-02 0.9996 -12.5766 9.5116)" class="st0" cx="343.8" cy="467.6" rx="11.8" ry="4.1"/>
		
			<ellipse transform="matrix(0.9996 -2.670168e-02 2.670168e-02 0.9996 -13.0722 8.9152)" class="st0" cx="327.3" cy="493.9" rx="12.6" ry="5.6"/>
		
			<ellipse transform="matrix(0.9996 -2.670168e-02 2.670168e-02 0.9996 -13.3104 9.4712)" class="st0" cx="348" cy="503.1" rx="12.6" ry="5.6"/>
		
			<ellipse transform="matrix(0.9996 -2.670168e-02 2.670168e-02 0.9996 -13.3572 8.3716)" class="st0" cx="306.8" cy="504.3" rx="12.6" ry="5.6"/>
		<ellipse class="st0" cx="346.6" cy="483.2" rx="11.8" ry="5.4"/>
		<ellipse class="st0" cx="365.8" cy="493" rx="12.3" ry="5.7"/>
		<ellipse class="st0" cx="287.3" cy="494.8" rx="12.3" ry="5.7"/>
		<path class="st0" d="M262.6,496.1c-6.7,0-12.1,2.5-12.3,5.5c5.4,1.9,11.9,3.5,19.2,4.8c3.2-1,5.3-2.7,5.3-4.7
			C274.9,498.6,269.4,496.1,262.6,496.1z"/>
		<path class="st0" d="M393.4,490.4c-6.8,0-12.3,2.5-12.3,5.7c0,2.6,3.9,4.8,9.1,5.5c5.9-1.6,11.1-3.5,15.5-5.4l0,0
			C405.7,493,400.2,490.4,393.4,490.4z"/>
		<ellipse class="st0" cx="365.8" cy="474.5" rx="11.8" ry="5.4"/>
		
			<ellipse transform="matrix(0.9996 -2.663396e-02 2.663396e-02 0.9996 -12.8072 8.3163)" class="st0" cx="305.8" cy="484.9" rx="11.8" ry="5.4"/>
		
			<ellipse transform="matrix(0.9996 -2.663414e-02 2.663414e-02 0.9996 -12.8934 7.0522)" class="st0" cx="258.3" cy="487.5" rx="11.8" ry="5.4"/>
		
			<ellipse transform="matrix(0.9996 -2.663396e-02 2.663396e-02 0.9996 -12.6933 10.8693)" class="st0" cx="401.7" cy="481.9" rx="11.8" ry="5.4"/>
		
			<ellipse transform="matrix(0.9996 -2.689303e-02 2.689303e-02 0.9996 -12.7129 6.9974)" class="st0" cx="253.8" cy="476.1" rx="11.8" ry="4.9"/>
		
			<ellipse transform="matrix(0.9996 -2.689303e-02 2.689303e-02 0.9996 -12.5126 10.6903)" class="st0" cx="391.2" cy="470.5" rx="11.8" ry="4.9"/>
		
			<ellipse transform="matrix(0.9996 -2.663396e-02 2.663396e-02 0.9996 -12.6231 7.7411)" class="st0" cx="284.3" cy="477.7" rx="11.8" ry="5.4"/>
		
			<ellipse transform="matrix(0.9996 -2.716502e-02 2.716502e-02 0.9996 -12.8278 9.0151)" class="st2" cx="325.4" cy="476.6" rx="11.8" ry="4.1"/>
		
			<ellipse transform="matrix(0.9996 -2.736556e-02 2.736556e-02 0.9996 -12.4977 9.0635)" class="st2" cx="324.9" cy="461.1" rx="11.8" ry="3.4"/>
		
			<ellipse transform="matrix(0.9996 -2.736556e-02 2.736556e-02 0.9996 -12.5355 10.304)" class="st2" cx="370.2" cy="463.1" rx="11.8" ry="3.4"/>
		
			<ellipse transform="matrix(0.9996 -2.736556e-02 2.736556e-02 0.9996 -12.6313 7.8967)" class="st2" cx="282.2" cy="465.4" rx="11.8" ry="3.4"/>
		
			<ellipse transform="matrix(0.9996 -2.716502e-02 2.716502e-02 0.9996 -12.6037 8.5122)" class="st2" cx="307" cy="468.1" rx="11.8" ry="4.1"/>
		
			<ellipse transform="matrix(0.9996 -2.716502e-02 2.716502e-02 0.9996 -12.5766 9.5116)" class="st2" cx="343.8" cy="467.6" rx="11.8" ry="4.1"/>
		
			<ellipse transform="matrix(0.9996 -2.670168e-02 2.670168e-02 0.9996 -13.0722 8.9152)" class="st2" cx="327.3" cy="493.9" rx="12.6" ry="5.6"/>
		
			<ellipse transform="matrix(0.9996 -2.670168e-02 2.670168e-02 0.9996 -13.3104 9.4712)" class="st2" cx="348" cy="503.1" rx="12.6" ry="5.6"/>
		
			<ellipse transform="matrix(0.9996 -2.670168e-02 2.670168e-02 0.9996 -13.3572 8.3716)" class="st2" cx="306.8" cy="504.3" rx="12.6" ry="5.6"/>
		<ellipse class="st2" cx="346.6" cy="483.2" rx="11.8" ry="5.4"/>
		<ellipse class="st2" cx="365.8" cy="493" rx="12.3" ry="5.7"/>
		<ellipse class="st2" cx="287.3" cy="494.8" rx="12.3" ry="5.7"/>
		<path class="st2" d="M262.6,496.1c-6.7,0-12.1,2.5-12.3,5.5c5.4,1.9,11.9,3.5,19.2,4.8c3.2-1,5.3-2.7,5.3-4.7
			C274.9,498.6,269.4,496.1,262.6,496.1z"/>
		<path class="st2" d="M393.4,490.4c-6.8,0-12.3,2.5-12.3,5.7c0,2.6,3.9,4.8,9.1,5.5c5.9-1.6,11.1-3.5,15.5-5.4l0,0
			C405.7,493,400.2,490.4,393.4,490.4z"/>
		<ellipse class="st2" cx="365.8" cy="474.5" rx="11.8" ry="5.4"/>
		
			<ellipse transform="matrix(0.9996 -2.663396e-02 2.663396e-02 0.9996 -12.8072 8.3163)" class="st2" cx="305.8" cy="484.9" rx="11.8" ry="5.4"/>
		
			<ellipse transform="matrix(0.9996 -2.663414e-02 2.663414e-02 0.9996 -12.8934 7.0522)" class="st2" cx="258.3" cy="487.5" rx="11.8" ry="5.4"/>
		
			<ellipse transform="matrix(0.9996 -2.663396e-02 2.663396e-02 0.9996 -12.6933 10.8693)" class="st2" cx="401.7" cy="481.9" rx="11.8" ry="5.4"/>
		
			<ellipse transform="matrix(0.9996 -2.689303e-02 2.689303e-02 0.9996 -12.7129 6.9974)" class="st2" cx="253.8" cy="476.1" rx="11.8" ry="4.9"/>
		
			<ellipse transform="matrix(0.9996 -2.689303e-02 2.689303e-02 0.9996 -12.5126 10.6903)" class="st2" cx="391.2" cy="470.5" rx="11.8" ry="4.9"/>
		
			<ellipse transform="matrix(0.9996 -2.663396e-02 2.663396e-02 0.9996 -12.6231 7.7411)" class="st2" cx="284.3" cy="477.7" rx="11.8" ry="5.4"/>
		<path class="st2" d="M413.5,482.1l6.8-0.2c0,0,8.7-8.3,14.7,1"/>
		<line class="st2" x1="378.2" y1="483.2" x2="390" y2="482.9"/>
		<line class="st2" x1="372.4" y1="483.4" x2="358.3" y2="483.9"/>
		<line class="st2" x1="285.6" y1="486" x2="294" y2="485.6"/>
		<path class="st2" d="M246.5,487.1l-13.8,0.4c0,0-8.2-8.7-14.7,1.9"/>
		<line class="st2" x1="277.7" y1="486.4" x2="269.9" y2="486.5"/>
		<path class="st2" d="M325.5,452.2c1.1,1.1-0.7,5.5-0.7,5.5c2.7,0.7,1.1,6.8,1.1,6.8l1.3,45.4c0,0,4.4-0.9,4.2,7.7
			c-0.2,8.7-1.4,12-1.4,12"/>
		<path class="st2" d="M373,497.6l15.3,4.2c0,0,16.2-5.9,13.4,16.7"/>
		<line class="st2" x1="326.5" y1="484.8" x2="348.1" y2="490.8"/>
		<line class="st2" x1="296.1" y1="476.5" x2="307.5" y2="479.6"/>
		<path class="st2" d="M281.4,472.4l-17.2-4.7c0.3-3.9-3.5-6.8-8.6-5.2"/>
		<path class="st2" d="M379.1,460.6c0,0,0.2-5.3,9.8-3.9"/>
		<polyline class="st2" points="354.7,471.6 365.8,466.4 366.1,466.2 		"/>
		<line class="st2" x1="344.1" y1="476.5" x2="349.9" y2="473.8"/>
		<line class="st2" x1="304.4" y1="494.8" x2="330.1" y2="482.9"/>
		<path class="st2" d="M288.2,502.1l-11.5,5.3c0,0-14.8-2.4-11.4,17.9"/>
	</g>
</g>
<g id="Empty-box">
	<g>
		<polygon class="st1" points="511.8,428.8 480.1,435.6 476.3,429.1 		"/>
		<polygon class="st2" points="511.8,428.8 480.1,435.6 476.3,429.1 		"/>
		<polygon class="st0" points="510.1,308 482.9,168.4 491.7,150.7 614.6,185.5 631,217.2 651.7,357.4 		"/>
		<polygon class="st2" points="510.1,308 482.9,168.4 491.7,150.7 614.6,185.5 631,217.2 651.7,357.4 		"/>
		<polygon class="st0" points="510.1,308 501.3,328.4 642.9,377.5 651.8,357 		"/>
		<polygon class="st2" points="510.1,308 501.3,328.4 642.9,377.5 651.8,357 		"/>
		<path class="st3" d="M633.7,235.8l-7.9,15c-0.4,2.3-0.8,4.5-1.2,6.8L640,367l11.8-9.8L633.7,235.8z"/>
		<path class="st2" d="M633.7,235.8l-7.9,15c-0.4,2.3-0.8,4.5-1.2,6.8L640,367l11.8-9.8L633.7,235.8z"/>
		<path class="st0" d="M487.6,192.6l-9.8,5c-1,2.2-1.2,4-2.3,6.3l17.7,113.7l16.9-9.6L487.6,192.6z"/>
		<path class="st2" d="M486.4,186.2l-13.7,7.5c-1,2.2-1.8,3.8-2.8,6l23.4,117.8l16.9-9.6L486.4,186.2z"/>
		<ellipse transform="matrix(0.3825 -0.924 0.924 0.3825 26.2754 690.084)" class="st3" cx="529.4" cy="325.4" rx="5" ry="3.6"/>
		<polygon class="st1" points="501.4,304.2 501.3,328.4 611.1,366.5 642.9,377.5 511.8,428.8 480.1,429.1 480.1,435.6 350.2,386.1 
			350.3,362 360.7,361.5 364.9,349.2 		"/>
		<ellipse transform="matrix(0.3825 -0.924 0.924 0.3825 52.2647 790.5917)" class="st3" cx="617.6" cy="356.2" rx="5" ry="3.6"/>
		<path class="st3" d="M491.7,150.7l-26.5,8.7l35.7,10.5c1.3-4.2,13.9-4.3,28.2-0.1c14.3,4.2,24.8,11.1,23.6,15.4l35.7,10.5
			l26.2-10.2L491.7,150.7z"/>
		<polygon class="st0" points="364.9,349.2 364.9,354.2 501.5,309.5 501.3,328.4 619.6,369.5 512,412.6 476.4,413.1 480.1,419.4 
			350.3,362 360.7,361.5 		"/>
		<polygon class="st2" points="364.9,373 501.3,328.4 642.9,377.5 511.8,428.8 		"/>
		<polygon class="st3" points="476.4,405.1 512,404.6 511.8,428.8 476.3,429.1 		"/>
		<polygon class="st3" points="642.9,354.2 512,404.6 511.8,428.8 642.9,377.5 		"/>
		<polygon class="st2" points="642.9,354.2 512,404.6 511.8,428.8 642.9,377.5 		"/>
		<polygon class="st2" points="476.4,405.1 512,404.6 511.8,428.8 476.3,429.1 		"/>
		<path d="M528.6,388.6l-6.7,4.4l-23.9-1.8c-4.1-0.3-5.1-3.9-1.2-4.6l21.9-4.4l7.8,1.7C529.7,384.6,530.8,387.2,528.6,388.6z"/>
		<path class="st3" d="M522.9,381.8l-4.9,7.1l-20.3,1.6c-3.5,0.3-4.9-4.4-1.8-6.1l17.6-9.8l6.8,1
			C523.1,376.1,524.6,379.4,522.9,381.8z"/>
		<path d="M530,361.5L530,361.5c-0.8,0.6-2,0.8-3.2,0.7l-15-2c-2.8-0.4-4.5-2.7-3.2-4.4l2-2.8c1.1-1.5,4-1.8,5.9-0.6l4.1,2.5
			c0.5,0.3,1.1,0.5,1.7,0.6l5.4,1C531,357,532.2,359.9,530,361.5z"/>
		<path class="st3" d="M525.8,357.2L525.8,357.2c-0.5,0.8-1.4,1.3-2.3,1.4l-11.8,0.9c-2.2,0.2-3.9-1.9-3.3-4l1-3.4
			c0.6-1.9,2.7-2.8,4.4-1.9l3.6,1.8c0.4,0.2,0.9,0.3,1.4,0.3h4.3C525.8,352.2,527.3,355.2,525.8,357.2z"/>
		<path d="M425.1,375.4l-4.1,2.4c-0.8,0.5-2.1,0.4-3-0.2l-4.9-3.6c-1.1-0.8-0.7-2,0.8-2.2l3.4-0.5c0.4-0.1,0.9,0,1.3,0.1l5.6,1.7
			C425.8,373.5,426.2,374.8,425.1,375.4z"/>
		<path class="st3" d="M421.5,372.1l-2.2,3.1c-0.4,0.6-1.3,0.8-1.9,0.3l-3.7-2.6c-0.8-0.6-0.8-1.8,0.1-2.3l2.1-1.1
			c0.3-0.1,0.6-0.2,0.9-0.2l3.8,0.6C421.5,370.1,422,371.4,421.5,372.1z"/>
		<polygon class="st2" points="364.9,349.2 501.4,304.2 501.3,328.4 611.1,366.5 512,404.6 476.4,405.1 480.1,411.5 350.3,362 
			360.7,361.5 		"/>
		<line class="st2" x1="364.9" y1="349.2" x2="364.9" y2="372.9"/>
		<polygon class="st3" points="480.1,411.5 480.1,435.6 350.2,386.1 350.3,362 		"/>
		<polygon class="st2" points="480.1,411.5 480.1,435.6 350.2,386.1 350.3,362 		"/>
		<path d="M512.6,395.9l1.9-0.7c3-1,2.8-3.1-0.5-4.3l0,0c-0.8-0.3-1.7-0.5-2.7-0.6l-3.2-0.4c-5.2-0.7-9,1.5-6.6,3.7l1.2,1.1
			C504.8,396.1,509.6,396.9,512.6,395.9z"/>
		<path class="st3" d="M509.6,391.9l0.5-1.6c0.8-2.5-0.9-5-3.4-5.3l0,0c-0.6-0.1-1.3,0-1.8,0.2l-1.9,0.7c-3.1,1.2-3.5,5.5-0.6,7.2
			l1.4,0.9C505.9,395.5,508.8,394.4,509.6,391.9z"/>
		<path d="M457.4,356c-4.8,0.4-6.1,3.4-3.6,5.8s18.8,3.3,21.9,3.9c3.1,0.6,0.6-4.9,0.6-4.9s2.9-4-2.6-5
			C468.3,354.8,460.5,355.8,457.4,356z"/>
		<path class="st3" d="M454.9,350.7c-3.7,1.5-4.3,6.5-2.2,9.7c2.2,3.2,14.7,1.4,17.1,1.6s0-7.7,0-7.7s1.8-6.8-2.5-7.3
			S457.2,349.7,454.9,350.7z"/>
		<path class="st2" d="M458.7,357.9c0.9-0.9,8.2-4.2,11.1-3.6"/>
		<path d="M496.3,364.5c0,0,6.1,2.3,9.3,2.8c3.1,0.5,5.7,0.8,6-1.3c0.3-2.1-1.9-4.2-5-4.7S496.3,364.5,496.3,364.5z"/>
		<path class="st3" d="M496.5,364.5c0,0,4.9,1,7.3,1s4.3-0.1,4.3-1.8c0-1.7-1.9-3.1-4.3-3.1S496.5,364.5,496.5,364.5z"/>
	</g>
</g>
<g id="Full-box">
	<g>
		<polygon class="st0" points="187.4,308 160.2,168.4 169,150.7 291.8,185.5 308.2,217.2 328.9,357.4 		"/>
		<polygon class="st2" points="187.4,308 160.2,168.4 169,150.7 291.8,185.5 308.2,217.2 328.9,357.4 		"/>
		<polygon class="st0" points="187.4,308 178.5,328.4 320.1,377.5 329.1,357 		"/>
		<polygon class="st2" points="187.4,308 178.5,328.4 320.1,377.5 329.1,357 		"/>
		<path class="st3" d="M311,235.8l-7.9,15c-0.4,2.3-0.8,4.5-1.2,6.8L317.3,367l11.8-9.8L311,235.8z"/>
		<path class="st2" d="M311,235.8l-7.9,15c-0.4,2.3-0.8,4.5-1.2,6.8L317.3,367l11.8-9.8L311,235.8z"/>
		<path class="st0" d="M164.9,192.6l-9.8,5c-1,2.2-1.2,4-2.3,6.3l17.7,113.7l16.9-9.6L164.9,192.6z"/>
		<path class="st2" d="M163.6,186.2l-13.7,7.5c-1,2.2-1.8,3.8-2.8,6l23.4,117.8l16.9-9.6L163.6,186.2z"/>
		<ellipse transform="matrix(0.3825 -0.924 0.924 0.3825 -172.9901 391.8762)" class="st3" cx="206.7" cy="325.4" rx="5" ry="3.6"/>
		<polygon class="st1" points="178.7,304.2 178.5,328.4 288.4,366.5 320.1,377.5 189.1,428.8 157.4,429.1 157.3,435.6 27.5,386.1 
			27.5,362 38,361.5 42.2,349.2 		"/>
		<ellipse transform="matrix(0.3825 -0.924 0.924 0.3825 -147.0005 492.3839)" class="st3" cx="294.9" cy="356.2" rx="5" ry="3.6"/>
		<path class="st3" d="M169,150.7l-26.6,8.7l35.7,10.5c1.3-4.2,13.9-4.3,28.2-0.1c14.3,4.2,24.8,11.1,23.6,15.4l35.7,10.5l26.2-10.2
			L169,150.7z"/>
		<polygon class="st0" points="42.2,349.2 42.2,354.2 178.7,309.5 178.5,328.4 296.9,369.5 189.2,412.6 153.6,413.1 157.4,419.4 
			27.5,362 38,361.5 		"/>
		<polygon points="42.2,373 178.5,328.4 320.1,377.5 189.1,428.8 		"/>
		<polygon class="st2" points="42.2,373 178.5,328.4 320.1,377.5 189.1,428.8 		"/>
		<polygon class="st2" points="42.2,349.2 178.7,304.2 178.5,328.4 288.4,366.5 189.2,404.6 153.6,405.1 157.4,411.5 27.5,362 
			38,361.5 		"/>
		<line class="st2" x1="42.2" y1="349.2" x2="42.2" y2="372.9"/>
		<g>
			<path class="st0" d="M283.7,362c-0.6-18.7-49.6-32.5-109.6-30.7c-60,1.8-108.1,18.4-107.5,37.2c0,1.6,0.2,8,0.3,9.6
				c0.6,18.7,49.6,32.5,109.6,30.7s108.1-18.4,107.5-37.2C283.9,370,283.7,363.7,283.7,362z"/>
			<path class="st1" d="M279.2,358.5c0.8-11.8-39.8-30.2-104.7-27.3c-60.9,2.7-104.4,19.4-104.4,34.5c0,13.6,47.1,28,105.2,27
				C225.4,392,278.2,373.6,279.2,358.5z"/>
			<path class="st2" d="M283.7,362c-0.6-18.7-49.6-32.5-109.6-30.7c-60,1.8-108.1,18.4-107.5,37.2c0,1.6,0.2,8,0.3,9.6
				c0.6,18.7,49.6,32.5,109.6,30.7s108.1-18.4,107.5-37.2C283.9,370,283.7,363.7,283.7,362z"/>
			
				<ellipse transform="matrix(0.9996 -2.973643e-02 2.973643e-02 0.9996 -10.7395 5.3679)" class="st3" cx="175.1" cy="363.8" rx="93.9" ry="25.2"/>
			
				<ellipse transform="matrix(0.9996 -2.716502e-02 2.716502e-02 0.9996 -9.5968 4.8605)" class="st0" cx="174.1" cy="355.6" rx="11.8" ry="4.1"/>
			
				<ellipse transform="matrix(0.9996 -2.736556e-02 2.736556e-02 0.9996 -9.2432 4.8779)" class="st0" cx="173.6" cy="340.1" rx="11.8" ry="3.4"/>
			
				<ellipse transform="matrix(0.9996 -2.736556e-02 2.736556e-02 0.9996 -9.2782 6.1182)" class="st0" cx="218.9" cy="342" rx="11.8" ry="3.4"/>
			
				<ellipse transform="matrix(0.9996 -2.736556e-02 2.736556e-02 0.9996 -9.3769 3.7084)" class="st0" cx="130.8" cy="344.4" rx="11.8" ry="3.4"/>
			
				<ellipse transform="matrix(0.9996 -2.716502e-02 2.716502e-02 0.9996 -9.3727 4.3576)" class="st0" cx="155.7" cy="347.1" rx="11.8" ry="4.1"/>
			
				<ellipse transform="matrix(0.9996 -2.716502e-02 2.716502e-02 0.9996 -9.3455 5.3571)" class="st0" cx="192.5" cy="346.6" rx="11.8" ry="4.1"/>
			
				<ellipse transform="matrix(0.9996 -2.670168e-02 2.670168e-02 0.9996 -9.8953 4.8323)" class="st0" cx="176" cy="372.9" rx="12.6" ry="5.6"/>
			
				<ellipse transform="matrix(0.9996 -2.670168e-02 2.670168e-02 0.9996 -10.1336 5.3882)" class="st0" cx="196.7" cy="382.1" rx="12.6" ry="5.6"/>
			
				<ellipse transform="matrix(0.9996 -2.670168e-02 2.670168e-02 0.9996 -10.1776 4.2885)" class="st0" cx="155.5" cy="383.2" rx="12.6" ry="5.6"/>
			<ellipse class="st0" cx="195.2" cy="362.2" rx="11.8" ry="5.4"/>
			<ellipse class="st0" cx="214.4" cy="372" rx="12.3" ry="5.7"/>
			<ellipse class="st0" cx="135.9" cy="373.8" rx="12.3" ry="5.7"/>
			<path class="st0" d="M111.2,375.1c-6.7,0-12.1,2.5-12.3,5.5c5.4,1.9,11.9,3.5,19.2,4.8c3.2-1,5.3-2.7,5.3-4.7
				C123.5,377.6,118,375.1,111.2,375.1z"/>
			<path class="st0" d="M242.1,369.4c-6.8,0-12.3,2.5-12.3,5.7c0,2.6,3.9,4.8,9.1,5.5c5.9-1.6,11.1-3.5,15.5-5.4l0,0
				C254.4,372,248.9,369.4,242.1,369.4z"/>
			<ellipse class="st0" cx="214.4" cy="353.5" rx="11.8" ry="5.4"/>
			
				<ellipse transform="matrix(0.9996 -2.663396e-02 2.663396e-02 0.9996 -9.6384 4.2412)" class="st0" cx="154.4" cy="363.9" rx="11.8" ry="5.4"/>
			
				<ellipse transform="matrix(0.9996 -2.663396e-02 2.663396e-02 0.9996 -9.7245 2.9771)" class="st0" cx="106.9" cy="366.5" rx="11.8" ry="5.4"/>
			
				<ellipse transform="matrix(0.9996 -2.663414e-02 2.663414e-02 0.9996 -9.5244 6.7969)" class="st0" cx="250.4" cy="360.9" rx="11.8" ry="5.4"/>
			
				<ellipse transform="matrix(0.9996 -2.689303e-02 2.689303e-02 0.9996 -9.5111 2.8821)" class="st0" cx="102.4" cy="355" rx="11.8" ry="4.9"/>
			
				<ellipse transform="matrix(0.9996 -2.689303e-02 2.689303e-02 0.9996 -9.3135 6.5751)" class="st0" cx="239.8" cy="349.5" rx="11.8" ry="4.9"/>
			
				<ellipse transform="matrix(0.9996 -2.663396e-02 2.663396e-02 0.9996 -9.4543 3.666)" class="st0" cx="132.9" cy="356.7" rx="11.8" ry="5.4"/>
			
				<ellipse transform="matrix(0.9996 -2.716502e-02 2.716502e-02 0.9996 -9.5968 4.8605)" class="st2" cx="174.1" cy="355.6" rx="11.8" ry="4.1"/>
			
				<ellipse transform="matrix(0.9996 -2.736556e-02 2.736556e-02 0.9996 -9.2432 4.8779)" class="st2" cx="173.6" cy="340.1" rx="11.8" ry="3.4"/>
			
				<ellipse transform="matrix(0.9996 -2.736556e-02 2.736556e-02 0.9996 -9.2782 6.1182)" class="st2" cx="218.9" cy="342" rx="11.8" ry="3.4"/>
			
				<ellipse transform="matrix(0.9996 -2.736556e-02 2.736556e-02 0.9996 -9.3769 3.7084)" class="st2" cx="130.8" cy="344.4" rx="11.8" ry="3.4"/>
			
				<ellipse transform="matrix(0.9996 -2.716502e-02 2.716502e-02 0.9996 -9.3727 4.3576)" class="st2" cx="155.7" cy="347.1" rx="11.8" ry="4.1"/>
			
				<ellipse transform="matrix(0.9996 -2.716502e-02 2.716502e-02 0.9996 -9.3455 5.3571)" class="st2" cx="192.5" cy="346.6" rx="11.8" ry="4.1"/>
			
				<ellipse transform="matrix(0.9996 -2.670168e-02 2.670168e-02 0.9996 -9.8953 4.8323)" class="st2" cx="176" cy="372.9" rx="12.6" ry="5.6"/>
			
				<ellipse transform="matrix(0.9996 -2.670168e-02 2.670168e-02 0.9996 -10.1336 5.3882)" class="st2" cx="196.7" cy="382.1" rx="12.6" ry="5.6"/>
			
				<ellipse transform="matrix(0.9996 -2.670168e-02 2.670168e-02 0.9996 -10.1776 4.2885)" class="st2" cx="155.5" cy="383.2" rx="12.6" ry="5.6"/>
			<ellipse class="st2" cx="195.2" cy="362.2" rx="11.8" ry="5.4"/>
			<ellipse class="st2" cx="214.4" cy="372" rx="12.3" ry="5.7"/>
			<ellipse class="st2" cx="135.9" cy="373.8" rx="12.3" ry="5.7"/>
			<path class="st2" d="M111.2,375.1c-6.7,0-12.1,2.5-12.3,5.5c5.4,1.9,11.9,3.5,19.2,4.8c3.2-1,5.3-2.7,5.3-4.7
				C123.5,377.6,118,375.1,111.2,375.1z"/>
			<path class="st2" d="M242.1,369.4c-6.8,0-12.3,2.5-12.3,5.7c0,2.6,3.9,4.8,9.1,5.5c5.9-1.6,11.1-3.5,15.5-5.4l0,0
				C254.4,372,248.9,369.4,242.1,369.4z"/>
			<ellipse class="st2" cx="214.4" cy="353.5" rx="11.8" ry="5.4"/>
			
				<ellipse transform="matrix(0.9996 -2.663396e-02 2.663396e-02 0.9996 -9.6384 4.2412)" class="st2" cx="154.4" cy="363.9" rx="11.8" ry="5.4"/>
			
				<ellipse transform="matrix(0.9996 -2.663396e-02 2.663396e-02 0.9996 -9.7245 2.9771)" class="st2" cx="106.9" cy="366.5" rx="11.8" ry="5.4"/>
			
				<ellipse transform="matrix(0.9996 -2.663414e-02 2.663414e-02 0.9996 -9.5244 6.7969)" class="st2" cx="250.4" cy="360.9" rx="11.8" ry="5.4"/>
			
				<ellipse transform="matrix(0.9996 -2.689303e-02 2.689303e-02 0.9996 -9.5111 2.8821)" class="st2" cx="102.4" cy="355" rx="11.8" ry="4.9"/>
			
				<ellipse transform="matrix(0.9996 -2.689303e-02 2.689303e-02 0.9996 -9.3135 6.5751)" class="st2" cx="239.8" cy="349.5" rx="11.8" ry="4.9"/>
			
				<ellipse transform="matrix(0.9996 -2.663396e-02 2.663396e-02 0.9996 -9.4543 3.666)" class="st2" cx="132.9" cy="356.7" rx="11.8" ry="5.4"/>
			<path class="st2" d="M262.1,361.2l6.8-0.2c0,0,8.7-8.3,14.7,1"/>
			<line class="st2" x1="226.9" y1="362.2" x2="238.6" y2="361.9"/>
			<line class="st2" x1="221" y1="362.4" x2="207" y2="362.8"/>
			<line class="st2" x1="134.2" y1="365" x2="142.6" y2="364.7"/>
			<path class="st2" d="M95.2,366.2l-13.8,0.4c0,0-8.2-8.7-14.7,1.9"/>
			<line class="st2" x1="126.3" y1="365.4" x2="118.6" y2="365.5"/>
			<path class="st2" d="M174.1,331.2c1.1,1.1-0.7,5.5-0.7,5.5c2.7,0.7,1.1,6.8,1.1,6.8l1.3,45.4c0,0,4.4-0.9,4.2,7.7
				c-0.2,8.7-1.4,12-1.4,12"/>
			<path class="st2" d="M221.6,376.5l15.3,4.2c0,0,16.2-5.9,13.4,16.7"/>
			<line class="st2" x1="175.1" y1="363.8" x2="196.8" y2="369.6"/>
			<line class="st2" x1="144.8" y1="355.5" x2="156.2" y2="358.5"/>
			<path class="st2" d="M130,351.4l-17.2-4.7c0.3-3.9-3.5-6.8-8.6-5.2"/>
			<path class="st2" d="M227.7,339.5c0,0,0.2-5.3,9.8-3.9"/>
			<polyline class="st2" points="203.4,350.5 214.4,345.4 214.7,345.2 			"/>
			<line class="st2" x1="192.7" y1="355.5" x2="198.5" y2="352.8"/>
			<line class="st2" x1="153" y1="373.8" x2="178.7" y2="361.9"/>
			<path class="st2" d="M136.9,381.1l-11.5,5.3c0,0-14.8-2.4-11.4,17.9"/>
		</g>
		<polygon class="st1" points="189.1,428.8 157.3,435.6 153.6,429.1 		"/>
		<polygon class="st3" points="153.6,405.1 189.2,404.6 189.1,428.8 153.6,429.1 		"/>
		<polygon class="st2" points="153.6,405.1 189.2,404.6 189.1,428.8 153.6,429.1 		"/>
		<polygon class="st2" points="189.1,428.8 157.3,435.6 153.6,429.1 		"/>
		<polygon class="st3" points="320.1,354.2 189.2,404.6 189.1,428.8 320.1,377.5 		"/>
		<polygon class="st2" points="320.1,354.2 189.2,404.6 189.1,428.8 320.1,377.5 		"/>
		<polygon class="st3" points="157.4,411.5 157.3,435.6 27.5,386.1 27.5,362 		"/>
		<polygon class="st2" points="157.4,411.5 157.3,435.6 27.5,386.1 27.5,362 		"/>
	</g>
</g>
</svg>
