<?xml version="1.0" encoding="utf-8"?>
<!-- Generator: Adobe Illustrator 22.0.1, SVG Export Plug-In . SVG Version: 6.00 Build 0)  -->
<svg version="1.1" id="Layer_1" xmlns="http://www.w3.org/2000/svg" xmlns:xlink="http://www.w3.org/1999/xlink" x="0px" y="0px"
	 viewBox="0 0 553.9 553.9" style="enable-background:new 0 0 553.9 553.9;" xml:space="preserve">
<style type="text/css">
	.st0{fill:#FFFFFF;stroke:#000000;stroke-width:1.5;stroke-linecap:round;stroke-linejoin:round;stroke-miterlimit:10;}
	.st1{fill:#FF6900;}
	.st2{fill:none;stroke:#000000;stroke-width:1.5;stroke-miterlimit:10;}
	.st3{fill:none;stroke:#000000;stroke-width:1.5;stroke-linecap:round;stroke-linejoin:round;stroke-miterlimit:10;}
	.st4{fill:#FFFFFF;}
	.st5{stroke:#000000;stroke-width:1.5;stroke-miterlimit:10;}
</style>
<g id="Man">
	<path class="st0" d="M259.7,209.7c0,0-10.9,13.6-12.2,13.9c-1.3,0.4-14.9-18.2-20.3-30.4c-6.2-13.9-7.6-14.9-5.7-25.9
		c1.2-7.1-0.1-14.1,0.4-17.4c0.3-2.3-4-1.1-4.4,2.9c0,0.3-0.1,0.6-0.1,0.9c0,0-6.6-21.4-8.4-20.9s-0.8,4.4,1.1,11.7
		c1,4,1.1,5.2,1.1,5.2s-3.8-1.6-4.9,1.3c0,0-3.8-1.5-5.1,1.9c0,0-4.3-1.3-4.3,5.3s1.7,11.7,4.3,15.2c7.7,10.5,27.1,67.6,39.7,71.8
		c12.6,4.1,32.5-23.3,32.5-23.3L259.7,209.7z"/>
	<path class="st0" d="M303.5,205.1c0,0,27.2,8.9,31.9,20.2c3.9,9.4-6.3,24.2-6.8,24.8s-3.1,45.2-11.9,50.6l-43.8-14.8
		c0,0-10.3-49.1-5.6-64.8c0,0-9.5-6.7-9.7-12.6c0,0,12.8-14.2,26-9.8l4.6,2L303.5,205.1z"/>
	<path class="st1" d="M304.9,208.2c0,0,26.3,11.5,27.8,21.2c1.1,7.4-3.6,20.2-4.1,20.7c-0.5,0.6-3.1,45.2-11.9,50.6l-39.8-14
		c0,0-11.1-48.3-6.4-64c0,0-8.8-4.5-11-10.8c0,0,14.5-14.2,27.7-9.8l4.9-0.6L304.9,208.2z"/>
	<path class="st0" d="M258.8,207.3c0,0-2-0.9-5.7,2.8c0,0,0.9,13.7,12.5,18.9c5.7,2.6,1.9-8.6,1.9-8.6S259.9,215.5,258.8,207.3z"/>
	<path d="M259.9,211.4c0,0-2.3-0.4-6,3.3c0,0,0,9.2,11.6,14.4c5.7,2.6,1.9-8.6,1.9-8.6S262.3,217.2,259.9,211.4z"/>
	<path class="st2" d="M258.8,207.3c0,0-2-0.9-5.7,2.8c0,0,0.9,13.7,12.5,18.9c5.7,2.6,1.9-8.6,1.9-8.6S259.9,215.5,258.8,207.3z"/>
	<path class="st0" d="M285.4,475.8c0,0,3.2,10.5,9.1,17.8c5.8,7.3,3,13.5,3,13.5l-11.2,3.1l-11-9.7c0,0,1-5.5-1.6-12.4
		s-4.3-12.2-4.3-12.2L285.4,475.8z"/>
	<path class="st0" d="M228.5,343.1c0.6,5.8,5.4,11.6,7.1,15.3l-0.6,8.8l-11.1,2.4c0,0-5.6-5.3-9.8-24.8L228.5,343.1z"/>
	<path class="st0" d="M232.6,353.1c0,0,6.6,2.5,11,10.5c0,0,3.5-0.3,4.4,2.4c2,6.5-7.9,13.5-10.7,12.3l-2.8,4.1
		c2.5,5.5-8.7,21.7-25.2,23.2s-1.3-11.3-0.6-13.3s3.4-27.3,8.8-32.6c3.8-3.8,14.5,3,14.5,3S236.9,359.7,232.6,353.1z"/>
	<path d="M234.2,357.2c0,0,4.4,2.3,8.3,7.6c0,0,4.5-1.5,5.4,1.3c2,6.5-7.9,13.5-10.7,12.3l-2.8,4.1c2.5,5.5-8.7,21.7-25.2,23.2
		s2.2-11.2,2.8-13.1c0.7-1.9,3.3-25.9,8.7-31.2c3.8-3.8,11.1,1.4,11.1,1.4S234.7,359.7,234.2,357.2z"/>
	<path class="st2" d="M232.6,353.1c0,0,6.6,2.5,11,10.5c0,0,3.5-0.3,4.4,2.4c2,6.5-7.9,13.5-10.7,12.3l-2.8,4.1
		c2.5,5.5-8.7,21.7-25.2,23.2s-1.3-11.3-0.6-13.3s3.4-27.3,8.8-32.6c3.8-3.8,14.5,3,14.5,3S236.9,359.7,232.6,353.1z"/>
	<path class="st0" d="M295.9,493.4c5.2,1.6,8.2,7.2,9.8,13.3c0,0,4.2-0.7,4.8,4.4c0.7,5-7.6,12-11.4,12.1c-2.1,0-3.9-1.4-3.9-1.4
		l-5.2,2.8c0,0,1.3,5.2-13.1,10.8c-16.1,6.3-22.2,5.9-25.1,2.4s4.7-7,7.8-10.3s8.9-25.1,14.5-28.2c5.6-3.1,13.6,7.3,13.6,7.3
		s7.8-0.3,9.3-4.6C298.5,497.8,295.9,493.4,295.9,493.4z"/>
	<path d="M297.3,497.2c5.2,1.6,6.6,8.2,7.3,10.4c0,0,5.3-1.6,6,3.5c0.7,5-7.6,12-11.4,12.1c-2.1,0-3.9-1.4-3.9-1.4l-5.2,2.8
		c0,0,1.3,5.2-13.1,10.8c-16.1,6.3-22.2,5.9-25.1,2.4s6.8-5.8,9.9-9.1c3.2-3.3,10.5-25.2,16.2-28.1c4-2.1,9.8,6,9.8,6
		s7.8-0.3,9.3-4.6C298.5,497.8,297.3,497.2,297.3,497.2z"/>
	<path class="st2" d="M295.9,493.4c5.2,1.6,8.2,7.2,9.8,13.3c0,0,4.2-0.7,4.8,4.4c0.7,5-7.6,12-11.4,12.1c-2.1,0-3.9-1.4-3.9-1.4
		l-5.2,2.8c0,0,1.3,5.2-13.1,10.8c-16.1,6.3-22.2,5.9-25.1,2.4s4.7-7,7.8-10.3s8.9-25.1,14.5-28.2c5.6-3.1,13.6,7.3,13.6,7.3
		s7.8-0.3,9.3-4.6C298.5,497.8,295.9,493.4,295.9,493.4z"/>
	<path class="st1" d="M283.7,331c0,0-26.6,1.5-57.9-27.3c0,0,6.2,23.3,4.6,41.1c0,0-5.6,3-12.6,4.2c0,0-18.5-56.4-21-77.7
		c-1.3-10.7,7.5-8.1,12-6.3c5.8,2.3,60.9,30.9,64.5,32.9c3.6,2,36.4,4.2,36.4,4.2s10.4,32.5,8.7,45.3c-1.8,12.8-46.2,59.7-46.6,62.8
		c-0.4,3,11.7,27.1,15.5,65.3c0,0-4.9,13.3-18.9,7.6c0,0-3.2-16.9-4.2-19.9s-16.9-47.4-15-58.6C251.2,393.3,283.7,331,283.7,331z"/>
	<path class="st3" d="M223.9,267.8c18.9,9.1,45.5,22.3,48,23.7c3.7,2,44.8,9.3,44.8,9.3s6.4,30.6,4.6,43.5
		c-1.8,12.8-49,62.9-49.4,65.9c-0.4,3,11.4,27.1,15.5,65.3c0,0-4.8,14.9-21.7,6.4c0,0-3.4-16.5-4.4-19.5c-1.1-3-17.7-47.4-15.8-58.6
		c2-11.2,34.5-74,34.5-74s-21.5,2.9-54.1-25.9c0,0,6.2,23.3,4.6,41.1c0,0-8.2,4.6-16.1,4.3c0,0-20.2-58.7-22.9-80.1
		c-1.3-10.7,9.4-11.5,14.1-9.8c0.8,0.3,2.6,1.1,5.1,2.3"/>
	<path class="st4" d="M316.5,315.6c3.4-16.3,2.1-27,1.6-29.7c0-0.3-0.1-0.6-0.1-0.7c-0.7-1.1-23.8-9.6-18.6-40.8
		c2.2-13.1,15-25.2,24-31.4c-1.4-1.2-4-2.6-5.2-2.7c-7.9,5.9-17.2,15.3-22,26.1c-1.9,4.4-24.7-7.7-23.9-12.7c0.7-4,4.8-14,15.3-23.2
		l-4-1.8c-0.1,0-0.3-0.1-0.4-0.1c-3.5,2.6-13.1,10.5-15.9,22.5c-3.6,11.8,1.5,42.8,4.2,57.2l0,0c-3.3,3.4,1.5,7.5,1.5,7.5
		c-5.4-3.9-7.5,0.9-7.5,0.9c-30.5-22.1-34.6-15.5-34.6-15.5c19.9,13.2,23,67.4,33.7,83.7c10.7,16.3,37,14.8,37,14.8s-1.6-7.5,0-19.8
		C303.6,335.7,314,327.6,316.5,315.6z"/>
	<path d="M315.6,312.3c3.4-16.3,3-23.7,2.6-26.4c0-0.3-0.1-0.6-0.1-0.7c-0.7-1.1-26-10-18.6-40.8c3.1-13,11.3-22.5,20.3-28.7
		c-1.4-1.2-3.6-2.6-4.9-2.8c-7.9,5.9-14.6,15.7-19.4,26.5c-1.9,4.4-24.7-7.7-23.9-12.7c0.7-4,3.4-15.1,13.8-24.2
		c0,0-5.8-1.2-5.9-1.3c-3.5,2.6-9.6,7.9-12.3,20c-3.6,11.8,1.5,42.8,4.2,57.2l0,0c-3.3,3.4,1.5,7.5,1.5,7.5
		c-5.4-3.9-6.8,5.5-6.8,5.5c-30.4-22.2-31-16.7-31-16.7c13.6,10.9,18.9,63.9,29.6,80.2c10.7,16.3,31.9,15.2,31.9,15.2
		s-1.6-7.5,0-19.8C298.5,336.2,313.1,324.3,315.6,312.3z"/>
	<path class="st2" d="M316.5,315.6c3.4-16.3,2.1-27,1.6-29.7c0-0.3-0.1-0.6-0.1-0.7c-0.7-1.1-23.8-9.6-18.6-40.8
		c2.2-13.1,15-25.2,24-31.4c-1.4-1.2-4-2.6-5.2-2.7c-7.9,5.9-17.2,15.3-22,26.1c-1.9,4.4-24.7-7.7-23.9-12.7c0.7-4,4.8-14,15.3-23.2
		l-4-1.8c-0.1,0-0.3-0.1-0.4-0.1c-3.5,2.6-13.1,10.5-15.9,22.5c-3.6,11.8,1.5,42.8,4.2,57.2l0,0c-3.3,3.4,1.5,7.5,1.5,7.5
		c-5.4-3.9-7.5,0.9-7.5,0.9c-30.5-22.1-34.6-15.5-34.6-15.5c19.9,13.2,23,67.4,33.7,83.7c10.7,16.3,37,14.8,37,14.8s-1.6-7.5,0-19.8
		C303.6,335.7,314,327.6,316.5,315.6z"/>
	<path class="st0" d="M303.7,248.3c0,0-9,10.3-10.1,10.1s-28.5-30.3-32.5-34.5c-3.9-4.2-4.4-4.8-4.9-6.8c-0.6-2-0.7-7.9-0.9-9.8
		c-0.3-1.9-1.6-11.3-2.2-12.8c-0.2-0.7-1.4-0.3-2,2c0,0-2.1-10.6-3.1-11s-1.9,2.4-1.9,3.3c0,0-0.6-5.5-2.7-5.8
		c-2.1-0.4-0.3,8.1-0.1,11.1c0.3,3,0.1,6.6,0.1,6.6s-2.8-5.1-3.4-5.7c-0.5-0.6-5-8.4-6-8.5s-1.5,3.3,3.6,11.6
		c2.3,3.8,2.7,7.9,3.9,12.3c0,0-4.5-4.2-7.3-4.4s2.5,6.7,4.6,9.3c2,2.5,3.5,7.8,5.3,9.6s6.7,4,8.7,5.5c1.9,1.5,31,53.1,38.3,54.7
		c7.3,1.6,25.6-21.3,27.2-23.3C320,259.9,303.7,248.3,303.7,248.3z"/>
	<path class="st3" d="M246.1,188.8c0,0,1.3,10.6,1.4,12.2"/>
	<path class="st0" d="M300.5,251.9c-1-0.3,3.2-6.6,3.7-6.5s15.5,6.6,20.1,14.8c0,0-4.1,6.1-6.2,6.4c-1.2,0.2-2.5-0.4-2.7-1.1
		l1.3-1.6C313.8,260.2,308.3,254.1,300.5,251.9z"/>
	<path d="M303.6,253c-1-0.3,3.1-6.4,3.6-6.3c0.5,0.1,12.6,5.2,17.2,13.5c0,0-4.1,6.1-6.2,6.4c-1.2,0.2-2.5-0.4-2.7-1.1l1.3-1.6
		C313.8,260.2,311.3,255.2,303.6,253z"/>
	<path class="st2" d="M300.5,251.9c-1-0.3,3.2-6.6,3.7-6.5s15.5,6.6,20.1,14.8c0,0-4.1,6.1-6.2,6.4c-1.2,0.2-2.5-0.4-2.7-1.1
		l1.3-1.6C313.8,260.2,308.3,254.1,300.5,251.9z"/>
	<path class="st3" d="M330.1,246.5c0,0-3.7,11.5-5.7,13.7"/>
	<path class="st3" d="M304.2,245.4c0,0,2.3-3.9,3-8"/>
	<path class="st3" d="M217.4,153.7c-0.3,4.4-1.4,8.1-3.1,10.2c-1.8,2.3-2.4,8-2.4,8"/>
	<path class="st3" d="M211.1,149.6c1,1.4,6.2,10.9,3.2,14.3"/>
	<path class="st3" d="M213,166.5c-1,3.3-4.2-1.6-4.5-2.6"/>
	<path class="st5" d="M302.9,202.9c1.8,0.5,4,2,4,4.7s-6.3,18.3-12.8,22.5c0,0-2.8-8.5-6.2-11c0,0,13.8-6.8,15.4-12.1L302.9,202.9z"
		/>
	<path class="st5" d="M288,200c0,0-11.5,13.2-9.4,22.7c0,0,3.6-5.1,9.3-3.6C287.9,219.1,289.9,212.4,288,200z"/>
	<path class="st0" d="M296.2,515.5c-3.8,0.8-6.9-1.5-12.3,2.7c-5.4,4.2-15.7,21.8-32,19.6c2.9,3.5,9,3.9,25.1-2.4
		c14.4-5.6,13.1-10.8,13.1-10.8l5.2-2.8c0,0,1.8,1.4,3.9,1.4c3.7-0.1,12.7-7.2,11.4-12.1c-1.2-4.7-4.7-6.6-4.7-6.6
		C305.5,507.3,300.1,514.6,296.2,515.5z"/>
	<path class="st5" d="M318,285.2c3.2,1.2,6.5,0.5,6.5,0.5l-1.2,5.3c0,0-1.9-0.6-6,1.1S318,285.2,318,285.2z"/>
	<path d="M337.2,272.1c-2-3-10.2-0.4-14.1,15c0,0-0.1,2.2,1,0.1c6-11.2,9.3-13.5,10.5-12.4c1.7,1.6-8,11.9-11.7,13l-0.2,2.5
		c0,0,9.1-5.2,12.6-9.7C338.3,276.8,338.5,273.9,337.2,272.1z"/>
	<path class="st2" d="M338.6,270.8c-2.9-2.7-11.6,1-15.4,16.3c0,0-0.1,2.2,1,0.1c6-11.2,9.3-13.5,10.5-12.4c1.7,1.6-8,11.9-11.7,13
		l-0.2,2.5c0,0,9.4-5.2,13.5-9.2C341.2,276.3,341.2,273.2,338.6,270.8z"/>
	<path d="M322.3,287.7c0,0,8.6-3.7,19.3,1c7.5,3.3,11.3,15.8,15.8,19.5c6.3,5.1,11,6,11,6c-0.1,1.4-0.7,2.1-1.3,1.9
		c-1-0.3-7.3-3.9-10.2-6.2c-9.2-7.4-10-15.9-16.4-18.9c-4.8-2.3-9.5-3.2-18.4-1.4L322.3,287.7z"/>
	<path class="st2" d="M322.3,287.7c0,0,10.2-4.6,20.8,0.1c7.5,3.3,11.3,15.8,16.8,19.5c3.8,2.5,6.6,3.3,8.1,3.6c0.6,0.1,1,0.7,1,1.3
		c-0.1,1.4-1.2,4.1-1.8,3.9c-1-0.3-7.3-3.9-10.2-6.2c-9.2-7.4-10-15.9-16.4-18.9c-4.8-2.3-9.5-3.2-18.4-1.4L322.3,287.7z"/>
	<path d="M321.7,288.2c0,0,8.4,2.3,15.3,10.8c6.3,7.7,8.3,18.9,8.3,18.9c-0.8,0.3-2.1,1-2.5,0.8c-0.7-0.3-0.3-11.2-7.2-18
		s-15.7-11.2-15.7-11.2L321.7,288.2z"/>
	<path class="st2" d="M321.7,288.2c0,0,20.1,1.8,25.4,27.9c0.1,0.6-0.2,1.1-0.7,1.4c-0.8,0.3-3.1,1.5-3.5,1.3
		c-0.7-0.3-0.3-11.2-7.2-18S320,289.6,320,289.6L321.7,288.2z"/>
	<path class="st0" d="M230.9,374.6c-4.2,6.6-6.3,27.8-29.3,27.3l0,0c-0.7,2.5,0.7,4.3,7.5,3.7c16.5-1.5,27.8-17.6,25.2-23.2l2.8-4.1
		c2.9,1.1,12.8-5.9,10.7-12.3c-0.9-2.8-4.4-2.4-4.4-2.4C240.8,367.6,235.1,368,230.9,374.6z"/>
	<path class="st0" d="M287.9,219.1c0,0,2.5-16.4-1.4-23.6c0,0-7.1-1.9-10-4.8c-0.8-0.8-0.7-2.5,0.4-5.6c0.1-0.4-1.1-0.9-0.7-2.4
		c0.1-0.4,0.8-0.8,1.9-1c0,0-1.7-1.4-1.5-1.7c0.3-0.8,1.2-0.8,1.6-1.3c0.6-0.7,1-1.1,1.2-1.6c1.7-5.4,6.5-12.6,10.1-16.5
		c2.6-2.9,4.4-4.2,6.6-5.7c8.7-6,21.9-7.4,31.1,0.3s9.5,22.5,1.8,28.3c-7.7,5.8-24.5,9.4-26,13.1c-1.5,3.8,0.3,10.3,0.3,10.3
		S301.5,215,287.9,219.1z"/>
	<path class="st4" d="M310.1,177.9c0,0,5.5-7.4,2.9-15.1c0,0-6.8,0.3-10.8-10c0,0-5.4,1.7-7.1,3.1c-1.7,1.3-10.3-7.3-5.7-12
		c3.6-3.7,8.3,1.1,8.3,1.1s-6.9-10.3,0-12.9c6.9-2.6,13.2,4.8,14.4,8.1c0,0,3.2-8.3,8.6-2.6c5.4,5.7,4.3,12.9,4.3,12.9
		s3-2.6,6.2-1.6c3.3,1,3,8.8,2.4,11.7c0,0,11.7-2.6,2.8,14.5c0,0,10,6.7-13,11.9c-7.1,1.6-2.9,8.7-6.4,12c-5.3,4.9-7.1-0.4-7.1-0.4
		s-1.6,5.1-6.8,3c-5.2-2.1-4.7-11.6-0.3-14.5c0,0,4.2,3.3,9.6-4C317,176.7,310.1,177.9,310.1,177.9z"/>
	<path class="st1" d="M310.1,177.9c0,0,5.5-7.4,2.9-15.1c0,0-6.8,0.3-10.8-10c0,0-6.5,1.8-8.2,3.1c0,0-4.6-2.8-3.7-6.7
		c1.2-5.7,7.3-4.2,7.3-4.2s-3.8-6.8,1.1-8.9c5.3-2.3,11.5,5.7,12.7,9c0,0,5.2-6,9.1-0.7c2.6,3.5,1,10.8,1,10.8s6.6-4.3,8.5-0.6
		c1.3,2.6,0,7.1-0.5,10c0,0,10.9-3,4.4,10.9c0,0,12.4,6.2-10.6,11.5c-7.1,1.6-3.1,9.8-6.6,13.2c-3.6,3.5-6.9-1.5-6.9-1.5
		s-1.6,5.1-6.8,3c-5.2-2.1-4.7-11.6-0.3-14.5c0,0,4.2,3.3,9.6-4C317,176.7,310.1,177.9,310.1,177.9z"/>
	<path class="st3" d="M309.5,136.1c1.3,1.4,2.2,2.9,2.6,4c0,0,2.2-7.2,8.6-2.6"/>
	<path class="st3" d="M323.1,140.4c2.2,4.2,1.8,9.9,1.8,9.9s3-2.6,6.2-1.6c3.3,1,3,8.8,2.4,11.7c0,0,11.7-2.6,2.8,14.5
		c0,0,10,6.7-13,11.9c-7.1,1.6-3.1,9.9-6.6,13.2c-3.8,3.5-6.9-1.5-6.9-1.5s-1.6,5.1-6.8,3c-5.2-2.1-4.7-11.6-0.3-14.5
		c0,0,4.2,3.3,9.6-4c4.7-6.3-2.2-5.1-2.2-5.1s5.5-7.4,2.9-15.1c0,0-6.8,0.3-10.8-10c0,0-5.4,1.7-7.1,3.1c-1.7,1.3-10.3-7.3-5.7-12
		c3.6-3.7,8.3,1.1,8.3,1.1s-6.9-10.3,0-12.9c1.7-0.7,3.5-0.7,5.1-0.3"/>
	
		<ellipse transform="matrix(0.5611 -0.8277 0.8277 0.5611 -13.2132 318.8796)" class="st0" cx="294.1" cy="171.9" rx="6.8" ry="3.7"/>
	<ellipse transform="matrix(0.5611 -0.8277 0.8277 0.5611 -12.2236 309.438)" class="st0" cx="285.7" cy="166.2" rx="6.8" ry="3"/>
	<path class="st3" d="M289.2,166.3c1.1-0.4,2.7,0.6,2.4,3"/>
	<path class="st3" d="M298.1,172.8c7.1,0.6,13.8,0.7,13.5,5.1"/>
	<path class="st3" d="M251.1,196.6c-0.2,0.8-0.3,1.7-0.3,2.9c0,4.8,0.4,7.9,0.4,9.3c0,1.4-2.8,7.5-2.1,13.7"/>
	<path class="st3" d="M217.9,363c0,0-9.6-7.7-11.2-3.4C204.5,365.4,217.9,363,217.9,363z"/>
	<path class="st3" d="M217.9,363.2c0,0-4,10-7.9,8.9C206.1,371,210.3,364.6,217.9,363.2z"/>
	<path class="st3" d="M275.3,499.7c0,0-11.8-8-13.3-2.9S266.5,500.9,275.3,499.7z"/>
	<path class="st3" d="M276.3,500.4c0,0-15,4.5-8.9,9.4C273.5,514.7,276.3,500.4,276.3,500.4z"/>
	<path class="st3" d="M294.1,169.4c2.2,1.4,2.3,3.2,3.1,4.6"/>
	<ellipse transform="matrix(0.9421 -0.3354 0.3354 0.9421 -40.6832 108.4329)" cx="293.6" cy="172" rx="1.4" ry="1.3"/>
	<path class="st3" d="M286.2,164.5c1.8,1.9,1.8,3.5,1.8,3.5"/>
	<ellipse transform="matrix(0.9153 -0.4027 0.4027 0.9153 -43.3336 129.1168)" cx="285.4" cy="167.6" rx="1.4" ry="1.3"/>
	<path class="st3" d="M303.4,167.6c-0.2-3.1-3.5-5-6.5-4.9"/>
	<path class="st3" d="M292.4,159.9c-0.1-0.9-0.4-1.8-0.9-2.5"/>
	<path class="st0" d="M286.1,171.2c-1.1,0.4-6.2,1.3-6.9,2.4c-1.5,2.5,1.6,4.6,1.6,4.6"/>
	<path class="st0" d="M277.9,181.4c0.9,0.8,1.7,1.9,2.8,1.6"/>
	<path class="st3" d="M201.1,152.9c2.4,1.1,7.4,11,7.4,11c1.1,2.3,1.1,4.3-0.3,4.4c-1.3,0.1-6-6.6-8.1-9.8"/>
	<path class="st3" d="M206.2,151c1.7,1.3,6.5,9.9,7.7,13.6"/>
	<line class="st3" x1="220.1" y1="363.6" x2="217.9" y2="363"/>
	<path class="st3" d="M262.8,521c-1-2.2,2.4-3.9,5.7,0.5"/>
	<path class="st3" d="M210.6,377.2c-1.5-1.9,1.5-4.3,5.7-0.7"/>
	<path class="st3" d="M209.8,382.8c-1.4-1.1,1.3-4.8,6.5-4.8"/>
	<path class="st3" d="M212.2,372.2c-1.4-1.1,1.8-3.5,5.9-2"/>
	<path class="st3" d="M286.5,195.5c3.1,1.4,8.1,0,8.1,0"/>
	<path class="st3" d="M270.4,514.8c-1.7-0.6-5.8-1.3-6,2.6"/>
	<path class="st3" d="M274.4,505.7c-1.3-1-5.6,0-5.6,1.4"/>
	<line class="st3" x1="215.1" y1="263.9" x2="217.5" y2="264.9"/>
</g>
<g id="Pizza">
	<path class="st0" d="M309.7,73.8c6.1-5-0.6-22.6-23.5-24.5c-12.7-1.1-15.3,8.9-30.4,8.1c-15.1-0.8-22-15.6-40.3-15.4
		c-18.4,0.2-31.9,37.5-5.5,40.1c18.9,1.8,14.2-23.1,30.1-22c15.9,1.2,6.4,24.8,23.9,26.3c12,1,14.3-13.5,25.6-15.1
		C299.5,69.8,304.8,77.8,309.7,73.8z"/>
	<path class="st1" d="M240.1,60.1c-10.6-0.8-12,10.2-17.5,16.9l0,0c4.9-3.3,13.9-9.4,29.9-0.5C250,69.3,249.4,60.8,240.1,60.1z"/>
	<path class="st1" d="M289.6,71.3c-5.4,0.8-8.8,4.6-12.2,8.2l0,0c8.1-5.6,19.9-5.7,28.4-4.5l-0.1-0.1
		C301.8,74.4,297,70.2,289.6,71.3z"/>
	<path class="st3" d="M240.1,60.1c-10.6-0.8-12,10.2-17.5,16.9l0,0c4.9-3.3,13.9-9.4,29.9-0.5C250,69.3,249.4,60.8,240.1,60.1z"/>
	<path class="st3" d="M289.6,71.3c-5.4,0.8-8.8,4.6-12.2,8.2l0,0c8.1-5.6,19.9-5.7,28.4-4.5l-0.1-0.1
		C301.8,74.4,297,70.2,289.6,71.3z"/>
	<path class="st3" d="M317.6,77.1c-2.6,2.9-7.2,5.5-15.2,6.5"/>
	<path class="st3" d="M320.4,66.1c0.3,1.3,0.6,3.6-0.1,6.2"/>
	<path class="st3" d="M318.8,85.3c-1.4,0.7-3.1,1.3-5.1,1.8"/>
	<path class="st3" d="M327.1,76.6c0,0-0.6,3.6-5.3,6.9"/>
	<path class="st3" d="M209.8,35.7c1.1-0.1,2.2-0.1,3.5,0"/>
	<path class="st3" d="M193.8,50c0,0,2-8.2,9-12.2"/>
	<path class="st3" d="M198.2,33.9c2.1-1.4,4.8-2.4,8.2-2.4"/>
	<path class="st3" d="M192.1,41c0.3-0.6,1.3-2.5,3.1-4.4"/>
</g>
</svg>
