<?xml version="1.0" encoding="utf-8"?>
<!-- Generator: Adobe Illustrator 22.0.1, SVG Export Plug-In . SVG Version: 6.00 Build 0)  -->
<svg version="1.1" id="Layer_1" xmlns="http://www.w3.org/2000/svg" xmlns:xlink="http://www.w3.org/1999/xlink" x="0px" y="0px"
	 viewBox="0 0 808.6 808.6" style="enable-background:new 0 0 808.6 808.6;" xml:space="preserve">
<style type="text/css">
	.st0{fill:#FFFFFF;}
	.st1{fill:#FF6900;}
	.st2{fill:#F16A22;}
	.st3{fill:none;stroke:#000000;stroke-width:1.5;stroke-linecap:round;stroke-linejoin:round;stroke-miterlimit:10;}
	.st4{fill:none;stroke:#000000;stroke-width:1.5;stroke-miterlimit:10;}
	.st5{clip-path:url(#SVGID_2_);}
	.st6{clip-path:url(#SVGID_4_);}
	.st7{fill:#FFFFFF;stroke:#000000;stroke-width:1.5;stroke-miterlimit:10;}
</style>
<g id="Milkshake">
	<path class="st0" d="M128.8,251.8c-15.5,0-28.1-1.3-28.1-3v6.1c0,1.7,12.6,3,28.1,3s28.1-1.3,28.1-3v-6.1
		C156.9,250.4,144.3,251.8,128.8,251.8z"/>
	<path class="st0" d="M128.2,245.8c0.2,0,0.4,0,0.7,0c15.5,0,28.1,1.3,28.1,3s-12.6,3-28.1,3s-28.1-1.3-28.1-3c0-1.1,5.2-2,13-2.5"
		/>
	<path class="st0" d="M156.8,255.1c-1.2,1.5-13.3,2.7-28,2.7c-14.6,0-26.7-1.2-27.9-2.7c-29.9,10.1-47.2,36.6-47.2,67
		c0,5.7,33.6,10.3,75.1,10.3s75.1-4.6,75.1-10.3C204,291.7,186.7,265.2,156.8,255.1z"/>
	<path class="st0" d="M128.8,317.5c-40.9,0-74,5.6-74,12.6l17.7,188.2l0,0c0,10,25.2,18.2,56.3,18.2s56.3-8.1,56.3-18.2l0,0
		l17.7-188.2C202.8,323.1,169.7,317.5,128.8,317.5z"/>
	<path class="st1" d="M178,351.2c-6.5,1.1-9.2,17.6-15.2,17.7c-6,0.1-7.3-15-14.7-13.4c-7.4,1.5-6.9,10.2-11,9.8s-5.3-4.7-9.7-4.6
		c-4.3,0.2-4.9,7.8-10.3,8.2c-5.5,0.4-8.3-7.8-13.7-8.2c-5.3-0.4-7.7,9.6-14,9.6s-12.8-16.9-17.9-18.7c-4.3-1.5-6.4,5.2-6.4,5.2
		l13.3,162.6c0,10,17.1,17,46.5,17s53.2-8.1,53.2-18.2L191.2,371c0.6-6.8-2.1-13.5-7.4-17.7C182,351.8,180,350.8,178,351.2z"/>
	<path class="st0" d="M184.5,447l5.8-64.9c-5.4,24.5-11,40.9-19.2,41.7c-10.2,1.1-2-54.6-13.1-52.1c-11.2,2.5-6.5,51.7-18.5,52.1
		s-3.3-37.1-14.5-38.5c-11.2-1.5-14.6,21.4-22.2,21.8s-4-16-11.7-16.7s-8.6,20.7-16.6,22.2c-6.6,1.2-9.8-15.6-13.2-13.3l6,67.6
		c11.5-6.3,13-41.3,19.2-35.8c6.9,6.1,1.1,37.9,22.2,36.4s5.5-59.2,13.8-60.3c8.3-1.1,7,67.2,19.3,65.1c12.4-2.2,6.9-38.5,13.4-25.8
		s9.5,18.9,13.8,3.3C171.5,440.3,178.4,441.6,184.5,447z"/>
	<path class="st0" d="M178.2,518.2l1.5-7.3c-13.7-57-27.6-35.4-29.3-24.1c-3.7,24.8-3.2,33.5-9.4,34.1c-6.1,0.6-6.4-49.4-15.4-50.3
		s-8.9,45.2-18.9,43.7S98,487.4,88,487.1c-8.9-0.3-9.6,19.6-17,25l0.5,6.1l0,0c0,10,23.8,18.2,53.2,18.2
		C154.4,536.4,178.2,528.3,178.2,518.2z"/>
	<ellipse class="st0" cx="84.2" cy="465" rx="4" ry="14.7"/>
	<path class="st0" d="M85.4,385.1c3.9-4.1,11.2-0.2,15.1,8s6.1-1.7,6.3-14.1c0.2-12.4-6.8-11.7-12.4-3.6c-5.6,8-17,10-23.6-5.7
		c-2.6-6.3-8-6.2-12.7-3.8l1.2,13.7c15.9,4.3,10.9,25.7,15.7,27.7C80.3,409.4,81.5,389.2,85.4,385.1z"/>
	<ellipse class="st0" cx="93.6" cy="476" rx="2.6" ry="3.7"/>
	<ellipse class="st0" cx="173.8" cy="401.4" rx="4.7" ry="11.5"/>
	<ellipse class="st0" cx="181.7" cy="386.2" rx="2.2" ry="4"/>
	<ellipse class="st0" cx="175.9" cy="367.6" rx="1.5" ry="2"/>
	<path class="st2" d="M94.1,148.7c0.9,3.2,27.7,138,27.7,138c0.9,2.6,6,8.9,9.6,8.4c5.7-0.7,4.8-7.4,4.3-10.4
		c-0.8-4.8-25.9-132.6-27.5-138.6C107,142.1,93.3,145.6,94.1,148.7z"/>
	<path class="st3" d="M94.1,148.7c0.9,3.2,27.7,138,27.7,138c0.9,2.6,6,8.9,9.6,8.4c5.7-0.7,4.8-7.4,4.3-10.4
		c-0.8-4.8-25.9-132.6-27.5-138.6C107,142.1,93.3,145.6,94.1,148.7z"/>
	<path class="st3" d="M128.8,317.5c-40.9,0-74,5.6-74,12.6l17.7,188.2l0,0c0,10,25.2,18.2,56.3,18.2s56.3-8.1,56.3-18.2l0,0
		l17.7-188.2C202.8,323.1,169.7,317.5,128.8,317.5z"/>
	<ellipse class="st0" cx="128.8" cy="322.1" rx="81.9" ry="13.8"/>
	<ellipse class="st3" cx="128.8" cy="322.1" rx="81.9" ry="13.8"/>
	<path class="st0" d="M128.8,536.4c-31.1,0-56.3-8.1-56.3-18.2v13.1c0,10,25.2,18.2,56.3,18.2s56.3-8.1,56.3-18.2v-13.1
		C185.1,528.3,159.9,536.4,128.8,536.4z"/>
	<path class="st3" d="M128.8,536.4c-31.1,0-56.3-8.1-56.3-18.2v13.1c0,10,25.2,18.2,56.3,18.2s56.3-8.1,56.3-18.2v-13.1
		C185.1,528.3,159.9,536.4,128.8,536.4z"/>
	<path class="st3" d="M128.2,245.8c0.2,0,0.4,0,0.7,0c15.5,0,28.1,1.3,28.1,3s-12.6,3-28.1,3s-28.1-1.3-28.1-3c0-1.1,5.2-2,13-2.5"
		/>
	<path class="st3" d="M156.8,255.1c-1.2,1.5-13.3,2.7-28,2.7c-14.6,0-26.7-1.2-27.9-2.7c-29.9,10.1-47.2,36.6-47.2,67
		c0,5.7,33.6,10.3,75.1,10.3s75.1-4.6,75.1-10.3C204,291.7,186.7,265.2,156.8,255.1z"/>
	<path class="st3" d="M128.8,251.8c-15.5,0-28.1-1.3-28.1-3v6.1c0,1.7,12.6,3,28.1,3s28.1-1.3,28.1-3v-6.1
		C156.9,250.4,144.3,251.8,128.8,251.8z"/>
	<path class="st0" d="M126.9,275.6c-4.1,0.9-2.7,9.7-7.5,12c-4.8,2.3-8.2-7.3-11.1-6c-2.9,1.2-2.3,8.3-5,9.6
		c-2.7,1.3-10.2-3.9-12.5-1.8c-2.3,2.1-6.1,7.9-8.6,6.8c-2.5-1.1-2.4-6.1-5.9-3.9c-4.3,2.7-5.4,14.5-7,16s-4.3-3.3-7.3,1
		c-1.5,2.1-3.2,11.9-3.1,16.6c0.3,9.5,79.9,8.8,79.9,8.8l39.7-2.8l25.4-6.7c0,0-0.9-15-3.4-16.9s-4.3-2.6-6.3-6.2
		c-2-3.6-7.1-10.1-13.8-8.3c-5,1.3-10.9-13.9-15.9-12.3c-2.6,0.8-2.5,7-4.8,6.6s-8.2-13.6-12.2-12.5c-4.7,1.3-5.2,8.5-7.9,9.5
		C137.1,286,130.6,274.7,126.9,275.6z"/>
	<path class="st1" d="M75.2,313c3.9,0.7,10.9,6.8,16.1,12.2c5.2,5.4,12,4.8,14.3,3.9s0.5-2-1.6-3.9c-2-1.8-5.9-6.6-3.2-7.7
		c2.7-1.1,6.9,0.5,12.7,0c5.9-0.5,4.1-3.6,4.8-8.2c0.7-4.6,2.3-9.2,2.3-9.2c-2.9,0.7-4.8,11.8-6.5,13.4c-1.7,1.6-9.6-0.7-13.3-0.9
		c-3.7-0.2-11.3,6.9-12.6,5c-1.3-1.9,1.8-5.4,6-6.3c4.1-0.9,9.9,0.2,13.3-6c3.4-6.3,9.5-8,5.2-8.9s-12,8.8-15,8.9
		c-2.9,0.1,0.6-14.6-2.3-11.4c-2.9,3.2-3.6,7.2-4.1,12.7s-7,6.8-10.7,6.1c-2.9-0.5-6.4-9.2-8.9-11.6c-1,3.4-1.7,6.6-2.5,7.4
		c-1.6,1.5-4.3-3.3-7.3,1c-0.2,0.3-0.4,0.8-0.7,1.4C65.3,312,72.2,312.4,75.2,313z"/>
	<path class="st1" d="M79.5,301.9c2.8-0.3,6.4-4.5,8.6-9.5c-2,2.3-4.3,4.6-5.9,3.9c-2.5-1.1-2.4-6.1-5.9-3.9
		c-0.5,0.3-0.9,0.7-1.3,1.2C75.9,297.5,77.1,302.2,79.5,301.9z"/>
	<path class="st1" d="M183.8,324.1c2.8-1.9-4.5-16.4-1.4-19c0.4-0.3,1-0.6,1.6-0.7c1.6,3.2,4.8,8.3,8.1,7.1c3.4-1.2,1.9-5.1,0.8-7.2
		c1.2,0.1,2.2,0.3,3.1,0.4c-0.6-0.6-1.1-1.4-1.7-2.4c-6.3-2.2-10.8-5.4-12.6-1.6c-2,4.3-9.2-0.1-13.6,4.4s-4.1,7.2-5.9,7.4
		c-0.6,0.1-1.8-0.9-3-2.2c1.4-5,1.5-16.4,4.8-16c3.3,0.3,9.2,3.6,8.2,2.7c-6.2-5.8-10.6-9.6-13.6-5.5c-2.4,3.3-4.4,3.4-7.3,1.9
		c-1.5-0.7-2.1-2.5-1.4-4c2.9-6.2,5.8-1.8,8.7-2.3l-2.4-3.3c-0.9-1.3-0.8-1.4-1.8-2.6l-3.5-4.2c-2,0.3-1.9,4.7-4,9
		c-0.3,0.6-0.6,1.2-0.9,1.8c-0.5,1-1.7,1.4-2.6,0.9c-5.1-2.8-10.2-4.3-11.9,1.4c-1.3,4.3-6-0.7-9.4-5.2c-0.3,0.6-0.6,1.1-1,1.5
		c0,0,0,0.1-0.1,0.1c-0.2,0.2-0.4,0.3-0.6,0.5l-0.1,0.1c-0.2,0.2-0.5,0.3-0.7,0.5h-0.1c0,0,0,0-0.1,0c3.7,7.7,9.8,22.3,15.2,21.7
		c7.3-0.8,4.1-9.9,8.6-10.6c1.6-0.2,3.6,1.6,5.7,3.9c-4.1,4.8-6.8,13.4-11.3,12.3c-4.8-1.2-9.3-6.4-11.3-5.6c-2,0.8-2.5,10-2.5,10
		c1.8,0.2,3.1-4.3,5.5-3.9c2.4,0.5,4.9,15.3,10.3,14.2c5.3-1,4.8-20.8,11.5-24.3c0.8,1,1.5,2,2.2,2.9c0,0,5.5,14.6,10.1,13.8
		c4.5-0.7,1.4-11.7,5.7-13.8C173.4,306.2,181,325.9,183.8,324.1z"/>
	<path class="st1" d="M115.6,327.5c-1.1,0-1.4-1.5-0.4-2c6.9-3,10.9-2.7,13.7,1.9c3.3,5.4-3.9-0.3-6.5,0
		C121,327.5,118.1,327.5,115.6,327.5z"/>
	<path class="st3" d="M203.8,322.8c-0.4-4.3-1.4-13.1-3.2-14.5c-2.5-1.9-4.3-2.6-6.3-6.2c-2-3.6-7.1-10.1-13.8-8.3
		c-5,1.3-10.9-13.9-15.9-12.3c-2.6,0.8-2.5,7-4.8,6.6c-2.3-0.5-8.2-13.6-12.2-12.5c-4.7,1.3-5.2,8.5-7.9,9.5
		c-2.6,0.9-9-10.3-12.8-9.5c-4.1,0.9-2.7,9.7-7.5,12c-4.8,2.3-8.2-7.3-11.1-6c-2.9,1.2-2.3,8.3-5,9.6c-2.7,1.4-10.2-3.9-12.5-1.8
		c-2.3,2-6.1,7.9-8.6,6.8c-2.5-1.1-2.4-6.1-5.9-3.9c-4.3,2.7-5.4,14.5-7,16s-4.3-3.3-7.3,1c-1.5,2.1-3.2,11.8-3.1,16.6
		c11,3.8,38.1,6.5,69.9,6.5C168.6,332.4,201.2,328.1,203.8,322.8z"/>
	<path class="st3" d="M110.8,247.8c1.9,0.4,15.4,1.8,38,0"/>
	<path class="st0" d="M128.8,335.9c-45.2,0-81.9-6.2-81.9-13.8l0,0l0,0v4.5l0,0c0,7.6,36.7,13.8,81.9,13.8s81.9-6.2,81.9-13.8v-4.5
		C210.7,329.7,174.1,335.9,128.8,335.9z"/>
	<path class="st0" d="M210.8,326.6c0,7.6-36.7,13.8-81.9,13.8S47,334.2,47,326.6l0,0c0,7.7-3.3,10.4-3.3,10.4
		c0,7.6,40,14.6,85.2,14.6s86.1-7,86.1-14.6C214.9,337,211.1,333.3,210.8,326.6L210.8,326.6z"/>
	<path class="st3" d="M210.8,326.6c0,7.6-36.7,13.8-81.9,13.8S47,334.2,47,326.6l0,0c0,7.7-3.3,10.4-3.3,10.4
		c0,7.6,40,14.6,85.2,14.6s86.1-7,86.1-14.6C214.9,337,211.1,333.3,210.8,326.6L210.8,326.6z"/>
	<path class="st3" d="M128.8,335.9c-45.2,0-81.9-6.2-81.9-13.8l0,0l0,0v4.5l0,0c0,7.6,36.7,13.8,81.9,13.8s81.9-6.2,81.9-13.8v-4.5
		C210.7,329.7,174.1,335.9,128.8,335.9z"/>
	<path class="st0" d="M187.4,461.3c-2.7-13.5-10.6-20-13.9-5.2c-3.2,14.8,6.9,34.1,8.9,40.2C184.5,502.4,187.4,461.3,187.4,461.3z"
		/>
	<ellipse class="st1" cx="100.5" cy="441" rx="4.4" ry="16.3"/>
	<ellipse class="st1" cx="106.4" cy="419.6" rx="1.5" ry="3.5"/>
</g>
<g id="Cocacola">
	<g>
		<path class="st0" d="M312.5,564.4c-1.6-5.2-3-10.5-3.4-16c-0.5-6.3-0.1-12.6,0.8-18.8c1.5-10.5,3.2-20.9,4.8-31.3
			c0.9-6,1.8-12.1,1.6-18.2c-0.1-3.2,0.1-6.4,0.2-9.6c0.2-4.7,0.6-9.4,0.5-14.1c-0.1-10.7-2.5-34.8-2.6-35.5c-0.2-1-0.9-3-1.6-5
			c-0.4-1.8-0.9-3.3-1.5-4.3c-2-5.4-4.2-10.7-6.2-16.2c-2.9-8-5.8-15.9-8.3-24c-2.3-7.5-3.1-15.3-3.8-23.2
			c-0.4-4.7-0.1-9.3,2.3-13.6c0.8-1.5-0.5-6.7-0.4-11c0,0,1.8,0,1.8-0.4c0.1-4-0.1-7.6-0.4-8.8c-0.5-2-1.9-6.2-4-6.8
			c-1.9-0.5-4.6-2.3-6.5-2.6c-7.5-1.1-14.1,0.3-21.6,1.1c-2.8,0.3-5.5-0.3-8.1,0.9c-1.9,0.9-3.1,6-3,8.2c0,0.5,0,4.6,0.2,9.1l2,0.3
			c0.2,4.3-1.4,9.8-0.8,10.9c0.5,0.8,0.8,1.8,1.2,2.7c0.7,1.6,1.1,3.3,1,5c-0.2,3-0.4,6-0.7,9c-0.7,7.3-2,14.4-4,21.3h-0.1
			c-1.2,4.4-2.6,8.8-4.4,13.2c-0.5,1.3-1,2.7-1.5,4c-2.6,6.6-5.1,13.2-7.6,19.8c-0.1,0.2-0.2,0.5-0.3,0.7
			c-3.1,6.2-4.2,22.6-4.3,27.5c-0.2,9.8-0.5,20.6-0.9,32c-0.1,3.6,0.6,7.1,0.1,10.7c-0.2,1.5-0.2,3.1,0.1,4.6
			c1.2,8.2,2.4,16.5,3.7,24.7c1.7,10.3,3.4,20.5,3.5,31c0,5.9-0.3,11.7-1.9,17.3c-1.2,4.3-2.5,8.5-3.6,12.9
			c-1.4,5.4-2.4,10.9-2.4,16.6c0,6,2.4,10.4,7.9,13.2c5.7,2.9,11.7,4.4,18,5.4c2.8,0.4,5.7,0.7,8.5,1c3.9,0,7.7,0,11.6,0
			c0.6-0.1,1.3-0.2,1.9-0.2c5.2-0.3,10.5-0.6,15.6-1.7c5.2-1.1,10.2-2.6,14.8-5.5c3.6-2.3,6.1-5.3,6-9.8c0-3-0.1-6.1-0.4-9.1
			C315.8,575.9,314.3,570.1,312.5,564.4z"/>
		<path class="st1" d="M249.1,324.1c0,0,2.2,2.2,19.9,2.2c11.8,0,17.7-0.4,20.4-0.7c1.2-0.1,2.1-1.1,2.2-2.4
			c0.3-4.3-0.8-14-5.3-15.5c-5.9-1.9-24.1-3.9-34.5,2.4C247.6,312.7,249.1,324.1,249.1,324.1z"/>
		<path d="M314.7,498.2c0.9-6,1.8-12.1,1.6-18.2c-0.1-3.2,0.1-6.4,0.2-9.6c0.2-4.7,0.6-9.4,0.5-14.1c-0.1-10.7-2.5-34.8-2.6-35.5
			c-0.4-2-2.4-7.4-3.1-9.2c-2-5.4-4.2-10.7-6.2-16.2c-2.6-7.2-5.3-14.5-7.6-21.8h-27.6c-0.2,2.3-0.3,4.5-0.4,6.8
			c-0.6,9.1-1.4,18.2-2.1,27.4c-0.3,3.7-0.7,7.4-1.2,11.1c-0.2,1.5-0.6,1.9-2.1,1.9c-2,0-4-0.1-6-0.1c-0.8,0-1.1-0.4-0.9-1.2
			c0.8-4.2,1.5-8.4,2.2-12.6c1.9-11.1,3.9-22.1,5.5-33.2h-13c-1.2,4.4-2.6,8.8-4.4,13.2c-3.3,8.1-5.5,16.7-9.4,24.6
			c-3.1,6.2-4.2,22.6-4.3,27.5c-0.2,9.8-0.4,20.4-0.9,32c-0.1,3.6,0.6,7.1,0.1,10.7c-0.2,1.5-0.2,3.1,0.1,4.6
			c1.2,8.2,2.4,16.5,3.7,24.7c1.7,10.3,3.4,20.5,3.5,31c0,5.9-0.3,11.7-1.9,17.3c-1.2,4.3-2.5,8.5-3.6,12.9
			c-1.4,5.4-2.4,10.9-2.4,16.6c0,6,2.4,10.4,7.9,13.2c5.7,2.9,11.7,4.4,18,5.4c2.8,0.4,5.7,0.7,8.5,1c3.9,0,7.7,0,11.6,0
			c0.6-0.1,1.3-0.2,1.9-0.2c5.2-0.3,10.5-0.6,15.6-1.7c5.2-1.1,10.2-2.6,14.8-5.5c3.6-2.3,6.1-5.3,6-9.8c0-3-0.1-6.1-0.4-9.1
			c-0.7-6-2.1-11.8-3.9-17.6c-1.6-5.2-3-10.5-3.4-16c-0.5-6.3-0.1-12.6,0.8-18.8C311.4,519.1,313,508.7,314.7,498.2z M255.8,425.6
			c1,0,1.8,0.1,2.7,0.1c1.9,0.1,3.8,0.3,5.7,0.5c1.3,0.1,1.4,0.2,1.2,1.5c-0.2,1.7-0.4,3.4-0.7,5.4c-2.8-0.1-5.5-0.2-8.1-0.3
			c-1-0.1-1.5-0.7-1.4-1.7C255.4,429.4,255.6,427.6,255.8,425.6z M258.4,600.2c-1.7-0.2-3-1.4-3.2-3.2c-0.1-0.5,0-1.2,0.7-1.1
			c2.3,0.1,4.6,0.7,6.8,1.5C262.2,599.3,260.4,600.4,258.4,600.2z M267.5,561.7c-0.6,5.4-1.8,10.6-3.6,15.7
			c-0.1,0.2-0.2,0.4-0.3,0.7c-1.1,2.5-2.3,3-5,2.3c-1.2-0.3-2.1-1.1-2.1-2.4c0-1.6,0.1-3.3,0.5-4.9c0.9-3.5,1.9-7,2.9-10.5
			c1.2-4.3,1.6-8.8,1.3-13.2c-0.6-9.9-1.2-19.7-2-29.6c-0.7-9.4-1.7-18.8-2.5-28.2c-0.2-2.2-0.5-4.5-0.8-6.7c0-0.3,0-0.5-0.1-1
			c2.4,0.3,4.7,0.6,6.9,0.9c0.2,0,0.5,0.6,0.5,0.9c0.4,4.6,0.9,9.3,1.2,13.9c1,14,2,28,2.9,42C267.8,548.3,268.2,555,267.5,561.7z"
			/>
		<path class="st3" d="M296.8,323.1c-2.3,1.3-3.6-0.9-6.2-0.5c-2.1,0.3-2.2,3.2-4.7,3.4c-2,0.2-3.8-2.4-6-2.4
			c-1.4,0-3.7,3.2-5.1,3.2c-1.9,0-4.1-2.8-5.8-2.8c-2.2-0.1-4.1,2.8-5.8,2.8c-2.3,0-3.3-3.1-4.5-3.3c-2.7-0.3-2.7,1-5.2,0.6"/>
		<path class="st1" d="M316.3,480.1c-0.1-3.2,0.1-6.4,0.2-9.6c0.2-4.7,0.6-9.4,0.5-14.1s-0.4-9.3-1-13.9c-6.8,3.4-25.9,7.4-41.4,7.4
			c-20.9,0-34.3-3.7-40.7-6c-0.1,1.1,0,18.8-0.9,27c-0.4,3.6,0.6,7.1,0.1,10.7c-0.2,1.5-0.2,3.1,0.1,4.6c1.2,8.2,2.4,16.5,3.7,24.7
			c0.4,2.7,0.9,5.4,1.3,8.1c4.6,1.8,11.8,4,21.3,5.4c-0.1-1.5-0.2-3-0.3-4.5c-0.7-9.4-1.7-18.8-2.5-28.2c-0.2-2.2-0.5-4.5-0.8-6.7
			c0-0.3,0-0.5-0.1-1c2.4,0.3,4.7,0.6,6.9,0.9c0.2,0,0.5,0.6,0.5,0.9c0.4,4.6,0.9,9.3,1.2,13.9c0.6,8.4,1.2,16.9,1.7,25.3
			c12.1,1,27.2,0.3,44.9-4c1.1-7.6,2.3-15.2,3.5-22.8C315.6,492.3,316.5,486.3,316.3,480.1z"/>
		<path class="st3" d="M266.9,608.2c-2.8-0.3-5.7-0.6-8.5-1c-6.2-1-12.3-2.5-18-5.4c-5.5-2.8-7.9-7.2-7.9-13.2
			c0-5.6,0.9-11.1,2.4-16.6c1.1-4.3,2.4-8.6,3.6-12.9c1.6-5.7,2-11.5,1.9-17.3c-0.1-10.4-1.8-20.7-3.5-31
			c-1.3-8.2-3.7-20.9-3.7-31.7c0-33.5,1.3-60.3,5-67.9c3.1-8.2,6.2-16.4,9.4-24.6c4.5-11.1,7.2-22.6,8.4-34.5c0.3-3,0.5-6,0.7-9
			c0.1-1.8-0.2-3.4-1-5c-0.4-0.9-0.7-1.8-1.2-2.7c-0.6-1.1,1-6.6,0.8-10.9l-2-0.3c-0.2-4.4-0.2-8.6-0.2-9.1c-0.1-2.2,0-7.9,7.8-9.7
			c6.7-1.6,19.7-1.7,26.1-0.2c8.8,2.1,8.9,6.5,9.2,9.1c0.1,1.2,0.5,4.8,0.4,8.8c0,0.4-1.8,0.4-1.8,0.4c-0.1,4.3,1.2,9.5,0.4,11
			c-2.4,4.4-2.7,8.9-2.3,13.6c0.7,7.8,1.5,15.7,3.8,23.2c2.5,8.1,5.4,16,8.3,24c2,5.4,4.2,10.7,6.2,16.2c5.5,10,4.9,65.3,5,68.5
			c0.2,6.2-0.7,12.2-1.6,18.2c-1.6,10.4-3.3,20.9-4.8,31.3c-0.9,6.2-1.3,12.5-0.8,18.8c0.4,5.5,1.8,10.8,3.4,16
			c1.8,5.7,3.3,11.6,3.9,17.6c0.3,3,0.4,6.1,0.4,9.1c0,4.5-2.5,7.5-6,9.8c-4.5,2.9-9.6,4.4-14.8,5.5c-5.2,1.1-10.4,1.4-15.6,1.7
			c-0.6,0-1.3,0.1-1.9,0.2C274.6,608.2,270.8,608.2,266.9,608.2z"/>
		<path class="st3" d="M282.2,311.4c1.9-0.2,3.6-0.5,5.1-0.9"/>
		<path class="st3" d="M257.4,310.1c1.7,2,8.7,1.6,17.3,1.6c1.7,0,3.9-0.1,3.9-0.1"/>
	</g>
	<g>
		<path class="st0" d="M374.7,593c-1.6-5.2-3-10.5-3.4-16c-0.5-6.3-0.1-12.6,0.8-18.8c1.5-10.5,3.2-20.9,4.8-31.3
			c0.9-6,1.8-12.1,1.6-18.2c-0.1-3.2,0.1-6.4,0.2-9.6c0.2-4.7,0.6-9.4,0.5-14.1c-0.1-10.7-2.5-34.8-2.6-35.5c-0.2-1-0.9-3-1.6-5
			c-0.4-1.8-0.9-3.3-1.5-4.3c-2-5.4-4.2-10.7-6.2-16.2c-2.9-8-5.8-15.9-8.3-24c-2.3-7.5-3.1-15.3-3.8-23.2
			c-0.4-4.7-0.1-9.3,2.3-13.6c0.8-1.5-0.5-6.7-0.4-11c0,0,1.8,0,1.8-0.4c0.1-4-0.1-7.6-0.4-8.8c-0.5-2-1.9-6.2-4-6.8
			c-1.9-0.5-4.6-2.3-6.5-2.6c-7.5-1.1-14.1,0.3-21.6,1.1c-2.8,0.3-5.5-0.3-8.1,0.9c-1.9,0.9-3.1,6-3,8.2c0,0.5,0,4.6,0.2,9.1l2,0.3
			c0.2,4.3-1.4,9.8-0.8,10.9c0.5,0.8,0.8,1.8,1.2,2.7c0.7,1.6,1.1,3.3,1,5c-0.2,3-0.4,6-0.7,9c-0.7,7.3-2,14.4-4,21.3h-0.1
			c-1.2,4.4-2.6,8.8-4.4,13.2c-0.5,1.3-1,2.7-1.5,4c-2.6,6.6-5.1,13.2-7.6,19.8c-0.1,0.2-0.2,0.5-0.3,0.7
			c-3.1,6.2-4.2,22.6-4.3,27.5c-0.2,9.8-0.5,20.6-0.9,32c-0.1,3.6,0.6,7.1,0.1,10.7c-0.2,1.5-0.2,3.1,0.1,4.6
			c1.2,8.2,2.4,16.5,3.7,24.7c1.7,10.3,3.4,20.5,3.5,31c0,5.9-0.3,11.7-1.9,17.3c-1.2,4.3-2.5,8.5-3.6,12.9
			c-1.4,5.4-2.4,10.9-2.4,16.6c0,6,2.4,10.4,7.9,13.2c5.7,2.9,11.7,4.4,18,5.4c2.8,0.4,5.7,0.7,8.5,1c3.9,0,7.7,0,11.6,0
			c0.6-0.1,1.3-0.2,1.9-0.2c5.2-0.3,10.5-0.6,15.6-1.7c5.2-1.1,10.2-2.6,14.8-5.5c3.6-2.3,6.1-5.3,6-9.8c0-3-0.1-6.1-0.4-9.1
			C378,604.5,376.5,598.7,374.7,593z"/>
		<path class="st1" d="M311.2,352.7c0,0,2.2,2.2,19.9,2.2c11.8,0,17.7-0.4,20.4-0.7c1.2-0.1,2.1-1.1,2.2-2.4
			c0.3-4.3-0.8-14-5.3-15.5c-5.9-1.9-24.1-3.9-34.5,2.4C309.8,341.3,311.2,352.7,311.2,352.7z"/>
		<path d="M376.8,526.9c0.9-6,1.8-12.1,1.6-18.2c-0.1-3.2,0.1-6.4,0.2-9.6c0.2-4.7,0.6-9.4,0.5-14.1c-0.1-10.7-2.5-34.8-2.6-35.5
			c-0.4-2-2.4-7.4-3.1-9.2c-2-5.4-4.2-10.7-6.2-16.2c-2.6-7.2-5.3-14.5-7.6-21.8H332c-0.2,2.3-0.3,4.5-0.4,6.8
			c-0.6,9.1-1.4,18.2-2.1,27.4c-0.3,3.7-0.7,7.4-1.2,11.1c-0.2,1.5-0.6,1.9-2.1,1.9c-2,0-4-0.1-6-0.1c-0.8,0-1.1-0.4-0.9-1.2
			c0.8-4.2,1.5-8.4,2.2-12.6c1.9-11.1,3.9-22.1,5.5-33.2h-13c-1.2,4.4-2.6,8.8-4.4,13.2c-3.3,8.1-5.5,16.7-9.4,24.6
			c-3.1,6.2-4.2,22.6-4.3,27.5c-0.2,9.8-0.4,20.4-0.9,32c-0.1,3.6,0.6,7.1,0.1,10.7c-0.2,1.5-0.2,3.1,0.1,4.6
			c1.2,8.2,2.4,16.5,3.7,24.7c1.7,10.3,3.4,20.5,3.5,31c0,5.9-0.3,11.7-1.9,17.3c-1.2,4.3-2.5,8.5-3.6,12.9
			c-1.4,5.4-2.4,10.9-2.4,16.6c0,6,2.4,10.4,7.9,13.2c5.7,2.9,11.7,4.4,18,5.4c2.8,0.4,5.7,0.7,8.5,1c3.9,0,7.7,0,11.6,0
			c0.6-0.1,1.3-0.2,1.9-0.2c5.2-0.3,10.5-0.6,15.6-1.7c5.2-1.1,10.2-2.6,14.8-5.5c3.6-2.3,6.1-5.3,6-9.8c0-3-0.1-6.1-0.4-9.1
			c-0.7-6-2.1-11.8-3.9-17.6c-1.6-5.2-3-10.5-3.4-16c-0.5-6.3-0.1-12.6,0.8-18.8C373.5,547.7,375.2,537.3,376.8,526.9z M318,454.3
			c1,0,1.8,0.1,2.7,0.1c1.9,0.1,3.8,0.3,5.7,0.5c1.3,0.1,1.4,0.2,1.2,1.5c-0.2,1.7-0.4,3.4-0.7,5.4c-2.8-0.1-5.5-0.2-8.1-0.3
			c-1-0.1-1.5-0.7-1.4-1.7C317.5,458,317.8,456.2,318,454.3z M320.6,628.8c-1.7-0.2-3-1.4-3.2-3.2c-0.1-0.5,0-1.2,0.7-1.1
			c2.3,0.1,4.6,0.7,6.8,1.5C324.4,627.9,322.6,629,320.6,628.8z M329.6,590.3c-0.6,5.4-1.8,10.6-3.6,15.7c-0.1,0.2-0.2,0.4-0.3,0.7
			c-1.1,2.5-2.3,3-5,2.3c-1.2-0.3-2.1-1.1-2.1-2.4c0-1.6,0.1-3.3,0.5-4.9c0.9-3.5,1.9-7,2.9-10.5c1.2-4.3,1.6-8.8,1.3-13.2
			c-0.6-9.9-1.2-19.7-2-29.6c-0.7-9.4-1.7-18.8-2.5-28.2c-0.2-2.2-0.5-4.5-0.8-6.7c0-0.3,0-0.5-0.1-1c2.4,0.3,4.7,0.6,6.9,0.9
			c0.2,0,0.5,0.6,0.5,0.9c0.4,4.6,0.9,9.3,1.2,13.9c1,14,2,28,2.9,42C330,577,330.3,583.6,329.6,590.3z"/>
		<path class="st3" d="M358.9,351.7c-2.3,1.3-3.6-0.9-6.2-0.5c-2.1,0.3-2.2,3.2-4.7,3.4c-2,0.2-3.8-2.4-6-2.4
			c-1.4,0-3.7,3.2-5.1,3.2c-1.9,0-4.1-2.8-5.8-2.8c-2.2-0.1-4.1,2.8-5.8,2.8c-2.3,0-3.3-3.1-4.5-3.3c-2.7-0.3-2.7,1-5.2,0.6"/>
		<path class="st1" d="M378.5,508.7c-0.1-3.2,0.1-6.4,0.2-9.6c0.2-4.7,0.6-9.4,0.5-14.1s-0.4-9.3-1-13.9c-6.8,3.4-25.9,7.4-41.4,7.4
			c-20.9,0-34.3-3.7-40.7-6c-0.1,1.1,0,18.8-0.9,27c-0.4,3.6,0.6,7.1,0.1,10.7c-0.2,1.5-0.2,3.1,0.1,4.6c1.2,8.2,2.4,16.5,3.7,24.7
			c0.4,2.7,0.9,5.4,1.3,8.1c4.6,1.8,11.8,4,21.3,5.4c-0.1-1.5-0.2-3-0.3-4.5c-0.7-9.4-1.7-18.8-2.5-28.2c-0.2-2.2-0.5-4.5-0.8-6.7
			c0-0.3,0-0.5-0.1-1c2.4,0.3,4.7,0.6,6.9,0.9c0.2,0,0.5,0.6,0.5,0.9c0.4,4.6,0.9,9.3,1.2,13.9c0.6,8.4,1.2,16.9,1.7,25.3
			c12.1,1,27.2,0.3,44.9-4c1.1-7.6,2.3-15.2,3.5-22.8C377.8,520.9,378.6,514.9,378.5,508.7z"/>
		<path class="st3" d="M329.1,636.8c-2.8-0.3-5.7-0.6-8.5-1c-6.2-1-12.3-2.5-18-5.4c-5.5-2.8-7.9-7.2-7.9-13.2
			c0-5.6,0.9-11.1,2.4-16.6c1.1-4.3,2.4-8.6,3.6-12.9c1.6-5.7,2-11.5,1.9-17.3c-0.1-10.4-1.8-20.7-3.5-31
			c-1.3-8.2-3.7-20.9-3.7-31.7c0-33.5,1.3-60.3,5-67.9c3.1-8.2,6.2-16.4,9.4-24.6c4.5-11.1,7.2-22.6,8.4-34.5c0.3-3,0.5-6,0.7-9
			c0.1-1.8-0.2-3.4-1-5c-0.4-0.9-0.7-1.8-1.2-2.7c-0.6-1.1,1-6.6,0.8-10.9l-2-0.3c-0.2-4.4-0.2-8.6-0.2-9.1c-0.1-2.2,0-7.9,7.8-9.7
			c6.7-1.6,19.7-1.7,26.1-0.2c8.8,2.1,8.9,6.5,9.2,9.1c0.1,1.2,0.5,4.8,0.4,8.8c0,0.4-1.8,0.4-1.8,0.4c-0.1,4.3,1.2,9.5,0.4,11
			c-2.4,4.4-2.7,8.9-2.3,13.6c0.7,7.8,1.5,15.7,3.8,23.2c2.5,8.1,5.4,16,8.3,24c2,5.4,4.2,10.7,6.2,16.2c5.5,10,4.9,65.3,5,68.5
			c0.2,6.2-0.7,12.2-1.6,18.2c-1.6,10.4-3.3,20.9-4.8,31.3c-0.9,6.2-1.3,12.5-0.8,18.8c0.4,5.5,1.8,10.8,3.4,16
			c1.8,5.7,3.3,11.6,3.9,17.6c0.3,3,0.4,6.1,0.4,9.1c0,4.5-2.5,7.5-6,9.8c-4.5,2.9-9.6,4.4-14.8,5.5c-5.2,1.1-10.4,1.4-15.6,1.7
			c-0.6,0-1.3,0.1-1.9,0.2C336.8,636.8,332.9,636.8,329.1,636.8z"/>
		<path class="st3" d="M344.4,340c1.9-0.2,3.6-0.5,5.1-0.9"/>
		<path class="st3" d="M319.5,338.7c1.7,2,8.7,1.6,17.3,1.6c1.7,0,3.9-0.1,3.9-0.1"/>
	</g>
</g>
<g id="Fruit-drink">
	<path class="st1" d="M497.8,281.3c-9.3,1.6-22.3,2.6-36.7,2.6c-14.2,0-27.1-1-36.4-2.5c-6.3,17.5-14.3,41.9-14.7,61.6
		c-0.7,32.3,0,194.8,0,194.8c0,6.7,22.9,12.2,51.3,12.2c28.3,0,51.3-5.4,51.3-12.2c0,0,0.7-162.6,0-194.8
		C512.1,323.3,504.1,298.9,497.8,281.3z"/>
	<path class="st4" d="M497.8,281.3c-9.3,1.6-22.3,2.6-36.7,2.6c-14.2,0-27.1-1-36.4-2.5c-6.3,17.5-14.3,41.9-14.7,61.6
		c-0.7,32.3,0,194.8,0,194.8c0,6.7,22.9,12.2,51.3,12.2c28.3,0,51.3-5.4,51.3-12.2c0,0,0.7-162.6,0-194.8
		C512.1,323.3,504.1,298.9,497.8,281.3z"/>
	<path class="st4" d="M512.8,382.5c-0.5,5.5-23.6,9.9-51.7,9.9c-28.4,0-51.4-4.5-51.4-10.1c-0.1,40.3,0.1,98,0.2,130.6
		c2.2,5.2,24.3,9.2,51.2,9.2c28.4,0,51.4-4.5,51.4-10.1l0.1-0.3C512.7,479,512.9,422.3,512.8,382.5z"/>
	<path class="st0" d="M512.8,382.5c-0.5,5.5-23.6,9.9-51.7,9.9c-28.4,0-51.4-4.5-51.4-10.1c-0.1,40.3,0.1,98,0.2,130.6
		c2.2,5.2,24.3,9.2,51.2,9.2c28.4,0,51.4-4.5,51.4-10.1l0.1-0.3C512.7,479,512.9,422.3,512.8,382.5z"/>
	<path class="st0" d="M438.6,234.7c0,0.1,0,0.2,0.1,0.3c0.1,2.8,0.6,23,0,28.8c-0.7,6.3-21.8,51.6-22.5,83.9s0,194.8,0,194.8
		c0,0.4,0.1,0.7,0.2,1.1c2.4,1,0.9,0.3,4.4,1.1c-0.1-13.7-0.7-167,0-198.6c0.7-33.1,21.8-79.4,22.5-85.9c0.7-6,0.1-26.6,0-29.5
		c-0.1-0.1,4.5,1.5,4.5,1.3c0-0.3,0.1-0.5,0.4-0.8C442.3,232.1,438.6,233.3,438.6,234.7z"/>
	<path d="M422.9,403.1c1.5-0.7,2.7-0.7,3.2-0.6c0.3,0,0.5,0.2,0.5,0.5c0.6,3.5,4.7,28.5,1.6,37.9c0,0-0.6-13.7-2.4-23.2
		c-1.5-7.7-2.9-12.4-3.3-13.9C422.5,403.5,422.6,403.2,422.9,403.1z"/>
	<path class="st4" d="M425.2,414c-3.9-1-13.6,0.8-15.5,6.6v5.7c0,0,2.5,2.8,6.2,1.6s6.7-4.7,8.2-7.5
		C425.7,417.2,425.2,414,425.2,414z"/>
	<path class="st1" d="M428.3,440.9c0,0-7-4.5-13.7-2.3c-2,0.7-3.6,2.2-4.9,4.1c0,14.3,0.1,28.4,0.1,41.3c2.7,6,6.9,10.7,13.4,11.3
		c20.5,2.1,26.9-15.5,27.8-27.5C451.8,455.8,449.3,442.2,428.3,440.9z"/>
	<path class="st4" d="M428.3,440.9c0,0-7-4.5-13.7-2.3c-2,0.7-3.6,2.2-4.9,4.1c0,14.3,0.1,28.4,0.1,41.3c2.7,6,6.9,10.7,13.4,11.3
		c20.5,2.1,26.9-15.5,27.8-27.5C451.8,455.8,449.3,442.2,428.3,440.9z"/>
	<path class="st4" d="M512.8,382.5c-0.5,5.5-23.6,9.9-51.7,9.9c-28.4,0-51.4-4.5-51.4-10.1c-0.1,40.3,0.1,98,0.2,130.6
		c2.2,5.2,24.3,9.2,51.2,9.2c28.4,0,51.4-4.5,51.4-10.1l0.1-0.3C512.7,479,512.9,422.3,512.8,382.5z"/>
	<g>
		<path class="st0" d="M500.8,326c-4.8-29.9-18.3-61.2-18.8-66.7c-0.6-5.6-0.7-26.8-0.7-32.7c-5.2-0.8-10.4,2.2-10.5,2.4
			c0,0,0.2,24.4,0.8,30.7c0.5,5.6,13.8,37.7,18.8,68.2L500.8,326z"/>
		<path class="st0" d="M501.3,329.5l-10.4,1.9c0.7,4.6,1.1,9.2,1.3,13.6l10.3-1.4c0-0.1,0-0.3,0-0.4
			C502.3,338.8,501.9,334.2,501.3,329.5z"/>
	</g>
	<path class="st4" d="M512.5,342.9c-0.4-19.6-8.4-44.1-14.7-61.6c-4.7-15.3-6.3-20-6.1-25.2c0.2-5.2,0-31.8,0-31.8h-30.5h-30.5
		c0,0-0.2,26.6,0,31.8c0.2,5.2-1.4,9.9-6.1,25.2l0.4,0.1c-0.1,0-0.3,0-0.4-0.1c-6.3,17.5-14.3,41.9-14.7,61.6
		c-0.7,32.3,0,194.8,0,194.8c0,6.7,22.9,12.2,51.3,12.2c28.3,0,51.3-5.4,51.3-12.2C512.5,537.8,513.2,375.2,512.5,342.9z"/>
	<path class="st0" d="M494.8,221.8h-67v7.9c0,3.5,15,6.3,33.5,6.3s33.5-2.8,33.5-6.3V221.8z"/>
	<path class="st4" d="M494.8,221.8h-67v7.9c0,3.5,15,6.3,33.5,6.3s33.5-2.8,33.5-6.3V221.8z"/>
	<path class="st0" d="M427.7,214.5v10c0,3.5,15,6.3,33.5,6.3s33.5-2.8,33.5-6.3v-10H427.7z"/>
	<path class="st4" d="M427.7,214.5v10c0,3.5,15,6.3,33.5,6.3s33.5-2.8,33.5-6.3v-10H427.7z"/>
	<ellipse class="st0" cx="461.3" cy="214.5" rx="33.5" ry="5.2"/>
	<ellipse class="st4" cx="461.3" cy="214.5" rx="33.5" ry="5.2"/>
	<path class="st3" d="M493.2,269.1c-1.7,0-3.2,0.3-4.6,0.9c0-0.1,0-0.3,0-0.4c0-1.9-1.5-3.4-3.4-3.4c-0.7,0-1.4,0.2-2,0.7
		c-0.7-1.5-2.2-2.6-3.9-2.6c-2.4,0-4.3,1.9-4.3,4.3c0,0.8,0.2,1.5,0.6,2.2l-0.7,0.1c-0.5-1.9-2.2-3.4-4.2-3.4
		c-2.2,0-3.9,1.6-4.3,3.6h-0.2c0.2-0.6,0.3-1.3,0.3-2c0-3.5-2.9-6.4-6.4-6.4c-2.6,0-4.9,1.6-5.9,3.8c-0.5-0.2-1-0.3-1.5-0.3
		c-2,0-3.6,1.2-4.3,3c-0.9-1.8-2.8-3-4.9-3c-1.3,0-2.4,0.4-3.4,1.2c-0.9-0.7-2-1.2-3.2-1.2c-1.7,0-3.2,0.8-4.1,2.1
		c-1.1-0.5-2.4-0.9-3.8-0.9"/>
	<path class="st0" d="M492.5,376.4c0.2,50.8-0.1,141-0.2,169.7c6.4-0.8,5.9,0.3,10.2-1.1c0.1-16,0.4-113.4,0.2-168.9L492.5,376.4z"
		/>
</g>
<g id="Coffee">
	<g>
		<path class="st0" d="M663.2,420l-1.6,11.6c0,3.9-22.2,10.5-48.2,10.5c-25.9,0-45.7-6.6-45.7-10.5l-1.6-11.6"/>
		<path class="st0" d="M562.5,417.5l-9.9-146.2l8.8,1.1l63.1-17.7c21.7,0,60.5,1.9,59.1,11.1c-0.7,4.4-6.4,6.3-6.4,6.3l-10.3,145.5
			c0,3.9-24.6,10.5-53.4,10.5S562.5,421.4,562.5,417.5z"/>
		<g>
			<path d="M562.5,418.4l-10.3-152.5l6-0.4c0,0,8,152.1,11.3,154.5C579.4,427.3,562.5,418.4,562.5,418.4z"/>
		</g>
		<path d="M645.4,277.4c0.7,42.9,2.1,151.1,14.4,144.3c-6,3.3-49.5,11.7-90.1,0.3c0,0-2-113.9-2-138.6c0,0-5.4-9.3,15.3-7.2
			C603.7,278.3,645.4,277.4,645.4,277.4z"/>
		<ellipse cx="614.6" cy="265.7" rx="62.5" ry="7.9"/>
		<path class="st4" d="M663.2,420l-1.6,11.6c0,3.9-22.2,10.5-48.2,10.5c-25.9,0-45.7-6.6-45.7-10.5l-1.6-11.6"/>
		<path class="st4" d="M655.7,275.9c0,0,26.8-0.9,27.7-10.2c0.9-9.2-40.4-11.2-50.6-11.1"/>
		<g>
			<g>
				<defs>
					<path id="SVGID_1_" d="M562.5,417.5l-9.9-146.2l8.8,1.1l63.1-17.7c21.7,0,60.5,1.9,59.1,11.1c-0.7,4.4-6.4,6.3-6.4,6.3
						l-10.3,145.5c0,3.9-24.6,10.5-53.4,10.5S562.5,421.4,562.5,417.5z"/>
				</defs>
				<clipPath id="SVGID_2_">
					<use xlink:href="#SVGID_1_"  style="overflow:visible;"/>
				</clipPath>
				<g class="st5">
					<path class="st0" d="M553.7,292.1h-10.8c-2.2,0-4,1.5-4,4v24c0,2.4,1.8,3.8,4,3.8h10.8c9.6,0,17-6.5,17-16
						C570.7,298.5,563.3,292.1,553.7,292.1z M553.7,316.5h-6.8v-17h6.8c5.5,0,9.1,3.1,9.1,8.4S559.2,316.5,553.7,316.5z"/>
					<path class="st0" d="M593.2,296.3c-9.5,0-16.8,7-16.8,16.2c0,9.4,7.3,16.2,16.8,16.2s16.9-7.1,16.9-16.3
						C610,303.2,602.7,296.3,593.2,296.3z M593.2,321.5c-5.2,0-9-3.8-9-9c0-5.1,3.8-8.9,9-8.9c5.3,0,9,3.8,9,8.9
						C602.1,317.7,598.6,321.5,593.2,321.5z"/>
					<path class="st1" d="M631,299.2h-10.8c-2.2,0-4,1.5-4,4v24.1c0,2.4,1.8,3.8,4,3.8H631c9.6,0,17-6.5,17-16
						C648,305.5,640.6,299.2,631,299.2z M631,323.6h-6.8v-17h6.8c5.5,0,9.1,3.1,9.1,8.4S636.5,323.6,631,323.6z"/>
					<path class="st0" d="M553.7,366.1h-10.8c-2.2,0-4,1.5-4,4v24c0,2.4,1.8,3.8,4,3.8h10.8c9.6,0,17-6.5,17-16
						S563.3,366.1,553.7,366.1z M553.7,390.5h-6.8v-17h6.8c5.5,0,9.1,3.1,9.1,8.4S559.2,390.5,553.7,390.5z"/>
					<path class="st0" d="M593.2,371c-9.5,0-16.8,7-16.8,16.2c0,9.4,7.3,16.2,16.8,16.2s16.9-7.1,16.9-16.3
						C610,377.9,602.7,371,593.2,371z M593.2,396.2c-5.2,0-9-3.8-9-9c0-5.1,3.8-8.9,9-8.9c5.3,0,9,3.8,9,8.9
						C602.1,392.4,598.6,396.2,593.2,396.2z"/>
					<path class="st1" d="M631,373.2h-10.8c-2.2,0-4,1.5-4,4v24.1c0,2.4,1.8,3.8,4,3.8H631c9.6,0,17-6.5,17-16
						C648,379.5,640.6,373.2,631,373.2z M631,397.6h-6.8v-17h6.8c5.5,0,9.1,3.1,9.1,8.4S636.5,397.6,631,397.6z"/>
					<path class="st1" d="M554.8,328.8c-9.5,0-16.8,7-16.8,16.2c0,9.4,7.3,16.2,16.8,16.2s16.9-7.1,16.9-16.3
						C571.7,335.6,564.3,328.8,554.8,328.8z M554.8,354c-5.2,0-9-3.8-9-9c0-5.1,3.8-8.9,9-8.9c5.3,0,9,3.8,9,8.9
						C563.8,350.2,560.2,354,554.8,354z"/>
					<path class="st1" d="M592,333.7h-10.8c-2.2,0-4,1.5-4,4v24.1c0,2.4,1.8,3.8,4,3.8H592c9.6,0,17-6.5,17-16
						S601.7,333.7,592,333.7z M592,358.2h-6.8v-17h6.8c5.5,0,9.1,3.1,9.1,8.4S597.5,358.2,592,358.2z"/>
					<path class="st0" d="M632.1,335.9c-9.5,0-16.8,7-16.8,16.2c0,9.4,7.3,16.2,16.8,16.2S649,361.2,649,352
						C649,342.7,641.6,335.9,632.1,335.9z M632.1,361.1c-5.2,0-9-3.8-9-9c0-5.1,3.8-8.9,9-8.9c5.3,0,9,3.8,9,8.9
						S637.5,361.1,632.1,361.1z"/>
				</g>
			</g>
		</g>
		<path class="st4" d="M632.8,254.7c22,0.5,51.9,2.9,50.6,11c-0.7,4.4-6.4,6.3-6.4,6.3l-10.3,145.5c0,3.9-24.6,10.5-53.4,10.5
			s-50.9-6.6-50.9-10.5l-8.9-131.7"/>
		<polygon class="st0" points="568.1,314.5 569,376.9 564.5,371.4 561.1,319.3 		"/>
	</g>
	<g>
		<path class="st0" d="M748.4,483.7l-1.6,11.6c0,3.9-22.2,10.5-48.2,10.5c-25.9,0-45.7-6.6-45.7-10.5l-1.6-11.6"/>
		<path class="st0" d="M647.7,481.2L637.8,335l8.8,1.1l63.1-17.7c21.7,0,60.5,1.9,59.1,11.1c-0.7,4.4-6.4,6.3-6.4,6.3l-10.3,145.5
			c0,3.9-24.6,10.5-53.4,10.5S647.7,485.1,647.7,481.2z"/>
		<polygon points="641.8,335.8 642.5,344.1 655.5,345.6 655.5,337.4 		"/>
		<g>
			<path d="M647.7,482.1l-10.4-152.5l6-0.4c0,0,8,152.1,11.3,154.5C664.6,491,647.7,482.1,647.7,482.1z"/>
		</g>
		<path d="M730.6,341.1c0.7,42.9,2.1,151.1,14.4,144.3c-6,3.3-49.5,11.7-90.1,0.3c0,0-2-122.2-2-147c0,0,5.4,0.8,15.3,1.2
			C689,340.5,730.6,341.1,730.6,341.1z"/>
		<ellipse cx="699.8" cy="329.4" rx="62.5" ry="7.9"/>
		<path class="st4" d="M748.4,483.7l-1.6,11.6c0,3.9-22.2,10.5-48.2,10.5c-25.9,0-45.7-6.6-45.7-10.5l-1.6-11.6"/>
		<path class="st4" d="M740.9,339.6c0,0,26.8-0.9,27.7-10.2c0.9-9.2-40.4-11.2-50.6-11.1"/>
		<g>
			<g>
				<defs>
					<path id="SVGID_3_" d="M647.7,481.2L637.8,335l8.8,1.1l63.1-17.7c21.7,0,60.5,1.9,59.1,11.1c-0.7,4.4-6.4,6.3-6.4,6.3
						l-10.3,145.5c0,3.9-24.6,10.5-53.4,10.5S647.7,485.1,647.7,481.2z"/>
				</defs>
				<clipPath id="SVGID_4_">
					<use xlink:href="#SVGID_3_"  style="overflow:visible;"/>
				</clipPath>
				<g class="st6">
					<path class="st0" d="M638.9,355.8h-10.8c-2.2,0-4,1.5-4,4v24c0,2.4,1.8,3.8,4,3.8h10.8c9.6,0,17-6.5,17-16
						C655.9,362.2,648.5,355.8,638.9,355.8z M638.9,380.2h-6.8v-17h6.8c5.5,0,9.1,3.1,9.1,8.4S644.4,380.2,638.9,380.2z"/>
					<path class="st0" d="M678.3,360c-9.5,0-16.8,7-16.8,16.2c0,9.4,7.3,16.2,16.8,16.2s16.9-7.1,16.9-16.3
						C695.2,366.9,687.9,360,678.3,360z M678.3,385.2c-5.2,0-9-3.8-9-9c0-5.1,3.8-8.9,9-8.9c5.3,0,9,3.8,9,8.9
						C687.3,381.4,683.8,385.2,678.3,385.2z"/>
					<path class="st1" d="M716.2,362.9h-10.8c-2.2,0-4,1.5-4,4V391c0,2.4,1.8,3.8,4,3.8h10.8c9.6,0,17-6.5,17-16
						C733.2,369.2,725.8,362.9,716.2,362.9z M716.2,387.3h-6.8v-17h6.8c5.5,0,9.1,3.1,9.1,8.4S721.7,387.3,716.2,387.3z"/>
					<path class="st0" d="M638.9,429.8h-10.8c-2.2,0-4,1.5-4,4v24c0,2.4,1.8,3.8,4,3.8h10.8c9.6,0,17-6.5,17-16
						S648.5,429.8,638.9,429.8z M638.9,454.2h-6.8v-17h6.8c5.5,0,9.1,3.1,9.1,8.4S644.4,454.2,638.9,454.2z"/>
					<path class="st0" d="M678.3,434.7c-9.5,0-16.8,7-16.8,16.2c0,9.4,7.3,16.2,16.8,16.2s16.9-7.1,16.9-16.3
						C695.2,441.6,687.9,434.7,678.3,434.7z M678.3,459.9c-5.2,0-9-3.8-9-9c0-5.1,3.8-8.9,9-8.9c5.3,0,9,3.8,9,8.9
						C687.3,456.1,683.8,459.9,678.3,459.9z"/>
					<path class="st1" d="M716.2,436.9h-10.8c-2.2,0-4,1.5-4,4V465c0,2.4,1.8,3.8,4,3.8h10.8c9.6,0,17-6.5,17-16
						C733.2,443.2,725.8,436.9,716.2,436.9z M716.2,461.3h-6.8v-17h6.8c5.5,0,9.1,3.1,9.1,8.4S721.7,461.3,716.2,461.3z"/>
					<path class="st1" d="M640,392.5c-9.5,0-16.8,7-16.8,16.2c0,9.4,7.3,16.2,16.8,16.2s16.9-7.1,16.9-16.3
						C656.9,399.3,649.5,392.5,640,392.5z M640,417.7c-5.2,0-9-3.8-9-9c0-5.1,3.8-8.9,9-8.9c5.3,0,9,3.8,9,8.9
						C649,413.9,645.4,417.7,640,417.7z"/>
					<path class="st1" d="M677.2,397.4h-10.8c-2.2,0-4,1.5-4,4v24.1c0,2.4,1.8,3.8,4,3.8h10.8c9.6,0,17-6.5,17-16
						S686.9,397.4,677.2,397.4z M677.2,421.9h-6.8v-17h6.8c5.5,0,9.1,3.1,9.1,8.4S682.7,421.9,677.2,421.9z"/>
					<path class="st0" d="M717.3,399.6c-9.5,0-16.8,7-16.8,16.2c0,9.4,7.3,16.2,16.8,16.2s16.9-7.1,16.9-16.3
						C734.2,406.4,726.8,399.6,717.3,399.6z M717.3,424.8c-5.2,0-9-3.8-9-9c0-5.1,3.8-8.9,9-8.9c5.3,0,9,3.8,9,8.9
						S722.7,424.8,717.3,424.8z"/>
				</g>
			</g>
		</g>
		<path class="st4" d="M718,318.4c22,0.5,51.9,2.9,50.6,11c-0.7,4.4-6.4,6.3-6.4,6.3l-10.3,145.5c0,3.9-24.6,10.5-53.4,10.5
			s-50.9-6.6-50.9-10.5L638,338.3"/>
		<polygon class="st0" points="653.2,378.2 654.1,440.6 649.6,435.1 646.3,383 		"/>
	</g>
	<g>
		<path class="st7" d="M626.6,315.8l1.6,5c-0.4,7-5.3,11.7-5.3,11.7c-0.1,5.3,33.8,9.5,75.6,9.5c41.8-0.1,75.8-4.4,75.8-9.7
			c0,0-5.1-4.6-5.1-11.7l1.7-5"/>
		<ellipse class="st7" cx="698.6" cy="296.4" rx="64.4" ry="5.7"/>
		<path class="st7" d="M634.1,311.9c-5,1.2-7.8,2.5-7.8,4c0,4.8,32.2,8.7,72,8.7s72.1-4,72.2-8.8c0-1.5-2.3-2.8-7.7-4"/>
		<path class="st7" d="M634,315.3c-0.1,3.1,28.5,5.6,63.9,5.4s64.1-2.7,64.2-5.9l0.6-18.6c-0.1,3.1-28.9,5.8-64.2,5.9
			c-35.3,0.1-64-2.3-63.9-5.4L634,315.3z"/>
	</g>
	<g>
		<path class="st7" d="M527.3,271.6l3.4,4c2.4,6.6-0.4,12.8-0.4,12.8c2,4.9,34.8-4.3,73.4-20.6c38.6-16.3,68.1-33.4,66.1-38.3
			c0,0-6.5-2.3-9.2-8.8l-0.4-5.3"/>
		
			<ellipse transform="matrix(0.9216 -0.3882 0.3882 0.9216 -41.6754 245.2296)" class="st7" cx="586.1" cy="225.8" rx="64.4" ry="5.7"/>
		<path class="st7" d="M532.6,265.1c-4.1,3-6.2,5.3-5.6,6.7c1.8,4.5,33.1-4.4,69.8-19.9s65-31.6,63.1-36.1c-0.6-1.4-3.2-1.7-8.6-0.7
			"/>
		<path class="st7" d="M533.9,268.2c1.1,2.9,28.4-5.9,61-19.7c32.6-13.8,58.1-27.4,56.9-30.3l-6.7-17.4c1.1,2.9-24.4,16.5-56.9,30.3
			c-32.6,13.8-59.9,22.6-61,19.7L533.9,268.2z"/>
	</g>
</g>
</svg>
