<?xml version="1.0" encoding="utf-8"?>
<!-- Generator: Adobe Illustrator 22.0.1, SVG Export Plug-In . SVG Version: 6.00 Build 0)  -->
<svg version="1.1" id="Layer_1" xmlns="http://www.w3.org/2000/svg" xmlns:xlink="http://www.w3.org/1999/xlink" x="0px" y="0px"
	 viewBox="0 0 595.3 595.3" style="enable-background:new 0 0 595.3 595.3;" xml:space="preserve">
<style type="text/css">
	.st0{fill:#FFFFFF;}
	.st1{fill:none;stroke:#000000;stroke-width:1.5;stroke-linecap:round;stroke-linejoin:round;stroke-miterlimit:10;}
	.st2{fill:#FF6900;}
	.st3{display:none;}
	.st4{display:inline;fill:#FFFFFF;}
	.st5{display:inline;}
	
		.st6{display:inline;fill:none;stroke:#000000;stroke-width:1.5247;stroke-linecap:round;stroke-linejoin:round;stroke-miterlimit:10;}
	.st7{clip-path:url(#SVGID_2_);}
	.st8{clip-path:url(#SVGID_4_);}
	.st9{clip-path:url(#SVGID_6_);fill:#FFFFFF;}
	.st10{clip-path:url(#SVGID_8_);fill:#FFFFFF;}
	.st11{clip-path:url(#SVGID_10_);}
	.st12{clip-path:url(#SVGID_12_);}
	.st13{clip-path:url(#SVGID_14_);fill:#FFFFFF;}
	.st14{clip-path:url(#SVGID_16_);fill:#FFFFFF;}
</style>
<g id="Car">
	<path class="st0" d="M554.6,382.8c-2.6-12.7,0.3-16-1.8-24.5c-1.8-7-0.6-13.9-5.6-23.2c-5.6-10.3-47.6-45.2-52.4-48.4
		c0,0-25.2,4.7-72.5-6.4c0,1.2,0,2.5,0,3.6l-10.4-3.6c0,0-84.2-64.2-105.5-80.2c-17-12.8-17.8-17.6-0.3-17.6
		c-58.5-12.7-188.5,7.6-208.2,9.7c-17.4,1.8-5.6,11.1-5.6,11.1c-6.3,10.3-30.2,57.1-38.1,78.6s0,49.2-4,54.8
		c-4,5.6-11.9,7.1-19,51.6s6.4,44.5,6.4,44.5s1.2-6.7,1.3-8.4c2.6-34.7,23.4-62.8,63.3-62.8c42.6,0,66.3,33.6,66.3,66.3
		c0,7.5-1.8,21.6-1.8,21.6c62.7,4.8,249.1,0,249.1,0c0.1-13.3,1.9-87.6,67.1-87.6c42.7,0,68.5,37.8,64.2,83.7c0,0,9.4,1.2,14.5-6
		C565.7,433.9,559.4,406.4,554.6,382.8z M411,399.5c-9.8,0.2-165.3-21-165.3-21l-55.1-89.9l-2.2-76.7l32.4-12.7l74.6,8.4l122.8,89.1
		C418.2,296.7,416.4,399.4,411,399.5z"/>
	<path class="st1" d="M412,280.3c0,0-84.2-64.2-105.5-80.2c-17-12.8-17.8-17.6-0.3-17.6c-58.5-12.7-188.5,7.6-208.2,9.7
		c-17.4,1.8-5.6,11.1-5.6,11.1c-6.3,10.3-30.2,57.1-38.1,78.6c-7.9,21.4,0,49.2-4,54.8c-4,5.6-11.9,7.1-19,51.6
		c-7.1,44.4,6.4,44.5,6.4,44.5s1.2-6.7,1.3-8.4c2.6-34.7,23.4-62.8,63.3-62.8c42.6,0,66.3,33.6,66.3,66.3c0,7.5-1.8,21.6-1.8,21.6
		c62.7,4.8,249.1,0,249.1,0c0.1-13.3,1.9-87.6,67.1-87.6c42.7,0,68.5,37.8,64.2,83.7c0,0,9.4,1.2,14.5-6c3.9-5.5,7-37.5,2.2-61
		c-2.6-12.7-9-11.6-11.2-20.1c-1.8-7-0.6-13.9-5.6-23.2c-5.6-10.3-47.6-45.2-52.4-48.4C494.9,286.7,459.3,291.4,412,280.3"/>
	<path class="st2" d="M559.3,383.3c-2.6-12.5-10-15.1-12.1-23.5c-1.5-5.8,0-12.7-5.6-22.9c-5.6-10.2-42.5-41.6-47.2-44.7
		c0,0-33.8,2.1-79.3-6.9c-5.5,0.2-8.7-2.6-8.7-2.6s-84.8-62.8-105.5-79.2c-13.6-10.8-13.6-17.2-12.7-19.4
		c-44.5-1.7-108.2,4.2-148.2,8.7c-0.3,0-49.5,91.4-53.4,82.8c-0.3-0.6,1.4-34.2,1.3-34.2c-0.7,0.1,44.7-47.3,44-47.2
		c-12.5,1.4-20.8,2.4-25.5,2.9c-17.4,1.8-13.8,6.2-13.8,6.2c-6.3,10.2-29.3,55.2-37.3,76.4c-7.9,21.2-0.3,50.5-4.3,56
		s-12.4,8.6-19.5,52.5s6.4,44.5,6.4,44.5s1.2-6.6,1.3-8.3c2.6-34.3,23.4-62.9,63.3-62.9c42.6,0,65,31.6,65,63.8
		c0,7.4,3.3,19.3,3.3,19.3c62.7,4.7,246,4.7,246,4.7c0.1-13.2,0.8-89.8,69.7-87.6c39.6,1.3,65.8,38.3,61.6,83.6c0,0,3.1,1.6,8.2-5.5
		C560,434.5,564.1,406.5,559.3,383.3z M241.2,356.9l-56.6-79.3l3.8-65.7c0,0,31.9-12.7,32.4-12.7c6.8,0,16.6-0.1,24.3,1.7
		c60.8,14.2,120.6,56,144.9,77.1c28.2,24.5,21,53.6,21,53.6L241.2,356.9z"/>
	<path d="M393.2,415L363,358.6c-12.3,21.6-20.9,36.6-20.9,36.6l-96.4-16.6l-55.1-89.9L172.9,218c0,0,1.9-11.8,18.3-30.1
		c0,0-11.6,1.2-51.2,5c0,0-11.6,13.2-27.4,37.5s-23.3,44.5-23.3,44.5l-2.7-0.5c9-28.7,33.3-65.8,47.5-81.5
		c-18.9,1.8-27.8,2.7-31.8,3.1c-17.4,1.8-9.9,7.5-9.9,7.5c-6.3,10.3-30.2,57.1-38.1,78.6s0,49.2-4,54.8c-4,5.6-11.9,7.1-19,51.6
		c-7.1,44.4,6.4,44.5,6.4,44.5s1.2-6.7,1.3-8.4c2.6-34.7,23.4-62.8,63.3-62.8c42.6,0,66.3,33.6,66.3,66.3c0,7.5-1.8,21.6-1.8,21.6
		c51.5,3.9,174.4,1.4,221,0.4L393.2,415z"/>
	<path class="st0" d="M408.3,336.6c2.1-10.8-7.5,14.7-7.5,14.7l-150,22.3l-30.8-31l-35.4-65.1l16-72.8c0,0,25.7-5.6,52.7-4.4
		c-1-0.5-20.4-5.1-20.4-5.1c-18.6-0.6-39.8,0.1-55.9,8.6c-18,9.5-29.3,57.1-22.2,76.3s56.2,103.5,76.8,113.2
		c20.6,9.6,160,26.3,160,26.3S402.3,367.9,408.3,336.6z"/>
	<path d="M411,325.2l-67.4,8.2l-94.9,15.9l-48.5-69.2c0,0-2.8-39,0-56.9s16.8-18.9,29.5-19c76-0.3,175.3,92.1,175.3,92.1
		s-3.4-11.4-25.6-27.9s-66.3-45.1-88.4-54.5s-39.5-18-49.5-18c-20.8,0-45.7,4-57,11.3c-17.8,11.6-28.7,53.8-21.9,72.2
		s53.4,95,73.1,104.2c19.6,9.2,158,29.7,158,29.7S411.2,361.8,411,325.2z"/>
	<path class="st1" d="M241.5,195.9c-29.1-2.1-53.2,2.1-64.6,8c-19.8,10.3-30.2,62.3-23.1,81.6c7.1,19.3,57.2,98.3,77.7,107.9
		s160,26.3,160,26.3s26.7-74.3,18-111.9C399.1,263,267.9,197.9,241.5,195.9z"/>
	<path class="st1" d="M411,331.6l-70.6,8.2l-99.2,17.1l-50.8-72.6c0,0-2.9-41,0-59.7c2.9-18.8,20-22.2,30.3-22.2l12.1-7
		c-17.6-0.6-44.2,0.9-55.9,8.6c-18.6,12.2-29.3,57.1-22.2,76.3c7.1,19.3,56.2,103.5,76.8,113.2c20.6,9.6,160,26.3,160,26.3
		S409.1,370.3,411,331.6z"/>
	<path class="st0" d="M178.3,216.8c7.1,0,9.6,18.6,9.6,38.5c0,0,48.2,49.8,51.4,59.3c3.2,9.5,5.1,27.5,5.1,27.5s58.5-19.9,69.4-16.4
		s3.2,29.9,0,35s-31.5,12.2-47.5,13.5c-16.1,1.3-27.6,7.1-37.9-6.4s-54.6-88.7-56.5-97C169.9,262.4,169.5,216.8,178.3,216.8z"/>
	<path d="M177.9,224.1c6.7,0,5.5,15,5.5,34c0,0,52.7,50.2,55.7,59.3c3,9.1,6,30.4,6,30.4s51.8-17.8,62.2-14.4s9.6,22.5,6.5,27.4
		s-37,12.4-52.3,13.6s-26.2,6.7-36-6.1c-9.8-12.9-51.9-84.6-53.7-92.6C169.9,267.6,169.5,224.1,177.9,224.1z"/>
	<path class="st1" d="M178.3,216.8c7.1,0,9.6,18.6,9.6,38.5c0,0,48.2,49.8,51.4,59.3c3.2,9.5,5.1,27.5,5.1,27.5s58.5-19.9,69.4-16.4
		s3.2,29.9,0,35s-31.5,12.2-47.5,13.5c-16.1,1.3-27.6,7.1-37.9-6.4s-54.6-88.7-56.5-97C169.9,262.4,169.5,216.8,178.3,216.8z"/>
	<path class="st0" d="M37.8,432.8L37.8,432.8c0,0,1.2-6.7,1.3-8.4c2.6-34.7,23.4-62.8,63.3-62.8c42.6,0,66.3,33.6,66.3,66.3
		c0,2.4-0.2,5.5-0.4,8.6l56.1-7.6c0,0-119.4-145.5-129.7-150.6c-6.3-3.1-23.7-5.7-36.4-6c-0.4,0.9-0.8,1.8-1.1,2.6l0,0
		c-0.3,0.8-0.7,1.6-1,2.4c0,0.1,0,0.1-0.1,0.2c-0.3,0.7-0.5,1.4-0.8,2c0,0.1-0.1,0.3-0.1,0.4c-0.3,0.8-0.6,1.5-0.8,2.2
		c-7.9,21.4,0,49.2-4,54.8c-4,5.6-11.9,7.1-19,51.6C26,421.8,31.9,430.8,37.8,432.8z"/>
	<path class="st2" d="M37.8,432.8L37.8,432.8c0,0,1.2-6.7,1.3-8.4c2.6-34.7,23.4-62.8,63.3-62.8c42.6,0,68.3,34.4,66.3,66.3
		c-0.1,2.4-0.2,5.5-0.4,8.6l52.5-5.7c0,0-114.2-137-128.6-145c-10.7-5.9-37.6-4.5-37.8-3.8c-11.1,47.2,1.1,55.5,1.1,55.5
		c-4,5.6-13.1,11.8-23.3,57.9C24.9,428.5,31.9,430.8,37.8,432.8z"/>
	<path class="st0" d="M45.6,352.4c3.5-8.5,39.1-4.7,69.7,0.5c11.6,2,43.7,12.4,43.7,12.4c-4.8-3.3-24.8-14.8-45.7-21.9
		c-6.5-2.2-42.5-7.6-63.8-5.5C47.7,340,48.4,347.1,45.6,352.4z"/>
	<path class="st1" d="M37.8,432.8L37.8,432.8c0,0,1.2-6.7,1.3-8.4c2.6-34.7,23.4-62.8,63.3-62.8c42.6,0,66.3,33.6,66.3,66.3
		c0,2.4-0.2,5.5-0.4,8.6l56.1-7.6c0,0-117.9-145-129.7-150.6c-10.2-4.9-23.7-5.7-36.4-6c-0.4,0.9-0.8,1.8-1.1,2.6l0,0
		c-0.3,0.8-0.7,1.6-1,2.4c0,0.1,0,0.1-0.1,0.2c-0.3,0.7-0.5,1.4-0.8,2c0,0.1-0.1,0.3-0.1,0.4c-0.3,0.8-0.6,1.5-0.8,2.2
		c-7.9,21.4,0,49.2-4,54.8c-4,5.6-11.9,7.1-19,51.6C26,421.8,31.9,430.8,37.8,432.8z"/>
	<path class="st1" d="M564.9,382.1c-2.6-12.7-10.5-17.4-12.7-25.9c-1.8-7,0-11.8-5-21c-5.6-10.3-47.9-44.8-52.4-48.4
		c-25.1-20-122.2-77.8-175.4-100S118,190.2,98,192.3c-17.4,1.8-5.6,11.1-5.6,11.1c-6.3,10.3-30.2,57.1-38.1,78.6s0,49.2-4,54.8
		c-4,5.6-11.9,7.1-19,51.6c-7.1,44.4,6.4,44.5,6.4,44.5s1.2-6.7,1.3-8.4c2.6-34.7,23.4-62.8,63.3-62.8c42.6,0,66.3,33.6,66.3,66.3
		c0,7.5-1.8,21.6-1.8,21.6c62.7,4.8,249.1,0,249.1,0c0.1-13.3,1.9-87.6,67.1-87.6c42.7,0,68.5,37.8,64.2,83.7c0,0,9.4,1.2,14.5-6
		C565.7,433.9,569.7,405.6,564.9,382.1z"/>
	<g>
		<circle class="st0" cx="104.8" cy="425.4" r="62.6"/>
		<ellipse cx="102.5" cy="426.7" rx="60.2" ry="61.2"/>
		<circle class="st0" cx="100.6" cy="430.7" r="47.1"/>
		<circle class="st1" cx="100.6" cy="430.7" r="35.6"/>
		<circle class="st1" cx="100.6" cy="430.7" r="47.1"/>
		<circle class="st1" cx="100.6" cy="430.7" r="56.2"/>
		<circle class="st1" cx="104.8" cy="425.4" r="62.6"/>
		<path class="st0" d="M104.2,449.1c1.1-0.9,6.8-4.5,34.7,9c4-5.6,6.8-12.1,8.1-19.1c-4,3.1-8.3,5.8-10.7,5.7
			c-5.4-0.3-18.4-1.6-19.4-7.7c-0.2-1.4-0.7-8.4,26-27.3c-3.4-6.9-8.5-12.9-14.7-17.3c1,5.6,1.7,12,0.2,14.3
			c-2.9,4.6-10.2,15.4-16.1,13.4c-1.4-0.5-7.8-3.4-11.6-36.5l0,0c-8,0-15.5,2-22.1,5.5c5.3,1.8,11.1,4.2,12.7,6.5
			c6.1,8.7,6,18.8,4.1,20.5c-1.9,1.6-5,3.6-32.8-13c-4.1,5.6-6.9,12.1-8.2,19.2c4.2-2.8,8.8-5.2,11.2-4.9c5.4,0.8,18.3,3,18.8,9.2
			c0.1,1.4,0.1,8.1-26.2,24.2c2.7,5.8,6.6,10.9,11.3,15.1c-0.2-4.3,0-8.3,1.2-10c3.2-4.4,11.3-14.6,17.1-12.1
			c1.3,0.6,7.1,3.8,8.6,33.8c1.5,0.1,3,0.2,4.5,0.2c4.9,0,9.7-0.8,14.2-2.2c-3.9-1.8-7.2-3.9-8.1-5.8
			C104.3,465,99.2,452.9,104.2,449.1z"/>
		<path class="st1" d="M104.2,449.1c1.1-0.9,6.8-4.5,34.7,9c4-5.6,6.8-12.1,8.1-19.1c-4,3.1-8.3,5.8-10.7,5.7
			c-5.4-0.3-18.4-1.6-19.4-7.7c-0.2-1.4-0.7-8.4,26-27.3c-3.4-6.9-8.5-12.9-14.7-17.3c1,5.6,1.7,12,0.2,14.3
			c-2.9,4.6-10.2,15.4-16.1,13.4c-1.4-0.5-7.8-3.4-11.6-36.5l0,0c-8,0-15.5,2-22.1,5.5c5.3,1.8,11.1,4.2,12.7,6.5
			c6.1,8.7,6,18.8,4.1,20.5c-1.9,1.6-5,3.6-32.8-13c-4.1,5.6-6.9,12.1-8.2,19.2c4.2-2.8,8.8-5.2,11.2-4.9c5.4,0.8,18.3,3,18.8,9.2
			c0.1,1.4,0.1,8.1-26.2,24.2c2.7,5.8,6.6,10.9,11.3,15.1c-0.2-4.3,0-8.3,1.2-10c3.2-4.4,11.3-14.6,17.1-12.1
			c1.3,0.6,7.1,3.8,8.6,33.8c1.5,0.1,3,0.2,4.5,0.2c4.9,0,9.7-0.8,14.2-2.2c-3.9-1.8-7.2-3.9-8.1-5.8
			C104.3,465,99.2,452.9,104.2,449.1z"/>
	</g>
	<g>
		
			<ellipse transform="matrix(0.7071 -0.7071 0.7071 0.7071 -158.6287 465.8365)" class="st0" cx="483" cy="424.4" rx="62.6" ry="62.6"/>
		<path d="M545.6,426.3c0,33.5-27.6,60.6-61.7,60.6s-59.1-26.1-59.1-59.5s25.1-59.5,59.1-59.5S545.6,392.9,545.6,426.3z"/>
		
			<ellipse transform="matrix(0.1602 -0.9871 0.9871 0.1602 -14.9083 841.8774)" class="st0" cx="487.3" cy="429.7" rx="47.1" ry="47.1"/>
		<circle class="st1" cx="487.3" cy="429.7" r="36.5"/>
		<path class="st0" d="M483.7,448.1c-1.1-0.9-6.8-4.5-34.7,9c-4-5.6-6.8-12.1-8.1-19.1c4,3.1,8.3,5.8,10.7,5.7
			c5.4-0.3,18.4-1.6,19.4-7.7c0.2-1.4,0.7-8.4-26-27.3c3.4-6.9,8.5-12.9,14.7-17.3c-1,5.6-1.7,12-0.2,14.3
			c2.9,4.6,10.2,15.4,16.1,13.4c1.4-0.5,7.8-3.4,11.6-36.5l0,0c8,0,15.5,2,22.1,5.5c-5.3,1.8-11.1,4.2-12.7,6.5
			c-6.1,8.7-6,18.8-4.1,20.5c1.9,1.6,5,3.6,32.8-13c4.1,5.6,6.9,12.1,8.2,19.2c-4.2-2.8-8.8-5.2-11.2-4.9c-5.4,0.8-18.3,3-18.8,9.2
			c-0.1,1.4-0.1,8.1,26.2,24.2c-2.7,5.8-6.6,10.9-11.3,15.1c0.2-4.3,0-8.3-1.2-10c-3.2-4.4-11.3-14.6-17.1-12.1
			c-1.3,0.6-7.1,3.8-8.6,33.8c-1.5,0.1-3,0.2-4.5,0.2c-4.9,0-9.7-0.8-14.2-2.2c3.9-1.8,7.2-3.9,8.1-5.8
			C483.5,464,488.6,451.9,483.7,448.1z"/>
		
			<ellipse transform="matrix(0.1602 -0.9871 0.9871 0.1602 -14.9083 841.8774)" class="st1" cx="487.3" cy="429.7" rx="47.1" ry="47.1"/>
		<circle class="st1" cx="487.3" cy="429.7" r="56.2"/>
		
			<ellipse transform="matrix(0.7071 -0.7071 0.7071 0.7071 -158.6287 465.8365)" class="st1" cx="483" cy="424.4" rx="62.6" ry="62.6"/>
		<path class="st1" d="M483.7,448.1c-1.1-0.9-6.8-4.5-34.7,9c-4-5.6-6.8-12.1-8.1-19.1c4,3.1,8.3,5.8,10.7,5.7
			c5.4-0.3,18.4-1.6,19.4-7.7c0.2-1.4,0.7-8.4-26-27.3c3.4-6.9,8.5-12.9,14.7-17.3c-1,5.6-1.7,12-0.2,14.3
			c2.9,4.6,10.2,15.4,16.1,13.4c1.4-0.5,7.8-3.4,11.6-36.5l0,0c8,0,15.5,2,22.1,5.5c-5.3,1.8-11.1,4.2-12.7,6.5
			c-6.1,8.7-6,18.8-4.1,20.5c1.9,1.6,5,3.6,32.8-13c4.1,5.6,6.9,12.1,8.2,19.2c-4.2-2.8-8.8-5.2-11.2-4.9c-5.4,0.8-18.3,3-18.8,9.2
			c-0.1,1.4-0.1,8.1,26.2,24.2c-2.7,5.8-6.6,10.9-11.3,15.1c0.2-4.3,0-8.3-1.2-10c-3.2-4.4-11.3-14.6-17.1-12.1
			c-1.3,0.6-7.1,3.8-8.6,33.8c-1.5,0.1-3,0.2-4.5,0.2c-4.9,0-9.7-0.8-14.2-2.2c3.9-1.8,7.2-3.9,8.1-5.8
			C483.5,464,488.6,451.9,483.7,448.1z"/>
	</g>
	<path class="st0" d="M534.4,322c-8.4-9-37.3-21.4-41.4-19.2c-4.1,2.3,23.7,29.1,32.3,32.7c8.6,3.6,19.2,3.8,19.4,0
		C544.8,331.7,534.4,322,534.4,322z"/>
	<path class="st1" d="M534.4,322c-8.4-9-37.3-21.4-41.4-19.2c-4.1,2.3,23.7,29.1,32.3,32.7c8.6,3.6,19.2,3.8,19.4,0
		C544.8,331.7,534.4,322,534.4,322z"/>
	<g>
		<path d="M547.2,445.4c0,0,9.4,1.2,14.5-6c1.8-2.5,2.4-9.8,2.1-19.2c-4.4,0.3-10.9,1.3-17.2,1.6C547.8,429.3,548,437.3,547.2,445.4
			z"/>
		<path d="M37.8,432.8c0,0,1.2-6.7,1.3-8.4c0.4-5.1,1.2-10,2.3-14.8c-4.4-0.1-8.5-0.2-12.1-0.3C28.9,432.7,37.8,432.8,37.8,432.8z"
			/>
		<path d="M418.2,424.5c-10.6,0-20.4,0-28.9-0.1c-72.8-0.8-162.6-5.2-221.9-9.4c0.8,4.2,1.2,8.5,1.2,12.8c0,7.5-5.2,21-5.2,21
			c62.7,4.8,252.4,0.6,252.4,0.6C416,445.4,416.2,435.8,418.2,424.5z"/>
	</g>
	<g>
		<path class="st1" d="M547.2,445.4c0,0,9.4,1.2,14.5-6c1.8-2.5,2.4-9.8,2.1-19.2c-4.4,0.3-10.9,1.3-17.2,1.6
			C547.8,429.3,548,437.3,547.2,445.4z"/>
		<path class="st1" d="M37.8,432.8c0,0,1.2-6.7,1.3-8.4c0.4-5.1,1.2-10,2.3-14.8c-4.4-0.1-8.5-0.2-12.1-0.3
			C28.9,432.7,37.8,432.8,37.8,432.8z"/>
		<path class="st1" d="M418.2,424.5c-10.6,0-20.4,0-28.9-0.1c-72.8-0.8-162.6-5.2-221.9-9.4c0.8,4.2,1.2,8.5,1.2,12.8
			c0,7.5-6.1,21.6-6.1,21.6c62.7,4.8,253.3,0.1,253.3,0.1C416,445.4,416.2,435.8,418.2,424.5z"/>
	</g>
	<path class="st1" d="M90.6,275.1c11-34.8,47.8-84,57.1-89.6"/>
	<path class="st1" d="M494.9,286.7c0,0-35.1,4.9-82.9-6.4c0.1,3.3,5.9,7.9,10.3,9.4c5.5,1.9,67.2,10.6,82,4.4
		C499.6,290.3,496,287.5,494.9,286.7z"/>
	<path class="st0" d="M74.4,294.1c0-3.1-10.2-9.3-20.5-10.6c-5.3,6.6-5.7,13.6-3.2,20.3C59.5,302.4,74.4,299.2,74.4,294.1z"/>
	<path class="st1" d="M74.4,294.1c0-3.1-10.2-9.3-20.5-10.6c-5.4,6.6-5.6,13.6-3.2,20.3C59.5,302.4,74.4,299.2,74.4,294.1z"/>
	<path class="st0" d="M51.5,332.5c8.9-4.2,22.9-11.5,22.9-15.2c0-3.8-5.7-8.9-23.7-7.4C47.8,319.7,49.7,327.8,51.5,332.5z"/>
	<path class="st1" d="M51.5,332.5c8.9-4.2,22.9-11.5,22.9-15.2c0-3.8-5.7-8.9-23.7-7.4C47.9,318.9,49.5,327.2,51.5,332.5z"/>
	<path class="st1" d="M107,309.7c-6-0.7-11.6,2.8-13.9,8.1c-1.3,0.4-2.2,1.5-2.4,3c-0.1,1.3,0.4,2.4,1.3,3.2
		c0.4,6.4,5.3,11.9,12,12.6c7.4,0.8,14.1-4.5,14.9-11.9C119.7,317.2,114.4,310.5,107,309.7z"/>
	<path class="st0" d="M560.5,390.4c-10-17.3-29.5-30-47.7-39.9c-17.9-9.7-57.5-17.1-57.5-17.1s9.4-1.5,54.1,9.4
		c11.9,2.9,41.9,19.3,41.9,19.3l9.3,16L560.5,390.4L560.5,390.4z"/>
</g>
<g id="Door-1" class="st3">
	<path class="st4" d="M152.3,271.7c1.9,10.4,6.8,17.8,10.4,25.9c11.5,26.5,54.7,82.9,65.2,94c8.6,9.1,133.5,28.9,160.3,32.7
		c3.4,0.5,2.9-1.7,4.2-4.5c14.3-30.7,19.4-92.7,18.2-105.9c-0.3-3.7-2.8-9.8-6.4-16.9C362.8,288.9,227.5,285,152.3,271.7z"/>
	<g class="st5">
		<path class="st2" d="M406.9,302.7c-29.9-6.1-165-10.6-243.1-24.4c-5.4-1-6.8,1.8-5.4,6.4c1.5,5,2,7.8,4.3,13.1
			c11.5,26.5,35.7,65.1,65.2,94c9,8.8,134.9,30,160.3,32.7c1.5,0.2,4.2-4.9,5.3-7.5c14.1-32.5,17.6-90.3,16.5-105.2
			c0-0.6-0.2-1.1-0.4-1.7C408.6,307.5,405.7,300.3,406.9,302.7z"/>
	</g>
	<path class="st4" d="M408.9,352.5c-30.7-4.5-102.1-17.7-103-16s101.9,22.2,101.9,22.2L408.9,352.5z"/>
	<path class="st4" d="M401,394.6c-30.7-4.5-154.1-24-155-22.3c-1,1.7,151.9,31.6,151.9,31.6L401,394.6z"/>
	<path class="st6" d="M403.8,296.3c-31.3-6.4-177.7-12.2-251.6-25.3c-4.1-23.3,10.1-59.8,24.8-67c7.9-3.9,50.3-10.2,65.3-7.9
		c14.8,2.3,35.8,12.4,39.1,13.6c27.8,10.7,103.9,58,114.7,73s13.8,23.7,14.4,31.3c1.2,13.3-3.2,69-17.1,103
		c-1.2,2.9-2.1,7.9-5.3,7.5c-26.1-3.6-151.5-23.7-160.3-32.7c-43.3-44.1-67.5-93-75.7-120.7"/>
	<path class="st4" d="M150.4,256.8c0.7,11.6,5.1,23.3,8.5,33.8c20.9,1.1,42.3,1.8,44.3-8.5C205.3,272.2,169.9,261.7,150.4,256.8z"/>
	<path class="st5" d="M150.4,261.3c1.1,10.9,5.2,19.3,8.6,29.3c18.5,1.7,35,3.7,36.4-6C196.7,275.3,167.7,266.5,150.4,261.3z"/>
	<path class="st6" d="M150.4,256.8c0.7,11.6,5.1,23.3,8.5,33.8c20.9,1.1,42.3,1.8,44.3-8.5C205.3,272.2,169.9,261.7,150.4,256.8z"/>
	<path class="st4" d="M198,280.7c-1,4.8-10.8,7.2-21.8,5.4c-11-1.8-18.5-5.3-17.9-10.1c1.5-11.1,7.5-12.1,21.6-7.2
		C190.4,272.3,199.1,275.9,198,280.7z"/>
	<path class="st5" d="M198.3,279.4c-0.9,4.1-9.6,6.2-19.5,4.6s-16.7-4.7-16.2-8.9c1.2-9.6,6.6-10.4,19.4-6.1
		C191.4,272.1,199.2,275.3,198.3,279.4z"/>
	<path class="st6" d="M198,280.7c-1,4.8-10.8,7.2-21.8,5.4c-11-1.8-18.5-5.3-17.9-10.1c1.5-11.1,7.5-12.1,21.6-7.2
		C190.4,272.3,199.1,275.9,198,280.7z"/>
	<path class="st5" d="M362.9,256.1c-4.3-2,14.4,36.7,14.4,36.7l26.5,3.4C403.8,296.3,395.5,271.7,362.9,256.1z"/>
	<path class="st6" d="M362.9,256.1c-4.2-2.1,14.4,36.7,14.4,36.7l26.5,3.4C403.8,296.3,394.5,271.5,362.9,256.1z"/>
	<path class="st4" d="M374.9,284.4c4.1,1,8.6,2.7,10.5,2.5c1.9-0.2,12.2-6.1,13.2-12.7c1-6.6-8-15.4-10.7-16.3
		c-2.7-0.9-10.5-2.7-11.3-1.2C375.7,258.2,374.9,284.4,374.9,284.4z"/>
	<path class="st5" d="M375.2,284.8c3.4,1,7.3,2.7,8.8,2.6c1.5-0.1,9.9-5.1,10.5-11s-7.3-14.1-9.7-15.1c-2.3-0.9-8.8-2.7-9.5-1.4
		C374.6,261.2,375.2,284.8,375.2,284.8z"/>
	<path class="st4" d="M385.5,266.8c0.1-2.2-2.7-6.3-6.2-10.6c-1.4-0.1-2.4,0.1-2.7,0.6c-0.9,1.5-1.6,27.6-1.6,27.6
		c0.3,0.1,0.6,0.1,0.9,0.2c3.5-1.9,7.2-4.6,8.3-5.8C385.5,277.1,385.2,275.1,385.5,266.8z"/>
	<path class="st6" d="M374.9,284.4c4.1,1,8.6,2.7,10.5,2.5c1.9-0.2,12.2-6.1,13.2-12.7c1-6.6-8-15.4-10.7-16.3
		c-2.7-0.9-10.5-2.7-11.3-1.2C375.7,258.2,374.9,284.4,374.9,284.4z"/>
	<path class="st6" d="M385.5,266.8c0.1-2.2-2.7-6.3-6.2-10.6c-1.4-0.1-2.4,0.1-2.7,0.6c-0.9,1.5-1.6,27.6-1.6,27.6
		c0.3,0.1,0.6,0.1,0.9,0.2c3.5-1.9,7.2-4.6,8.3-5.8C385.5,277.1,385.2,275.1,385.5,266.8z"/>
	<g class="st5">
		<g>
			<defs>
				<path id="SVGID_1_" d="M153.2,275.5c10.4,32.2,33.2,79.5,74.7,116.2c10.1,9,157.6,32.6,160.3,32.7c2.1,0,3.5-3.4,5.3-7.5
					c13.9-31.5,18.7-89.7,17.1-103C406.5,280.3,180.9,286.2,153.2,275.5z"/>
			</defs>
			<clipPath id="SVGID_2_">
				<use xlink:href="#SVGID_1_"  style="overflow:visible;"/>
			</clipPath>
			<path class="st7" d="M212.8,331.7c2.5-11.1,0.7-21.8,3.5-27.9l-0.2-0.4c-5.6,3.4-8.4,1.8-8.4,0.3c0-2.8,6.2-5.2,9.6-5.8
				c0.1-0.2,0.2-0.3,0.4-0.5c-3-0.1-6.4-1-6.1-2.9c0.3-2.2,5.8-3.2,12.2-1.6c0.1-0.1,0.3-0.1,0.4-0.2c-0.4-0.2-0.8-0.5-1.3-0.8
				c-1.5-1-1.6-2.3-0.9-3.2c0.8-0.9,2.8-1,4.2-0.7c2.3,0.4,4.2,1.3,5.5,2c0.2,0,0.4-0.1,0.5-0.1c-0.5-0.5-0.8-0.9-1-1.4
				c-0.3-0.7-0.2-1.5,0.7-1.9c1.1-0.5,3.4-0.3,5.1,1.7c0.4,0.4,0.6,0.8,0.9,1.2c0.2,0,0.5,0,0.7,0c-0.2-0.5-0.4-1-0.4-1.5
				c0-0.6,0.4-1.2,1.3-1.3c1-0.1,2,0.5,2.4,1.4s0.6,2,0.7,2.7c-4.7-0.3-17.4,0-20.4,12.7c-2.8,12.4,6.1,27.5,1.7,46.7
				c-1.6,7-5,13.7-14.2,20.6c-7.1,5.3-17.5,9.8-32.7,12.4c2.2,1.4,4.8,2.4,7.7,2.9l5,0.9c12.9-3.5,19.8-7.6,24.9-11.7
				c7.1,4.3,14.3,6.9,21.1,8.1c12.7,2.2,24.6-1,32.3-9c6.5-2,11.7-7.5,13-11.9c4.5-3.3,6.3-8.1,6-11.6c-0.1-0.8-0.8-1-2.3-0.5
				c-12.8,3.9-24.4,4.8-35,3c-6.4-1.1-12.7-3.1-19.3-6.1c1-6.5,0.7-12.2,0.9-15.6c0.2-4.5,2.1-7.5,7.6-6.5c4,0.7,11.3,2.9,16.7,6.3
				c5.4,3.3,7.9,8.5,10.3,9c1,0.2,2.2-0.2,2.6-2c0.8-3.7,0.7-9.9-0.7-12.4c5.6,0.7,10,1.5,12.4,2.2c5,1.7,4.7,3.9,5.4,5.6
				c0.7,1.6,2.3,2.6,4.3,2.9c3.8,0.7,6.6-0.6,8-6.8c3.1-13.5-5.3-21.8-15.7-23.6c-8.5-1.5-12.2-0.4-20.3-1.8
				c-5.7-1-8.2-11.9-14.4-14.4c-1.6-6-7.9-7.8-12.5-5.7c-3.2-2.5-9.1-2.5-10.1,1c-3.9-1.8-9.7-0.8-8.5,4.3c-10.2-1.5-13.9,5.9-7.2,8
				c-9.9,2.8-7.5,11,0.3,10.7c-0.7,5.4-0.2,14.4-1.5,20.4c-1.9,8.2-6.7,9.4-12.6,8.4c-4.7-0.8-11.2-3.5-15.6-5.4l-1.3,5.8
				c4.5,1.8,11.3,4.4,16.6,5.3C204.5,344.5,210.8,340.7,212.8,331.7z M229.2,353.9c6,2.6,14.7,5,22.1,5.8c13.1,1.5,23.7-1,29.8-3.1
				c-4.9,6.6-18.2,8.9-30.4,8.1c-0.2,0.5-0.4,1-0.6,1.5c9,1.1,18.1,0.1,22.4-1.5c-3.8,6.6-15.4,7.6-25.4,6.2c-0.4,0.5-0.8,1-1.2,1.4
				c5.8,1.1,11.5,1.1,15,0.8c-4.1,4.4-15.2,6.5-25.6,4.6c-5.1-0.9-11.3-2.9-16.3-6.1C224.5,366.1,227.5,359.8,229.2,353.9z
				 M264,318.8c2.2-3.4,4.1-5.9,6.8-7.6c2.9-1.8,5.7-2,11.6-1c8.1,1.4,13.2,9.6,11,19.5c-0.3,1.5-2.6,1.1-3-0.4
				c-1.8-4.7-5.4-5.9-11.2-7.3c-4.3-1-9.6-1.6-14.4-2.2C263.9,319.7,263.8,319.2,264,318.8z"/>
		</g>
		<g>
			<defs>
				<path id="SVGID_3_" d="M153.2,275.5c10.4,32.2,33.2,79.5,74.7,116.2c10.1,9,157.6,32.6,160.3,32.7c2.1,0,3.5-3.4,5.3-7.5
					c13.9-31.5,18.7-89.7,17.1-103C406.5,280.3,180.9,286.2,153.2,275.5z"/>
			</defs>
			<clipPath id="SVGID_4_">
				<use xlink:href="#SVGID_3_"  style="overflow:visible;"/>
			</clipPath>
			<path class="st8" d="M174.6,355.1c5.1,0,10.1,0.1,10.1,0.1l1.1-2.2c-2.2-0.5-6.6-1.2-10.3-1.8L174.6,355.1z"/>
		</g>
		<g>
			<defs>
				<path id="SVGID_5_" d="M153.2,275.5c10.4,32.2,33.2,79.5,74.7,116.2c10.1,9,157.6,32.6,160.3,32.7c2.1,0,3.5-3.4,5.3-7.5
					c13.9-31.5,18.7-89.7,17.1-103C406.5,280.3,180.9,286.2,153.2,275.5z"/>
			</defs>
			<clipPath id="SVGID_6_">
				<use xlink:href="#SVGID_5_"  style="overflow:visible;"/>
			</clipPath>
			<path class="st9" d="M242.8,296.4c1.8-0.2,3.9,1.7,4.7,4.2s0,4.7-1.9,4.9c-1.8,0.2-3.9-1.7-4.7-4.2c-0.1-0.3-0.2-0.7-0.2-1h0.3
				c0.4,0.5,1.1,0.8,1.6,0.6c0.7-0.2,0.8-1.2,0.5-2c-0.2-0.7-0.9-1.5-1.6-1.6l-0.1-0.2C241.7,296.7,242.2,296.5,242.8,296.4
				 M249.5,321.4c-7.3-2.8-15.2-6.1-18.4-12.6c-0.1-0.1-0.2-0.2-0.4-0.2c-0.1,0-0.3,0.1-0.3,0.2c-0.1,0.3-0.1,0.7-0.1,1l-0.7,0.1
				c-0.9-1.6-0.7-3.4,0.8-4.5c2.1-1.5,5.5-0.7,7.2,0.7l-0.4,0.4c-1.1-0.3-2.1-0.5-3-0.2c-0.8,0.2-1,0.8-0.7,1.5
				c2.3,6.6,12.8,9.7,25.8,11.1c1.3,0.1,1.8-0.3,2.1-0.8c2-3.6,4.8-6.7,8.4-8.8c-2.4-0.1-4.6-0.4-6.5-0.7
				c-6.7-0.8-10.3-2.2-11.3-3.2l0.3-0.5c0.7,0.3,1.4,0.5,1.6,0.4c0.3-0.2,0.1-0.4-0.1-0.7c-1-1.2-5.5-7.2-5.5-7.2
				c0.4-4.3-6.7-5.7-10.5-2.1l-0.9-0.4c0.5-0.9,1.1-1.5,1.6-2c-6.2,0.1-10.6,4.1-12.3,8.5c-7,18.7,27.6,20.1,35.5,29.4
				c0.2,0.2,0.5,0.8,0.9,0.5C263.1,330.5,259.9,325.4,249.5,321.4"/>
		</g>
		<g>
			<defs>
				<path id="SVGID_7_" d="M153.2,275.5c10.4,32.2,33.2,79.5,74.7,116.2c10.1,9,157.6,32.6,160.3,32.7c2.1,0,3.5-3.4,5.3-7.5
					c13.9-31.5,18.7-89.7,17.1-103C406.5,280.3,180.9,286.2,153.2,275.5z"/>
			</defs>
			<clipPath id="SVGID_8_">
				<use xlink:href="#SVGID_7_"  style="overflow:visible;"/>
			</clipPath>
			<path class="st10" d="M281.1,356.6c-6.1,2.1-16.8,4.5-29.8,3.1c-7.4-0.8-16.1-3.2-22.1-5.8c-0.5,1.8-1.2,3.7-2,5.5
				c3.4,1.4,9.6,3.6,18.8,5.4c-0.9,2.1-5.1,8.9-12.6,12.5c11.7,2.5,23.3,0.4,27.6-4.3c-3.5,0.3-9.2,0.3-15-0.8
				c0.4-0.4,0.8-0.9,1.2-1.4c10,1.3,21.6,0.4,25.4-6.2c-4.4,1.6-13.4,2.7-22.4,1.5c0.2-0.5,0.4-1,0.6-1.5
				C262.9,365.5,276.2,363.2,281.1,356.6z"/>
		</g>
	</g>
</g>
<g id="Door-2">
	<path class="st0" d="M212.9,151.3c-2.2,11-3.2,22-3.2,31.2c0.2,30.1,23.1,127.7,29.5,139.7c5.7,10.6,100.9,63,122.5,74.8
		c2.7,1.5,6.1,1.2,8.4-0.9c27.9-24.4,49.9-83.3,53.7-97c1-3.8,1.2-10.7,0.7-18.9C392,259.7,272.4,187.3,212.9,151.3z"/>
	<g>
		<path class="st2" d="M424.8,286.8c-23.3-15.1-142.7-88.1-204.4-125.5c-4.3-2.6-9.8,0.2-10.3,5.2c-0.5,5.5-0.5,10-0.4,16.1
			c0.2,30.1,23.1,127.7,29.5,139.7c5.7,10.7,102,63.7,122.9,75c2.5,1.4,5.5,1,7.7-0.8c27.6-24,49.9-84.4,54.4-99.7
			c0.2-0.6,0.3-1.2,0.3-1.8C424.5,292.1,424.6,284.1,424.8,286.8z"/>
	</g>
	<path class="st0" d="M408.4,337.4c-24.6-13.8-81-48.5-82.4-47c-1.4,1.4,79.9,53.4,79.9,53.4L408.4,337.4z"/>
	<path class="st0" d="M386.3,377.2c-24.6-13.8-123.2-70.4-124.6-69s118.5,77.4,118.5,77.4L386.3,377.2z"/>
	<path class="st1" d="M314.4,127.2c6.7,3.9,12.2,7.2,18,10.9"/>
	<path class="st1" d="M340.9,143.6c7,4.7,12.2,8.6,14.6,10.9c19.9,19.1,61.2,78.9,65,97.2s5.5,39.7,3.3,47.5
		c-3.8,13.7-25.9,73-54,97.2c-2.2,1.9-5.3,2.2-7.8,0.8c-21.1-11.5-117.1-64.3-122.8-75c-6.4-12-29.3-109.6-29.5-139.7
		s11.8-79.5,33.9-83.6c8.5-1.6,30.4,5,51.1,17.8"/>
	<path class="st1" d="M294.7,116.8C275,104.2,251.8,97.4,243.6,99c-15.2,2.8-25.6,27-30.5,51.6C271.6,186,400,263.7,424.5,279.5
		c-0.6-8.6-2-18.6-3.9-27.7c-3.8-18.3-45.2-78.1-65-97.2c-2.4-2.3-7.6-6.2-14.6-10.9"/>
	<path class="st1" d="M332.4,138.1c-5.5-3.5-11.6-7.2-18-10.9"/>
	<path class="st0" d="M216.7,135.8c-3.6,11.8-5.8,24.8-6.7,36.4c17.5,7.4,37.3,14.6,42.7,4.9C258,167.7,231.5,146.5,216.7,135.8z"/>
	<path d="M215,140.3c-3,11.3-4.3,21.3-4.9,32.3c15.2,7.2,30.3,13.8,35,4.5C249.6,168.2,227.9,150.7,215,140.3z"/>
	<path class="st1" d="M216.7,135.8c-3.6,11.8-5.8,24.8-6.7,36.4c17.5,7.4,37.3,14.6,42.7,4.9C258,167.7,231.5,146.5,216.7,135.8z"/>
	<path class="st0" d="M248.7,174.1c-2.6,4.5-11.8,4-20.6-1.1c-8.8-5.1-13.9-10.9-11.6-15.5c5.3-10.7,10.8-9.8,21.1-0.7
		C245.3,163.4,251.4,169.6,248.7,174.1z"/>
	<path d="M249.4,172.9c-2.3,3.9-10.5,3.3-18.4-1.3s-12.6-9.7-10.6-13.8c4.6-9.3,9.5-8.4,18.8-0.3C246.2,163.4,251.7,169,249.4,172.9
		z"/>
	<path class="st1" d="M248.7,174.1c-2.6,4.5-11.8,4-20.6-1.1c-8.8-5.1-13.9-10.9-11.6-15.5c5.3-10.7,10.8-9.8,21.1-0.7
		C245.3,163.4,251.4,169.6,248.7,174.1z"/>
	<path d="M409.4,225c-4.3-0.6-8.6,39.6-8.6,39.6l23.6,14.8C424.4,279.4,421,226.7,409.4,225z"/>
	<path class="st1" d="M409.4,225c-4.3-0.6-8.6,39.6-8.6,39.6l23.6,14.8C424.4,279.4,421,226.7,409.4,225z"/>
	<path class="st0" d="M404.1,258.8c3.1,2.2,6.4,5.3,8,5.7s12.6-2.5,15.9-8.7s-1.2-17.9-3.3-19.6c-2-1.8-8-5.8-9.3-4.6
		C414.3,232.8,404.1,258.8,404.1,258.8z"/>
	<path d="M404.1,259.3c2.6,2.1,5.3,4.9,6.6,5.3c1.3,0.4,10.3-2.2,12.9-7.9c2.7-5.7-1.1-16.4-2.8-18c-1.7-1.6-6.6-5.4-7.6-4.3
		C412.3,235.6,404.1,259.3,404.1,259.3z"/>
	<path class="st0" d="M419.6,244.4c0.9-2.1,0-7.2-1.5-12.5c-1.2-0.5-2.1-0.7-2.5-0.3c-1.3,1.2-11.4,27.2-11.4,27.2
		c0.2,0.2,0.5,0.3,0.7,0.5c3.7-0.8,7.8-2.4,9.2-3.3C415.8,254.7,416.3,252.6,419.6,244.4z"/>
	<path class="st1" d="M404.1,258.8c3.1,2.2,6.4,5.3,8,5.7s12.6-2.5,15.9-8.7s-1.2-17.9-3.3-19.6c-2-1.8-8-5.8-9.3-4.6
		C414.3,232.8,404.1,258.8,404.1,258.8z"/>
	<path class="st1" d="M419.6,244.4c0.9-2.1,0-7.2-1.5-12.5c-1.2-0.5-2.1-0.7-2.5-0.3c-1.3,1.2-11.4,27.2-11.4,27.2
		c0.2,0.2,0.5,0.3,0.7,0.5c3.7-0.8,7.8-2.4,9.2-3.3C415.8,254.7,416.3,252.6,419.6,244.4z"/>
	<g>
		<g>
			<defs>
				<path id="SVGID_9_" d="M340.9,143.6c7,4.7,12.2,8.6,14.6,10.9c19.9,19.1,61.2,78.9,65,97.2s5.5,39.7,3.3,47.5
					c-3.8,13.7-25.9,73-54,97.2c-2.2,1.9-5.3,2.2-7.8,0.8c-21.1-11.5-117.1-64.3-122.8-75c-6.4-12-29.3-109.6-29.5-139.7
					s11.8-79.5,33.9-83.6c8.5-1.6,30.4,5,51.1,17.8"/>
			</defs>
			<clipPath id="SVGID_10_">
				<use xlink:href="#SVGID_9_"  style="overflow:visible;"/>
			</clipPath>
			<path class="st11" d="M248.2,257.5c6.2-10.3,8.6-21.7,13.1-26.9l-0.1-0.5c-6.1,1.7-7.8-0.8-7.3-2.2c1-2.8,7.2-3.3,10.3-2.9
				c0.1-0.1,0.3-0.3,0.5-0.4c-2.5-1-5.1-3-4.2-4.7c1.1-2.1,6.1-1.5,11,2c0.1,0,0.3,0,0.4-0.1c-0.2-0.3-0.5-0.7-0.8-1.2
				c-0.9-1.5-0.5-2.8,0.4-3.4c1-0.6,2.7-0.1,3.9,0.6c1.8,1.2,3.1,2.6,4,3.7c0.2,0,0.3,0,0.5,0.1c-0.2-0.6-0.4-1.2-0.4-1.7
				c0-0.7,0.4-1.6,1.3-1.7c1.1-0.1,3,0.7,3.8,3.3c0.2,0.5,0.3,1,0.3,1.4c0.2,0.1,0.4,0.1,0.6,0.2c0-0.6,0-1.2,0.2-1.6
				c0.2-0.6,0.8-1.1,1.6-0.9c0.9,0.2,1.5,1.1,1.6,2.1c0,1.1-0.2,2.2-0.4,3c-3.9-1.8-14.9-5.3-22,6.6c-6.9,11.6-4.8,29.4-15.5,47.4
				c-3.9,6.5-9.3,12.2-19.6,16.4c-8,3.2-18.6,4.6-32.5,2.6c1.3,2.1,3.2,3.9,5.5,5.3l4,2.4c12.3,0.3,19.7-1.7,25.6-4.2
				c4.5,6.5,9.7,11.3,15.1,14.5c10,6,21.4,6.4,30.9,0.7c6.3-0.1,12.8-4,15.4-8c5-1.9,8.3-6.2,9.3-9.9c0.2-0.9-0.3-1.2-1.8-1.2
				c-12.3,0.1-22.7-2.5-31-7.5c-5.1-3-9.8-7-14.3-11.9c3.2-6.3,5-12,6.4-15.4c1.8-4.4,4.5-6.9,8.9-4.3c3.2,1.9,8.6,6.3,12.1,11.3
				c3.4,5,3.6,10.9,5.6,12.1c0.8,0.5,1.9,0.5,2.9-1.2c2.1-3.5,4.2-9.7,3.9-12.6c4.5,2.4,8,4.5,9.8,5.9c3.7,3.2,2.6,5.4,2.6,7.2
				c0,1.8,1,3.3,2.6,4.2c3,1.8,5.9,1.4,9.3-4.4c7.6-12.6,3.4-23.5-4.8-28.4c-6.8-4-10.3-4.1-16.7-7.9c-4.6-2.7-2.7-14.4-7.1-18.7
				c0.8-6.5-4-10.2-8.7-9.5c-1.8-3.5-6.9-5.2-9-2.1c-2.7-3-8-3.8-8.8,1.7c-8.2-4.6-14,1.7-9.1,5.8c-9.5-0.2-10.4,8.8-3.6,10.8
				c-2.6,5.2-5.4,14.4-8.7,20c-4.6,7.7-9.1,7.4-13.8,4.6c-3.7-2.2-8.3-6.9-11.4-10.1l-3.2,5.4c3.2,3.2,8.1,7.8,12.3,10.3
				C236.4,267.9,243.1,265.9,248.2,257.5z M254,284.7c4.2,4.5,10.8,9.4,16.8,12.5c10.7,5.4,20.7,6.1,26.7,5.9
				c-6.6,5.1-18.8,3.4-28.9-1.1c-0.4,0.4-0.7,0.9-1.1,1.3c7.3,3.9,15.4,5.5,19.8,5.2c-5.7,5.5-15.9,3-24-1.4c-0.5,0.4-1.1,0.7-1.6,1
				c4.5,2.8,9.4,4.6,12.5,5.3c-5.1,3.2-15.4,1.9-23.6-3.1c-4.1-2.4-8.6-6.3-11.8-11C245.6,295.5,250.4,290.1,254,284.7z M296.6,260
				c3.1-2.7,5.6-4.7,8.6-5.5c3.1-0.9,5.6-0.3,10.3,2.5c6.4,3.8,7.8,13.6,2.3,22.8c-0.8,1.4-2.6,0.3-2.5-1.3
				c0.2-5.2-2.5-7.6-6.9-10.7c-3.3-2.3-7.6-4.4-11.5-6.5C296.2,260.9,296.3,260.3,296.6,260z"/>
		</g>
		<g>
			<defs>
				<path id="SVGID_11_" d="M340.9,143.6c7,4.7,12.2,8.6,14.6,10.9c19.9,19.1,61.2,78.9,65,97.2s5.5,39.7,3.3,47.5
					c-3.8,13.7-25.9,73-54,97.2c-2.2,1.9-5.3,2.2-7.8,0.8c-21.1-11.5-117.1-64.3-122.8-75c-6.4-12-29.3-109.6-29.5-139.7
					s11.8-79.5,33.9-83.6c8.5-1.6,30.4,5,51.1,17.8"/>
			</defs>
			<clipPath id="SVGID_12_">
				<use xlink:href="#SVGID_11_"  style="overflow:visible;"/>
			</clipPath>
			<path class="st12" d="M206.9,269.5c4.3,1.5,8.6,3.1,8.6,3.1l1.8-1.8c-1.7-1.1-5.2-3.2-8.2-4.9L206.9,269.5z"/>
		</g>
		<g>
			<defs>
				<path id="SVGID_13_" d="M340.9,143.6c7,4.7,12.2,8.6,14.6,10.9c19.9,19.1,61.2,78.9,65,97.2s5.5,39.7,3.3,47.5
					c-3.8,13.7-25.9,73-54,97.2c-2.2,1.9-5.3,2.2-7.8,0.8c-21.1-11.5-117.1-64.3-122.8-75c-6.4-12-29.3-109.6-29.5-139.7
					s11.8-79.5,33.9-83.6c8.5-1.6,30.4,5,51.1,17.8"/>
			</defs>
			<clipPath id="SVGID_14_">
				<use xlink:href="#SVGID_13_"  style="overflow:visible;"/>
			</clipPath>
			<path class="st13" d="M286.6,231.1c1.6,0.3,2.8,2.9,2.5,5.6c-0.2,2.8-1.8,4.7-3.4,4.3c-1.6-0.3-2.8-2.8-2.5-5.6
				c0-0.4,0.1-0.7,0.2-1.1l0.3,0.1c0.2,0.7,0.6,1.1,1.1,1.1c0.7,0,1.1-0.9,1.2-1.9c0.1-0.8-0.2-1.8-0.8-2.1v-0.2
				C285.6,231.2,286.1,231,286.6,231.1 M283.3,258.2c-5.3-5-10.8-10.7-11.2-18.2c0-0.1-0.1-0.3-0.2-0.3s-0.3,0-0.4,0.1
				c-0.2,0.3-0.3,0.6-0.5,1l-0.6-0.1c-0.1-1.9,0.6-3.6,2.3-4.2c2.3-0.9,4.9,0.9,5.9,2.9l-0.5,0.3c-0.8-0.7-1.6-1.2-2.5-1.1
				c-0.7,0-1.1,0.5-1.2,1.3c-0.4,7.3,7.4,13.6,18.1,18.9c1.1,0.5,1.6,0.2,2.1-0.2c3-3,6.5-5.3,10.4-6.3c-2-0.8-3.8-1.8-5.3-2.6
				c-5.4-2.8-8-5.3-8.5-6.6l0.4-0.4c0.4,0.5,1,0.9,1.2,0.8c0.3-0.1,0.3-0.3,0.1-0.7c-0.4-1.5-2.1-8.9-2.1-8.9
				c1.9-4.2-3.7-7.8-8.3-5.2l-0.6-0.7c0.7-0.7,1.5-1.2,2.1-1.5c-5.4-1.7-10.6,1-13.6,4.8c-12.8,16.6,16.3,28.4,19.7,40.1
				c0.1,0.2,0.1,0.9,0.6,0.8C291.6,271.5,290.8,265.3,283.3,258.2"/>
		</g>
		<g>
			<defs>
				<path id="SVGID_15_" d="M340.9,143.6c7,4.7,12.2,8.6,14.6,10.9c19.9,19.1,61.2,78.9,65,97.2s5.5,39.7,3.3,47.5
					c-3.8,13.7-25.9,73-54,97.2c-2.2,1.9-5.3,2.2-7.8,0.8c-21.1-11.5-117.1-64.3-122.8-75c-6.4-12-29.3-109.6-29.5-139.7
					s11.8-79.5,33.9-83.6c8.5-1.6,30.4,5,51.1,17.8"/>
			</defs>
			<clipPath id="SVGID_16_">
				<use xlink:href="#SVGID_15_"  style="overflow:visible;"/>
			</clipPath>
			<path class="st14" d="M297.5,303.1c-6,0.2-16-0.5-26.7-5.9c-6.1-3.1-12.6-8-16.8-12.5c-1.1,1.7-2.3,3.3-3.7,5
				c2.4,2.5,6.9,6.5,14.1,11.1c-1.5,1.8-7.6,7.4-15.4,8.7c9.1,6,19.8,7.4,25.2,4c-3.1-0.7-8-2.5-12.5-5.3c0.5-0.3,1-0.7,1.6-1
				c8.1,4.3,18.3,6.9,24,1.4c-4.3,0.3-12.5-1.4-19.8-5.2c0.4-0.4,0.7-0.8,1.1-1.3C278.7,306.5,290.9,308.2,297.5,303.1z"/>
		</g>
	</g>
</g>
</svg>
