<?xml version="1.0" encoding="utf-8"?>
<!-- Generator: Adobe Illustrator 22.0.1, SVG Export Plug-In . SVG Version: 6.00 Build 0)  -->
<svg version="1.1" id="Layer_1" xmlns="http://www.w3.org/2000/svg" xmlns:xlink="http://www.w3.org/1999/xlink" x="0px" y="0px"
	 viewBox="0 0 621.4 621.4" style="enable-background:new 0 0 621.4 621.4;" xml:space="preserve">
<style type="text/css">
	.st0{fill:#FFFFFF;}
	.st1{fill:none;stroke:#000000;stroke-width:2;stroke-linecap:round;stroke-linejoin:round;stroke-miterlimit:10;}
	.st2{fill:#FF6900;}
	.st3{fill:none;stroke:#FF6900;stroke-width:2;stroke-miterlimit:10;}
	.st4{fill:none;stroke:#000000;stroke-linecap:round;stroke-linejoin:round;stroke-miterlimit:10;}
</style>
<g id="Dodo_1_">
	<g id="Dodo">
		<path class="st0" d="M378.6,299.3l-4.5,24.3l-3.9,7.3l7.7,11l-14.4,12.6l-20.7,11.3c0,0-10-65.5-11.1-66.9s20.3-7.6,20.3-7.6
			L378.6,299.3z"/>
		<path class="st0" d="M265,562.7c0.5-0.3,1.3-10.9,2-14.2c0.7-3.3,1.6-6,1.6-6c1,1.6,15-3.6,17.6-4.3c4.9-1.2,6.7-0.9,10.1,4.1
			c3.4,5,8.2,11.2,10.1,13.1c1.9,1.9,7.3,6.4,11,8c3.7,1.6,3.9,3.9,4.4,4.9s0.3,6.7,0.3,9s-0.2,3.4-1.3,4.2s-7.2,2.6-15,2.1
			c-7.8-0.5-17.4-2.9-21-3.9s-7.7-3.1-10.9-3.9c-3.3-0.8-8.8-2.3-9.8-3.9C263.1,570.4,264.5,563.1,265,562.7z"/>
		<path class="st0" d="M329.9,529.3c1.4-0.1,2.7,4.9,4.4,6.8c2.6,2.8,6.1,2.1,9.3-0.9c1.2-1.1,2.3-2.1,3.3-2.8
			c-0.4-2.5,1.2-3.8,3.7-5c2.7-1.3,2.1-2.6,2.1-2.6c1.3-0.4,14.9,8.1,20.2,14.2l0,0c8.2,6.7,12.1,3.9,16,6.9s2.8,14.1,2.8,14.1
			s-2,3.8-7.4,5.3c-5.5,1.5-12.2,2-18.3,1.3c-6.2-0.7-13-3-20-3.9s-12.6-1.6-14.8-3.9c-2.2-2.4-0.8-8.3-0.8-8.3s0.3-8.8-0.4-12.2
			C329.1,534.8,328.5,529.5,329.9,529.3z"/>
		<path d="M265,562.7c0.5-0.3,1.3-10.9,2-14.2c0.7-3.3,1.6-6,1.6-6c1,1.6,10.3-4.1,12.8-4.7c4.9-1.2,5.5-0.5,8.9,4.5
			s11.3,15.4,13.3,17.5c6.4,6.7,18.6,7.1,18.7,14.3c0,1.1,0.5,6.2-1.4,7.6c-1.2,0.8-7.2,2.6-15,2.1c-7.8-0.5-17.4-2.9-21-3.9
			s-7.7-3.1-10.9-3.9c-3.3-0.8-8.8-2.3-9.8-3.9C263.1,570.4,264.5,563.1,265,562.7z"/>
		<path d="M329.9,527.2c1.4-0.1,2.7,5.2,4.4,7.2c2.6,3,6.1,2.2,9.3-1c1.2-1.2,2.3-2.2,3.3-3c-0.4-2.6,0.5-4.1,3.1-5.3
			c2.7-1.3,0.6,1.8,0.6,1.8c1.3-0.4,12.7,8.3,16.9,14c5.2,7.1,22.2,4.5,24.3,11.5v7.2c0,0-2,4-7.4,5.6c-5.5,1.6-12.2,2.1-18.3,1.3
			c-6.2-0.7-13-3.2-20-4.1c-7-0.9-12.6-1.6-14.8-4.2c-2.2-2.5-0.8-8.8-0.8-8.8s0.3-9.3-0.4-12.9C329.1,533,328.5,527.3,329.9,527.2z
			"/>
		<path class="st1" d="M265,562.7c0.5-0.3,1.3-10.9,2-14.2c0.7-3.3,1.6-6,1.6-6c1,1.6,15-3.6,17.6-4.3c4.9-1.2,6.7-0.9,10.1,4.1
			c3.4,5,8.2,11.2,10.1,13.1c1.9,1.9,7.3,6.4,11,8c3.7,1.6,3.9,3.9,4.4,4.9s0.3,6.7,0.3,9s-0.2,3.4-1.3,4.2s-7.2,2.6-15,2.1
			c-7.8-0.5-17.4-2.9-21-3.9s-7.7-3.1-10.9-3.9c-3.3-0.8-8.8-2.3-9.8-3.9C263.1,570.4,264.5,563.1,265,562.7z"/>
		<path class="st1" d="M387.9,298.9c-0.4,12.4-4.1,23.7-9.3,30.3c0,0,8.5,2.9,9.3,6.1s-11.4,25.3-34.4,32c-22.9,6.7-71-49.2-71-49.2
			l62.2-35L387.9,298.9z"/>
		<path d="M331.5,314.9c0,0,27,8.8,33.8,8.4s7.2-12.3,7.2-12.3l-38.1-7.3l40.3-9.7l13.4,4.9c-0.4,12.4-4.1,23.7-9.3,30.3
			c0,0,8.5,2.9,9.3,6.1s-11.4,25.3-34.4,32c-4.1,1.2-8.9,0.4-14.2-1.7c-0.1-2.3,0.5-3.8,2-4.2c11.3-3.4,28.5-21.1,28.5-21.1
			c-5.2,0.3-25.1-8.4-25.1-8.4L331.5,314.9z"/>
		<path class="st0" d="M419.4,267.3c1.6-0.2,2.6,6-0.9,8.3s-3.5,2.3-3.5,2.3l-3.4,1.9c0,0,3.8-2.2,5.8-0.7s3,5.1,2.6,6.4
			s1.2,3.7-0.5,6.4c-0.9,1.5,0,5.2-1.2,6.5c-1.2,1.2,0.6,5-2.4,5.8c-3,0.7-3.2,2.1-4.6,1.9s-7.5,1.2-16.7-2.7
			c-5.6-2.4-12.5-17.2-12.5-17.2s9.6-2.1,11.4-3c1.7-1,7-6.7,9.5-8c2.5-1.2,9.3-2.2,12.1-4.1C417.9,269.2,417,267.6,419.4,267.3z"/>
		<path class="st1" d="M331.5,314.9c0,0,27,8.8,33.8,8.4s7.2-12.3,7.2-12.3l-38.1-7.3l40.3-9.7l13.4,4.9
			c-0.4,12.4-4.1,23.7-9.3,30.3c0,0,8.5,2.9,9.3,6.1s-11.4,25.3-34.4,32c-4.1,1.2-8.9,0.4-14.2-1.7c-0.1-2.3,0.5-3.8,2-4.2
			c11.3-3.4,28.5-21.1,28.5-21.1c-5.2,0.3-25.1-8.4-25.1-8.4L331.5,314.9z"/>
		<path class="st2" d="M420.5,268.8c0,0,2.4,5.3-6.1,9.4c0,0,6.2,1.3,5.4,7.4c-0.2,1.2,1,4.6-0.7,7.4c-0.8,1.3,0.2,4.4-1,5.5
			s0.6,5.3-2.4,6s-3.2,1.8-4.6,1.6c-1.4-0.2-7,0.7-16.1-2.4c-5.6-1.9-12.7-13.8-12.7-13.8s9.6-1.9,11.4-2.8c1.7-0.8,7.1-5.8,9.6-6.9
			s8.3-3.7,11.1-5.3C417.4,273.2,419.4,270.1,420.5,268.8z"/>
		<path class="st1" d="M419.4,267.3c1.6-0.2,2.6,6-0.9,8.3s-3.5,2.3-3.5,2.3l-3.4,1.9c0,0,3.8-2.2,5.8-0.7s3,5.1,2.6,6.4
			s1.2,3.7-0.5,6.4c-0.9,1.5,0,5.2-1.2,6.5c-1.2,1.2,0.6,5-2.4,5.8c-3,0.7-3.2,2.1-4.6,1.9s-7.5,1.2-16.7-2.7
			c-5.6-2.4-12.5-17.2-12.5-17.2s9.6-2.1,11.4-3c1.7-1,7-6.7,9.5-8c2.5-1.2,9.3-2.2,12.1-4.1C417.9,269.2,417,267.6,419.4,267.3z"/>
		<path class="st0" d="M297,230.6c-2.3-2.1-8.6-8.6-10.8-6.5c-0.8,0.8-1.1,2.1-1.4,3.2c-1.1,4.6-2.1,9.2-2.4,13.9
			c-0.8,12.7,4,25.3,11.5,35.6s17.3,18.6,27.6,26.1c2.2,1.6,4.6,3.3,7.2,4c2.2,0.6,4.5,0.6,6.7,0.6c19.2-0.2,32.2-0.2,51.2-3.2
			c1.3-0.2,2.7-0.5,3.5-1.6c0.6-0.8,0.7-2,0.7-3c0.1-3.3-0.8-11.3-0.7-14.7c0-1,0-2.1-0.6-3c-0.6-0.8-1.5-1.1-2.4-1.4
			c-15.2-4.9-25.6,1.3-39.3-6.8c-6.6-3.9-11.6-10.1-17.4-15.1c-8.7-7.5-19.3-12.6-28-20C299.8,236.7,297.2,234,297,230.6z"/>
		<path class="st2" d="M297,241.7c-2.3-1.8-8.6-7.4-10.8-5.5c-0.8,0.7-1.1,1.8-1.4,2.7c-1.1,3.9-2.1,7.9-2.4,11.9
			c-0.8,10.9,4,21.6,11.5,30.5c7.4,8.8,17.3,15.9,27.6,22.4c2.2,1.4,4.6,2.8,7.2,3.5c2.2,0.5,4.5,0.5,6.7,0.5
			c19.2-0.2,32.2-0.1,51.2-2.7c1.3-0.2,2.7-0.4,3.5-1.3c0.6-0.7,0.7-1.7,0.7-2.6c0.1-2.8-0.8-8.3-0.7-11.1c0-0.9,0-1.8-0.6-2.5
			s-1.5-1-2.4-1.2c-15.2-4.2-25.6,1.1-39.3-5.9c-6.6-3.4-11.6-8.6-17.4-12.9c-8.7-6.4-19.3-12.2-28-18.6
			C299.8,246.9,297.2,244.6,297,241.7z"/>
		<path class="st1" d="M297,230.6c-2.3-2.1-8.6-8.6-10.8-6.5c-0.8,0.8-1.1,2.1-1.4,3.2c-1.1,4.6-2.1,9.2-2.4,13.9
			c-0.8,12.7,4,25.3,11.5,35.6s17.3,18.6,27.6,26.1c2.2,1.6,4.6,3.3,7.2,4c2.2,0.6,4.5,0.6,6.7,0.6c19.2-0.2,32.2-0.2,51.2-3.2
			c1.3-0.2,2.7-0.5,3.5-1.6c0.6-0.8,0.7-2,0.7-3c0.1-3.3-0.8-11.3-0.7-14.7c0-1,0-2.1-0.6-3c-0.6-0.8-1.5-1.1-2.4-1.4
			c-15.2-4.9-25.6,1.3-39.3-6.8c-6.6-3.9-11.6-10.1-17.4-15.1c-8.7-7.5-19.3-12.6-28-20C299.8,236.7,297.2,234,297,230.6z"/>
		<path class="st1" d="M329.9,529.3c1.4-0.1,2.7,4.9,4.4,6.8c2.6,2.8,6.1,2.1,9.3-0.9c1.2-1.1,2.3-2.1,3.3-2.8
			c-0.4-2.5,1.2-3.8,3.7-5c2.7-1.3,2.1-2.6,2.1-2.6c1.3-0.4,14.9,8.1,20.2,14.2l0,0c8.2,6.7,12.1,3.9,16,6.9s2.8,14.1,2.8,14.1
			s-2,3.8-7.4,5.3c-5.5,1.5-12.2,2-18.3,1.3c-6.2-0.7-13-3-20-3.9s-12.6-1.6-14.8-3.9c-2.2-2.4-0.8-8.3-0.8-8.3s0.3-8.8-0.4-12.2
			C329.1,534.8,328.5,529.5,329.9,529.3z"/>
		<path class="st0" d="M348.8,425.2c0.5,4.1-1.1,14-0.3,18.4c1.1,6.1,3.3,15.2,2.3,24.6c-0.3,2.6,1.1,15.6,2.6,27.3
			c0.6,5.1,1.3,16.2,2.9,21.1c0.6,1.7,2.1,6.1,1.6,7.9c-0.3,1.2-1.1,2.2-1.9,3.1c-6.7,7.8-13.9,11.4-24.1,12.8
			c-1.4,0.2-3,0.3-4.2-0.6c-1.3-1-2.5-5.5-2.5-7.2c0-4.2,0.4-8.3,1.1-12.4c0.2-1,0.4-2.1,0.1-3.1c-0.3-1-1.2-1.8-1.7-2.7
			c-1.2-2.1-0.4-4.8-0.5-7.2c0-3.3-1.5-6.4-3-9.4c-1.8-3.6-3.5-7.3-5.3-10.9c-0.9-1.9-1.9-4-1.8-6.2c0.1-1.6,0.8-3.1,1.1-4.7
			c0.7-3.6-0.8-7.1-2.1-10.5c-3.6-9.4-5.9-19.3-7-29.4c-0.4-3.5-0.6-7.2,0.6-10.5c0.9-2.4,2.5-4.5,4.1-6.6c3.9-4.9,8-9.6,12.3-14.1
			c3.8-4,23.8-27.6,28.9-29.9C352,374.9,347,409.8,348.8,425.2z"/>
		<path class="st2" d="M346,417.9c0.4,4.1-3.4,20.5-2.6,24.9c1.1,6.1,3.2,17.7,2.2,27.2c-0.3,2.6,1,14.8,2.4,26.6
			c0.6,5.1,1.4,16.9,2.9,21.8c0.5,1.7,2.5,10.7,1.7,11.6c-6.4,7.8-10.3,8.4-20.1,9.7c-1.4,0.2-2.9,0.3-4-0.6c-1.3-1-3.3-5.5-3.3-7.2
			c0-4.2,0.4-7.6,1.1-11.7c0.2-1,0.4-2.1,0.1-3.1s-1.2-1.8-1.7-2.7c-1.1-2.1-0.5-5.6-0.5-8.1c0-3.3-2.1-6.7-3.5-9.7
			c-1.7-3.6-3.4-6.8-5-10.5c-0.9-1.9-1.6-3.3-1.4-5.5c0.1-1.6,1-4.2,1.2-5.8c0.6-3.6-1.4-7.1-2.6-10.5c-3.5-9.4-5.9-19.4-6.9-29.4
			c-0.4-3.5,1.9-7.2,3-10.5c0.9-2.4,2.4-4.5,3.9-6.6c3.7-4.9,7.7-9.6,11.9-14.1c3.7-4,23-27.6,27.9-29.9
			C352.5,373.8,344.2,402.5,346,417.9z"/>
		<path class="st1" d="M348.8,425.2c0.5,4.1-1.1,14-0.3,18.4c1.1,6.1,3.3,15.2,2.3,24.6c-0.3,2.6,1.1,15.6,2.6,27.3
			c0.6,5.1,1.3,16.2,2.9,21.1c0.6,1.7,2.1,6.1,1.6,7.9c-0.3,1.2-1.1,2.2-1.9,3.1c-6.7,7.8-13.9,11.4-24.1,12.8
			c-1.4,0.2-3,0.3-4.2-0.6c-1.3-1-2.5-5.5-2.5-7.2c0-4.2,0.4-8.3,1.1-12.4c0.2-1,0.4-2.1,0.1-3.1c-0.3-1-1.2-1.8-1.7-2.7
			c-1.2-2.1-0.4-4.8-0.5-7.2c0-3.3-1.5-6.4-3-9.4c-1.8-3.6-3.5-7.3-5.3-10.9c-0.9-1.9-1.9-4-1.8-6.2c0.1-1.6,0.8-3.1,1.1-4.7
			c0.7-3.6-0.8-7.1-2.1-10.5c-3.6-9.4-5.9-19.3-7-29.4c-0.4-3.5-0.6-7.2,0.6-10.5c0.9-2.4,2.5-4.5,4.1-6.6c3.9-4.9,8-9.6,12.3-14.1
			c3.8-4,23.8-27.6,28.9-29.9C352,374.9,347,409.8,348.8,425.2z"/>
		<path class="st0" d="M199.8,395.6c5.7-2.4,13.3-5.1,18.7-5.2c-4.4,12.1-6.1,25.2-5.1,38.1c0.1,1.6,1.9,2.6,3.3,1.7
			c6.1-3.6,12.6-6.6,19.4-8.7c2,3.1,2.8,6.9,3.2,15.2c0.2,5.1,7,4.1,10.5,3.9c4.9-0.3,18.9-1.7,21-6.1c-9-13.1-25.8-28.9-27.3-44.7
			c-1.5-15.8-0.4-31.7,0.6-47.6c0.4-6.4-3.3-13.3-10.3-8.7c-5.3,3.5-12.3,11-15.8,16.2c-8.4,12.9-17,28.3-20.3,44.4
			C197.6,395.1,198.6,396,199.8,395.6z"/>
		<path class="st2" d="M207.1,392.8c5.7-2.4,11.9-3.1,17.4-3.2c-4.4,12.1-12.3,24-11.2,36.8c0.1,1.6,1,4,2.4,3.1
			c6.1-3.6,13.7-6,20.5-8.2c2,3.1,2.8,6.9,3.2,15.2c0.2,5.1,7,4.1,10.5,3.9c4.9-0.3,25.3-3.3,27.4-7.8c-9-13.1-25.8-28.9-27.3-44.7
			c-1.5-15.8-0.4-31.7,0.6-47.6c0.4-6.4-1.3-13.1-8.3-8.6c-5.3,3.5-12.3,11-15.8,16.2c-8.4,12.9-19,28.1-22.3,44.2
			C203.8,393.5,206.1,393.2,207.1,392.8z"/>
		<path class="st1" d="M204.3,374.2c-2.9,6.4-5.2,13-6.6,19.7c-0.2,1.1,0.9,2.1,2,1.6c5.7-2.4,13.3-5.1,18.7-5.2
			c-4.4,12.1-6.1,25.2-5.1,38.1c0.1,1.6,1.9,2.6,3.3,1.7c6.1-3.6,12.6-6.6,19.4-8.7c2,3.1,2.8,6.9,3.2,15.2c0.2,5.1,7,4.1,10.5,3.9
			c4.9-0.3,18.9-1.7,21-6.1c-9-13.1-25.8-28.9-27.3-44.7c-1.5-15.8-0.4-31.7,0.6-47.6c0.4-6.4-2.5-11.7-10.3-8.7
			c-4,1.5-11.2,9.7-14.8,14.8"/>
		<path class="st1" d="M212.2,359c-2,3.3-3.8,6.8-5.6,10.3"/>
		<path class="st1" d="M219.1,348.2c-0.3,0.5-0.7,0.9-0.9,1.4c-2,3-3.9,6.2-5.8,9.4"/>
		<path class="st0" d="M248.8,120.7c0.3-7.4,4.8-14.5,11.3-18c0.7-0.4,1.5-0.8,1.8-1.5c0.6-1.2-0.3-2.5-0.9-3.7
			c-2.5-4.4-2.6-10.1,0.1-14.4s8-6.8,13-6c-2.6-5.4-1-12.5,3.7-16.2c4.7-3.7,11.9-3.7,16.6,0c-0.9-3.4,1.8-6.9,5.1-8.1
			c3.3-1.1,7-0.4,10.2,0.9c7.7,3.1,13.6,9.2,18.1,16.1c2.2,3.4,3.6,7.1,6.2,10.2c1.8,2.2,6,6.1,1,8c-1.5,0.5-3.1,0.4-4.6,0.3
			c-9-0.6-18.1,0.7-26.3,4.5c-8.1,3.8-15.2,10.2-19.1,18.3c-3.1,6.5-4.2,13.7-5.2,20.8c-0.6,4-1.2,8.1-1.7,12.1
			c2.7,3,4.9,6.4,5.9,10.3c1.7,6.5,0.9,9.6-5.4,12c-2.1,0.8-1.6,3.7-3.8,3.6c-5.5-0.2-13.7-2.1-18.4-5.2c-4.7-3-9-7.4-8.9-13
			c0.2-7.8,4.7-17.5,8.2-19.7C251,131.2,248.6,125.5,248.8,120.7z"/>
		<path class="st2" d="M253.6,124c0.3-7,4.5-13.7,10.6-17c0.7-0.4,1.4-0.7,1.7-1.4c0.5-1.1-0.2-2.4-0.8-3.5
			c-2.4-4.1-2.4-9.6,0.1-13.7s7.5-6.5,12.2-5.7c-2.4-5.1-0.9-11.8,3.5-15.3s11.1-3.6,15.5,0c-0.8-3.2,1.7-6.5,4.7-7.6
			c3.1-1.1,6.5-0.4,9.5,0.9c7.2,2.9,12.7,8.7,16.8,15.2c2,3.2,3.4,6.7,5.7,9.6c1.7,2.1,5.5,5.8,0.9,7.6c-1.4,0.5-2.9,0.4-4.3,0.3
			c-8.4-0.6-16.9,0.7-24.5,4.3c-7.6,3.6-14.2,9.7-17.9,17.3c-2.9,6.1-3.9,12.9-4.9,19.7c-0.6,3.8-1.1,7.6-1.7,11.4
			c2.5,2.9,4.5,6.1,5.5,9.8c1.6,6.1,0.8,9.1-5.1,11.4c-2,0.8-1.5,3.5-3.6,3.5c-5.2-0.1-12.8-2-17.2-4.8c-4.3-2.8-8.4-7-8.3-12.2
			c0.2-7.4,4.4-16.6,7.7-18.7C255.6,133.9,253.4,128.6,253.6,124z"/>
		<path class="st1" d="M248.8,120.7c0.3-7.4,4.8-14.5,11.3-18c0.7-0.4,1.5-0.8,1.8-1.5c0.6-1.2-0.3-2.5-0.9-3.7
			c-2.5-4.4-2.6-10.1,0.1-14.4s8-6.8,13-6c-2.6-5.4-1-12.5,3.7-16.2c4.7-3.7,11.9-3.7,16.6,0c-0.9-3.4,1.8-6.9,5.1-8.1
			c3.3-1.1,7-0.4,10.2,0.9c7.7,3.1,13.6,9.2,18.1,16.1c2.2,3.4,3.6,7.1,6.2,10.2c1.8,2.2,6,6.1,1,8c-1.5,0.5-3.1,0.4-4.6,0.3
			c-9-0.6-18.1,0.7-26.3,4.5c-8.1,3.8-15.2,10.2-19.1,18.3c-3.1,6.5-4.2,13.7-5.2,20.8c-0.6,4-1.2,8.1-1.7,12.1
			c2.7,3,4.9,6.4,5.9,10.3c1.7,6.5,0.9,9.6-5.4,12c-2.1,0.8-1.6,3.7-3.8,3.6c-5.5-0.2-13.7-2.1-18.4-5.2c-4.7-3-9-7.4-8.9-13
			c0.2-7.8,4.7-17.5,8.2-19.7C251,131.2,248.6,125.5,248.8,120.7z"/>
		<path class="st0" d="M275,113.9l-4.9,3.5c0,0-4.7,30.5-7.6,67c-1.5,19-5.7,39.2-7.4,48.6c-6,32.9-34.4,84.5-26.6,140
			s23.2,56.6,26.6,72.9s3,35.4,4.5,40.2c1.5,4.9-3.7,13.1,0,16.8c3.7,3.7-2.8,7.1,0.3,11.2s1.1,7.6,2.7,12c1.9,5.4,1.9,28,6.3,23.6
			c13.4-13.4,22.3-12.7,26.4-9.3c0,0,4.7-10.6,4-16.6c-0.7-6,1.1-14.6-1.5-19.8c-2.6-5.2,2.6-13.9-0.4-19.5s1.5-12-0.4-16.5
			s6-13.5,6-13.5l55.5-81.7c0,0,0.2-43.9-13.6-81.4c-13.9-37.5-13.5-66.4-14.2-73.8c-0.7-7.5-1.4-29.4-1.4-29.4L301.5,167
			c0,0-16.9-21.6-16.9-22.7C284.6,143.3,275,113.9,275,113.9z"/>
		<path class="st2" d="M274.8,113.9l-4.6,3.5c0,0,1.1,28.5-1.7,65c-1.4,19-8.6,42.6-10.3,52c-5.7,32.9-37,83.1-29.6,138.6
			c7.4,55.5,24.1,56.6,27.3,72.9s2.8,35.4,4.3,40.2c1.4,4.9-3.5,13.1,0,16.8c3.5,3.7-2.7,7.1,0.3,11.2c2.9,4.1,1.8,7.4,2.6,12
			c0.7,4.6,2.6,26.3,4.9,24.1c18-17.3,23.8-11.6,23.8-11.6c1.4-4.7,2.1-13.6,1.6-17.7c-0.7-6,0.9-13.3-1.6-18.5s1.5-13.5-1.3-19.1
			c-2.8-5.6,1.9-11.7,0.1-16.2c-1.8-4.5,6.2-15.2,6.2-15.2L354,373c0,0-0.5-54.8-18.9-98.6c-8.3-19.7-9.1-67.4-9.8-74.9
			c-0.7-7.5,4.2-10.9,4.2-10.9L300,167.1c0,0-16-21.6-16-22.7C283.8,143.3,274.8,113.9,274.8,113.9z"/>
		<path d="M374.2,195.8c1.9,2.2-36.8-9.5-40.2-7.2s-3.9,9.1-4.2,10.9c-0.3,1.8-2.6,6.9-6.8,5.6c-4.2-1.3-17.2-16-24.6-29.6
			c-7.3-13.6-19.9-28.2-21.9-30.7s41.8,12.5,41.8,12.5s40.1,30.4,43.2,32.5C369.5,194.9,374.2,195.8,374.2,195.8z"/>
		<path class="st1" d="M275,113.9l-4.9,3.5c0,0-4.7,30.5-7.6,67c-1.5,19-5.7,39.2-7.4,48.6c-6,32.9-34.4,84.5-26.6,140
			s23.2,56.6,26.6,72.9s3,35.4,4.5,40.2c1.5,4.9-3.7,13.1,0,16.8c3.7,3.7-2.8,7.1,0.3,11.2s0.5,7.9,2.7,12
			c2.2,4.1,1.9,24.1,5.2,24.1c3.3,0,14.3-18.7,27.5-9.7c0,0,4.7-10.6,4-16.6c-0.7-6,1.1-14.6-1.5-19.8c-2.6-5.2,2.6-13.9-0.4-19.5
			s1.5-12-0.4-16.5s6-13.5,6-13.5l55.5-81.7c0,0,0.2-43.9-13.6-81.4c-13.9-37.5-13.5-66.4-14.2-73.8c-0.7-7.5-1.4-29.4-1.4-29.4
			l-27.8-21.2c0,0-16.9-21.6-16.9-22.7C284.6,143.3,275,113.9,275,113.9z"/>
		<path class="st1" d="M374.2,195.8c1.9,2.2-36.8-9.5-40.2-7.2s-3.9,9.1-4.2,10.9c-0.3,1.8-2.6,6.9-6.8,5.6
			c-4.2-1.3-17.2-16-24.6-29.6c-7.3-13.6-19.9-28.2-21.9-30.7s41.8,12.5,41.8,12.5s40.1,30.4,43.2,32.5
			C369.5,194.9,374.2,195.8,374.2,195.8z"/>
		<path class="st0" d="M374.1,112.9c-11.6-8.9-19.7-20.8-27.5-28.8c-6.6-6.9-19.1-14.8-37.3-13.2c-20.7,1.8-35,17.9-39.2,32.8
			c-5,17.7,1.5,39.8,12.8,47.2c15.6,10.3,33.5,7.7,51.5,20.5c18,12.9,32.8,24.7,39.9,24.4s12-13.1,4.6-24.9
			c-7.4-11.7-10.4-15.6-10.4-15.6s10.7,2.4,24.3,12s25.9,21.4,29.5,21.2s23.6-30.1,5.8-50.8C412.8,119.7,388.2,123.7,374.1,112.9z"
			/>
		<path class="st1" d="M343.4,81.1c-7.1-5.9-18.5-11.5-34-10.2c-20.7,1.8-35,17.9-39.2,32.8c-5,17.7,1.5,39.8,12.8,47.2
			c15.6,10.3,33.5,7.7,51.5,20.5c18,12.9,32.8,24.7,39.9,24.4s12-13.1,4.6-24.9c-7.4-11.7-10.4-15.6-10.4-15.6s10.7,2.4,24.3,12
			s25.9,21.4,29.5,21.2s23.6-30.1,5.8-50.8c-15.4-18-40-14-54-24.8c-2.3-1.8-4.5-3.6-6.5-5.6"/>
		<path class="st1" d="M362.5,102.1c-3.3-3.5-6.3-7.1-9.1-10.4"/>
		<path d="M297,138l0.5-2.7c15.9,9.6,50.2,15.4,66.6,19.2c0,0,3,3.9,10.4,15.6c7.4,11.7,7.1,25.4-0.1,25.8
			c-14.3-7.4-27-30.5-37.1-38C327,150.3,297,138,297,138z"/>
		<path class="st1" d="M297,138l0.5-2.7c15.9,9.6,54.7,16.3,71.1,20.1c0,0,3,3.9,10.4,15.6c7.4,11.7,2.5,24.5-4.6,24.9
			c-14.3-7.4-27-30.5-37.1-38C327,150.3,297,138,297,138z"/>
		<path d="M304.2,131.5c-0.3-1.4-10.2-1.8-11.8,2.9c-1.6,4.6,1.6,11.6,3.5,11.7c1.9,0.1,0.3-8.2,2.6-10.2
			C300.8,134,304.8,133.7,304.2,131.5z"/>
		<path class="st1" d="M304.2,131.5c-0.3-1.4-10.2-1.8-11.8,2.9c-1.6,4.6,1.6,11.6,3.5,11.7c1.9,0.1,0.3-8.2,2.6-10.2
			C300.8,134,304.8,133.7,304.2,131.5z"/>
		<path class="st0" d="M233.6,345.8c-3,8.9-5.1,18.1-7.1,27.3c-3.1,13.5-6.1,27.9-1.4,40.9c0.5,1.3,0.8,2.9,2,3.4
			c16.2,6.3,38.4,9.9,52.9,4.6c0,0,1.7-5.4-0.6-6.5c13.6,0.2,41.1-0.4,47.5-9.5c0,0-1.2-6.4-3.9-8.6c9.6-4.5,17.6-18.9,19.2-25.1
			c1.6-6.1-3.5-6.2-8.8-9.7c-19.6-12.9-37.5-28.2-53.2-45.6c-4.3-4.8-8.7-9.9-14.4-13.2c-6.1-3.5-8.9-3.5-12.2,2.3
			C246.1,319.1,238.3,331.2,233.6,345.8z"/>
		<path class="st2" d="M233.6,345.8c-3.2,8.8-5.1,18.1-7.1,27.3c-2.9,13.5-5.9,27.9-1.4,40.9c0.4,1.3-0.4,2.4,0.8,2.9
			c15.6,6.3,42.6,10.4,56.6,5.1c0,0,1.7-5.4-0.5-6.5c13,0.2,39.5-0.4,45.7-9.5c0,0-1.2-6.4-3.7-8.6c9.2-4.5,16.9-18.9,18.5-25.1
			c1.5-6.1-3.4-6.2-8.5-9.7c-18.8-12.9-36-28.2-51.1-45.6c-4.2-4.8-8.4-9.9-13.8-13.2c-5.8-3.5-10-7.1-13.2-1.3
			C248.4,315.5,239.3,329.3,233.6,345.8z"/>
		<path class="st1" d="M233.6,345.8c-3,8.9-5.1,18.1-7.1,27.3c-3.1,13.5-6.1,27.9-1.4,40.9c0.5,1.3,0.8,2.9,2,3.4
			c16.2,6.3,38.4,9.9,52.9,4.6c0,0,1.7-5.4-0.6-6.5c13.6,0.2,41.1-0.4,47.5-9.5c0,0-1.2-6.4-3.9-8.6c9.6-4.5,17.6-18.9,19.2-25.1
			c1.6-6.1-3.5-6.2-8.8-9.7c-19.6-12.9-37.5-28.2-53.2-45.6c-4.3-4.8-8.7-9.9-14.4-13.2c-6.1-3.5-6.9-7.1-10.3-1.3
			C248.1,315.5,238.3,331.2,233.6,345.8z"/>
		<g>
			<path class="st2" d="M382.1,180.9L382.1,180.9L382.1,180.9z"/>
			<path class="st2" d="M349.1,151.2c6-35.3,23.6-30.6,31.3-28.6c14.8,6.2,38.6,10.6,47.5,23.6c8.9,13.1-2,41.4-5.6,42.2
				c-3.3,0.8-17.7-12.3-29.5-21.2c-13.7-10.3-23.6-11.8-23.6-11.8C364.2,153.7,354.9,152.4,349.1,151.2z"/>
		</g>
		<g>
			<path class="st1" d="M381.5,176.7L381.5,176.7L381.5,176.7z"/>
			<path class="st1" d="M349.1,151.2c6.1-35.7,24.5-36.3,31.9-34.3c14.2,6.1,34,5.5,47.1,20.8c17.8,20.7-2.3,50.6-5.8,50.8
				c-3.6,0.2-15.9-11.7-29.5-21.2c-13.6-9.6-24.3-12-24.3-12C363.6,154.2,356.8,152.9,349.1,151.2z"/>
			<path class="st1" d="M379.6,172.3c0.1,0.1,0.1,0.2,0.2,0.4C379.8,172.5,379.8,172.4,379.6,172.3z"/>
			<path class="st1" d="M380.4,173.7c0,0.1,0.1,0.2,0.1,0.3C380.4,173.9,380.4,173.8,380.4,173.7z"/>
		</g>
		<path d="M317.2,113.2c2.2,0.4,4.2-1,4.7-3.2c0.3-1.7-0.5-3.3-1.8-4.1c3.4-0.2,7.2,2.5,9.2,7c2.4,5.3,1.3,10.9-2.5,12.6
			c-3.7,1.7-8.7-1.2-11.1-6.5c-1.2-2.6-1.5-5.3-1.1-7.5C315.2,112.3,316.1,113,317.2,113.2z"/>
		<path class="st1" d="M317.2,113.2c2.2,0.4,4.2-1,4.7-3.2c0.3-1.7-0.5-3.3-1.8-4.1c3.4-0.2,7.2,2.5,9.2,7
			c2.4,5.3,1.3,10.9-2.5,12.6c-3.7,1.7-8.7-1.2-11.1-6.5c-1.2-2.6-1.5-5.3-1.1-7.5C315.2,112.3,316.1,113,317.2,113.2z"/>
		<path d="M328.9,93.2c0.4-1.5-14.2-9.4-23.1-3c-9,6.4-9,19.1-7.5,18.7s1.5-8.9,11.4-14.3C318.5,89.7,328.4,94.9,328.9,93.2z"/>
		<path class="st1" d="M328.9,93.2c0.4-1.5-14.2-9.4-23.1-3c-9,6.4-9,19.1-7.5,18.7s1.5-8.9,11.4-14.3
			C318.5,89.7,328.4,94.9,328.9,93.2z"/>
		<path d="M222.6,396.7c4.6,16.4,27.6,14.7,32.8,13.9c0.5-0.1,0.7-0.6,0.4-1c-5.8-6.8-10.3-17.7-10.8-18.9c0-0.1,0-0.2,0-0.2
			l0.3-9.2c0-0.6,0.8-0.8,1.1-0.3c5.6,10.2,12.2,17.4,13.3,18.6c0.1,0.1,0.2,0.2,0.4,0.2c19.7,2.8,40.4,1.6,46.4,1.1
			c0.6,0,0.8-0.8,0.3-1.1c-16.3-11.6-24.8-27.1-25.5-28.3c0-0.1,0-0.1-0.1-0.2l-2.7-12.8c-0.1-0.6,0.7-1,1.1-0.5
			c12.4,17.9,28.2,29.4,30.1,30.7c0.1,0.1,0.3,0.1,0.4,0.1c7.9-0.9,10.8-6.8,11.5-8.5c0.1-0.3,0-0.6-0.2-0.7
			c-18.4-12.7-33.7-40.7-35.7-44.5c-0.1-0.2-0.1-0.6,0.1-0.7l6.3-5.3c12.7,12.4,26.6,23.6,41.4,33.4c5.3,3.5,10.4,3.6,8.8,9.7
			c-1.6,6.1-9.6,20.6-19.2,25.1c2.6,2.2,3.9,8.6,3.9,8.6c-6.4,9.1-34,9.8-47.5,9.5c2.3,1.1,0.6,6.5,0.6,6.5
			c-14.5,5.3-36.6,1.6-52.9-4.6C225.8,416.8,222.3,402.6,222.6,396.7z"/>
		<path class="st1" d="M224.9,413.9c-2-5.5-2.6-11.3-2.4-17.2c4.7,17.2,27.6,14.7,32.8,13.9c0.5-0.1,0.7-0.6,0.4-1
			c-5.8-6.8-10.3-17.7-10.8-18.9c0-0.1,0-0.2,0-0.2l0.3-9.2c0-0.6,0.8-0.8,1.1-0.3c5.6,10.2,12.2,17.4,13.3,18.6
			c0.1,0.1,0.2,0.2,0.4,0.2c19.7,2.8,40.4,1.6,46.4,1.1c0.6,0,0.8-0.8,0.3-1.1c-16.3-11.6-24.8-27.1-25.5-28.3c0-0.1,0-0.1-0.1-0.2
			l-2.7-12.8c-0.1-0.6,0.7-1,1.1-0.5c12.4,17.9,28.2,29.4,30.1,30.7c0.1,0.1,0.3,0.1,0.4,0.1c7.9-0.9,10.8-6.8,11.5-8.5
			c0.1-0.3,0-0.6-0.2-0.7c-18.4-12.7-33.7-40.7-35.7-44.5c-0.1-0.2-0.1-0.6,0.1-0.7l6.3-5.3c12.7,12.4,26.6,23.6,41.4,33.4
			c5.3,3.5,10.4,3.6,8.8,9.7c-1.6,6.1-9.6,20.6-19.2,25.1c2.6,2.2,3.9,8.6,3.9,8.6c-6.4,9.1-34,9.8-47.5,9.5
			c2.3,1.1,0.6,6.5,0.6,6.5c-14.5,5.3-36.6,1.6-52.9-4.6C225.8,416.8,225.4,415.2,224.9,413.9z"/>
		<path class="st0" d="M350.5,354.8c-2.6-1.4,7.8,1.6,11.3,5.4s2.7,5.7,2.7,5.7s9.2,8.9,11.1,13.8s3.8,7.9,1.1,8.1
			c-2.7,0.3-5.4-6.4-6.2-6.5c-0.8,0-4.3-3.4-4.3-3.4s2.7,5.7,1.6,7.9c-1.1,2.2-3.2,2.8-3.2,2.8s0.4,5-4.3,3.3c0,0-2.4,2.5-6.3,1.6
			c-1.5-0.3-0.7-2.9,1.4-4.1c0,0-4.9-3.3-7-5.1s-15.2-4.9-17.9-10.6C327.8,368,351.6,355.4,350.5,354.8z"/>
		<path class="st2" d="M350.5,354.8c-2.6-1.4-2.7,1,0.8,4.7s7.8,6.9,7.8,6.9s11.9,8.1,13.8,13s6.5,8.1,3.8,8.3
			c-2.7,0.3-5.4-6.4-6.2-6.5c-0.8,0-4.3-3.4-4.3-3.4s2.7,5.7,1.6,7.9c-1.1,2.2-3.2,2.8-3.2,2.8s0.4,5-4.3,3.3c0,0-2.4,2.5-6.3,1.6
			c-1.5-0.3-0.7-2.9,1.4-4.1c0,0-4.9-3.3-7-5.1s-15.2-4.9-17.9-10.6C327.8,368,351.6,355.4,350.5,354.8z"/>
		<path class="st1" d="M350.5,354.8c-2.6-1.4,7.8,1.6,11.3,5.4s2.7,5.7,2.7,5.7s9.2,8.9,11.1,13.8s3.8,7.9,1.1,8.1
			c-2.7,0.3-5.5-6.1-6.2-6.5c-0.8-0.4-4.3-3.4-4.3-3.4s2.7,5.7,1.6,7.9c-1.1,2.2-3.2,2.8-3.2,2.8s0.4,5-4.3,3.3c0,0-2.4,2.5-6.3,1.6
			c-1.5-0.3-0.7-2.9,1.4-4.1c0,0-4.9-3.3-7-5.1s-15.2-4.9-17.9-10.6C327.8,368,351.6,355.4,350.5,354.8z"/>
		<path class="st0" d="M272.6,247c-6.2,0.2-10.5,6.1-13.7,11.4c-5,8.2-10.3,17.4-8.6,26.9c0.5,3.1,1.8,6,3.1,8.8
			c5.5,12.4,11.5,24.8,21.1,34.3c3.5,3.4,7.4,6.4,10.9,9.9c6.8,6.8,11.3,16,18.9,22c9.7,7.6,16.3,13.4,26.1,17.2
			c1.3,0.5,2.8,0.2,4-0.4c0.9-0.5,3.8-4.4,4.4-5.3c8.3-12.5,14.3-14.5,13.4-17.9c-1.2-4.5-18.2-15-28.9-22c-3.7-2.4-7-5.2-10-8.4
			c-2.9-3.1-5.1-6.7-7.3-10.3c-9.8-16.3-14.2-30.1-20.2-48.2C283.1,257.6,280,249.6,272.6,247z"/>
		<path class="st2" d="M270.1,255.4c-6.2,0.2-8-2.2-11.3,3.1c-5,8.2-7.9,13.6-8.9,23.2c-0.4,4.3,3.8,13.5,5.1,16.3
			c5.5,12.4,14.1,32.4,23.7,41.9c3.5,3.4,41.8,33.9,51.5,37.8c1.3,0.5,2.8,0.2,4-0.4c0.9-0.5,3.8-4.4,4.4-5.3
			c8.3-12.5,10.7-11.7,9.8-15.1c-1.2-4.5-14.6-11.4-25.3-18.3c-3.7-2.4-7-5.2-10-8.4c-2.9-3.1-5.1-6.7-7.3-10.3
			c-9.8-16.3-19.3-31.4-25.4-49.5C278,262.8,277.5,257.9,270.1,255.4z"/>
		<path class="st1" d="M272.6,247c-6.2,0.2-10.5,6.1-13.7,11.4c-5,8.2-10.3,17.4-8.6,26.9c0.5,3.1,1.8,6,3.1,8.8
			c5.5,12.4,15.8,36.1,25.4,45.6c3.5,3.4,41.8,33.9,51.5,37.8c1.3,0.5,2.8,0.2,4-0.4c0.9-0.5,3.8-4.4,4.4-5.3
			c8.3-12.5,14.3-14.5,13.4-17.9c-1.2-4.5-18.2-15-28.9-22c-3.7-2.4-7-5.2-10-8.4c-2.9-3.1-5.1-6.7-7.3-10.3
			c-9.8-16.3-14.2-30.1-20.2-48.2C283.1,257.6,280,249.6,272.6,247z"/>
		<path class="st1" d="M333.8,248.9c-6.5,5.6-21.1,11-39.1-5.9s-19-21.3-23.9-21.3c-8.1,0-15.3,8.9-15.3,8.9"/>
		<path class="st1" d="M272.6,247c-2.2-7.3-3.2-21.6-1.8-25.2"/>
		<path class="st0" d="M327.9,129c0,0-8.6-10.8-18.8-12.7c-10.1-1.9,0.9,9.7,0.9,9.7L327.9,129z"/>
		<path class="st1" d="M358,361.4c0.3,0,6.6,4.5,6.6,4.5"/>
		<path class="st1" d="M361.2,371.8c2.5,2.1,4.9,6.2,4.9,6.2"/>
		<path class="st1" d="M411.4,279.8c0,0-4.7,1.7-4.4,4.6c0.2,1.4,1.2,2.3,1.2,2.3s-3.2,1.7-0.3,4.9c0,0-1.9,0.7-2.2,2.2
			c-0.4,2,0.9,2.7,2.7,3.8c0,0-3.7-0.4-3.5,1.4c0.1,1,1.2,2.5,4.1,3.3c1.2,0.4,5.2,0.5,5.2,0.5"/>
		<path class="st1" d="M419.9,285.5c-0.4,0.3-2.9-0.4-4.6-0.1c-3,0.6-5.9,2-7,1.3"/>
		<path class="st1" d="M407.9,291.6c2.1,1.5,9.2,1.2,11.5,0.3"/>
		<path class="st1" d="M418.2,298.4c0,0-2.1,0.6-3.7,0.4s-3.7-0.7-6.1-1.2"/>
		<path class="st1" d="M359.6,378c1.7,1.5,2.8,2.8,3.7,4.2c0.9,1.4,1.3,6.5,1.3,6.5"/>
		<path class="st1" d="M360.2,391.9c0.3,0,1-5.1-0.5-6.5c-1.2-1.1-4.1-4.2-4.1-4.2"/>
	</g>
</g>
<g id="Magic_1_">
	<g id="Magic">
		<line class="st1" x1="417" y1="256.7" x2="419.4" y2="244.7"/>
		<line class="st1" x1="402.4" y1="259.5" x2="396.4" y2="247.9"/>
		<line class="st1" x1="390.6" y1="269.5" x2="380.4" y2="261.9"/>
		<line class="st1" x1="432.8" y1="304.7" x2="445" y2="310.7"/>
		<line class="st1" x1="421.5" y1="312.8" x2="429.1" y2="324"/>
		<line class="st1" x1="407.9" y1="316.8" x2="406.9" y2="328.9"/>
		<line class="st1" x1="428.1" y1="263.8" x2="437.4" y2="253.7"/>
		<line class="st1" x1="435.2" y1="276.4" x2="448.1" y2="272.4"/>
		<line class="st1" x1="437.9" y1="291.1" x2="450" y2="292.2"/>
		<circle class="st2" cx="217.1" cy="44.5" r="8.3"/>
		<circle class="st2" cx="472.4" cy="205.3" r="3.9"/>
		<circle cx="206.6" cy="294" r="3.9"/>
		<line class="st1" x1="453.2" y1="55.5" x2="452" y2="59.1"/>
		<line class="st1" x1="461.1" y1="32.3" x2="456.5" y2="45.7"/>
		<line class="st1" x1="484.4" y1="52.8" x2="468.4" y2="60.6"/>
		<line class="st1" x1="468.4" y1="77.6" x2="459.6" y2="74.6"/>
		<line class="st1" x1="486.4" y1="83.7" x2="477.4" y2="80.6"/>
		<line class="st1" x1="466" y1="107" x2="457.9" y2="90.4"/>
		<line class="st1" x1="443.1" y1="85.4" x2="444.1" y2="82.2"/>
		<line class="st1" x1="435.1" y1="109" x2="439.1" y2="97.2"/>
		<line class="st1" x1="411.9" y1="88.6" x2="428.4" y2="80.4"/>
		<line class="st1" x1="427.4" y1="63.7" x2="436.5" y2="66.7"/>
		<line class="st1" x1="409.8" y1="57.7" x2="418.4" y2="60.6"/>
		<line class="st1" x1="430.2" y1="34.4" x2="437.4" y2="49.1"/>
		<line class="st1" x1="162.2" y1="187.8" x2="166.1" y2="191.8"/>
		<line class="st1" x1="143.2" y1="167.6" x2="151.9" y2="176.8"/>
		<line class="st1" x1="180.1" y1="145.8" x2="179.2" y2="171.8"/>
		<line class="st1" x1="201.1" y1="183.3" x2="191.2" y2="192.6"/>
		<line class="st1" x1="221.2" y1="164.3" x2="211.1" y2="173.8"/>
		<line class="st1" x1="223.8" y1="206.1" x2="210.4" y2="205.7"/>
		<line class="st1" x1="237.2" y1="206.5" x2="223.8" y2="206.1"/>
		<line class="st1" x1="193.8" y1="221.3" x2="190.6" y2="217.8"/>
		<line class="st1" x1="218.8" y1="247.7" x2="206.3" y2="234.5"/>
		<line class="st1" x1="176.6" y1="263.8" x2="177.3" y2="236.9"/>
		<line class="st1" x1="155.1" y1="226.6" x2="165.3" y2="217"/>
		<line class="st1" x1="135.3" y1="245.3" x2="145.1" y2="236.2"/>
		<line class="st1" x1="119.3" y1="203.1" x2="143.2" y2="203.8"/>
		<line class="st1" x1="156.6" y1="149.9" x2="164.2" y2="169"/>
		<line class="st1" x1="199.4" y1="156.1" x2="193.8" y2="169"/>
		<line class="st1" x1="233.2" y1="183.2" x2="220.3" y2="188.2"/>
		<line class="st1" x1="232.4" y1="228.3" x2="220.3" y2="223.1"/>
		<line class="st1" x1="196.6" y1="251.3" x2="189.9" y2="234.4"/>
		<line class="st1" x1="157.8" y1="251.8" x2="164.1" y2="237.6"/>
		<line class="st1" x1="129.1" y1="223.8" x2="141.6" y2="218.9"/>
		<line class="st1" x1="124.1" y1="181.3" x2="138.1" y2="187.3"/>
		<circle class="st3" cx="416.9" cy="411.8" r="11.1"/>
		
			<ellipse transform="matrix(6.652042e-02 -0.9978 0.9978 6.652042e-02 -297.1917 608.3416)" class="st1" cx="176.5" cy="463" rx="5.3" ry="5.3"/>
		<circle class="st4" cx="142.4" cy="83" r="2.6"/>
		
			<rect x="475.1" y="346.8" transform="matrix(0.7071 -0.7071 0.7071 0.7071 -108.8746 444.3577)" class="st1" width="13.6" height="13.6"/>
		
			<rect x="144.1" y="333.7" transform="matrix(0.7071 -0.7071 0.7071 0.7071 -196.174 205.501)" class="st2" width="11.7" height="11.7"/>
	</g>
</g>
</svg>
