<?xml version="1.0" encoding="utf-8"?>
<!-- Generator: Adobe Illustrator 24.3.0, SVG Export Plug-In . SVG Version: 6.00 Build 0)  -->
<svg version="1.1" id="Слой_1" xmlns="http://www.w3.org/2000/svg" xmlns:xlink="http://www.w3.org/1999/xlink" x="0px" y="0px"
	 viewBox="0 0 384.2 690.5" style="enable-background:new 0 0 384.2 690.5;" xml:space="preserve">
<style type="text/css">
	.st0{fill:#FF6900;}
	.st1{fill:#FFFFFF;}
</style>
<g>
	<g>
		<g>
			<path class="st0" d="M178.7,0.1c116.2,0,205.5,79.9,205.5,198.6c0,119.3-89.3,200.5-205.5,200.5H48.3
				c-26.3,0-48.2-17.4-48.2-47.7V49.7C0.2,19.4,22,0.1,48.3,0.1H178.7z"/>
			<path d="M62.7,399.2c33.3-18.5,49.9-35.4,61.3-51.3c22.3,9.9,43.8,14.2,63.2,14.2c36.3,0,67.2-16.7,83.4-46.5
				c16.6-10,27.6-30.4,28.3-45.1c10.3-13,12.3-29.4,9.1-40.5c-0.8-2.6-2.9-2.7-6.6-0.5c-32.7,19.6-64.4,29-94.6,29
				c-18.3,0-37.1-2.9-57.1-8.7c-1.4-21.4-5.8-39.4-7.5-50.3c-2.3-14.4,1-25,16.8-25c11.6,0,33,2.9,50.2,10.7
				c17,7.7,27.1,22.9,34.1,22.9c2.9,0,5.9-1.8,5.9-7.8c0-12.3-4.4-32.1-9.8-39.1c15.9-0.9,28.5-0.7,35.6,0.1
				c14.8,2.6,15.5,10,18.4,14.8c2.9,4.8,7.8,6.9,13.8,6.9c11,0,17.8-5.7,17.8-26.1c0-45-28.4-66.7-58.1-66.7
				c-24.4,0-33.9,5.4-57.1,5.4c-16.5,0-30.1-33.5-48.8-37.9c-8.3-18.4-26.8-20.4-38.2-11.2c-10.4-6.3-26.6-2.9-27.2,8.7
				c-11.9-3.7-27.3,2.7-20.7,18.4c-29.2,0.8-34.6,26.6-14.8,29.5c-25.5,14.4-13.8,39.3,7.5,34c1.5,17.7,8.7,46.2,8.7,65.9
				c0,27.4-12.4,33.8-29.4,33.8c-13.4,0-33.1-4.9-46.5-8.7v19.1c13.5,3.4,33.8,7.7,49,7.7c26.8,0,41.7-15.7,41.7-45.7
				c0-36.8-11.8-70.2-7.9-91.1l-0.9-1.2c-13.4,14-22.1,10.3-23,5.8c-1.9-9,13.8-20,22.7-23.9c0.2-0.6,0.4-1.2,0.6-1.8
				c-8.4,1.3-18.2,0.2-18.6-5.8c-0.4-7.1,13.9-13.5,32.5-11.9c0.4-0.3,0.7-0.6,1.1-0.9c-1.2-0.5-2.4-1.1-4-1.9
				c-4.8-2.5-6-6.6-4.4-9.6c1.7-3.3,7-4.6,11.3-4.5c6.7,0.1,12.4,1.8,16.6,3.5c0.5-0.2,0.9-0.4,1.4-0.6c-1.6-1.2-2.9-2.5-3.7-3.9
				c-1.2-2-1.4-4.7,0.8-6.5c2.6-2.1,9.2-2.8,15.2,2.6c1.2,1.1,2.3,2.2,3.2,3.3c0.7-0.1,1.3-0.3,2-0.4c-1-1.5-1.8-3.1-2-4.6
				c-0.3-2,0.3-4.2,2.7-5c2.6-0.8,5.9,0.5,7.6,3c1.8,2.7,2.9,6,3.6,8.4c-13.2,1.5-48.2,9.5-48.2,51.8c0,41.2,34.3,84.5,34.3,148.4
				c-0.1,23.2-5.2,46.5-26.2,73.6c-16.3,21-42.1,41.2-82.3,57.8c6.9,3.4,14.8,5.2,23.2,5.2H62.7z M223.9,139.8
				c4-12,7.5-21.1,14.1-28c6.9-7.3,14.5-9.6,31.3-9.6c23.2,0,42.6,23.4,42.6,56.2c0,4.9-6.5,4.8-8.6,0.4
				c-7.9-13.9-18.6-15.9-35.4-17.2c-12.4-0.7-27.4,0.3-41,0.9C224.2,142.7,223.5,141,223.9,139.8z M149.9,271.3
				c18.3,5.1,43.7,7.8,64.8,6.3c37-2.6,64.7-16.4,80.4-26.4c-9.4,23.7-44.6,38.4-78.7,42.6c-0.2,1.7-0.5,3.4-0.8,5
				c25.6-1.4,49.9-9.7,61-17.3c-6.3,23.3-37.6,32.7-66.1,34c-0.8,1.8-1.6,3.6-2.5,5.2c16.6,0.3,32.4-2.8,41.9-5.8
				c-8.5,16.2-37.8,29.1-67.7,29.1c-14.7,0-33-2.9-48.9-10.4C144.6,312.7,149,291.2,149.9,271.3z"/>
			<path d="M0.2,305.5c14-2.8,27.8-5.4,27.8-5.4l1.8-7.6c-6.3-0.3-18.9-0.2-29.6,0.1V305.5z"/>
			<path class="st1" d="M151.2,79.9c4.9-1.6,11.9,3.2,15.7,10.8c3.8,7.6,2.8,15.1-2.1,16.7c-4.9,1.7-11.9-3.1-15.6-10.7
				c-0.5-1-0.9-2-1.3-3.1l0.9-0.2c1.6,1.5,3.4,1.9,4.7,1.1c1.7-1.1,1.5-4.1,0.1-6.7c-1-2.1-3.4-4.3-5.4-4.2l-0.3-0.5
				C148.5,81.5,149.7,80.4,151.2,79.9 M185.5,156c-21.9-4.8-45.9-11.2-58.7-30c-0.2-0.3-0.7-0.5-1.1-0.4c-0.4,0.1-0.7,0.5-0.7,0.9
				c0,1,0.1,2.1,0.3,3.3l-1.7,0.7c-3.4-4.8-4.1-10.5-0.7-14.7c4.8-6,14.6-5.4,20.4-1.7l-0.7,1.6c-3.1-0.5-6.1-0.5-8.4,0.9
				c-2,1.2-2.3,3-1,5.3c10.6,19.8,41.5,24,78.2,21.2c3.8-0.3,4.7-2,5.2-3.8c3.2-12.7,9-24.1,17.6-32.7c-6.7,0.9-12.9,1.1-18.4,1.4
				c-19,1.2-29.8-1.3-33.2-4l0.6-1.6c2,0.7,4.1,0.9,4.5,0.3c0.6-0.8,0.1-1.3-0.8-2.1c-3.6-3.4-19.8-20-19.7-19.9
				c-1.7-14-22.2-14.5-30.3-0.7l-2.8-0.7c0.8-3,2-5.5,3.1-7.3c-17.1,3.9-26.8,19.2-28.5,33.9c-7.6,63.5,88.8,48.9,116.4,74.3
				c0.5,0.4,1.8,2.3,2.8,1.1C228.9,177.7,216.8,162.9,185.5,156"/>
			<path class="st1" d="M295,251.2c-15.6,10-43.4,23.8-80.4,26.4c-21,1.5-46.4-1.3-64.8-6.4c-0.3,6.1-0.9,12.4-2,18.8
				c10.3,2.7,28.7,6.2,55.3,6.9c-1.2,7.1-8.4,31.4-27,47c33.8,1.4,64.5-11.7,73.5-28.9c-9.4,3-25.3,6.1-41.9,5.8
				c0.9-1.6,1.7-3.4,2.5-5.2c28.4-1.3,59.8-10.7,66.1-34c-11,7.6-35.4,15.9-61,17.3c0.3-1.6,0.6-3.3,0.8-5
				C250.4,289.7,285.6,274.9,295,251.2z"/>
		</g>
	</g>
	<g>
		<path d="M37,482H10c-5.4,0-10,4-10,10.2v62.1c0,6.2,4.5,9.8,10,9.8H37c24,0,42.5-16.7,42.5-41.3C79.4,498.4,61,482,37,482z
			 M37,545H20v-43.9h17c13.7,0,22.8,8.1,22.8,21.8C59.8,536.5,50.6,545,37,545z M132.1,481.3c-23.7,0-42.1,17.9-42.1,41.8
			c0,24.1,18.3,41.8,42.1,41.8c23.7,0,42.1-18.3,42.1-42.1C174.1,499,155.8,481.3,132.1,481.3z M132.1,546.2
			c-13,0-22.4-9.8-22.4-23.2c0-13.1,9.4-22.9,22.4-22.9c13.1,0,22.4,9.8,22.4,22.9C154.5,536.4,145.6,546.2,132.1,546.2z M224.3,482
			h-26.9c-5.4,0-10,4-10,10.2v62.1c0,6.2,4.5,9.8,10,9.8h26.9c24,0,42.5-16.7,42.5-41.3C266.7,498.4,248.3,482,224.3,482z
			 M224.3,545h-17v-43.9h17c13.7,0,22.8,8.1,22.8,21.8C247.1,536.5,237.9,545,224.3,545z M319.4,481.3c-23.7,0-42.1,17.9-42.1,41.8
			c0,24.1,18.3,41.8,42.1,41.8c23.7,0,42.1-18.3,42.1-42.1C361.4,499,343.1,481.3,319.4,481.3z M319.4,546.2
			c-13,0-22.4-9.8-22.4-23.2c0-13.1,9.4-22.9,22.4-22.9c13.1,0,22.4,9.8,22.4,22.9C341.8,536.4,332.9,546.2,319.4,546.2z"/>
		<path d="M43.5,607.5H10.3c-5.4,0-9.8,3.6-9.8,9.8v63.3c0,6.2,4.5,9.8,10.1,9.8c5.4,0,9.8-3.6,9.8-9.8v-14.9h23.1
			c17.9,0,29.2-12.6,29.2-29.2C72.7,619.8,61.4,607.5,43.5,607.5z M43.5,647H20.4v-20.8h23.1c6.5,0,9.9,4.8,9.9,10.5
			C53.5,642.4,50,647,43.5,647z"/>
		<path d="M98.2,606.8c-5.6,0-10.2,3.7-10.2,9.9v63.7c0,6.2,4.6,9.9,10.2,9.9s10.2-3.7,10.2-9.9v-63.7
			C108.4,610.6,103.7,606.8,98.2,606.8z"/>
		<path d="M191.6,670.8h-41.3l40.9-36.7c5.8-5.2,8.2-9.4,8.2-15v-0.8c0-6.8-4.1-10.7-11.5-10.7h-52.1c-6.2,0-9.8,4.4-9.8,9.7
			c0,5.4,3.6,9.2,9.8,9.2h38.2l-39.4,35.6c-7.7,6.9-9.6,11-9.6,16.1v0.9c0,6.6,4.2,10.7,11.4,10.7h55.2c6.2,0,9.8-4.2,9.8-9.6
			C201.4,674.6,197.8,670.8,191.6,670.8z"/>
		<path d="M277.9,670.8h-41.3l40.9-36.7c5.8-5.2,8.2-9.4,8.2-15v-0.8c0-6.8-4.1-10.7-11.5-10.7h-52.1c-6.2,0-9.8,4.4-9.8,9.7
			c0,5.4,3.6,9.2,9.8,9.2h38.2l-39.4,35.6c-7.7,6.9-9.6,11-9.6,16.1v0.9c0,6.6,4.2,10.7,11.4,10.7h55.2c6.2,0,9.8-4.2,9.8-9.6
			C287.7,674.6,284.2,670.8,277.9,670.8z"/>
		<path d="M377.7,675.7l-27.1-58.9c-3.1-6.5-7.3-9.3-13.4-9.3h-1.1c-6.4,0-10.6,2.8-13.7,9.3l-27.1,58.9c-2.7,5.8-0.8,11,4.5,13
			c4.8,1.9,9.6,0.8,12.2-4.8l6.1-12.9c5.4,1.9,12.2,2.8,18.6,2.8c6.8,0,12.7-0.9,17.8-2.8l5.8,12.7c2.5,5.6,7.7,6.6,12.3,4.9
			C378.1,686.7,380.2,681.3,377.7,675.7z M336.8,656.2c-4.1,0-8.5-0.5-11.8-1.5l11.5-25.7l11.5,25.7
			C344.9,655.7,340.9,656.2,336.8,656.2z"/>
	</g>
</g>
</svg>
