<?xml version="1.0" encoding="utf-8"?>
<!-- Generator: Adobe Illustrator 24.3.0, SVG Export Plug-In . SVG Version: 6.00 Build 0)  -->
<svg version="1.1" id="Слой_1" xmlns="http://www.w3.org/2000/svg" xmlns:xlink="http://www.w3.org/1999/xlink" x="0px" y="0px"
	 viewBox="0 0 851.4 91.9" style="enable-background:new 0 0 851.4 91.9;" xml:space="preserve">
<g>
	<path d="M40.6,1H11.1C5.2,1,0.3,5.3,0.3,12.1v67.9c0,6.8,4.9,10.7,10.9,10.7h29.5c26.3,0,46.5-18.3,46.5-45.1
		C87.1,19,66.9,1,40.6,1z M40.6,69.9H22v-48h18.6c14.9,0,25,8.9,25,23.8S55.6,69.9,40.6,69.9z"/>
	<path d="M144.7,0.2c-26,0-46,19.6-46,45.7c0,26.4,20,45.7,46,45.7s46-20,46-46C190.7,19.6,170.7,0.2,144.7,0.2z M144.7,71.2
		c-14.2,0-24.5-10.7-24.5-25.4c0-14.4,10.3-25.1,24.5-25.1c14.4,0,24.5,10.7,24.5,25.1C169.2,60.5,159.5,71.2,144.7,71.2z"/>
	<path d="M245.6,1h-29.5c-6,0-10.9,4.4-10.9,11.2v67.9c0,6.8,4.9,10.7,10.9,10.7h29.5c26.3,0,46.5-18.3,46.5-45.1
		C292,19,271.8,1,245.6,1z M245.6,69.9H227v-48h18.6c14.9,0,25,8.9,25,23.8C270.6,60.6,260.5,69.9,245.6,69.9z"/>
	<path d="M349.7,0.2c-26,0-46,19.6-46,45.7c0,26.4,20,45.7,46,45.7c26,0,46-20,46-46C395.7,19.6,375.7,0.2,349.7,0.2z M349.7,71.2
		c-14.2,0-24.5-10.7-24.5-25.4c0-14.4,10.3-25.1,24.5-25.1c14.4,0,24.5,10.7,24.5,25.1C374.2,60.5,364.5,71.2,349.7,71.2z"/>
	<path d="M484.4,1h-36.3c-6,0-10.7,3.9-10.7,10.7v69.3c0,6.8,4.9,10.7,11,10.7c6,0,10.7-3.9,10.7-10.7V64.7h25.3
		c19.6,0,31.9-13.8,31.9-31.9C516.3,14.5,504,1,484.4,1z M484.4,44.2h-25.3V21.4h25.3c7.1,0,10.9,5.2,10.9,11.5
		C495.3,39.1,491.5,44.2,484.4,44.2z"/>
	<path d="M544.2,0.2c-6.1,0-11.2,4.1-11.2,10.9v69.7c0,6.8,5.1,10.9,11.2,10.9s11.2-4.1,11.2-10.9V11.1
		C555.3,4.3,550.3,0.2,544.2,0.2z"/>
	<path d="M646.4,70.2h-45.1L645.9,30c6.4-5.6,9-10.3,9-16.4v-0.8c0-7.4-4.5-11.8-12.6-11.8h-57.1c-6.8,0-10.7,4.8-10.7,10.6
		c0,6,3.9,10,10.7,10h41.8L584,60.5c-8.4,7.5-10.5,12-10.5,17.6v1c0,7.3,4.6,11.8,12.5,11.8h60.4c6.8,0,10.7-4.6,10.7-10.5
		C657.1,74.4,653.2,70.2,646.4,70.2z"/>
	<path d="M740.9,70.2h-45.1L740.4,30c6.4-5.6,9-10.3,9-16.4v-0.8c0-7.4-4.5-11.8-12.6-11.8h-57.1C672.9,1,669,5.8,669,11.6
		c0,6,3.9,10,10.7,10h41.8l-43.1,38.9C670,68,668,72.5,668,78v1c0,7.3,4.6,11.8,12.5,11.8h60.4c6.8,0,10.7-4.6,10.7-10.5
		C751.6,74.4,747.7,70.2,740.9,70.2z"/>
	<path d="M850,75.6l-29.6-64.4C817.1,4,812.4,1,805.8,1h-1.2c-7,0-11.6,3.1-14.9,10.2L760,75.6c-2.9,6.4-0.9,12,4.9,14.2
		c5.2,2,10.5,0.9,13.4-5.2l6.7-14.1c6,2,13.4,3.1,20.3,3.1c7.4,0,13.9-1,19.5-3.1l6.4,13.9c2.7,6.1,8.4,7.3,13.5,5.4
		C850.5,87.6,852.8,81.7,850,75.6z M805.3,54.2c-4.5,0-9.3-0.6-12.9-1.6L805,24.5l12.6,28.2C814.2,53.7,809.8,54.2,805.3,54.2z"/>
</g>
</svg>
