<?xml version="1.0" encoding="utf-8"?>
<!-- Generator: Adobe Illustrator 24.3.0, SVG Export Plug-In . SVG Version: 6.00 Build 0)  -->
<svg version="1.1" id="Слой_1" xmlns="http://www.w3.org/2000/svg" xmlns:xlink="http://www.w3.org/1999/xlink" x="0px" y="0px"
	 viewBox="0 0 1540.6 231.1" style="enable-background:new 0 0 1540.6 231.1;" xml:space="preserve">
<style type="text/css">
	.st0{fill:#FF6900;}
	.st1{fill:#FFFFFF;}
</style>
<g>
	<path d="M369.8,57.9H332c-7.7,0-14,5.6-14,14.3v87.3c0,8.8,6.3,13.8,14,13.8h37.9c33.7,0,59.7-23.5,59.7-58
		C429.5,81,403.6,57.9,369.8,57.9z M369.8,146.4H346V84.7h23.9c19.2,0,32.1,11.4,32.1,30.6S389,146.4,369.8,146.4z"/>
	<path d="M503.5,56.9c-33.4,0-59.1,25.2-59.1,58.8c0,33.9,25.7,58.8,59.1,58.8s59.1-25.7,59.1-59.1
		C562.7,81.7,536.9,56.9,503.5,56.9z M503.5,148.1c-18.3,0-31.5-13.8-31.5-32.6c0-18.5,13.2-32.3,31.5-32.3
		C522,83.2,535,97,535,115.5C535.1,134.3,522.6,148.1,503.5,148.1z"/>
	<path d="M633.2,57.9h-37.9c-7.7,0-14,5.6-14,14.3v87.3c0,8.8,6.3,13.8,14,13.8h37.9c33.7,0,59.7-23.5,59.7-58
		C692.9,81,666.9,57.9,633.2,57.9z M633.2,146.4h-23.9V84.7h23.9c19.2,0,32.1,11.4,32.1,30.6S652.4,146.4,633.2,146.4z"/>
	<path d="M766.9,56.9c-33.4,0-59.1,25.2-59.1,58.8c0,33.9,25.7,58.8,59.1,58.8c33.4,0,59.1-25.7,59.1-59.1
		C826,81.7,800.3,56.9,766.9,56.9z M766.9,148.1c-18.3,0-31.5-13.8-31.5-32.6c0-18.5,13.2-32.3,31.5-32.3
		c18.5,0,31.5,13.8,31.5,32.3C798.4,134.3,785.9,148.1,766.9,148.1z"/>
	<path d="M939.9,57.9h-46.6c-7.7,0-13.8,5-13.8,13.8v89c0,8.8,6.3,13.8,14.2,13.8c7.7,0,13.8-5,13.8-13.8v-20.9H940
		c25.2,0,41-17.7,41-41C981,75.2,965.1,57.9,939.9,57.9z M939.9,113.4h-32.5V84.1h32.5c9.1,0,14,6.7,14,14.7
		C953.9,106.9,949.1,113.4,939.9,113.4z"/>
	<path d="M1016.8,56.9c-7.8,0-14.3,5.2-14.3,14v89.5c0,8.8,6.5,14,14.3,14s14.3-5.2,14.3-14V70.9
		C1031.2,62.1,1024.6,56.9,1016.8,56.9z"/>
	<path d="M1148.1,146.8h-58l57.4-51.7c8.2-7.3,11.6-13.2,11.6-21.1v-1c0-9.5-5.8-15.1-16.2-15.1h-73.3c-8.8,0-13.8,6.2-13.8,13.6
		c0,7.7,5,12.9,13.8,12.9h53.7l-55.4,50c-10.8,9.7-13.4,15.5-13.4,22.6v1.3c0,9.3,6,15.1,16,15.1h77.6c8.8,0,13.8-6,13.8-13.4
		C1161.9,152.2,1156.8,146.8,1148.1,146.8z"/>
	<path d="M1269.5,146.8h-58l57.4-51.7c8.2-7.3,11.5-13.2,11.5-21.1v-1c0-9.5-5.8-15.1-16.2-15.1h-73.3c-8.8,0-13.8,6.2-13.8,13.6
		c0,7.7,5,12.9,13.8,12.9h53.7l-55.4,50c-10.8,9.7-13.4,15.5-13.4,22.6v1.3c0,9.3,6,15.1,16,15.1h77.6c8.8,0,13.8-6,13.8-13.4
		C1283.3,152.2,1278.2,146.8,1269.5,146.8z"/>
	<path d="M1409.7,153.7l-38-82.8c-4.3-9.1-10.3-13.1-18.8-13.1h-1.5c-8.9,0-14.9,3.9-19.2,13.1l-38,82.8c-3.7,8.2-1.1,15.5,6.3,18.3
		c6.7,2.6,13.4,1.1,17.2-6.7l8.6-18.1c7.7,2.6,17.2,3.9,26.1,3.9c9.5,0,17.9-1.3,25-3.9l8.2,17.9c3.5,7.8,10.8,9.3,17.4,6.9
		C1410.3,169.2,1413.3,161.5,1409.7,153.7z M1352.3,126.3c-5.8,0-11.9-0.8-16.6-2l16.2-36.2l16.2,36.2
		C1363.6,125.5,1358.1,126.3,1352.3,126.3z"/>
	<g>
		<path class="st0" d="M103.5,0.1c67.2,0,118.9,46.2,118.9,114.9c0,69-51.6,116-118.9,116H28c-15.2,0-27.8-10-27.8-27.6V28.8
			C0.2,11.3,12.8,0.1,28,0.1H103.5z"/>
		<path d="M36.4,231c19.3-10.7,28.9-20.5,35.5-29.7c12.9,5.8,25.3,8.2,36.6,8.2c21,0,38.9-9.7,48.2-26.9c9.6-5.8,16-17.6,16.4-26.1
			c6-7.5,7.1-17,5.2-23.5c-0.4-1.5-1.7-1.6-3.8-0.3c-18.9,11.3-37.2,16.8-54.7,16.8c-10.6,0-21.5-1.7-33.1-5
			c-0.8-12.4-3.4-22.8-4.3-29.1C81,107.2,82.9,101,92,101c6.7,0,19.1,1.7,29,6.2c9.8,4.5,15.7,13.3,19.7,13.3c1.6,0,3.4-1,3.4-4.5
			c0-7.1-2.5-18.5-5.7-22.6c9.2-0.5,16.5-0.4,20.6,0c8.5,1.5,8.9,5.8,10.6,8.6c1.7,2.8,4.6,4,8,4c6.4,0,10.3-3.3,10.3-15.1
			c0-26-16.4-38.6-33.6-38.6c-14.2,0-19.6,3.1-33,3.1c-9.5,0-17.4-19.4-28.2-21.9c-4.8-10.7-15.5-12-22.1-6.6
			c-6-3.7-15.4-1.7-15.8,5c-6.9-2.1-15.8,1.6-12,10.7c-16.9,0.5-20,15.4-8.6,17.1c-14.7,8.3-8,22.7,4.4,19.7c0.9,10.2,5,26.8,5,38.1
			c0,15.9-7.2,19.5-17,19.5c-7.8,0-19.2-2.8-26.9-5v11c7.8,1.9,19.6,4.5,28.3,4.5c15.5,0,24.1-9.1,24.1-26.4
			c0-21.3-6.8-40.6-4.6-52.7l-0.6-0.7C39.5,75.8,34.5,73.6,34,71c-1.1-5.2,8-11.6,13.1-13.8c0.1-0.3,0.2-0.7,0.4-1.1
			c-4.8,0.8-10.6,0.1-10.8-3.3c-0.2-4.1,8-7.8,18.8-6.9c0.2-0.2,0.4-0.3,0.6-0.5c-0.7-0.3-1.4-0.6-2.3-1.1c-2.8-1.4-3.5-3.8-2.5-5.5
			c1-1.9,4.1-2.6,6.5-2.6c3.9,0.1,7.2,1,9.6,2c0.3-0.1,0.6-0.2,0.8-0.3c-0.9-0.7-1.7-1.5-2.1-2.2c-0.7-1.2-0.8-2.7,0.5-3.7
			c1.5-1.2,5.3-1.6,8.8,1.5c0.7,0.7,1.3,1.3,1.9,1.9c0.4-0.1,0.8-0.1,1.2-0.2c-0.6-0.9-1-1.8-1.2-2.6c-0.2-1.2,0.2-2.4,1.6-2.9
			c1.5-0.5,3.4,0.3,4.4,1.7c1.1,1.6,1.7,3.5,2.1,4.8c-7.6,0.9-27.9,5.5-27.9,30c0,23.9,19.8,48.9,19.8,85.9c0,13.4-3,26.9-15.2,42.6
			c-9.4,12.1-24.3,23.8-47.6,33.4c4,1.9,8.6,3,13.4,3L36.4,231L36.4,231z M129.6,80.9c2.3-7,4.4-12.2,8.1-16.2
			c4-4.2,8.4-5.5,18.1-5.5c13.4,0,24.6,13.6,24.6,32.5c0,2.8-3.8,2.8-5,0.2c-4.6-8-10.8-9.2-20.5-9.9c-7.2-0.4-15.9,0.2-23.8,0.5
			C129.8,82.6,129.4,81.6,129.6,80.9z M86.8,157c10.6,2.9,25.3,4.5,37.5,3.7c21.4-1.5,37.5-9.5,46.5-15.3
			c-5.4,13.7-25.8,22.2-45.6,24.6c-0.1,1-0.3,2-0.5,2.9c14.8-0.8,28.9-5.6,35.3-10c-3.7,13.5-21.8,18.9-38.2,19.7
			c-0.5,1.1-1,2-1.5,3c9.6,0.2,18.8-1.6,24.2-3.3c-4.9,9.4-21.9,16.8-39.2,16.8c-8.5,0-19.1-1.6-28.3-6
			C83.7,181,86.3,168.5,86.8,157z"/>
		<path d="M0.2,176.8c8.1-1.6,16.1-3.1,16.1-3.1l1-4.4c-3.7-0.2-10.9-0.1-17.1,0.1C0.2,169.4,0.2,176.8,0.2,176.8z"/>
		<path class="st1" d="M87.6,46.2c2.8-1,6.9,1.8,9.1,6.2s1.6,8.7-1.2,9.7c-2.8,1-6.9-1.8-9-6.2c-0.3-0.6-0.5-1.2-0.7-1.8l0.5-0.1
			c0.9,0.9,2,1.1,2.7,0.6c1-0.7,0.9-2.4,0.1-3.9c-0.6-1.2-2-2.5-3.1-2.4L85.8,48C86,47.2,86.7,46.5,87.6,46.2 M107.4,90.3
			c-12.7-2.8-26.6-6.5-34-17.4c-0.1-0.2-0.4-0.3-0.6-0.2c-0.2,0.1-0.4,0.3-0.4,0.5c0,0.6,0.1,1.3,0.2,1.9l-1,0.4
			c-1.9-2.7-2.3-6.1-0.4-8.5c2.8-3.5,8.4-3.1,11.8-1l-0.5,1c-1.8-0.3-3.5-0.3-4.9,0.5c-1.2,0.7-1.3,1.7-0.6,3
			c6.1,11.4,24,13.9,45.3,12.3c2.2-0.2,2.7-1.2,3-2.2c1.8-7.4,5.2-13.9,10.2-18.9c-3.9,0.5-7.5,0.7-10.6,0.8
			c-11,0.7-17.3-0.8-19.2-2.3l0.4-1c1.2,0.4,2.4,0.5,2.6,0.2c0.3-0.5,0.1-0.8-0.5-1.2c-2.1-1.9-11.4-11.5-11.4-11.5
			c-1-8.1-12.8-8.4-17.5-0.4l-1.6-0.4c0.5-1.7,1.2-3.2,1.8-4.2C69.6,43.9,64,52.8,63,61.3c-4.4,36.7,51.4,28.3,67.3,43
			c0.3,0.2,1.1,1.3,1.6,0.6C132.5,102.9,125.5,94.3,107.4,90.3"/>
		<path class="st1" d="M170.8,145.4c-9,5.8-25.1,13.8-46.5,15.3c-12.2,0.9-26.9-0.7-37.5-3.7c-0.2,3.5-0.5,7.2-1.1,10.9
			c6,1.6,16.6,3.6,32,4c-0.7,4.1-4.9,18.1-15.6,27.2c19.6,0.8,37.3-6.8,42.5-16.7c-5.5,1.7-14.6,3.5-24.2,3.3c0.5-1,1-1.9,1.5-3
			c16.5-0.8,34.6-6.2,38.2-19.7c-6.4,4.4-20.5,9.2-35.3,10c0.2-1,0.3-1.9,0.5-2.9C145,167.6,165.3,159.1,170.8,145.4z"/>
	</g>
</g>
</svg>
