<svg xmlns="http://www.w3.org/2000/svg" viewBox="0 0 233 49">
  <g fill="none" fill-rule="evenodd">
    <g transform="matrix(-1 0 0 1 99 0)">
      <path fill="#FFF" d="M0,23.9754452 C11.6598788,10.6584817 27.3676505,4 47.1233152,4 C66.8789798,4 84.171208,10.6584817 99,23.9754452 C83.8795049,40.6584817 67.3795049,49 49.5,49 C31.6204951,49 15.1204951,40.6584817 0,23.9754452 Z"/>
      <circle cx="59.5" cy="19.5" r="19.5" fill="#000"/>
    </g>
    <g transform="matrix(-1 0 0 1 233 0)">
      <path fill="#FFF" d="M0,23.9754452 C11.6598788,10.6584817 27.3676505,4 47.1233152,4 C66.8789798,4 84.171208,10.6584817 99,23.9754452 C83.8795049,40.6584817 67.3795049,49 49.5,49 C31.6204951,49 15.1204951,40.6584817 0,23.9754452 Z"/>
      <circle cx="59.5" cy="19.5" r="19.5" fill="#000"/>
    </g>
  </g>
</svg>
