<svg xmlns="http://www.w3.org/2000/svg" width="929" height="521" viewBox="0 0 929 521">
  <g fill="none" fill-rule="evenodd" transform="translate(2 2)">
    <path fill="#1C1C1C" d="M903,404.206207 C902.641628,445.861779 868.5963,479.342022 826.949352,478.997363 C784.906129,478.997363 754,446.840613 754,405.515914 C754,364.191216 785.012951,332 826.949352,332 C868.885754,332 903,362.881509 903,404.206207"/>
    <path fill="#FF6900" d="M912.208343,353.205519 C908.998081,337.796416 912.622125,333.665538 909.967021,323.315986 C907.505016,313.241597 903.687872,303.545556 898.622485,294.492708 C891.72611,281.934977 846.175556,243.312472 840.279156,239.460196 C840.279156,239.460196 806.104172,242.280613 749.902167,231.102134 C745.933303,225.461301 744.454031,230.758181 744.454031,232.237179 L731.626774,227.765788 C731.626774,227.765788 626.939808,150.410713 601.385292,130.15187 C584.59262,116.840881 584.59262,108.926518 585.699488,106.075146 C512.456542,97.5451069 368.184385,117.907136 343.878113,120.417995 C322.42694,122.65369 336.981739,133.969751 336.981739,133.969751 C329.188835,146.661624 299.913725,203.654669 289.982946,229.760716 C280.052166,255.866764 289.982946,289.642968 285.08652,296.415407 C280.186646,303.194724 270.397242,305.120862 261.569882,359.2247 C252.739075,413.325099 269.500713,413.325099 269.500713,413.325099 C269.500713,413.325099 270.948952,405.245638 271.121361,403.006503 C274.259212,360.806885 306.948027,324.75715 356.257106,324.75715 C408.876444,324.75715 436.565388,363.661696 436.565388,403.388291 C436.565388,412.537446 428.944894,433.549547 428.944894,433.549547 C506.356698,439.365795 744.385067,433.002661 744.385067,433.002661 C744.385067,416.799026 745.316078,322.349478 830.58975,325.138938 C879.485046,326.721123 911.898006,372.329317 906.62228,428.115086 C906.62228,428.115086 909.104974,431.042128 915.415157,422.271321 C920.066762,415.629585 918.104743,381.818986 912.208343,353.205519"/>
    <path fill="#1C1C1C" d="M726,432.857515 L705.090248,369.675099 L615.250657,207.921367 L516.141191,98 C444.148951,100.753196 366.32816,113.799906 350.795694,115.451824 C329.365782,117.719769 343.906155,129.217806 343.906155,129.217806 C336.117531,141.982313 306.805986,199.558533 296.953945,225.989219 C287.098459,252.419904 296.953945,286.631812 292.062372,293.476946 C287.167355,300.325522 277.387654,302.290616 268.565599,357.075784 C259.746989,411.864392 276.492014,411.864392 276.492014,411.864392 C276.492014,411.864392 277.938817,403.64266 278.107611,401.539906 C281.276799,358.796531 306.943777,324.140671 356.200538,324.140671 C408.771167,324.140671 438.051708,365.438618 438.051708,405.810802 C438.051708,415.10284 435.77816,432.444536 435.77816,432.444536 C499.296267,437.197241 668.506795,434.096454 726,432.857515"/>
    <path stroke="#1C1C1C" stroke-linecap="round" stroke-linejoin="round" stroke-width="2.813" d="M919.239742,351.841216 C916.06725,336.201677 919.653545,332.03343 917.001756,321.56114 C914.556868,311.350657 910.749879,301.515661 905.687686,292.317958 C898.790966,279.603082 846.858661,236.511675 840.999898,232.581122 C840.999898,232.581122 809.964656,238.440781 751.342533,224.692456 L751.342533,229.174182 L738.511185,224.692456 C738.511185,224.692456 634.508642,145.461313 608.301105,125.79132 C587.266107,110.013988 586.300567,104.123325 607.921785,104.092322 C535.713123,88.4837864 375.054022,113.496714 350.777567,116.080338 C329.328766,118.350482 343.880846,129.859667 343.880846,129.859667 C336.191003,142.639995 306.845458,200.268595 296.983148,226.724907 C287.120838,253.181219 296.983148,287.426297 292.086476,294.278068 C287.189805,301.133284 277.396462,303.100284 268.56866,357.942014 C259.740858,412.780299 276.499888,412.780299 276.499888,412.780299 C276.499888,412.780299 277.9482,404.550595 278.120618,402.445802 C281.293109,359.66443 306.983392,324.971524 356.294943,324.971524 C408.916919,324.971524 438.227981,366.309511 438.227981,406.720839 C438.227981,416.021886 435.952063,433.380396 435.952063,433.380396 C513.405681,439.274504 743.545791,433.380396 743.545791,433.380396 C743.721657,416.948546 745.959643,325.281559 826.306435,325.281559 C879.031862,325.281559 910.89471,371.962481 905.618719,428.626528 C911.960253,429.842554 918.436274,427.289933 922.239815,422.084791 C927.136486,415.088337 925.136437,380.846704 919.239742,351.841216 Z"/>
    <path fill="#1C1C1C" d="M356.5,329 C397.644318,329 431,362.80294 431,404.5 C431,446.200501 397.644318,480 356.5,480 C315.355682,480 282,446.200501 282,404.5 C282,362.80294 315.355682,329 356.5,329"/>
    <path fill="#FFF" d="M541.618345,121.994356 C518.644725,121.202731 471.078654,114.869728 448.105034,129.91061 C425.131414,144.951493 410.871926,206.732693 419.586058,230.481455 C428.300189,254.230217 490.125748,351.634559 515.47595,363.50894 C540.826151,375.383321 712.801091,396 712.801091,396 C712.801091,396 745.281037,304.515639 734.982517,257.981833 C724.680554,211.448026 541.618345,121.994356 541.618345,121.994356"/>
    <path fill="#1C1C1C" d="M736.998877,279.602179 L651.16974,281.395604 L536.592846,309.366128 L476.474488,223.937042 C476.474488,223.937042 473.023377,175.652536 476.474488,153.648597 C479.925599,131.644658 500.632267,130.196122 512.883712,130.196122 L518.301956,120.194332 C497.595289,119.470064 474.365859,120.401266 460.530354,129.437366 C438.512264,143.819251 419.669197,201.519236 428.020886,224.212953 C436.372575,246.906671 495.145,343.096305 519.406312,354.408675 C543.664173,365.721045 717.396565,383 717.396565,383 C717.396565,383 737.171433,324.851659 736.998877,279.602179"/>
    <path stroke="#1C1C1C" stroke-linecap="round" stroke-linejoin="round" stroke-width="2.813" d="M737,287.201839 L647.152649,289.094879 L527.421663,318.38881 L464.769765,228.896213 C464.769765,228.896213 461.323376,178.369259 464.769765,155.239755 C468.216153,132.11025 490.169649,130.699075 502.852359,130.699075 L508.504436,120.201309 C486.826652,119.444093 462.59854,120.442241 448.123708,129.90744 C425.136296,144.948502 410.868247,206.730438 419.58761,230.479483 C428.306973,254.228527 490.169649,351.634031 515.535069,363.508553 C540.900489,375.383075 712.978671,396 712.978671,396 C712.978671,396 734.656456,334.940861 737,287.201839 Z"/>
    <path stroke="#1C1C1C" stroke-linecap="round" stroke-linejoin="round" stroke-width="2.813" d="M541.618345,121.994356 C518.644725,121.202731 471.078654,114.869728 448.105034,129.91061 C425.131414,144.951493 410.871926,206.732693 419.586058,230.481455 C428.300189,254.230217 490.125748,351.634559 515.47595,363.50894 C540.826151,375.383321 712.801091,396 712.801091,396 C712.801091,396 745.281037,304.515639 734.982517,257.981833 C724.680554,211.448026 541.618345,121.994356 541.618345,121.994356 Z"/>
    <path fill="#FFF" d="M449.353339,146 C458.124941,146 461.267522,168.97016 461.267522,193.558908 C461.267522,193.558908 520.872972,254.927462 524.844366,266.636389 C527.8868,277.739207 530.010632,289.07276 531.198597,300.523402 C531.198597,300.523402 603.515963,275.900217 617.01525,280.273846 C630.517991,284.647475 620.986645,317.156967 617.01525,323.493563 C613.043856,329.830159 578.064505,338.542978 558.307681,340.127127 C538.554311,341.711276 524.153689,348.836503 511.445227,332.202938 C498.736765,315.572818 443.793387,222.865664 441.41055,212.568696 C439.027714,202.271727 438.509706,146 449.353339,146"/>
    <path fill="#1C1C1C" d="M449.869562,155 C458.153757,155 456.744412,173.457578 456.744412,196.908344 C456.744412,196.908344 517.655589,258.892748 521.436757,270.118813 C525.217925,281.344877 528.311607,308.958929 528.311607,308.958929 C528.311607,308.958929 596.716371,285.511606 609.503593,289.678336 C622.290815,293.845065 621.259588,317.433574 617.516231,323.494272 C613.766,329.554969 571.89816,338.749322 553.129818,340.264496 C534.361476,341.779671 520.81802,348.560076 508.787032,332.688625 C496.756043,316.81373 444.610301,228.382647 442.3416,218.534014 C440.0729,208.685381 439.59166,155 449.869562,155"/>
    <path stroke="#1C1C1C" stroke-linecap="round" stroke-linejoin="round" stroke-width="2.813" d="M449.353339,146 C458.124941,146 461.267522,168.97016 461.267522,193.558908 C461.267522,193.558908 520.872972,254.927462 524.844366,266.636389 C527.8868,277.739207 530.010632,289.07276 531.198597,300.523402 C531.198597,300.523402 603.515963,275.900217 617.01525,280.273846 C630.517991,284.647475 620.986645,317.156967 617.01525,323.493563 C613.043856,329.830159 578.064505,338.542978 558.307681,340.127127 C538.554311,341.711276 524.153689,348.836503 511.445227,332.202938 C498.736765,315.572818 443.793387,222.865664 441.41055,212.568696 C439.027714,202.271727 438.509706,146 449.353339,146 Z"/>
    <path fill="#FFF" d="M276.408376,412.445955 C276.408376,412.445955 277.858204,404.200374 278.030802,402.095853 C281.206615,359.246431 306.923794,324.504589 356.286971,324.504589 C408.96404,324.504589 438.305789,365.904997 438.305789,406.373895 C438.305789,409.375425 438.064151,413.273963 437.753473,417 L507,407.546907 C507,407.546907 359.531824,225.799116 346.828573,219.451054 C339.096159,215.587016 317.521344,214.379504 301.952957,214 C301.469681,215.104011 301.020925,216.208022 300.572169,217.277532 L299.363979,220.210061 L299.363979,220.451564 L298.397428,222.935588 L298.190309,223.418593 C297.845112,224.360452 297.499915,225.257461 297.154718,226.109619 C287.351122,252.57138 297.154718,286.899218 292.25292,293.764786 C287.351122,300.630354 277.547526,302.596873 268.710482,357.521414 C261.9101,398.921822 269.193758,410.030931 276.408376,412.445955"/>
    <path fill="#FF6900" d="M276.408376,412.445955 C276.408376,412.445955 277.858204,404.200374 278.030802,402.095853 C281.206615,359.246431 306.923794,324.504589 356.286971,324.504589 C408.96404,324.504589 440.722168,367.009007 438.305789,406.373895 C438.09867,409.375425 438.064151,413.273963 437.753473,417 L507,407.546907 C507,407.546907 359.531824,225.799116 346.828573,219.451054 C339.096159,215.587016 317.521344,214.379504 301.952957,214 C301.469681,215.104011 301.020925,216.208022 300.572169,217.277532 L299.363979,220.210061 L299.363979,220.451564 L298.397428,222.935588 L298.190309,223.418593 C297.845112,224.360452 297.499915,225.257461 297.154718,226.109619 C287.351122,252.57138 297.154718,286.899218 292.25292,293.764786 C287.351122,300.630354 277.547526,302.596873 268.710482,357.521414 C261.9101,398.921822 269.193758,410.030931 276.408376,412.445955"/>
    <path stroke="#1C1C1C" stroke-linecap="round" stroke-linejoin="round" stroke-width="2.813" d="M276.408376,412.445955 C276.408376,412.445955 277.858204,404.200374 278.030802,402.095853 C281.206615,359.246431 306.923794,324.504589 356.286971,324.504589 C408.96404,324.504589 438.305789,365.904997 438.305789,406.373895 C438.305789,409.375425 438.064151,413.273963 437.753473,417 L507,407.546907 C507,407.546907 359.531824,225.799116 346.828573,219.451054 C339.096159,215.587016 317.521344,214.379504 301.952957,214 C301.469681,215.104011 301.020925,216.208022 300.572169,217.277532 L299.363979,220.210061 L299.363979,220.451564 L298.397428,222.935588 L298.190309,223.418593 C297.845112,224.360452 297.499915,225.257461 297.154718,226.109619 C287.351122,252.57138 297.154718,286.899218 292.25292,293.764786 C287.351122,300.630354 277.547526,302.596873 268.710482,357.521414 C261.9101,398.921822 269.193758,410.030931 276.408376,412.445955 Z"/>
    <path fill="#FFF" d="M354,352 C386.034005,352 412,377.968662 412,409.998282 C412,442.031338 386.034005,468 354,468 C321.969431,468 296,442.031338 296,409.998282 C296,377.968662 321.969431,352 354,352"/>
    <path stroke="#1C1C1C" stroke-linecap="round" stroke-linejoin="round" stroke-width="2.813" d="M919.239742,351.8124 C916.06725,336.167506 919.653545,331.997832 917.001756,321.521956 C914.556868,311.307977 910.749879,301.469613 905.687686,292.268761 C898.790966,279.549532 846.513825,236.922366 840.999898,232.511471 C809.964656,207.838026 690.027241,136.540041 624.370463,109.109787 C558.713685,81.6795332 375.60576,113.348382 350.915501,116.001811 C329.466701,118.276179 344.018781,129.785858 344.018781,129.785858 C336.191003,142.539548 306.845458,200.18788 296.983148,226.65325 C287.120838,253.118621 296.983148,287.375425 292.086476,294.229542 C287.189805,301.087106 277.396462,303.054778 268.56866,357.915287 C259.740858,412.772349 276.499888,412.772349 276.499888,412.772349 C276.499888,412.772349 277.9482,404.539827 278.120618,402.434313 C281.293109,359.638293 306.983392,324.933508 356.294943,324.933508 C408.916919,324.933508 438.227981,366.285649 438.227981,406.710814 C438.227981,416.015046 435.952063,433.379499 435.952063,433.379499 C513.405681,439.275626 743.545791,433.379499 743.545791,433.379499 C743.721657,416.942023 745.959643,325.243649 826.306435,325.243649 C879.031862,325.243649 910.89471,371.940555 905.618719,428.624003 C911.960253,429.840445 918.436274,427.286951 922.239815,422.080027 C927.136486,415.081177 925.136437,380.827819 919.239742,351.8124 Z"/>
    <path stroke="#1C1C1C" stroke-linecap="round" stroke-linejoin="round" stroke-width="2.813" d="M354,366 C378.301964,366 398,385.698036 398,409.996544 C398,434.301964 378.301964,454 354,454 C329.698036,454 310,434.301964 310,409.996544 C310,385.698036 329.698036,366 354,366 Z"/>
    <path stroke="#1C1C1C" stroke-linecap="round" stroke-linejoin="round" stroke-width="2.813" d="M354,352 C386.034005,352 412,377.968662 412,409.998282 C412,442.031338 386.034005,468 354,468 C321.969431,468 296,442.031338 296,409.998282 C296,377.968662 321.969431,352 354,352 Z"/>
    <path stroke="#1C1C1C" stroke-linecap="round" stroke-linejoin="round" stroke-width="2.813" d="M353.5,340 C391.883897,340 423,371.116877 423,409.498273 C423,447.883123 391.883897,479 353.5,479 C315.116103,479 284,447.883123 284,409.498273 C284,371.116877 315.116103,340 353.5,340 Z"/>
    <path stroke="#1C1C1C" stroke-linecap="round" stroke-linejoin="round" stroke-width="2.813" d="M359,326 C401.523516,326 436,360.473817 436,402.998282 C436,445.526183 401.523516,480 359,480 C316.473048,480 282,445.526183 282,402.998282 C282,360.473817 316.473048,326 359,326 Z"/>
    <path fill="#FFF" d="M358.994889,432.686252 C360.377931,431.618946 367.466025,427.160972 402.042093,443.767699 C407.07291,436.787314 410.475195,428.780805 412,420.328156 C407.021046,424.140943 401.62718,427.500725 398.72279,427.191858 C391.980457,426.749149 375.86801,425.239135 374.519543,417.651312 C374.242934,415.901068 373.620565,407.355759 406.709862,384.156445 C402.43626,375.710659 396.174534,368.411112 388.453698,362.878968 C389.698437,369.74267 390.562838,377.567291 388.730307,380.487796 C385.2727,386.146919 376.110042,399.462501 368.814492,396.888613 C367.120265,396.305198 359.133193,392.705186 354.465424,352 C344.894768,352.020591 335.479705,354.378273 327.046603,358.863702 C333.650631,361.097837 340.877029,364.049229 342.744137,366.79471 C350.316296,377.464335 350.177992,389.959705 347.757667,392.015384 C345.337342,394.077927 341.706855,396.514541 307.130788,376.129345 C302.01353,383.144049 298.549008,391.212331 297,399.737049 C302.255562,396.305198 307.856885,393.319488 310.830427,393.73131 C317.503608,394.661341 333.443175,397.372504 334.10012,405.0221 C334.10012,406.738026 334.10012,415.043105 301.598617,434.711044 C304.900631,441.76693 309.606434,448.095263 315.429044,453.311677 C315.152435,448.026626 315.429044,443.016124 316.915815,441.02565 C320.926639,435.668531 330.953698,423.073637 338.041792,426.165735 C339.632291,426.852105 346.824113,430.760983 348.725797,467.725452 C350.558328,467.725452 352.39086,468 354.257968,468 C360.215424,467.993136 366.138304,467.090559 371.82261,465.323156 C367.051112,463.058134 362.867408,460.515133 361.760974,458.215792 C358.994889,452.31644 352.771197,437.384456 358.994889,432.686252"/>
    <path stroke="#1C1C1C" stroke-linecap="round" stroke-linejoin="round" stroke-width="2.813" d="M358.994889,432.686252 C360.377931,431.618946 367.466025,427.160972 402.042093,443.767699 C407.07291,436.787314 410.475195,428.780805 412,420.328156 C407.021046,424.140943 401.62718,427.500725 398.72279,427.191858 C391.980457,426.749149 375.86801,425.239135 374.519543,417.651312 C374.242934,415.901068 373.620565,407.355759 406.709862,384.156445 C402.43626,375.710659 396.174534,368.411112 388.453698,362.878968 C389.698437,369.74267 390.562838,377.567291 388.730307,380.487796 C385.2727,386.146919 376.110042,399.462501 368.814492,396.888613 C367.120265,396.305198 359.133193,392.705186 354.465424,352 C344.894768,352.020591 335.479705,354.378273 327.046603,358.863702 C333.650631,361.097837 340.877029,364.049229 342.744137,366.79471 C350.316296,377.464335 350.177992,389.959705 347.757667,392.015384 C345.337342,394.077927 341.706855,396.514541 307.130788,376.129345 C302.01353,383.144049 298.549008,391.212331 297,399.737049 C302.255562,396.305198 307.856885,393.319488 310.830427,393.73131 C317.503608,394.661341 333.443175,397.372504 334.10012,405.0221 C334.10012,406.738026 334.10012,415.043105 301.598617,434.711044 C304.900631,441.76693 309.606434,448.095263 315.429044,453.311677 C315.152435,448.026626 315.429044,443.016124 316.915815,441.02565 C320.926639,435.668531 330.953698,423.073637 338.041792,426.165735 C339.632291,426.852105 346.824113,430.760983 348.725797,467.725452 C350.558328,467.725452 352.39086,468 354.257968,468 C360.215424,467.993136 366.138304,467.090559 371.82261,465.323156 C367.051112,463.058134 362.867408,460.515133 361.760974,458.215792 C358.994889,452.31644 352.771197,437.384456 358.994889,432.686252 Z"/>
    <path stroke="#1C1C1C" stroke-linecap="round" stroke-linejoin="round" stroke-width="2.813" d="M354,402 C358.417544,402 362,405.582456 362,409.996491 C362,414.417544 358.417544,418 354,418 C349.582456,418 346,414.417544 346,409.996491 C346,405.582456 349.582456,402 354,402 Z"/>
    <path fill="#FFF" d="M831,351 C863.034005,351 889,376.965995 889,409 C889,441.030569 863.034005,467 831,467 C798.969431,467 773,441.030569 773,409 C773,376.965995 798.969431,351 831,351"/>
    <path stroke="#1C1C1C" stroke-linecap="round" stroke-linejoin="round" stroke-width="2.813" d="M831,364 C855.856651,364 876,384.146789 876,409 C876,433.853211 855.856651,454 831,454 C806.146789,454 786,433.853211 786,409 C786,384.146789 806.146789,364 831,364 Z"/>
    <path fill="#FFF" d="M827.038599,431.730581 C825.654683,430.666078 818.562111,426.167691 783.998797,442.787684 C778.940582,435.810034 775.522308,427.795352 774,419.337699 C778.97864,423.145875 784.379374,426.51108 787.285598,426.205464 C794.205181,425.793398 810.151358,424.244717 811.504137,416.690175 C811.78092,414.938895 812.403682,406.388527 779.328078,383.144576 C783.576702,374.676621 789.849304,367.369319 797.592316,361.851069 C796.312194,368.718835 795.447246,376.551521 797.280935,379.466887 C800.740726,385.136228 809.912633,398.459692 817.209332,395.915185 C818.90463,395.30052 826.900208,391.69151 831.570926,351 C841.144168,351.013736 850.568639,353.372813 859.00361,357.867765 C852.433467,360.103223 845.164445,363.052928 843.296158,365.837807 C835.722675,376.479409 835.861067,389.016515 838.282921,391.039072 C840.701315,393.065063 844.510545,395.46878 878.862812,375.071517 C883.997142,382.08694 887.460393,390.166866 889,398.69663 C883.744577,395.262748 878.170854,392.27527 875.160835,392.687336 C868.483438,393.614484 852.533801,396.36159 851.911038,403.984809 C851.741508,405.739524 851.911038,414.011747 884.401937,433.687895 C881.094377,440.751391 876.389061,447.083471 870.562773,452.299539 C870.836096,447.011359 870.562773,441.997891 869.071603,440.040577 C865.058245,434.652816 855.02831,422.047032 847.935738,425.137527 C846.378832,425.824303 839.147868,429.776702 837.241524,466.721846 C835.411294,466.89354 833.577605,466.99999 831.709317,466.99999 C825.744637,467.003424 819.818015,466.103747 814.133578,464.318128 C818.90463,462.051765 823.125575,459.510692 824.20157,457.209991 C826.796414,451.200696 833.16243,436.400662 827.038599,431.730581"/>
    <path stroke="#1C1C1C" stroke-linecap="round" stroke-linejoin="round" stroke-width="2.813" d="M831,351 C863.034005,351 889,376.965995 889,409 C889,441.030569 863.034005,467 831,467 C798.969431,467 773,441.030569 773,409 C773,376.965995 798.969431,351 831,351 Z"/>
    <path stroke="#1C1C1C" stroke-linecap="round" stroke-linejoin="round" stroke-width="2.813" d="M831.5,339 C869.883897,339 901,370.116103 901,408.5 C901,446.880442 869.883897,478 831.5,478 C793.119558,478 762,446.880442 762,408.5 C762,370.116103 793.119558,339 831.5,339 Z"/>
    <path stroke="#1C1C1C" stroke-linecap="round" stroke-linejoin="round" stroke-width="2.813" d="M826.001718,325 C868.526183,325 903,359.473048 903,402 C903,444.523516 868.526183,479 826.001718,479 C783.473817,479 749,444.523516 749,402 C749,359.473048 783.473817,325 826.001718,325 Z"/>
    <path stroke="#1C1C1C" stroke-linecap="round" stroke-linejoin="round" stroke-width="2.813" d="M827.038599,431.730581 C825.654683,430.666078 818.562111,426.167691 783.998797,442.787684 C778.940582,435.810034 775.522308,427.795352 774,419.337699 C778.97864,423.145875 784.379374,426.51108 787.285598,426.205464 C794.205181,425.793398 810.151358,424.244717 811.504137,416.690175 C811.78092,414.938895 812.403682,406.388527 779.328078,383.144576 C783.576702,374.676621 789.849304,367.369319 797.592316,361.851069 C796.312194,368.718835 795.447246,376.551521 797.280935,379.466887 C800.740726,385.136228 809.912633,398.459692 817.209332,395.915185 C818.90463,395.30052 826.900208,391.69151 831.570926,351 C841.144168,351.013736 850.568639,353.372813 859.00361,357.867765 C852.433467,360.103223 845.164445,363.052928 843.296158,365.837807 C835.722675,376.479409 835.861067,389.016515 838.282921,391.039072 C840.701315,393.065063 844.510545,395.46878 878.862812,375.071517 C883.997142,382.08694 887.460393,390.166866 889,398.69663 C883.744577,395.262748 878.170854,392.27527 875.160835,392.687336 C868.483438,393.614484 852.533801,396.36159 851.911038,403.984809 C851.741508,405.739524 851.911038,414.011747 884.401937,433.687895 C881.094377,440.751391 876.389061,447.083471 870.562773,452.299539 C870.836096,447.011359 870.562773,441.997891 869.071603,440.040577 C865.058245,434.652816 855.02831,422.047032 847.935738,425.137527 C846.378832,425.824303 839.147868,429.776702 837.241524,466.721846 C835.411294,466.89354 833.577605,466.99999 831.709317,466.99999 C825.744637,467.003424 819.818015,466.103747 814.133578,464.318128 C818.90463,462.051765 823.125575,459.510692 824.20157,457.209991 C826.796414,451.200696 833.16243,436.400662 827.038599,431.730581 Z"/>
    <path fill="#FFF" d="M889.255461,275.932445 C878.985589,264.867271 843.451833,249.549167 838.491485,252.331778 C833.527714,255.110954 867.551798,288.12784 878.030491,292.559407 C888.502337,296.990973 901.647772,297.300152 901.993525,292.559407 C902.33243,287.818661 889.255461,275.932445 889.255461,275.932445"/>
    <path stroke="#1C1C1C" stroke-linecap="round" stroke-linejoin="round" stroke-width="2.813" d="M889.255461,275.932445 C878.985589,264.867271 843.451833,249.549167 838.491485,252.331778 C833.527714,255.110954 867.551798,288.12784 878.030491,292.559407 C888.502337,296.990973 901.647772,297.300152 901.993525,292.559407 C902.33243,287.818661 889.255461,275.932445 889.255461,275.932445 Z"/>
    <path fill="#1C1C1C" d="M916.717873,320.780598 C915.595578,316.112421 914.188366,311.509701 912.51361,307 C908.170363,308.998187 905.21348,310.44515 905.008479,311.857661 C904.730511,313.928196 911.366993,338.492112 913.170309,340.590209 C913.760991,341.244787 915.672019,342.967362 918,345 C916.679653,334.151224 919.007633,329.772439 916.717873,320.780598"/>
    <path stroke="#1C1C1C" stroke-linecap="round" stroke-linejoin="round" stroke-width="2.813" d="M916.717873,320.780598 C915.595578,316.112421 914.188366,311.509701 912.51361,307 C908.170363,308.998187 905.21348,310.44515 905.008479,311.857661 C904.730511,313.928196 911.366993,338.492112 913.170309,340.590209 C913.760991,341.244787 915.672019,342.967362 918,345 C916.679653,334.151224 919.007633,329.772439 916.717873,320.780598 Z"/>
    <path fill="#1C1C1C" d="M905.655544 428.696105C912.00052 429.931509 918.476605 427.338211 922.285661 422.046624 924.528312 418.858373 925.283913 409.762582 924.907837 398 919.421969 398.38847 912.694017 398.734943 905 399.123412 906.349041 408.922648 906.569855 418.847873 905.655544 428.696105M276.512915 412C276.512915 412 277.962589 403.768409 278.135169 401.667458 278.566619 395.512708 279.526165 389.402732 281 383.413302L266.02004 383C265.467784 411.965558 276.512915 412 276.512915 412M746 401.660486L710.403465 401.660486C620.654753 400.613096 509.97156 395.153441 436.888499 390 437.890297 395.254352 438.39636 400.588738 438.403245 405.937042 438.403245 415.335721 432 432.177486 432 432.177486 509.320908 438.092982 743.208047 432.873427 743.208047 432.873427 743.266572 422.406479 744.199518 411.967368 746 401.660486"/>
    <path stroke="#1C1C1C" stroke-linecap="round" stroke-linejoin="round" stroke-width="2.813" d="M905.655544 428.696105C912.00052 429.931509 918.476605 427.338211 922.285661 422.046624 924.528312 418.858373 925.283913 409.762582 924.907837 398 919.421969 398.38847 912.694017 398.734943 905 399.123412 906.349041 408.922648 906.569855 418.847873 905.655544 428.696105zM276.512915 412C276.512915 412 277.962589 403.768409 278.135169 401.667458 278.566619 395.512708 279.526165 389.402732 281 383.413302L266.02004 383C265.467784 411.965558 276.512915 412 276.512915 412zM746 402.545932L710.414946 402.545932C620.695182 401.508831 510.047689 396.102813 436.988201 391 437.989676 396.202733 438.495575 401.484712 438.502458 406.780474 438.502458 416.086819 431 433.379875 431 433.379875 508.295969 439.275157 743.208948 433.379875 743.208948 433.379875 743.270895 423.04332 744.206981 412.727438 746 402.545932zM342 218C355.418093 174.866002 400.567237 113.883453 412 107M840.444463 231.978593C840.444463 231.978593 809.930141 238.075771 751 224L751 235.741423C773.670731 238.424182 833.56412 248.911328 852 241.246304 846.223952 236.438244 841.889335 232.988983 840.444463 231.978593z"/>
    <path fill="#FFF" d="M491.937871,65 C489.387401,77.6630215 488.069025,90.5395034 488,103.4573 C488.210526,140.503008 516.54525,260.901556 524.483114,275.60278 C531.385604,288.716823 649.142093,353.30925 675.923756,367.872758 C679.257659,369.700943 683.385349,369.277465 686.277492,366.805456 C720.789945,336.748855 748.016819,264.034604 752.713963,247.233205 C754.080657,239.527974 754.360207,231.671254 753.542262,223.890278 C713.40428,198.653751 565.483908,109.344676 491.937871,65"/>
    <path fill="#FF6900" d="M754,232.062051 C725.149846,213.445537 577.668574,123.459987 501.289353,77.2111995 C497.33061,74.8196141 492.174236,76.0790677 489.768619,80.0260439 C489.109403,81.1168821 488.705591,82.3419244 488.591695,83.6117013 C488.060181,90.2049065 487.887612,96.8221995 488.070536,103.43261 C488.28107,140.459169 516.616968,260.795487 524.555161,275.489112 C531.457937,288.66864 650.668887,353.946877 676.416244,367.952276 C679.453465,369.645312 683.236187,369.259905 685.873047,366.988759 C719.938249,337.463864 747.583869,262.99781 753.137153,244.071595 C753.371847,243.362722 753.492646,242.615997 753.485743,241.869272 C753.589285,238.634609 753.761854,228.724155 754,232.062051"/>
    <path stroke="#1C1C1C" stroke-linecap="round" stroke-linejoin="round" stroke-width="2.813" d="M618 36C626.270497 40.6333333 632.966149 44.6333333 640 49M650.204819 55.3849933C656.530724 59.4293508 662.563284 63.9142852 668.254182 68.8088183 692.826164 92.352142 743.937265 166.079919 748.665301 188.625061 753.393337 211.170203 755.567543 237.535972 752.737624 247.139169 748.009588 264.005001 720.67671 337.078796 685.992944 366.955412 683.290716 369.254672 679.446168 369.653945 676.329805 367.953594 650.308353 353.772527 531.55528 288.787447 524.480482 275.501302 516.542904 260.700675 488.2092 140.333711 488.002133 103.400982 487.795066 66.4682539 502.669397 5.33822038 529.898742.278470987 540.424661-1.64905259 567.446938 6.50850256 593.088767 22.3073119"/>
    <path stroke="#1C1C1C" stroke-linecap="round" stroke-linejoin="round" stroke-width="2.813" d="M593.78897 22.3044993C569.660283 6.69944238 540.809268-1.60258571 530.671773.257619753 511.923784 3.70244469 499.13558 33.5690769 493 63.9524328 565.386059 107.563916 723.77365 203.467843 754 223 753.145155 211.49084 751.535427 200.054021 749.17771 188.75844 744.455381 166.12594 693.402528 92.4066867 668.932593 68.8440842 663.248564 63.9455431 657.223286 59.4569362 650.90157 55.409267M640 49C633.167702 44.8666667 625.822981 40.4333333 618 36"/>
    <path fill="#FFF" d="M497.302208,46 C492.930615,60.6827545 490.149323,75.7954174 489,91.0710293 C510.739909,100.293255 535.358334,109.238121 542.163992,97.1382833 C548.657145,85.6278358 515.771235,59.3826287 497.302208,46"/>
    <path fill="#1C1C1C" d="M495.070578,52 C491.662776,64.9974639 489.627753,78.3142843 489,91.730689 C507.794647,100.624594 526.458224,108.90039 532.252867,97.2936722 C537.806066,86.3737422 511.105871,64.8085972 495.070578,52"/>
    <path stroke="#1C1C1C" stroke-linecap="round" stroke-linejoin="round" stroke-width="2.813" d="M497.302208,46 C492.930615,60.6827545 490.149323,75.7954174 489,91.0710293 C510.739909,100.293255 535.358334,109.238121 542.163992,97.1382833 C548.657145,85.6278358 515.771235,59.3826287 497.302208,46 Z"/>
    <path fill="#FFF" d="M537.237955,93.2070782 C534.013716,98.762792 522.69458,98.1416563 511.958551,91.8267767 C501.222521,85.511897 494.808344,78.4033439 497.689579,72.6405848 C504.206657,59.4241973 510.963839,60.4594235 523.654991,71.7088813 C532.984704,79.9906907 540.462194,87.6513644 537.237955,93.2070782"/>
    <path fill="#1C1C1C" d="M537.351348,91.8315627 C534.558247,96.6226577 524.385846,95.8988232 514.66172,90.2115522 C504.937593,84.5242811 499.110014,78.2165806 501.558287,73.2186757 C507.213453,61.7751971 513.282411,62.878183 524.834121,72.8395243 C533.351352,80.3191474 540.17893,87.2128093 537.351348,91.8315627"/>
    <path stroke="#1C1C1C" stroke-linecap="round" stroke-linejoin="round" stroke-width="2.813" d="M537.237955,93.2070782 C534.013716,98.762792 522.69458,98.1416563 511.958551,91.8267767 C501.222521,85.511897 494.808344,78.4033439 497.689579,72.6405848 C504.206657,59.4241973 510.963839,60.4594235 523.654991,71.7088813 C532.984704,79.9906907 540.462194,87.6513644 537.237955,93.2070782 Z"/>
    <path fill="#1C1C1C" d="M735.523641,156.008565 C730.27896,155.252377 725,204.817102 725,204.817102 L754,223 C754,223 749.71513,158.10527 735.523641,156.008565"/>
    <path stroke="#1C1C1C" stroke-linecap="round" stroke-linejoin="round" stroke-width="2.813" d="M735.523641,156.008565 C730.27896,155.252377 725,204.817102 725,204.817102 L754,223 C754,223 749.71513,158.10527 735.523641,156.008565 Z"/>
    <path fill="#FFF" d="M729,198.039379 C732.069729,200.648368 735.380626,202.96363 738.884458,204.950608 C740.920608,205.468951 754.491497,201.909667 758.560352,194.16909 C762.625761,186.428513 757.044436,172.087712 754.563847,169.979787 C752.079813,167.871862 744.675944,162.757552 743.091123,164.278023 C741.506303,165.798493 729,198.039379 729,198.039379"/>
    <path fill="#1C1C1C" d="M729,198.356408 C731.473533,200.809565 734.172243,203.018454 737.048364,204.951667 C738.689425,205.440205 749.641206,202.229814 752.882387,195.111122 C756.123568,187.992429 751.483561,174.627433 749.470617,172.603491 C747.457673,170.579549 741.418841,165.833755 740.156486,167.264472 C738.89072,168.69519 729,198.356408 729,198.356408"/>
    <path fill="#FFF" d="M747.583687,179.798353 C748.628998,177.217522 747.583687,171.105029 745.805649,164.585036 C744.427586,164.007745 743.247829,163.770037 742.747021,164.279411 C741.231151,165.807535 729,197.388751 729,197.388751 L729.80331,198 C733.648443,197.123876 737.362491,195.751961 740.861427,193.925004 C743.046161,192.430839 743.617554,189.81605 747.583687,179.798353"/>
    <path stroke="#1C1C1C" stroke-linecap="round" stroke-linejoin="round" stroke-width="2.813" d="M729,198.039379 C732.069729,200.648368 735.380626,202.96363 738.884458,204.950608 C740.920608,205.468951 754.491497,201.909667 758.560352,194.16909 C762.625761,186.428513 757.044436,172.087712 754.563847,169.979787 C752.079813,167.871862 744.675944,162.757552 743.091123,164.278023 C741.506303,165.798493 729,198.039379 729,198.039379 Z"/>
    <path stroke="#1C1C1C" stroke-linecap="round" stroke-linejoin="round" stroke-width="2.813" d="M747.583687,179.798353 C748.628998,177.217522 747.583687,171.105029 745.805649,164.585036 C744.427586,164.007745 743.247829,163.770037 742.747021,164.279411 C741.231151,165.807535 729,197.388751 729,197.388751 L729.80331,198 C733.648443,197.123876 737.362491,195.751961 740.861427,193.925004 C743.046161,192.430839 743.617554,189.81605 747.583687,179.798353 Z"/>
    <path fill="#FF6900" d="M364,89.206766 C369.511809,87.5635622 378.3996,96.0534488 384.669282,102.660498 C390.938964,109.267547 399.068882,130.697664 396.519671,131.485032 C393.970459,132.272401 366.445865,146 366.445865,146 L364,89.206766 Z"/>
    <path stroke="#1C1C1C" stroke-linecap="round" stroke-linejoin="round" stroke-width="2.813" d="M364,89.20979 C369.511809,87.5425544 378.3996,96.1566046 384.669282,102.860281 C390.938964,109.563957 399.068882,131.307487 396.519671,132.106371 C393.970459,132.905254 367.341534,146 367.341534,146 L364,89.20979 Z"/>
    <path fill="#1C1C1C" d="M382.538538,201 C378.780494,201 377.701797,203.004773 377.040659,208.083532 C376.379522,213.162291 384,215 384,215 L382.538538,201 Z"/>
    <path stroke="#1C1C1C" stroke-linecap="round" stroke-linejoin="round" stroke-width="2.813" d="M382.538538,201 C378.780494,201 377.701797,203.004773 377.040659,208.083532 C376.379522,213.162291 384,215 384,215 L382.538538,201 Z"/>
    <path fill="#FF6900" d="M191.686649,194.494756 C155.604459,174.120243 105.944062,111.755617 105.944062,111.755617 C86.9655883,109.376867 68.273153,105.102011 50.1493482,99 C28.3346146,113.824096 11,140.369569 11,140.369569 C56.6627521,218.454632 97.6730729,256.031991 97.6730729,256.031991 L100.705769,256.790433 C121.762329,258.341792 158.29253,250.860795 171.457188,248.137298 C175.117101,247.392646 178.363464,245.303482 180.555276,242.276609 C191.962348,226.556173 193.926708,209.112004 194.960582,200.907039 C195.24662,198.307652 193.957724,195.787555 191.686649,194.494756"/>
    <path stroke="#1C1C1C" stroke-linecap="round" stroke-linejoin="round" stroke-width="2.813" d="M197.628785,192.529667 C160.461334,172.182193 109.665817,109.346434 109.665817,109.346434 C90.0840769,107.135801 70.7638851,103.000781 51.9874393,97 C29.2051683,112.277849 11,139.453798 11,139.453798 C57.4937284,218.360613 99.5480112,256.089659 99.5480112,256.089659 L102.679713,256.848378 C124.532798,258.19338 162.42295,250.226827 176.119844,247.295411 C179.898535,246.515999 183.264254,244.381239 185.583778,241.294631 C197.559957,225.1546 199.762472,207.428157 200.932559,199.151218 C201.321441,196.471559 200.003373,193.826387 197.628785,192.529667 Z"/>
    <path fill="#1C1C1C" d="M147.269737 195C147.269737 195 124.155702 245.445205 123 255L130.682018 254.246575C130.682018 254.246575 142.273026 221.164384 154 196.027397L147.269737 195zM188.040212 197C188.040212 197 197.314417 108.630047 175.513113 94.5500665 153.711808 80.4700857 106.302623 91.348506 89 105.910442L97.4090746 107.321883C119.002748 92.3158592 146.898036 89.5893691 171.014431 100.126978 184.164424 105.807166 189.320606 152.419132 181.396004 196.965575L188.040212 197z"/>
    <path fill="#1C1C1C" d="M162.133934 87.4711772C175.27675 90.8563438 184.595138 102.501866 184.991006 116.035667 185.610625 131.347881 154.010035 195 154.010035 195L147.125375 194.038695C146.746718 191.463771 176.79826 139.106985 177.176916 118.507593 177.555573 97.9082021 171.944575 95.5736044 157.762175 92.724022 99.0704465 80.9137043 70.7056466 101.787754 70.7056466 101.787754L60 99.0068363C60 99.0068363 99.6556427 72.7769447 162.133934 87.4711772M181.102696 197.068647C181.102696 197.068647 178.919127 218.108911 161 249L168.69448 247.661386C168.69448 247.661386 186.474968 218.486469 188 197L181.102696 197.068647z"/>
    <path stroke="#1C1C1C" stroke-linecap="round" stroke-linejoin="round" stroke-width="2.813" d="M147.269737,195 C147.269737,195 124.155702,245.445205 123,255 L130.682018,254.246575 C130.682018,254.246575 142.273026,221.164384 154,196.027397 L147.269737,195 Z"/>
    <path stroke="#1C1C1C" stroke-linecap="round" stroke-linejoin="round" stroke-width="2.813" d="M108.036348 255.99773C97.1845986 256.442821 103.236536 191.288355 132.38322 193.034481 138.817751 193.411097 148 194.575181 148 194.575181M188.040212 197C188.040212 197 197.314417 108.630047 175.513113 94.5500665 153.711808 80.4700857 106.302623 91.348506 89 105.910442L97.4090746 107.321883C119.002748 92.3158592 146.898036 89.5893691 171.014431 100.126978 184.164424 105.807166 189.320606 152.419132 181.396004 196.965575L188.040212 197z"/>
    <path fill="#FF6900" d="M67,311.208976 C67,311.208976 63.2200331,302.991336 58.0098085,301.370719 C52.0844551,299.487299 38.1224153,298.607921 38.6332216,305.110604 C38.020254,307.233242 29.6089764,317.20627 37.0667489,313.53377 C50.3136598,307.068148 51.812025,322.866638 60.9043778,318.082279 C63.5810029,316.441447 65.7025519,314.049268 67,311.208976"/>
    <path fill="#FFF" d="M243.585329,241.633155 C243.585329,241.633155 232.670659,224.428881 231.258982,233.788006 C229.847305,243.147131 225.371257,267.233115 224.372754,271.190098 C223.374251,275.147081 208.568862,291.24684 202.095808,301.297577 C197.482036,308.451114 189.907186,329.478178 185.465569,329.956457 C181.023952,330.441618 147.212575,315.332824 135.884731,314.334976 C124.918413,313.333687 114.034731,311.578851 103.312874,309.073909 C98.3892216,307.590901 77.2140719,288.42878 77.2140719,288.42878 C68.0002994,293.514364 61.3791916,302.267898 59,312.514764 C59,312.514764 79.6586826,329.719038 81.6556886,332.674732 C83.6526946,335.637308 116.947605,357.073834 122.973054,361.994256 C128.998503,366.914679 182.16018,399.843659 189.562874,398.983446 C196.965569,398.123232 289,294.312642 289,294.312642 L243.585329,241.633155 Z"/>
    <path fill="#1C1C1C" d="M243.482036,241.397059 C243.482036,241.397059 239.212575,225.579841 237.800898,234.987467 C236.389222,244.395094 232.911677,270.171302 231.913174,274.099761 C230.914671,278.024775 211.977545,294.327882 207.811377,304.390251 C204.368263,312.21271 192.282934,337.024033 187.841317,337.506476 C183.399701,337.988918 144.251497,321.585877 132.923653,320.620992 C121.595808,319.652661 107.238024,320.620992 92.4670659,311.833648 L68.6751497,291.708909 C68.6751497,291.708909 62.9251497,295.154926 59,312.385011 C59,312.385011 79.6586826,329.615097 81.6556886,332.575225 C83.6526946,335.542246 116.947605,357.010933 122.973054,361.938737 C128.998503,366.866541 182.16018,399.844925 189.562874,398.983421 C196.965569,398.121917 289,294.155581 289,294.155581 L243.482036,241.397059 Z"/>
    <path stroke="#1C1C1C" stroke-linecap="round" stroke-linejoin="round" stroke-width="2.813" d="M243.585329,241.633155 C243.585329,241.633155 232.670659,224.428881 231.258982,233.788006 C229.847305,243.147131 225.371257,267.233115 224.372754,271.190098 C223.374251,275.147081 208.568862,291.24684 202.095808,301.297577 C197.482036,308.451114 189.907186,329.478178 185.465569,329.956457 C181.023952,330.441618 147.212575,315.332824 135.884731,314.334976 C124.918413,313.333687 114.034731,311.578851 103.312874,309.073909 C98.3892216,307.590901 77.2140719,288.42878 77.2140719,288.42878 C68.0002994,293.514364 61.3791916,302.267898 59,312.514764 C59,312.514764 79.6586826,329.719038 81.6556886,332.674732 C83.6526946,335.637308 116.947605,357.073834 122.973054,361.994256 C128.998503,366.914679 182.16018,399.843659 189.562874,398.983446 C196.965569,398.123232 289,294.312642 289,294.312642 L243.585329,241.633155 Z"/>
    <path stroke="#1C1C1C" stroke-linecap="round" stroke-linejoin="round" stroke-width="2.813" d="M103,309 L101.006359,309 C101.006359,309 86.0015898,310.504593 81,333"/>
    <path fill="#1C1C1C" d="M319.276566,90.9339338 C319.276566,90.9339338 315.872274,87.2866154 310.69775,94.4075703 C305.523226,101.528525 288.195379,125.079781 292.757131,127.615536 C297.318882,130.151291 322,119.313545 322,119.313545 L319.276566,90.9339338 Z"/>
    <path stroke="#1C1C1C" stroke-linecap="round" stroke-linejoin="round" stroke-width="2.813" d="M319.276566 90.9339338C319.276566 90.9339338 315.872274 87.2866154 310.69775 94.4075703 305.523226 101.528525 288.195379 125.079781 292.757131 127.615536 297.318882 130.151291 322 119.313545 322 119.313545L319.276566 90.9339338zM162.133934 87.4711772C175.27675 90.8563438 184.595138 102.501866 184.991006 116.035667 185.610625 131.347881 154.010035 195 154.010035 195L147.125375 194.038695C146.746718 191.463771 176.79826 139.106985 177.176916 118.507593 177.555573 97.9082021 171.944575 95.5736044 157.762175 92.724022 99.0704465 80.9137043 70.7056466 101.787754 70.7056466 101.787754L60 99.0068363C60 99.0068363 99.6556427 72.7769447 162.133934 87.4711772z"/>
    <path fill="#FFF" d="M324,94.8956911 C313.0093,89.6133894 279.692665,73.5263797 268.081801,71.1939348 C256.470936,68.8614899 199.829212,88.344265 193.31748,88.035559 C184.077024,88.8759252 175.063961,91.3730133 166.719298,95.410201 C164.0078,97.7597963 162.023272,100.826275 161,104.259771 C162.174868,106.822031 163.646037,109.236797 165.375608,111.46291 C165.375608,111.46291 166.719298,120.621186 169.578947,121.753108 C175.632446,123.773417 182.316445,122.192157 186.805749,117.67133 L188.459522,120.518284 C188.459522,120.518284 188.941873,126.109292 189.355316,128.133031 C189.768759,130.15677 191.388079,129.12775 197.865356,119.729369 C200.638871,114.357886 202.482139,108.561074 203.309026,102.579039 C203.309026,102.579039 230.148383,99.4576789 241.586979,99.6634829 C249.797273,99.4782593 257.931769,98.0444917 265.704502,95.410201 L318.93532,124.840168 L324,94.8956911 Z"/>
    <path stroke="#1C1C1C" stroke-linecap="round" stroke-linejoin="round" stroke-width="2.813" d="M324,95.0260862 C313.0093,89.7149598 279.692665,73.5401658 268.081801,71.194993 C256.470936,68.8498203 199.829212,88.43891 193.31748,88.1285195 C184.077024,88.9734714 175.063961,91.4841857 166.719298,95.5434038 C164.0078,97.9058204 162.023272,100.989033 161,104.441265 C162.174868,107.017506 163.646037,109.44545 165.375608,111.68371 C165.375608,111.68371 166.719298,120.891962 169.578947,122.03006 C175.632446,124.061394 182.316445,122.471504 186.805749,117.926008 L188.459522,120.788498 C188.459522,120.788498 188.941873,126.410015 189.355316,128.444797 C189.768759,130.479579 193.903192,126.754893 197.865356,119.995278 C200.428704,114.511712 202.258191,108.714308 203.309026,102.751361 C203.309026,102.751361 230.148383,99.6129682 241.586979,99.8198952 C249.797273,99.6336609 257.931769,98.1920694 265.704502,95.5434038 L318.93532,125.133965 L324,95.0260862 Z"/>
    <path fill="#FFF" d="M275.238334,189 C269.193493,195.407861 246.844852,214.252486 236.654976,222.555145 C226.465101,230.857803 227.950405,257.453873 232.475401,266.032139 C237.000396,274.610405 263.874033,303.686936 269.193493,311.607191 C274.512953,319.534335 299.072279,364.079306 303.217313,366.728578 C307.362347,369.38474 331.679879,394.289272 335.824913,398.978035 C339.969947,403.663353 366.256371,439.457803 370.781366,442.833988 C375.306362,446.210173 393.130008,460.059422 396.135157,462.467538 C399.140307,464.882543 413.406132,487 413.406132,487 C414.456207,481.129572 417.87586,475.948162 422.870626,472.664994 C427.419801,469.964046 432.85325,469.147561 438,470.394682 C438,470.394682 422.110703,449.999769 422.110703,448.897341 C422.110703,447.794913 379.485938,363.421295 372.301212,355.50104 C365.116487,347.577341 335.997623,314.676763 329.192859,303.82474 C322.388095,292.972717 308.087728,266.169942 308.087728,266.169942 L305.877043,208.223584 L275.238334,189 Z"/>
    <path fill="#1C1C1C" d="M273.921765,189 C271.648799,195.880521 248.919145,217.003719 240.378305,226.842864 C234.351502,233.895397 235.005841,255.087401 239.551772,263.653649 C244.097703,272.219898 265.725313,300.705253 270.994461,308.617852 C276.263608,316.530451 297.684586,363.662018 301.81725,366.311018 C305.949915,368.960019 330.19488,393.833101 334.327544,398.511855 C338.460209,403.190609 364.668189,438.934914 369.21412,442.302929 C373.760051,445.677824 391.461631,459.504231 394.457813,461.915853 C397.453994,464.324035 413.43363,485 413.43363,485 C413.43363,485 417.290784,472.099024 429,469.450023 L415.017818,447.60093 C415.017818,447.60093 373.691173,365.41655 366.562327,357.538354 C359.433481,349.660158 332.123456,317.493724 325.235682,306.550256 C318.347908,295.613668 300.233062,261.830311 300.233062,261.830311 L304.365727,208.02464 L273.921765,189 Z"/>
    <path stroke="#1C1C1C" stroke-linecap="round" stroke-linejoin="round" stroke-width="2.813" d="M275.238334,189 C269.193493,195.407861 246.844852,214.252486 236.654976,222.555145 C226.465101,230.857803 227.950405,257.453873 232.475401,266.032139 C237.000396,274.610405 263.874033,303.686936 269.193493,311.607191 C274.512953,319.534335 299.072279,364.079306 303.217313,366.728578 C307.362347,369.38474 331.679879,394.289272 335.824913,398.978035 C339.969947,403.663353 366.256371,439.457803 370.781366,442.833988 C375.306362,446.210173 393.130008,460.059422 396.135157,462.467538 C399.140307,464.882543 413.406132,487 413.406132,487 C414.456207,481.129572 417.87586,475.948162 422.870626,472.664994 C427.419801,469.964046 432.85325,469.147561 438,470.394682 C438,470.394682 422.110703,449.999769 422.110703,448.897341 C422.110703,447.794913 379.485938,363.421295 372.301212,355.50104 C365.116487,347.577341 335.997623,314.676763 329.192859,303.82474 C322.388095,292.972717 308.087728,266.169942 308.087728,266.169942 L305.877043,208.223584 L275.238334,189 Z"/>
    <path fill="#FF6900" d="M434.18953,479 C434.18953,479 421.157288,460.603034 430.184831,454.470713 C439.212374,448.341836 446,454.470713 445.253361,463.496939 C445.12779,467.772339 445.375538,472.047738 446,476.278352 L434.18953,479 Z"/>
    <path stroke="#1C1C1C" stroke-linecap="round" stroke-linejoin="round" stroke-width="2.813" d="M434.18953 479C434.18953 479 421.157288 460.603034 430.184831 454.470713 439.212374 448.341836 446 454.470713 445.253361 463.496939 445.12779 467.772339 445.375538 472.047738 446 476.278352L434.18953 479zM396 462C396 462 406.592593 441.924377 422 448.223366"/>
    <path fill="#FF6900" d="M443.879358,475.186718 L421.663538,468.530829 C421.663538,468.530829 414.304118,468.012501 412,482.261389 L418.465285,490.599271 C418.465285,490.599271 421.560369,507.76247 426.168604,514.150613 C428.438332,517.236556 434.903617,516.927619 445.908358,509.616096 C456.913098,502.304573 459.939402,492.864813 461.452554,491.457431 C465.82006,487.37259 476.377734,485.759249 483.186917,477.726872 C497.321131,461.421832 500.037926,448.412127 496.736504,445.497816 C493.435082,442.57664 480.401342,443.572105 470.118787,451.673135 C467.023704,454.110309 458.42625,463.790354 453.680456,467.463278 L443.879358,475.186718 Z"/>
    <path stroke="#1C1C1C" stroke-linecap="round" stroke-linejoin="round" stroke-width="2.813" d="M443.800013,475.186718 L421.639486,468.530829 C421.639486,468.530829 414.298383,468.012501 412,482.261389 L418.449194,490.599271 C418.449194,490.599271 421.536573,507.76247 426.133339,514.150613 C428.397418,517.236556 434.846611,516.927619 445.823962,509.616096 C456.801313,502.304573 459.820084,492.864813 461.32947,491.457431 C465.686106,487.37259 475.63433,485.004068 483.009737,477.726872 C498.515245,462.726235 499.818806,448.412127 496.525601,445.497816 C493.232395,442.57664 480.231096,443.572105 469.974133,451.673135 C466.886754,454.110309 458.310698,463.790354 453.576716,467.463278 L443.800013,475.186718 Z"/>
    <path fill="#FFF" d="M384.896607,137.640118 C384.896607,135.218816 383.748945,132.938327 381.794817,131.492415 C379.04801,129.459208 376.184024,127.587421 373.213198,125.894227 C370.163104,124.781458 367.27844,123.270291 364.631579,121.39507 C359.634251,114.526127 345.366017,103.604509 319.586695,91 C319.586695,91 311.280791,115.556469 307.662036,118.716182 C302.936976,121.961757 297.94654,124.79863 292.738979,127.199326 L313.417579,138.567425 C313.417579,138.567425 297.770772,158.315634 289.602725,161.441003 C281.434678,164.566372 256,172.671724 256,172.671724 C256,172.671724 258.929468,206.432575 284.743254,227.142436 C293.586802,234.526549 300.786401,243.679414 305.86989,254 C313.307294,247.110451 320.348357,239.805331 326.962063,232.122419 C333.613679,223.707965 360.97836,204.64665 371.214267,185.997472 C374.488378,179.952802 385,156.907501 385,156.907501 L384.896607,137.640118 Z"/>
    <path stroke="#1C1C1C" stroke-linecap="round" stroke-linejoin="round" stroke-width="2.813" d="M384.896607 139.270829C384.900053 135.801793 383.218194 132.545919 380.381779 130.538072 378.089901 128.856845 375.698076 127.316579 373.213198 125.931027 370.163104 124.817085 367.27844 123.304324 364.631579 121.427125 359.634251 114.550939 345.366017 103.617802 319.586695 91 319.586695 91 311.280791 115.582367 307.662036 118.745412 302.936976 121.990972 297.94654 124.830837 292.738979 127.237503L313.417579 138.617591C313.417579 138.617591 297.770772 158.214723 289.602725 161.343387 281.434678 164.472052 256 172.585952 256 172.585952 256 172.585952 258.929468 206.382409 284.743254 227.114111 293.586802 234.506011 300.786401 243.665092 305.86989 254 313.307294 247.099747 320.348357 239.786923 326.962063 232.099346 333.613679 223.676018 361.426396 202.600506 371.214267 185.925754 374.6607 180.012234 385 156.805104 385 156.805104L384.896607 139.270829zM313 138L323 143M326.683591 135C328.993591 139.224852 328.723591 149.116371 326.683591 152"/>
    <path fill="#FFF" d="M378.74193,216.880993 C378.74193,216.880993 373.579233,220.613814 357.675354,220.997562 C355.942906,221.02896 354.220852,220.756847 352.581955,220.19518 C349.117058,218.974164 342.187263,216.706562 340.766655,215.973953 C338.167982,214.71805 336.608778,213.497034 337.613598,211.194547 C337.613598,211.194547 332.035114,207.705929 336.262288,203.519588 C333.885369,202.846285 332.49941,200.362389 333.168135,197.969198 C333.410678,197.097043 333.913088,196.319082 334.599138,195.739971 C334.599138,195.739971 332.277656,191.204768 333.698264,189.076712 C335.118872,186.948655 349.775388,182.866972 351.681082,184.297306 C353.586775,185.727639 370.772666,199.298361 372.886254,199.926312 C374.999841,200.554263 402.892265,190.611703 406.495758,189.46046 C406.461109,189.320915 424.582523,216.706562 378.74193,216.880993"/>
    <path stroke="#1C1C1C" stroke-linecap="round" stroke-linejoin="round" stroke-width="2.813" d="M379.060019,216.880993 C379.060019,216.880993 373.989078,220.613814 358.50215,220.997562 C356.723894,221.02896 354.952491,220.756847 353.259893,220.19518 C349.833581,218.974164 343.357853,216.706562 341.67896,215.973953 C338.869385,214.578506 337.567386,213.497034 338.561016,211.194547 C338.561016,211.194547 333.044655,207.705929 337.224755,203.519588 C334.874305,202.846285 333.507207,200.362389 334.165059,197.969198 C334.408327,197.097043 334.898289,196.319082 335.580125,195.739971 C335.580125,195.739971 333.284497,191.204768 334.689284,189.076712 C336.094072,186.948655 350.58737,182.866972 352.471841,184.297306 C354.356313,185.727639 371.350818,199.298361 373.440868,199.926312 C375.530918,200.554263 403.112726,190.611703 406.67609,189.46046 C406.470511,189.320915 424.390121,216.706562 379.060019,216.880993 Z"/>
    <path fill="#FFF" d="M430.419655,54.7228464 C419.211852,42.3672223 404.245123,29.8039406 388.105885,52.8885381 C378.946523,65.0295827 375.673844,80.6419694 379.174128,95.4583355 C374.966891,102.380254 364.862624,104.975973 358,105.356679 C358,105.356679 369.759573,121.3117 372.277018,126.43392 C374.070266,130.102537 378.449931,136.332263 382.622683,135.986167 L382.898567,132.421379 C387.236849,129.275367 391.326836,125.804025 395.140938,122.038502 C397.761839,125.257194 406.59014,128.96042 407.83162,129.583393 C409.969724,130.725509 424.488141,120.757947 425.591678,113.939857 C425.591678,113.939857 429.040233,116.639405 431.212823,115.324241 C433.385413,114.009077 431.799077,110.34046 435.902858,99.4038289 C437.28228,95.7698218 441.627459,94.2816094 441.972315,93.4163696 C447.352061,78.9495604 441.524003,67.0784705 430.419655,54.7228464"/>
    <path stroke="#1C1C1C" stroke-linecap="round" stroke-linejoin="round" stroke-width="2.813" d="M430.419655,54.7228464 C419.211852,42.3672223 404.245123,29.8039406 388.105885,52.8885381 C378.946523,65.0295827 375.673844,80.6419694 379.174128,95.4583355 C374.966891,102.380254 364.862624,104.975973 358,105.356679 C358,105.356679 369.759573,121.3117 372.277018,126.43392 C374.070266,130.102537 378.449931,136.332263 382.622683,135.986167 L382.898567,132.421379 C387.236849,129.275367 391.326836,125.804025 395.140938,122.038502 C398.823994,125.385249 403.138137,127.953281 407.83162,129.583393 C410.211123,130.033317 424.488141,120.757947 425.591678,113.939857 C425.591678,113.939857 429.040233,116.639405 431.212823,115.324241 C433.385413,114.009077 431.799077,110.34046 435.902858,99.4038289 C437.28228,95.7698218 441.627459,94.2816094 441.972315,93.4163696 C447.352061,78.9495604 441.524003,67.0784705 430.419655,54.7228464 Z"/>
    <path fill="#1C1C1C" d="M428.938815,69.9177234 C432.385353,64.4684794 432.936799,77.4232858 440.140062,76.7721183 C447.343325,76.1209508 445.654522,56.2089335 424.80297,42.5001436 C407.122233,30.6763123 381.790183,51.9249366 378.826161,60.1844825 C374.345662,72.5909374 376.999496,95.8273362 376,97.8836547 C380.142738,100.162741 383.768495,103.264355 386.649801,107 C386.649801,107 397.954444,105.046497 404.502865,88.8358534 C404.502865,88.8701254 415.152666,91.5433394 428.938815,69.9177234"/>
    <path stroke="#1C1C1C" stroke-linecap="round" stroke-linejoin="round" stroke-width="2.813" d="M181.102696 197.068647C181.102696 197.068647 178.919127 218.108911 161 249L168.69448 247.661386C168.69448 247.661386 186.474968 218.486469 188 197L181.102696 197.068647zM154 195.89798C162.950973 196.88498 171.978988 197.26598 181 197.03798M188 196.481586C188 196.481586 200.756032 192.881586 201 195.431586"/>
    <path fill="#FFF" d="M196,85.2382166 L204.205268,81.1148519 C206.239347,78.7198643 208.449253,76.4795028 210.824644,74.4143843 C212.996627,72.8681225 228.890024,73.1430135 241.852968,67.9200848 C254.815913,62.6971562 259.297782,58.6768756 265.365543,59.0204893 C271.433304,59.364103 316.286471,70.4971878 328.628849,80.6681541 C337.806338,87.7362884 347.738849,93.7735816 358.243661,98.6735134 L363.932187,89.1897745 C364.690657,103.758997 378.170741,114.033047 377.998361,121.008406 C377.998361,124.444543 367.655586,135.062207 365.449127,137.845478 C354.796069,150.524825 287.533557,214.402616 268.606279,212.031682 L261.262909,221 C261.262909,221 258.366932,206.98056 241.197926,190.727631 C231.648097,181.69059 216.202887,168.564545 214.513567,153.205012 L217.754303,148.841117 C217.754303,148.841117 218.857532,137.123889 224.442631,131.660431 C230.027729,126.196973 281.638176,119.668312 283.293019,117.159932 C284.947863,114.651552 267.089339,103.415383 263.883079,104.34314 C249.034302,106.714075 234.075202,108.332495 219.064388,109.188093 C214.816955,109.311794 210.969443,106.707202 209.514559,102.728155 L202.619376,103.415383 C202.619376,103.415383 196.206855,101.491146 196,85.2382166"/>
    <path fill="#FF6900" d="M196,90.1857369 L204.21205,86.2268842 C206.254711,83.9376346 208.469894,81.8067391 210.836896,79.8582951 C213.010674,78.3780284 228.917207,78.619002 241.890866,73.5929804 C254.864524,68.5669587 259.350097,64.6769556 265.422873,65.0212036 C271.49565,65.3654517 315.178233,76.0715664 328.738466,85.8826361 C338.165071,92.3441722 348.060936,98.0965573 358.34325,103.095039 L364.036478,93.9724656 C367.486919,102.991765 379.528958,117.553458 377.838242,121.994258 C376.49257,125.436738 368.142503,134.662586 365.589177,137.588695 C354.927314,149.912775 286.574077,215.69858 268.666288,212.359374 L261.316849,221 C256.679456,208.125123 248.457055,196.840671 237.612319,188.468558 C222.223352,176.626425 218.048318,169.50049 214.977426,157.141985 L220.360114,153.424106 C220.360114,153.424106 221.395246,142.373743 226.98496,137.244447 C232.574675,132.115151 281.674451,119.618946 283.330662,117.20921 C284.986874,114.799473 267.11359,107.880087 263.904679,108.912831 C260.695769,109.945576 226.467394,113.56018 219.048946,113.56018 C214.846309,113.780499 210.971464,111.301913 209.422216,107.39814 L202.521334,108.086636 C202.521334,108.086636 196.207026,105.917873 196,90.1857369"/>
    <path stroke="#1C1C1C" stroke-linecap="round" stroke-linejoin="round" stroke-width="2.813" d="M312 73C314.869198 73.99 317.56962 75.01 320 76M328.525421 81.0112413C337.737386 88.119367 347.700926 94.1849216 358.243661 99.1008861L363.932187 89.5727526C364.690657 104.210175 378.170741 114.53232 377.998361 121.540331 377.998361 124.992553 367.655586 135.65992 365.449127 138.45622 354.796069 151.194921 287.533557 215.371733 268.606279 212.9897L261.262909 222C261.262909 222 258.366932 207.914933 241.197926 191.585922 231.648097 182.506577 216.202887 169.319088 214.513567 153.887654L217.754303 149.503332C217.754303 149.503332 218.857532 137.731254 224.442631 132.24222 230.027729 126.753187 281.638176 120.193964 283.293019 117.673842 284.947863 115.15372 267.089339 103.864953 263.883079 104.797053 249.034302 107.179086 234.075202 108.805083 219.064388 109.664686 214.816955 109.788966 210.969443 107.172182 209.514559 103.174508L202.619376 103.864953C202.619376 103.864953 196.344759 101.690053 196 85.3610414L204.205268 81.2183746C206.239347 78.8087234 208.449253 76.5578745 210.824644 74.4865411 212.996627 72.9330411 228.890024 73.2092189 241.852968 67.961841 254.815913 62.7144631 259.297782 58.675363 265.365543 59.0205852 279.059377 61.5959431 292.518775 65.3036298 305.598937 70.1022188"/>
    <path fill="#FFF" d="M307.772585 109.477826C298.827763 103.78615 290.571004 116.418895 284 115.724788 284.815355 116.849241 286.06763 117.567642 287.440316 117.702992L289.814134 117.217118C293.908111 116.384189 296.419542 111.490736 303.231368 114.024226 305.192348 114.753038 306.671684 116.349484 304.848317 118.848269L302.233676 121C309.286324 120.583536 312.485819 112.497191 307.772585 109.477826M382.180348 196.791105L390.257582 196.516557C391.378083 194.608442 392.388597 192.638555 393.282248 190.613757 393.797816 189.035102 397.784877 188.245774 397.784877 188.245774L374 181.073187C374 181.073187 378.227659 165.973003 380.083704 159.074964 382.661545 149.568712 384.861302 138.037663 384.861302 138.037663 387.531945 137.896956 390.206025 138.150914 392.801051 138.792672 399.197533 141.606797 405.157501 145.316638 410.502224 149.808942 422.360291 160.104522 433.187222 173.488776 443.63607 179.151345 454.084917 184.813914 459 193.633794 459 198.232487 459 202.831179 431.262434 215.0486 425.247473 216.215433 416.582491 216.918964 407.886575 217.138603 399.194096 216.867486 395.482006 216.867486 385.995552 218 385.995552 218 387.861909 210.710729 386.473312 202.975317 382.180348 196.791105"/>
    <path fill="#FF6900" d="M384.422906,202.191589 C386.968434,201.70971 389.541481,201.418502 392.128288,201.3249 C394.467422,201.3249 395.568191,193.247356 401.140834,191.825986 C423.534601,185.932499 424.222582,182.188402 422.365034,182.985756 C420.507487,183.78311 397.804128,188.081889 397.804128,188.081889 L374,180.836367 C376.628086,175.036483 378.667948,168.983525 380.088628,162.774564 C381.120599,156.153058 384.870093,143.048717 384.870093,143.048717 C387.539458,142.889246 390.215702,143.121519 392.816269,143.742069 C399.042493,147.084022 404.82153,151.205996 410.015783,156.014388 C421.883448,165.82531 430.036018,176.329583 440.527722,181.633721 C451.019425,186.937859 459,195.154072 459,199.452851 C459,203.751629 431.239984,215.226595 425.220154,216.301289 C416.544719,216.977307 407.845204,217.199179 399.14569,216.959973 C395.430595,216.959973 385.936463,218 385.936463,218 C387.11979,212.702796 386.590045,207.162918 384.422906,202.191589"/>
    <path stroke="#1C1C1C" stroke-linecap="round" stroke-linejoin="round" stroke-width="2.813" d="M382.180348,196.791105 L390.257582,196.516557 C391.378083,194.608442 392.388597,192.638555 393.282248,190.613757 C393.797816,189.035102 397.784877,188.245774 397.784877,188.245774 L374,181.073187 C374,181.073187 378.227659,165.973003 380.083704,159.074964 C382.661545,149.568712 384.861302,138.037663 384.861302,138.037663 C387.531945,137.896956 390.206025,138.150914 392.801051,138.792672 C399.197533,141.606797 405.157501,145.316638 410.502224,149.808942 C422.360291,160.104522 433.187222,173.488776 443.63607,179.151345 C454.084917,184.813914 459,193.633794 459,198.232487 C459,202.831179 431.262434,215.0486 425.247473,216.215433 C416.582491,216.918964 407.886575,217.138603 399.194096,216.867486 C395.482006,216.867486 385.995552,218 385.995552,218 C387.861909,210.710729 386.473312,202.975317 382.180348,196.791105 Z"/>
    <path fill="#FFF" d="M376.83191,76.6562636 C376.83191,76.6562636 370.967883,58.6989208 390.377471,42.122912 C401.968355,32.2118401 436.432376,34.5946414 438.695685,37.702643 C440.958994,40.8106447 446,68.6099927 446,68.6099927 C446,68.6099927 418.154443,87.4652027 376.83191,76.6562636"/>
    <path fill="#1C1C1C" d="M376.792276,75.8640786 C376.792276,75.8640786 371.280883,59.5593239 389.330694,44.4534482 C400.07791,35.4789823 432.147326,37.6027109 434.110759,40.5142742 C436.074193,43.4258376 441,68.6365508 441,68.6365508 C441,68.6365508 415.234239,85.9004087 376.792276,75.8640786"/>
    <path stroke="#1C1C1C" stroke-linecap="round" stroke-linejoin="round" stroke-width="2.813" d="M376.83191,76.6562636 C376.83191,76.6562636 370.967883,58.6989208 390.377471,42.122912 C401.968355,32.2118401 436.432376,34.5946414 438.695685,37.702643 C440.958994,40.8106447 446,68.6099927 446,68.6099927 C446,68.6099927 418.154443,87.4652027 376.83191,76.6562636 Z"/>
    <path fill="#FFF" d="M400.900701 89.0850055C404.174002 83.8039028 408.883375 80.8275292 411.425155 82.4367483 413.963564 84.0459675 413.370258 89.6339129 410.100328 94.9116063 406.827027 100.196118 402.114283 103.172492 399.575874 101.563273 397.037464 99.9540537 397.6274 94.3661083 400.900701 89.0850055M488.300182 444.169994C486.719547 444.232393 485.235757 444.96384 484.218893 446.180608 477.924025 453.876408 464.780893 467.257392 454.71948 479.352276 451.260761 483.619631 435.03937 482.059672 422 504.73108 422.992652 508.395251 424.507571 511.896493 426.492876 515.130809 428.779089 518.250727 435.278022 517.935269 446.349381 510.551462 457.413822 503.171121 460.457495 493.638036 461.98279 492.213274 466.371904 488.091515 475.817665 485.942237 483.838434 478.346969 499.752 463.513489 500.786157 448.742408 497.465787 445.799285 494.678059 444.253192 491.451075 443.681207 488.300182 444.169994"/>
    <path stroke="#1C1C1C" stroke-linecap="round" stroke-linejoin="round" stroke-width="2.813" d="M67 311.203357C67 311.203357 63.2234764 302.989836 58.017998 301.370032 52.0980421 299.487556 38.1487208 298.608618 38.6590618 305.108042 38.0466526 307.229616 29.5749916 317.096617 37.094016 313.526985 50.3288599 307.263292 51.8258602 322.855174 60.9099304 318.073215 63.5841174 316.433204 65.7037338 314.042225 67 311.203357zM283 115.440698C289.081984 122.703581 293.961315 111.168414 303.616893 114.684833 309.492708 116.755247 303.616893 121.783397 295.610666 120.896076M224.490051 163C222.556095 156.384913 226.752414 148.411992 230 145"/>
    <path fill="#FFF" d="M104.986549,256.840813 C100.012699,251.241607 97.1242114,244.098743 96.8174389,236.614758 C96.6106259,217.939253 107.950868,194.233077 124.392496,193.819597 C142.833315,193.37166 149.003234,190.890781 149.003234,190.890781 L157,174.627242 C157,174.627242 125.254216,144.236475 106.916803,116.395501 C94.473559,97.5477122 59.7634565,93.8608505 51.5598771,96.9964058 C43.3562978,100.131961 10.1972922,124.561727 9.02535225,139.86048 C7.40531767,159.879795 83.8916311,261.561374 104.986549,256.840813"/>
    <path fill="#FF6900" d="M103.869917,256.871768 C99.0428005,251.209777 96.1877586,244.132289 95.7273788,236.704363 C95.1089582,218.254795 108.542428,193.758441 124.002944,193.724084 C141.387435,193.724084 148.533629,190.803762 148.533629,190.803762 L153,181.699226 C153,181.699226 118.643299,147.033279 100.60603,119.101251 C88.4781148,100.205046 57.625797,94.8453947 49.9986093,97.7313606 C42.3714216,100.617327 9.83562535,124.976253 9.01106452,139.921434 C7.94600678,159.607844 84.080457,261.097646 103.869917,256.871768"/>
    <path stroke="#1C1C1C" stroke-linecap="round" stroke-linejoin="round" stroke-width="2.813" d="M104.986549 256.840813C100.012699 251.241607 97.1242114 244.098743 96.8174389 236.614758 96.6106259 217.939253 107.950868 194.233077 124.392496 193.819597 142.833315 193.37166 149.003234 190.890781 149.003234 190.890781L157 174.627242C157 174.627242 125.254216 144.236475 106.916803 116.395501 94.473559 97.5477122 59.7634565 93.8608505 51.5598771 96.9964058 43.3562978 100.131961 10.1972922 124.561727 9.02535225 139.86048 7.40531767 159.879795 83.8916311 261.561374 104.986549 256.840813zM414.418411 180.291771C422.855164 178.835377 426.040826 183.275601 419.529473 183.84395 412.219954 184.376777 404.994453 185.769231 398 188M218 149C228.649492 180.551387 267.51322 190.897227 269 212M335 195.508866C338.707865 193.846866 342.877528 193.189866 347 193.618866M337 203.235C340.575 202.341 344.275 201.849 348 201.765M338 210.89594C341.917857 210.03794 346.003571 209.87594 350 210.41594M328.59767 122.977742C330.754071 125.586348 330.38286 129.447084 327.764131 131.601288 325.148777 133.752126 321.278053 133.381872 319.118277 130.7699 318.973167 130.594871 318.834806 130.409744 318.709944 130.214519L316.347689 126.848576C315.848241 126.296562 315.892111 125.444978 316.445554 124.946818 316.509672 124.889597 316.577165 124.839108 316.651408 124.795351L324.143131 119.342523C324.733695 118.834266 325.631352 118.898219 326.140924 119.490625 326.174671 119.531016 326.205043 119.568041 326.235414 119.611799L328.59767 122.977742z"/>
    <path fill="#FF6900" d="M61.9590654,137.557204 C69.3352894,146.015466 68.5206738,158.90408 60.1442256,166.349293 C59.7730083,166.675412 59.3949167,166.987653 59.0030763,167.289486 C50.3585267,174.509192 37.5549691,173.294921 30.4021628,164.572989 C30.0928151,164.191361 29.793779,163.802795 29.5119289,163.40382 L21.125169,152.718239 C19.4306311,150.70255 19.6781093,147.680751 21.6785577,145.970364 C21.754176,145.904447 21.8332316,145.841999 21.9157243,145.77955 L46.4573085,126.212448 C48.4886917,124.425736 51.5718571,124.637366 53.3420134,126.691218 C53.4245061,126.78142 53.5001244,126.878562 53.5723055,126.975704 L61.9590654,137.557204 Z"/>
    <path stroke="#1C1C1C" stroke-linecap="round" stroke-linejoin="round" stroke-width="2.813" d="M61.9590654,137.557204 C69.3352894,146.015466 68.5206738,158.90408 60.1442256,166.349293 C59.7730083,166.675412 59.3949167,166.987653 59.0030763,167.289486 C50.3585267,174.509192 37.5549691,173.294921 30.4021628,164.572989 C30.0928151,164.191361 29.793779,163.802795 29.5119289,163.40382 L21.125169,152.718239 C19.4306311,150.70255 19.6781093,147.680751 21.6785577,145.970364 C21.754176,145.904447 21.8332316,145.841999 21.9157243,145.77955 L46.4573085,126.212448 C48.4886917,124.425736 51.5718571,124.637366 53.3420134,126.691218 C53.4245061,126.78142 53.5001244,126.878562 53.5723055,126.975704 L61.9590654,137.557204 Z"/>
    <path fill="#1C1C1C" d="M53.8746735,150.480286 C54.8701741,150.029526 55.9590029,149.807561 57.0547449,149.831465 C58.0917247,149.831465 58.7830445,150.411989 59.8545903,151.743779 C61.3029054,154.185393 60.4836914,157.327051 58.0225927,158.77836 C57.6078007,159.085696 57.1930088,158.573469 57.4349708,158.095391 C58.0571587,156.592859 57.4349708,155.602554 56.536255,154.13417 C55.6375391,152.665787 54.7388233,151.948669 53.8055415,150.890067 C53.6327115,150.753473 53.7364095,150.582731 53.8746735,150.548583 L53.8746735,150.480286 Z M38.3199765,152.904826 C39.2636281,154.946903 40.497634,156.842143 41.9839718,158.539321 C44.0026258,160.707748 46.5293999,162.346873 49.3465283,163.320104 C46.0662156,163.593292 42.8584914,162.251258 40.774162,159.734517 L40.3248041,159.973556 C41.766206,161.64683 43.5912905,162.958131 45.6479671,163.798183 C43.3320455,164.788488 40.566766,162.842026 38.7347684,160.622376 L38.1471465,160.622376 C39.0493189,161.783424 40.1208647,162.807877 41.3272179,163.661589 C38.582678,163.685493 35.9971417,162.401511 34.3794532,160.212595 C33.276798,158.846657 32.4886934,157.262169 32.0635317,155.568405 C34.3276042,155.165454 36.4672392,154.250275 38.3199765,152.904826 Z M39.5989182,144.231119 C42.6061596,141.874876 44.5764213,138.801515 46.5121169,137.777061 C44.5072893,137.777061 44.2307613,136.650162 44.5418553,136.308678 C44.8529492,135.967193 47.0651728,136.308678 47.9984546,136.616014 L48.2058506,136.616014 C47.5490967,136.03549 46.9960408,135.14763 47.4799647,134.737849 C47.9638886,134.328067 49.4502263,135.011036 50.5217721,136.616014 L50.5217721,136.172084 C50.5217721,135.625709 50.5217721,135.250076 51.040262,135.215927 C51.5587519,135.181779 51.8698459,135.489115 52.1463738,135.830599 C52.5058601,136.298433 52.7616485,136.831149 52.9068257,137.401428 C52.8653465,137.220441 52.8653465,137.032625 52.9068257,136.855053 C52.955218,136.612599 53.1937234,136.458931 53.4356854,136.506739 C53.4425986,136.510154 53.4495118,136.510154 53.4598815,136.513568 C54.0198506,136.742363 54.3482276,137.319472 54.2548994,137.913655 L54.2548994,138.357585 C54.310205,138.371244 54.3724238,138.371244 54.4277294,138.357585 C54.465752,138.190257 54.5487103,138.036589 54.6696913,137.913655 C54.8114119,137.763402 55.0533738,137.753157 55.2054642,137.896581 L55.2227472,137.913655 C55.475079,138.101471 55.5753203,138.436126 55.4647092,138.733218 C55.3644678,139.030309 55.2123774,139.306912 55.0153512,139.552781 C53.162614,137.391184 49.892671,137.124826 47.7081003,138.955183 C47.7011871,138.958598 47.6942739,138.965427 47.6873607,138.972257 C44.2307613,141.601688 42.9863856,147.133737 37.7669206,151.197403 C35.5788932,152.942389 32.8343533,153.860983 30.0241381,153.792686 C26.4776672,153.676581 23.0245244,152.652127 20,150.82177 C20.1831998,151.620844 20.5495993,152.368695 21.0715458,153.007271 L22.0048276,154.168319 C24.5523413,155.35327 27.3452736,155.937209 30.162402,155.875741 C30.6947183,158.054413 31.6867623,160.10332 33.0659455,161.885869 C35.1744711,164.74068 38.7243986,166.191989 42.2604997,165.642199 C44.0855842,166.273945 46.1042382,166.062225 47.7564926,165.061675 C49.3741811,165.143632 50.9296508,164.426514 51.9044118,163.149362 C52.0772418,162.910323 51.9044118,162.739581 51.5241859,162.568838 C48.2162204,161.43511 45.2850241,159.430595 43.0555176,156.763601 C41.8145984,155.196187 40.8156412,153.458031 40.0828421,151.607185 C41.7420098,150.104653 42.9172536,148.602121 43.7122714,147.782558 C44.5072893,146.962995 45.820797,146.280026 46.8232108,147.543519 C47.908583,148.964094 48.7208839,150.572487 49.2082644,152.290154 C49.6576223,154.13417 49.2082644,155.944038 49.5193583,156.490414 C49.8304522,157.036789 50.0378482,156.866047 50.5563381,156.490414 C51.6762763,155.575235 52.5542525,154.400528 53.1142216,153.075568 C53.9576319,153.973673 54.7249969,154.946903 55.3955772,155.978187 C55.9106105,156.705549 55.9106105,157.67195 55.3955772,158.402727 C55.215834,158.938858 55.3471848,159.526211 55.7412371,159.939407 C56.432557,160.827267 57.3312728,161.032158 59.0250065,159.734517 C61.9423763,157.979286 62.8756581,154.219541 61.0989661,151.333997 C60.9814417,151.146181 60.8570041,150.965194 60.7187401,150.787622 C59.1632704,148.807012 58.0917247,148.363082 56.6053869,146.519065 C55.1190492,144.675049 57.4004048,141.943172 56.6053869,140.133304 C57.338186,138.962012 56.9752431,137.425332 55.7930861,136.69797 C55.5856901,136.571621 55.3575546,136.47259 55.1190492,136.411123 C54.9462193,135.181779 53.6327115,134.089028 52.6302977,134.771997 C52.1463738,133.576801 50.6254701,132.72309 49.7958863,134.25977 C47.8256246,131.971824 45.3714391,133.16702 46.3392869,134.94274 C43.5394415,133.815841 42.2604997,136.342826 44.0579314,137.742913 C42.7098576,138.972257 40.843294,141.396797 39.2186923,142.626142 C36.9719027,144.401861 35.762093,143.787189 34.5522832,142.421251 C33.6293712,141.075802 32.8620061,139.631322 32.2709276,138.118546 L30.7154579,139.313742 C31.3860382,140.8914 32.232905,142.390517 33.2387754,143.787189 C34.54537,145.620961 37.1101667,146.061476 38.9698171,144.770664 C39.1979527,144.610167 39.4088053,144.432595 39.5989182,144.231119 Z"/>
    <path fill="#1C1C1C" d="M26.21,143.02 L28.13,144.7 L28.79,144.4 C28.46,143.92 27.74,143.05 27.11,142.3 L26.21,143.02 Z"/>
    <path fill="#FFF" d="M50.483685 147.665766C49.2082922 145.734639 48.7287445 143.388251 49.1572765 141.116138 49.0688493 141.187036 48.9906252 141.264686 48.9192032 141.352465L48.7491508 141.352465C48.8681875 140.805537 49.3443341 140.407157 49.9055069 140.373396 50.6843468 140.484808 51.2761291 141.116138 51.3339469 141.89264 51.2149102 141.612424 50.9972432 141.386226 50.7217583 141.251182 50.483685 141.251182 50.3476431 141.251182 50.2116012 141.521269 49.3273289 143.61445 50.9258212 146.349088 53.6126487 149.083727 53.8847325 149.387576 54.0887954 149.353815 54.2588477 149.252532 55.425407 148.715733 56.7178051 148.49291 58 148.611074 57.5238533 148.13842 57.1157276 147.632005 56.7416124 147.226874 55.8675432 146.457124 55.2417505 145.444294 54.9390572 144.32343L55.1091096 144.32343C55.1091096 144.525996 55.3131725 144.694801 55.3811934 144.694801 55.4492144 144.694801 55.3811934 144.694801 55.3811934 144.492235 55.3811934 144.289669 55.7212982 141.656313 55.7212982 141.656313 56.7416124 140.643484 55.4832248 138.989196 53.850722 139.191762L53.850722 138.921675C54.1092017 138.813639 54.3846865 138.746117 54.6669734 138.719109 53.3031534 137.760297 51.4767909 137.760297 50.1095698 138.719109 44.5318519 142.095206 51.8100935 148.8474 51.5380097 152.696151L51.5380097 153C51.5380097 153 52.3202507 150.940581 50.8918107 148.003376M54.4289001 140.13707C54.8710363 140.440918 54.9050468 141.284943 54.4289001 142.061445 53.9527535 142.837947 53.3745754 143.243079 52.9324392 142.972991 52.490303 142.702903 52.4222821 141.825118 52.9324392 141.014855 52.9426424 140.9237 52.9426424 140.835922 52.9324392 140.744767 52.9324392 140.981094 52.9324392 141.149899 53.1705125 141.217421 53.4085859 141.284943 53.5786382 141.217421 53.7146801 140.778528 53.850722 140.339635 53.7146801 140.238352 53.7146801 140.103309 53.8677273 140.035787 54.0377797 140.035787 54.1908268 140.103309M49 163.209849C46.2244898 162.262029 43.7312925 160.649073 41.755102 158.520635 40.2823129 156.864444 39.0680272 155.005387 38.1496599 153 37.622449 153.372477 37.0782313 153.715022 36.5170068 154.030962 37.3265306 155.727061 38.3197279 157.33004 39.4761905 158.819947 37.7755102 159.621436 35.8673469 159.900794 34 159.618111 35.4455782 161.969369 38 163.45595 40.8027211 163.575674 39.6156463 162.757556 38.5612245 161.773154 37.6734694 160.649073L38.2517007 160.649073C40.1904762 162.810767 42.9115646 164.706407 45.0544218 163.741958 43.0306122 162.92384 41.2346939 161.646778 39.8163265 160.017193L40.2585034 159.784395C42.3945578 162.295286 45.6802721 163.582326 49 163.209849"/>
    <path fill="#1C1C1C" d="M627.726354 239.924005L615.2934 232.381707C614.175451 231.658332 612.688239 231.994307 611.976816 233.125651 611.949715 233.163363 611.929388 233.201074 611.905674 233.238786L603.402482 247.637718C602.657182 248.793061 602.975629 250.346089 604.12068 251.100319 604.19521 251.151744 604.273128 251.196312 604.354433 251.237452 605.479158 251.950542 606.962982 251.60771 607.667629 250.469508 607.694731 250.428369 607.718445 250.387229 607.742159 250.346089L614.988505 238.106996 622.915784 242.940924 615.699927 255.145733C615.008831 256.314789 615.384869 257.830106 616.540083 258.529482 616.567185 258.546624 616.590899 258.560337 616.618001 258.574051 617.749501 259.345422 619.287529 259.040302 620.04638 257.891815 620.093808 257.823249 620.134461 257.754683 620.175113 257.682688L628.674918 243.318039C629.349075 242.135269 628.93916 240.62681 627.773783 239.948003 627.756844 239.941146 627.743293 239.930861 627.726354 239.924005M649.281136 253.036092C647.927733 252.266743 646.262005 252.266743 644.908602 253.036092L631.027542 259.054114 637.169911 248.796122C637.929899 247.729291 637.666159 246.258979 636.586907 245.510146 636.517502 245.462275 636.444626 245.417824 636.37175 245.376792 635.240444 244.665571 633.737819 244.990408 633.016004 246.105109 632.974361 246.166657 632.936188 246.231625 632.901486 246.300011L624.499974 259.977333C623.621997 261.21513 623.930851 262.921376 625.187087 263.786467 625.291195 263.858273 625.395303 263.919821 625.506351 263.977949L625.718037 263.977949C627.074911 264.781492 628.7684 264.781492 630.121803 263.977949L644.002863 257.959928 637.863964 268.217919C637.117857 269.315524 637.4163 270.802933 638.530255 271.538089 638.585779 271.572282 638.641304 271.606475 638.696828 271.637249 639.852426 272.341631 641.372402 271.98944 642.087277 270.847384 642.118509 270.806352 642.139331 270.758481 642.167093 270.71403L650.565134 257.036709C651.387587 255.761298 651.009328 254.072149 649.718389 253.258349 649.579579 253.172865 649.433828 253.09764 649.281136 253.036092M666.549167 283.142052L665.389669 282.456616 672.687688 270.218167C673.373156 268.936403 672.892305 267.339338 671.616857 266.650476 670.423256 266.002739 668.93296 266.376302 668.182696 267.510697L660.92219 279.749147 653.143321 275.053914 660.410647 262.853163C661.106346 261.684496 660.727804 260.166257 659.561485 259.467112 659.537613 259.453404 659.513741 259.439695 659.489869 259.425986 658.347422 258.654872 656.802561 258.95989 656.035246 260.104567 655.987502 260.173111 655.946579 260.245082 655.909066 260.317052L647.34924 274.676924C646.653541 275.845592 647.028673 277.360404 648.194992 278.062975 648.218864 278.073257 648.246146 278.086966 648.270018 278.104102L661.911174 286.223084 660.717573 288.210847C659.991182 289.321252 660.294697 290.80522 661.396221 291.535209 661.454196 291.572907 661.50876 291.610606 661.570145 291.638024 662.729644 292.350877 664.236991 291.977314 664.942921 290.812074 664.953152 290.791511 664.966793 290.770948 664.980434 290.750385L667.435843 286.637772C668.192927 285.602765 667.974668 284.142788 666.944761 283.378527 666.821991 283.285993 666.688989 283.207168 666.549167 283.142052M688.548974 296.167718L687.423545 295.484974 694.687678 283.267644C695.373167 281.984499 694.892302 280.378851 693.616816 279.689246 692.423179 279.047673 690.932838 279.421638 690.182552 280.557256L682.921828 292.774587 675.146136 288.105172 682.41027 275.894703C683.095758 274.608127 682.618304 273.00591 681.339407 272.316305 680.14577 271.667871 678.658839 272.045266 677.908553 273.184315L669.348471 287.556232C668.652751 288.72959 669.031305 290.242604 670.194248 290.945933 670.218121 290.959656 670.245404 290.973379 670.269277 290.987103L683.910842 299.118266 682.717205 301.077293C681.98056 302.295252 682.369345 303.887176 683.586855 304.628244 684.800954 305.365882 686.379965 304.971332 687.11661 303.749942L689.572091 299.636328C690.274632 298.514433 689.940414 297.028866 688.828626 296.322107 688.739956 296.263782 688.644465 296.21575 688.548974 296.167718M703.413895 300.761759C702.517616 300.208955 701.686583 299.54971 700.9414 298.80806L707.057391 294.547005 706.198886 301.96694C705.213322 301.640751 704.279268 301.190954 703.413895 300.624416L703.413895 300.761759zM710.044989 310.719099L711.930266 293.551271C712.235894 291.988998 711.518183 290.406125 710.144575 289.60267L709.907628 289.60267C708.558058 288.71681 706.786103 288.816384 705.542988 289.84302L691.360483 299.560011C690.141406 300.174619 689.650341 301.661353 690.265031 302.880269 690.87972 304.102618 692.363217 304.590184 693.585728 303.97901 693.747127 303.896604 693.898224 303.797031 694.042453 303.683723L697.198318 301.585814C698.286902 302.842499 699.57466 303.910338 701.013515 304.744695 702.363085 305.60652 703.867186 306.214261 705.443401 306.533583L705.031319 310.241833C704.897392 311.622127 705.913862 312.851343 707.294338 312.988686 708.678248 313.119162 709.911062 312.10626 710.044989 310.719099zM636.804881 224.573825L629.450893 220.164327C630.548812 219.428253 631.567322 218.577602 632.48916 217.629733 633.701014 216.279107 634.771313 214.813903 635.700056 213.254955L637.012035 211.102286 642.777838 214.574332 636.804881 224.573825zM642.501632 228.045872L641.362282 227.351463 648.647218 215.12986C649.351544 213.945892 648.968308 212.411247 647.790979 211.699478 647.766811 211.68559 647.739191 211.671701 647.715023 211.657813L637.357293 205.40813C636.304257 204.682472 634.864533 204.94982 634.142944 206.008794 634.046272 206.147676 633.966863 206.293502 633.904716 206.449744L632.143902 209.400983C631.111582 211.272416 629.882465 213.029272 628.484171 214.643773 627.486376 215.831213 626.233091 216.782554 624.82444 217.42141L624.306553 217.108926C623.236255 216.36938 621.775815 216.643672 621.043869 217.716534 620.971364 217.820695 620.909218 217.931801 620.853977 218.046378L618.368122 222.247554C617.632723 223.483603 618.033222 225.084216 619.265792 225.823762 620.494909 226.563308 622.086547 226.157079 622.821945 224.92103L623.995822 222.907243 637.806128 231.135993 636.597726 233.14978C635.889948 234.35458 636.293899 235.910057 637.491943 236.618354 637.491943 236.621826 637.491943 236.621826 637.495396 236.621826 638.641651 237.347484 640.157333 236.996807 640.875469 235.844088 640.903089 235.802423 640.923805 235.760759 640.947973 235.719094L643.468354 231.483198C644.183037 230.392975 643.882663 228.931244 642.798554 228.21253 642.705334 228.150033 642.605209 228.09448 642.501632 228.045872zM654.643678 236.174526C651.721731 234.538468 650.672827 230.835989 652.304078 227.905428 653.931922 224.971453 657.623519 223.919457 660.548872 225.555515 663.474224 227.191574 664.519723 230.894053 662.891878 233.828029 662.864634 233.869016 662.840795 233.913418 662.816957 233.954405 661.403661 236.768836 657.984506 237.89939 655.178347 236.481928 654.997854 236.389707 654.817361 236.28724 654.643678 236.174526M663.532119 221.521726C658.311437 218.44088 651.592321 220.186237 648.517125 225.418892 645.445335 230.651548 647.185562 237.393885 652.406244 240.478146 657.620114 243.558992 664.342635 241.813635 667.414426 236.584395 670.523677 231.481531 668.919671 224.817752 663.831805 221.699335 663.733045 221.641271 663.634284 221.57979 663.532119 221.521726M697.822174 261.156834C694.951745 259.458773 693.996064 255.746179 695.687144 252.863899 697.378224 249.981619 701.075554 249.021993 703.945984 250.720054 706.76558 252.387489 707.748372 256.004801 706.15896 258.876872 704.75594 261.742138 701.299224 262.926357 698.449128 261.514142 698.232236 261.408651 698.025511 261.289548 697.822174 261.156834M706.531743 246.558273C701.356836 243.447997 694.650129 245.139252 691.55264 250.335523 688.455152 255.531794 690.136065 262.266189 695.314361 265.376465 700.411323 268.534382 707.090918 266.945215 710.239241 261.827211 710.293464 261.742138 710.344298 261.653662 710.395132 261.565185 713.502787 256.535658 711.960821 249.927172 706.948583 246.806687 706.813025 246.718211 706.67069 246.63654 706.531743 246.558273M679.843345 250.544713L672.497987 246.111179C673.61186 245.397658 674.629175 244.549052 675.532689 243.58268 676.732775 242.238765 677.801818 240.790939 678.743266 239.253057L680.053705 237.070927 685.809293 240.534625 679.843345 250.544713zM685.533411 254.008412L684.395398 253.315672 691.637301 241.123454C692.351145 239.945796 691.978705 238.411378 690.806206 237.697856 690.785515 237.684002 690.761375 237.67361 690.740684 237.659756L680.395109 231.390462C679.315721 230.673476 677.860443 230.971354 677.146598 232.058955 677.067282 232.176721 677.00176 232.297951 676.946584 232.429571L675.187836 235.373715C674.156727 237.268358 672.918707 239.048699 671.497914 240.673173 670.511636 241.87854 669.26327 242.837985 667.845926 243.478769L667.325199 243.167036C666.290642 242.415413 664.84571 242.647481 664.100828 243.686591 664.014615 243.80782 663.942196 243.932513 663.876674 244.067597L661.362699 248.293309C660.648855 249.470967 661.021295 251.005385 662.193794 251.718907 662.214485 251.732762 662.238625 251.746617 662.255867 251.757008 663.400778 252.480921 664.91468 252.131087 665.631973 250.981139 665.659562 250.939575 665.683701 250.898011 665.704392 250.856446L666.911376 248.847501 680.705476 257.056466 679.498493 259.065411C678.767405 260.298488 679.167434 261.895253 680.395109 262.63302 681.626232 263.367324 683.216002 262.965535 683.94709 261.732459L686.464513 257.541384C687.230086 256.48842 686.995586 255.016348 685.950683 254.25087 685.819639 254.153887 685.678249 254.074222 685.533411 254.008412z"/>
    <path fill="#FF6900" d="M588.520472,168.066562 C606.200808,178.557301 612.485615,198.715977 601.680582,216.646228 C590.872095,234.576478 569.83871,238.861911 552.158374,228.336888 L532.33706,216.543377 C528.372797,214.472656 526.84994,209.600976 528.932214,205.661806 C529.056529,205.432107 529.18775,205.205836 529.332784,204.98985 L556.958309,159.392846 C559.168351,155.326827 564.279073,153.811498 568.374558,156.00564 C568.533404,156.091348 568.688798,156.180485 568.837285,156.273051 L588.520472,168.066562 Z"/>
    <path stroke="#1C1C1C" stroke-linecap="round" stroke-linejoin="round" stroke-width="2.813" d="M588.520472,168.066562 C606.200808,178.557301 612.485615,198.715977 601.680582,216.646228 C590.872095,234.576478 569.83871,238.861911 552.158374,228.336888 L532.33706,216.543377 C528.372797,214.472656 526.84994,209.600976 528.932214,205.661806 C529.056529,205.432107 529.18775,205.205836 529.332784,204.98985 L556.958309,159.392846 C559.168351,155.326827 564.279073,153.811498 568.374558,156.00564 C568.533404,156.091348 568.688798,156.180485 568.837285,156.273051 L588.520472,168.066562 Z"/>
    <path fill="#1C1C1C" d="M583.147413,194.057599 C584.473528,192.731835 586.060069,191.709892 587.807663,191.053914 C589.784843,190.677591 591.827129,191.192015 593.39311,192.469444 C596.819765,194.575476 597.710695,199.926869 594.763772,204.898486 C594.318307,205.623513 593.324577,204.898486 593.427377,204.173458 C593.427377,201.342399 592.060142,200.06497 589.62379,198.338714 C587.807663,197.09581 585.443272,195.887431 583.356439,194.886202 C582.701948,194.402851 582.907547,194.1957 583.044613,194.057599 L583.147413,194.057599 Z M560.120294,207.315244 C562.803365,210.091063 565.90106,212.418056 569.303728,214.220267 C573.782366,216.585238 578.781855,217.772902 583.832744,217.672779 C580.406089,220.434788 573.55278,219.468085 568.104399,216.982276 L567.521868,217.672779 C570.821736,219.512967 574.512243,220.517648 578.281564,220.607414 C575.231841,223.576574 569.649821,222.161044 565.229436,219.778811 L564.372772,220.331213 C566.493872,221.653525 568.803437,222.644395 571.226082,223.265847 C568.447065,224.957578 562.861618,224.232551 558.376127,221.505067 C555.744456,219.906554 553.520557,217.721114 551.862056,215.11792 C555.131085,213.170704 557.920382,210.501912 560.017494,207.315244 L560.120294,207.315244 Z M556.693639,192.469444 C560.120294,186.876375 561.25109,180.730905 563.752548,177.899845 L563.752548,177.623644 C560.325893,178.521297 559.46923,177.174818 559.743362,176.415265 C560.25736,174.861635 563.653175,174.619959 565.328809,174.861635 C565.404195,174.764965 565.496715,174.682104 565.602941,174.619959 C564.198013,174.067557 562.827351,172.997279 563.307083,172.065101 C563.790241,171.132922 566.733737,171.271023 569.303728,173.204429 L569.543594,173.204429 L569.098129,172.582977 C568.584131,171.754374 568.793157,171.029347 569.303728,170.718621 C570.026753,170.466588 570.821736,170.594331 571.428254,171.063872 C572.281491,171.599011 573.025075,172.289514 573.621313,173.100854 L573.861179,173.100854 C573.751526,172.800486 573.679566,172.486307 573.65558,172.168676 C573.617887,171.723302 573.936565,171.326263 574.375177,171.271023 C575.382614,171.302095 576.239277,172.034028 576.43117,173.031804 C576.43117,173.34253 576.43117,173.584206 576.602503,173.825881 L576.945168,173.825881 C576.910902,173.528965 576.910902,173.225144 576.945168,172.928228 C577.075381,172.576072 577.438606,172.372374 577.801832,172.444877 C578.312403,172.593335 578.668775,173.052519 578.692762,173.584206 C578.699615,174.122797 578.634509,174.654484 578.490589,175.172361 C574.238111,172.803938 568.889103,174.350663 566.528138,178.624873 C562.796511,184.908444 564.060947,194.610001 558.269901,204.346084 C555.874669,208.454573 552.108776,211.575643 547.647271,213.149988 C541.976158,215.124825 535.893846,215.563294 530,214.427418 C530.788131,215.611629 531.829834,216.6025 533.049723,217.327528 L535.208515,218.639482 C539.944152,219.015806 544.696922,218.256253 549.089893,216.429875 C551.265819,219.623448 554.079102,222.326764 557.344704,224.370651 C562.409299,227.68161 568.878823,227.878403 574.135311,224.888528 C577.459166,224.885075 580.604835,223.376328 582.701948,220.780039 C585.114313,219.878934 586.974986,217.904097 587.73913,215.428646 C587.73913,214.945295 587.533531,214.738144 586.783094,214.772669 C580.868688,214.945295 575.026242,213.477977 569.88626,210.52608 C566.96675,208.748036 564.324799,206.552239 562.039221,204.000833 C563.752548,200.548321 564.712011,197.475586 565.465875,195.68028 C566.425339,193.263522 567.864533,191.951567 570.263192,193.401622 C572.833183,195.024303 575.070788,197.13724 576.842369,199.616143 C578.727029,202.309102 578.864095,205.554463 579.929784,206.21044 C580.371823,206.452116 580.988621,206.452116 581.536885,205.554463 C582.760201,203.451883 583.466092,201.08346 583.592878,198.64944 C585.450125,199.59888 587.235412,200.682969 588.938459,201.894801 C590.192615,202.771739 590.768293,204.342631 590.377654,205.830664 C590.405068,206.818082 590.970466,207.70883 591.851116,208.143847 C593.499337,209.145075 595.037905,208.903399 596.888298,205.796139 C600.966017,198.891116 598.639319,193.056371 594.146974,190.363412 C590.480454,188.119279 588.561527,188.084754 585.069766,185.978722 C582.564882,184.459617 583.524345,178.141521 581.125687,175.621187 C581.622552,173.290742 580.145664,170.998274 577.832672,170.49766 C577.349513,170.394085 576.852649,170.376822 576.366064,170.44242 C575.368907,168.543539 572.593317,167.576835 571.462521,169.303091 C569.989059,167.645886 567.07983,167.197059 566.665204,170.200744 C562.176287,167.680411 559.023765,171.098397 561.765088,173.34253 C556.625106,173.34253 556.111108,178.072471 559.811895,179.2118 C558.441233,182.008334 556.967772,187.014476 555.185911,190.018161 C552.684454,194.1957 550.251529,194.023074 547.681538,192.469444 C545.389106,190.874384 543.29542,189.006575 541.445026,186.9109 L539.731699,189.81101 C541.794545,191.948115 544.09383,193.836639 546.585008,195.438604 C550.320062,198.062513 553.986582,197.026759 556.693639,192.469444 Z"/>
    <path fill="#1C1C1C" d="M534,198.113208 L538.97561,200 L540,198.90566 C539.012195,198.226415 536.967073,197.018868 535.207317,196 L534,198.113208 Z"/>
    <path fill="#FFF" d="M575.858753 192.198461C572.586198 189.80719 570.342858 186.290614 569.578797 182.352049L569.404354 182.352049C569.296199 182.509866 569.212466 182.681406 569.160133 182.86667L568.811247 182.86667C568.661226 181.909475 569.174089 180.972865 570.067238 180.56803 571.41394 180.26955 572.781574 180.941988 573.34677 182.180509L573.10255 182.180509C572.736219 181.80312 572.237312 181.580118 571.707004 181.562964 571.28834 181.562964 571.079009 181.80312 571.079009 182.249125 570.869677 186.194551 575.230757 189.625357 581.161826 192.541542 581.479313 192.819437 581.960776 192.819437 582.278263 192.541542 583.834296 190.911909 585.815971 189.72485 588 189.110736 586.883563 188.630423 585.906681 188.115803 585.034465 187.669798 582.034042 186.125935 580.568719 184.753613 580.324499 184.033144L580.568719 184.033144C580.81294 184.307608 581.126938 184.513457 581.231603 184.479148 581.336269 184.44484 581.231603 184.479148 581.231603 184.10176 580.987383 183.244058 580.04539 179.298632 580.04539 179.298632 581.05716 177.0343 577.952071 175.113049 575.440089 176.451063L575.091202 176.073675C575.429622 175.740886 575.816886 175.462991 576.242528 175.250281 573.44097 174.485212 570.451013 175.511022 568.74147 177.823385 561.763741 186.74348 577.882294 193.227703 579.76628 199.574694 579.76628 199.574694 579.76628 200.089314 580.115167 199.98639 580.464053 199.883466 580.115167 196.246812 575.92853 192.370002M577.533407 177.583229C578.440512 177.583229 579.103396 179.127092 578.963842 180.602338 578.824287 182.077585 578.021848 183.141134 577.114744 182.935286 576.207639 182.729438 575.579643 181.391423 575.684309 179.916177L575.684309 179.33294C575.740131 179.648574 575.991329 179.895592 576.312305 179.950485 576.69608 179.950485 576.9403 179.435864 576.9403 178.921243 577.010078 178.488962 576.835635 178.05668 576.486748 177.789077 576.741435 177.675861 577.0345 177.675861 577.289187 177.789077M583 216.513505C578.00651 216.597613 573.073958 215.392064 568.645833 213.009003 565.2875 211.179653 562.223698 208.814115 559.572917 206 558.966927 206.956729 558.3 207.871404 557.575521 208.733511 559.904688 211.071014 562.470833 213.13867 565.226562 214.901434 563.039583 217.354585 560.161979 219.022728 557 219.667556 561.91224 223.172058 567.664062 223.837913 570.541667 222.015572 568.151563 221.384762 565.866406 220.382474 563.770833 219.036746L564.617188 218.440981C568.984375 220.894132 574.502604 222.330977 577.515625 219.317106 573.791667 219.225989 570.145573 218.202674 566.885417 216.33828L567.427083 215.637379C572.914844 218.335846 579.479167 219.317106 583 216.513505"/>
    <path stroke="#1C1C1C" stroke-linecap="round" stroke-linejoin="round" stroke-width="2.813" d="M413.945135,87.4164847 C414.192455,85.6207796 413.594207,83.8145321 412.340894,82.5670266 C410.135063,80.7045536 405.656557,83.5861156 402.314388,88.9275477 C398.97222,94.2689798 397.969569,100.137527 400.1754,102"/>
    <path fill="#FFF" d="M472,66.2677846 C465.091126,65.1754766 445.504467,67.7355735 442.740917,68.3841314 C439.977367,69.0326893 414,79 414,79 L442.430018,78.4879806 L472,66.2677846 Z"/>
    <path stroke="#1C1C1C" stroke-linecap="round" stroke-linejoin="round" stroke-width="2.813" d="M472,66.0231952 C469.892793,65.7796627 445.504467,67.5191807 442.740917,68.1801976 C439.977367,68.8412145 414,79 414,79 L442.430018,78.4781446 L472,66.0231952 Z"/>
    <path fill="#1C1C1C" d="M414,79.4610353 C447.970595,80.0957765 457.994145,66.9666562 471.507121,67.0000636 C480.675418,67.0000636 444.618009,82 444.618009,82 C447.217974,77.2561449 414,79.4610353 414,79.4610353"/>
    <path stroke="#1C1C1C" stroke-linecap="round" stroke-linejoin="round" stroke-width="2.813" d="M414 79.2992877C447.970595 79.9744658 457.241523 65.0850124 471.507121 66.044476 480.675418 66.5419756 444.618009 82 444.618009 82 447.217974 76.9539323 414 79.2992877 414 79.2992877zM359 99C359.759322 107.513399 362.498305 115.732299 367 123M487.768074 444.196376C486.443025 444.307266 485.211388 444.913697 484.308417 445.890917 478.461597 452.443839 464.761357 467.344717 454.728352 479.365913 451.268696 483.631723 435.042906 482.072329 422 504.735524 422.992921 508.398368 424.508251 511.898342 426.497554 515.131486 428.780927 518.250274 435.285082 517.93493 446.355983 510.553798 457.426885 503.17613 460.471383 493.646499 461.993632 492.222252 466.387396 488.101986 475.832258 486.334673 483.858662 478.36097 499.634697 463.356133 500.81098 448.767133 497.489709 445.825076 494.514405 444.231029 491.099723 443.659251 487.768074 444.196376z"/>
    <path stroke="#1C1C1C" stroke-linecap="round" stroke-linejoin="round" stroke-width="2.813" d="M497 446C491.083333 446 484.716862 455.481444 476.032164 466.762287 470.689864 473.555015 464.762817 479.86675 458.316764 485.621364 455.168129 487.905216 427.418616 497.732698 426 515M430 475C430.300668 471.02338 444.465479 460.082397 445 467.542958M436 478C436 478 444.815303 467.689999 449 470.478469"/>
    <path fill="#FF6900" d="M81,285.023101 C79.4931268,282.008441 73.7738582,282.736117 71.958761,280.137272 C65.7600327,271.439805 59.3215747,261.252332 55.2461677,259 C55.2461677,259 44.3555844,260.143492 36.8212185,276.672146 C29.2868527,293.197335 18.4647636,291.57219 11.7180815,300.928032 C-0.919104877,318.253665 0.245297115,333.015104 2.23162993,335.024878 C3.46452615,336.216881 5.0809901,336.920302 6.78649654,337 C6.78649654,337 21.512757,332.63394 29.3553469,322.585073 C37.1979368,312.532741 42.50624,304.874811 50.4515713,303.492226 C50.4515713,303.492226 65.6915385,301.517104 69.9381811,298.779653 C80.1095749,292.192448 81,285.023101 81,285.023101"/>
    <path stroke="#1C1C1C" stroke-linecap="round" stroke-linejoin="round" stroke-width="2.813" d="M81,285.023101 C79.4931268,282.008441 73.7738582,282.736117 71.958761,280.137272 C65.7600327,271.439805 59.3215747,261.252332 55.2461677,259 C55.2461677,259 44.3555844,260.143492 36.8212185,276.672146 C29.2868527,293.197335 18.4647636,291.57219 11.7180815,300.928032 C-0.919104877,318.253665 0.245297115,333.015104 2.23162993,335.024878 C3.46452615,336.216881 5.0809901,336.920302 6.78649654,337 C6.78649654,337 21.512757,332.63394 29.3553469,322.585073 C37.1979368,312.532741 42.50624,304.874811 50.4515713,303.492226 C50.4515713,303.492226 65.6915385,301.517104 69.9381811,298.779653 C80.1095749,292.192448 81,285.023101 81,285.023101 Z"/>
    <path fill="#FFF" d="M36.7536168,289.595709 C43.9042399,281.837635 47.3241032,271.6818 59,262.918884 C57.3764286,261.668029 55.8910334,259.658345 54.7165349,259 C54.7165349,259 43.7315196,260.143441 36.1318234,276.674826 C28.5321273,293.19928 17.6162001,291.570743 10.8110177,300.929634 C-1.93574539,318.254498 -0.761246896,333.011816 1.24230936,335.021501 C2.485896,336.216916 4.11637626,336.916841 5.83667111,337 C10.8455618,302.662121 28.0139662,299.089734 36.7536168,289.595709"/>
    <path stroke="#1C1C1C" stroke-linecap="round" stroke-linejoin="round" stroke-width="2.813" d="M36.7536168 289.595709C43.9042399 281.837635 47.3241032 271.6818 59 262.918884 57.3764286 261.668029 55.8910334 259.658345 54.7165349 259 54.7165349 259 43.7315196 260.143441 36.1318234 276.674826 28.5321273 293.19928 17.6162001 291.570743 10.8110177 300.929634-1.93574539 318.254498-.761246896 333.011816 1.24230936 335.021501 2.485896 336.216916 4.11637626 336.916841 5.83667111 337 10.8455618 302.662121 28.0139662 299.089734 36.7536168 289.595709zM52 304C58.3793103 305.919939 50.8275862 314.966258 60 315M44 303C44.3969072 304.758075 44.5412371 318.319883 51 315.654088M36 307C36 309.552254 38.8037383 321.201952 40 313.279889"/>
  </g>
</svg>
