<?xml version="1.0" encoding="utf-8"?>
<!-- Generator: Adobe Illustrator 22.0.1, SVG Export Plug-In . SVG Version: 6.00 Build 0)  -->
<svg version="1.1" id="Layer_1" xmlns="http://www.w3.org/2000/svg" xmlns:xlink="http://www.w3.org/1999/xlink" x="0px" y="0px"
	 viewBox="0 0 593.2 200" style="enable-background:new 0 0 593.2 200;" xml:space="preserve">
<style type="text/css">
	.st0{fill:#FFFFFF;}
	.st1{fill:#FF6900;}
</style>
<g id="RU_Dodo_Pizza_Logotype_RGB_1_">
	<g>
		<g>
			<g>
				<path class="st0" d="M288.6,118.6h-41.7c-4.8,0-7.4,3.3-7.4,7.3v47.7c0,4.7,3.4,7.4,7.6,7.4c4.1,0,7.4-2.7,7.4-7.4v-40.5h26.7
					v40.5c0,4.7,3.3,7.4,7.5,7.4c4.1,0,7.5-2.8,7.5-7.5v-47.6C296.1,121.9,293.4,118.6,288.6,118.6z"/>
				<path class="st0" d="M361.2,118.6h-0.6c-4.4,0-7.3,2.2-10.4,6.6l-24.4,34.5V126c0-4.7-3-7.4-7.1-7.4c-4.2,0-7.3,2.7-7.3,7.4v46
					c0,5,3.2,8.4,8.3,8.4h0.7c4.7,0,7.7-2.4,10.6-6.6l24.4-34.5V173c0,4.7,3,7.4,7.2,7.4c4.1,0,7.2-2.7,7.2-7.4v-46
					C369.8,121.8,366.7,118.6,361.2,118.6z"/>
				<path class="st0" d="M444.5,165.9h-3.8v-40.5c0-4.7-3.4-7.4-7.6-7.4c-4.1,0-7.4,2.7-7.4,7.4v40.5h-25.9v-40.5
					c0-4.7-3.2-7.4-7.5-7.4c-4.2,0-7.5,2.7-7.5,7.4v47.7c0,4,2.7,7.3,7.4,7.3h44.9v6.6c0,4.7,3.2,7.4,7.3,7.4c4.2,0,7.4-2.7,7.4-7.4
					v-13.7C451.8,168.4,448.9,165.9,444.5,165.9z"/>
				<path class="st0" d="M519.4,165.9h-3.8v-40.5c0-4.7-3.4-7.4-7.6-7.4c-4.1,0-7.4,2.7-7.4,7.4v40.5h-26v-40.5
					c0-4.7-3.2-7.4-7.5-7.4c-4.2,0-7.5,2.7-7.5,7.4v47.7c0,4,2.7,7.3,7.4,7.3h44.9v6.6c0,4.7,3.2,7.4,7.3,7.4c4.2,0,7.4-2.7,7.4-7.4
					v-13.7C526.7,168.4,523.8,165.9,519.4,165.9z"/>
				<path class="st0" d="M592.4,169.9L572,125.6c-2.3-4.9-5.5-7-10.1-7h-0.8c-4.8,0-8,2.1-10.3,7l-20.4,44.3c-2,4.4-0.6,8.3,3.4,9.8
					c3.6,1.4,7.2,0.6,9.2-3.6l4.6-9.7c4.1,1.4,9.2,2.1,14,2.1c5.1,0,9.6-0.7,13.4-2.1l4.4,9.6c1.9,4.2,5.8,5,9.3,3.7
					C592.7,178.2,594.3,174.1,592.4,169.9z M561.7,155.2c-3.1,0-6.4-0.4-8.9-1.1l8.7-19.4l8.7,19.4
					C567.8,154.8,564.8,155.2,561.7,155.2z"/>
			</g>
			<g>
				<path class="st0" d="M306.5,66.9h-3.8v-40c0-4-2.7-7.3-7.4-7.3h-34.2c-4,0-6.7,2.7-6.7,7.4v9.7c0,7-0.1,12.4-1.3,18.2
					c-1.2,5.7-2.7,9.2-4.9,12.1h-1.7c-4.8,0-7.1,3-7.1,7.3V88c0,4.7,3.2,7.4,7.3,7.4c4.2,0,7.4-2.7,7.4-7.4v-6.6h45V88
					c0,4.7,3.2,7.4,7.3,7.4c4.2,0,7.4-2.7,7.4-7.4V74.2C313.8,69.9,311.5,66.9,306.5,66.9z M287.8,66.9h-24.3
					c1.5-3.2,2.7-6.1,3.7-10.5c1-4.6,1.4-9.2,1.5-15.2l0.1-7.2h19L287.8,66.9L287.8,66.9z"/>
				<path class="st0" d="M349,19.1c-17.9,0-31.6,13.5-31.6,31.4c0,18.2,13.8,31.4,31.6,31.4c17.9,0,31.6-13.8,31.6-31.6
					C380.6,32.4,366.8,19.1,349,19.1z M349,67.9c-9.8,0-16.9-7.4-16.9-17.5c0-9.9,7.1-17.3,16.9-17.3c9.9,0,16.9,7.4,16.9,17.3
					C365.8,60.5,359.1,67.9,349,67.9z"/>
				<path class="st0" d="M449.3,66.9h-3.8v-40c0-4-2.7-7.3-7.4-7.3h-34.2c-4,0-6.7,2.7-6.7,7.4v9.7c0,7-0.1,12.4-1.3,18.2
					c-1.2,5.7-2.7,9.2-4.9,12.1h-1.7c-4.8,0-7.1,3-7.1,7.3V88c0,4.7,3.2,7.4,7.3,7.4c4.2,0,7.4-2.7,7.4-7.4v-6.6h45V88
					c0,4.7,3.2,7.4,7.3,7.4c4.2,0,7.4-2.7,7.4-7.4V74.2C456.6,69.9,454.3,66.9,449.3,66.9z M430.5,66.9h-24.3
					c1.5-3.2,2.7-6.1,3.7-10.5c1-4.6,1.4-9.2,1.5-15.2l0.1-7.2h19L430.5,66.9L430.5,66.9z"/>
				<path class="st0" d="M491.2,19.1c-17.9,0-31.6,13.5-31.6,31.4c0,18.2,13.8,31.4,31.6,31.4c17.9,0,31.6-13.8,31.6-31.6
					C522.8,32.4,509.1,19.1,491.2,19.1z M491.2,67.9c-9.8,0-16.9-7.4-16.9-17.5c0-9.9,7.1-17.3,16.9-17.3c9.9,0,16.9,7.4,16.9,17.3
					C508.1,60.5,501.4,67.9,491.2,67.9z"/>
			</g>
		</g>
		<g>
			<path class="st1" d="M89.5,0c58.2,0,103,40.1,103,99.5c0,59.8-44.7,100.5-103,100.5H24.1C10.9,200,0,191.3,0,176.1V24.9
				C0,9.7,10.9,0,24.1,0H89.5z"/>
			<path d="M45.4,104.8c0-18.4-5.9-35.2-4-45.7L41,58.5c-6.7,7-11.1,5.1-11.5,2.9c-1-4.5,6.9-10,11.4-12c0.1-0.3,0.2-0.6,0.3-0.9
				c-4.2,0.6-9.1,0.1-9.3-2.9c-0.2-3.6,6.9-6.7,16.3-6c0.2-0.1,0.4-0.3,0.5-0.4c-0.6-0.2-1.2-0.5-2-0.9c-2.4-1.2-3-3.3-2.2-4.8
				c0.9-1.6,3.5-2.3,5.7-2.2c3.4,0.1,6.2,0.9,8.3,1.7c0.2-0.1,0.5-0.2,0.7-0.3c-0.8-0.6-1.5-1.3-1.8-1.9c-0.6-1-0.7-2.4,0.4-3.2
				c1.3-1,4.6-1.4,7.6,1.3c0.6,0.6,1.1,1.1,1.6,1.6c0.3-0.1,0.7-0.1,1-0.2c-0.5-0.8-0.9-1.6-1-2.3c-0.2-1,0.2-2.1,1.3-2.5
				c1.3-0.4,2.9,0.2,3.8,1.5c0.9,1.4,1.5,3,1.8,4.2c-6.6,0.8-24.1,4.8-24.1,26c0,20.7,17.2,42.4,17.2,74.4
				c0,11.6-2.6,23.3-13.1,36.9c-8.1,10.5-21.1,20.6-41.3,28.9c3.5,1.7,7.4,2.6,11.6,2.6h7.3c16.7-9.2,25-17.7,30.7-25.7
				c11.2,5,22,7.1,31.7,7.1c18.2,0,33.7-8.4,41.8-23.3c8.3-5,13.8-15.3,14.2-22.6c5.2-6.5,6.1-14.7,4.5-20.3
				c-0.4-1.3-1.5-1.4-3.3-0.2c-16.4,9.8-32.3,14.5-47.4,14.5c-9.2,0-18.6-1.5-28.6-4.4c-0.7-10.7-2.9-19.8-3.7-25.2
				c-1.2-7.2,0.5-12.5,8.4-12.5c5.8,0,16.5,1.5,25.1,5.4c8.5,3.9,13.6,11.5,17.1,11.5c1.4,0,2.9-0.9,2.9-3.9
				c0-6.2-2.2-16.1-4.9-19.6c8-0.5,14.3-0.4,17.8,0c7.4,1.3,7.8,5,9.2,7.4c1.5,2.4,3.9,3.5,6.9,3.5c5.5,0,8.9-2.8,8.9-13.1
				c0-22.5-14.2-33.4-29.1-33.4c-12.2,0-17,2.7-28.6,2.7c-8.2,0-15.1-16.8-24.5-19c-4.1-9.2-13.4-10.2-19.1-5.6
				c-5.2-3.2-13.3-1.5-13.6,4.4c-6-1.8-13.7,1.4-10.4,9.2C22.8,37.2,20,50.1,29.9,51.6c-12.8,7.2-6.9,19.7,3.8,17
				c0.8,8.9,4.3,23.2,4.3,33c0,13.7-6.2,16.9-14.7,16.9c-6.7,0-16.6-2.4-23.3-4.4v9.6c6.8,1.7,16.9,3.8,24.6,3.8
				C38,127.7,45.4,119.8,45.4,104.8z M75,135.9c9.2,2.6,21.9,3.9,32.4,3.2c18.5-1.3,32.4-8.2,40.3-13.2
				c-4.7,11.9-22.4,19.3-39.5,21.4c-0.1,0.9-0.2,1.7-0.4,2.5c12.8-0.7,25-4.9,30.5-8.7c-3.2,11.7-18.9,16.4-33.1,17.1
				c-0.4,0.9-0.8,1.8-1.3,2.6c8.3,0.1,16.2-1.4,21-2.9c-4.3,8.1-19,14.6-33.9,14.6c-7.4,0-16.5-1.4-24.5-5.2
				C72.4,156.7,74.6,145.9,75,135.9z M112.1,70c2-6,3.8-10.6,7-14c3.5-3.6,7.3-4.8,15.7-4.8c11.6,0,21.3,11.7,21.3,28.2
				c0,2.4-3.3,2.4-4.3,0.2c-4-7-9.3-8-17.7-8.6c-6.2-0.4-13.7,0.2-20.6,0.5C112.3,71.5,111.9,70.6,112.1,70z"/>
			<path d="M0,153c7-1.4,13.9-2.7,13.9-2.7l0.9-3.8c-3.2-0.2-9.5-0.1-14.8,0.1C0,146.6,0,153,0,153z"/>
			<path class="st0" d="M75.7,40c2.5-0.8,6,1.6,7.9,5.4c1.9,3.8,1.4,7.6-1,8.4c-2.4,0.9-5.9-1.6-7.8-5.4c-0.3-0.5-0.5-1-0.6-1.5
				l0.4-0.1c0.8,0.7,1.7,1,2.4,0.5c0.9-0.6,0.8-2.1,0-3.4c-0.5-1.1-1.7-2.2-2.7-2.1L74,41.6C74.4,40.8,74.9,40.2,75.7,40 M92.9,78.1
				c-11-2.4-23-5.6-29.4-15c-0.1-0.2-0.3-0.3-0.5-0.2s-0.3,0.2-0.4,0.5c0,0.5,0,1.1,0.2,1.6l-0.9,0.3c-1.7-2.4-2-5.3-0.4-7.4
				c2.4-3,7.3-2.7,10.2-0.8L71.4,58c-1.6-0.3-3.1-0.3-4.2,0.4c-1,0.6-1.1,1.5-0.5,2.6c5.3,9.9,20.8,12,39.2,10.6
				c1.9-0.1,2.3-1,2.6-1.9c1.6-6.4,4.5-12.1,8.8-16.4c-3.4,0.5-6.5,0.6-9.2,0.7c-9.5,0.6-14.9-0.6-16.6-2l0.3-0.8
				c1,0.3,2.1,0.4,2.3,0.1c0.3-0.4,0.1-0.7-0.4-1.1c-1.8-1.7-9.9-10-9.9-10c-0.9-7-11.1-7.3-15.2-0.4l-1.4-0.4
				c0.4-1.5,1-2.8,1.6-3.7c-8.5,1.9-13.4,9.6-14.3,17C50.7,84.5,99,77.2,112.8,89.9c0.3,0.2,0.9,1.1,1.4,0.5
				C114.6,89,108.5,81.6,92.9,78.1"/>
			<path class="st0" d="M147.8,125.8c-7.8,5-21.8,11.9-40.3,13.2c-10.5,0.7-23.3-0.6-32.5-3.2c-0.1,3.1-0.5,6.2-1,9.4
				c5.2,1.3,14.4,3.1,27.7,3.5c-0.6,3.6-4.2,15.7-13.5,23.6c16.9,0.7,32.3-5.9,36.8-14.5c-4.7,1.5-12.7,3-21,2.9
				c0.4-0.8,0.9-1.7,1.3-2.6c14.2-0.7,30-5.4,33.1-17.1c-5.5,3.8-17.7,8-30.5,8.7c0.2-0.8,0.3-1.7,0.4-2.5
				C125.4,145.1,143.1,137.7,147.8,125.8z"/>
		</g>
	</g>
</g>
</svg>
