<?xml version="1.0" encoding="utf-8"?>
<!-- Generator: Adobe Illustrator 24.3.0, SVG Export Plug-In . SVG Version: 6.00 Build 0)  -->
<svg version="1.1" id="Слой_1" xmlns="http://www.w3.org/2000/svg" xmlns:xlink="http://www.w3.org/1999/xlink" x="0px" y="0px"
	 viewBox="0 0 449 466.7" style="enable-background:new 0 0 449 466.7;" xml:space="preserve">
<style type="text/css">
	.st0{fill:#FF6900;}
	.st1{fill:#231F20;}
	.st2{fill:#FFFFFF;}
</style>
<g>
	<path class="st0" d="M208.7,0C344.6,0,449,93.5,449,232.2c0,139.5-104.4,234.5-240.3,234.5H56.3C25.5,466.7,0,446.3,0,410.9V58
		C0,22.6,25.5,0,56.3,0H208.7z"/>
	<path d="M73.2,466.7c39-21.6,58.3-41.4,71.7-59.9c26.1,11.6,51.2,16.6,73.9,16.6c42.4,0,78.6-19.5,97.5-54.4
		c19.4-11.7,32.3-35.6,33.1-52.7c12.1-15.2,14.3-34.4,10.6-47.4c-0.9-3.1-3.4-3.2-7.7-0.5c-38.2,22.9-75.3,33.9-110.6,33.9
		c-21.4,0-43.4-3.4-66.8-10.2c-1.7-25.1-6.8-46.1-8.7-58.8c-2.7-16.8,1.2-29.3,19.6-29.3c13.5,0,38.6,3.4,58.6,12.5
		c19.8,9,31.6,26.8,39.9,26.8c3.3,0,6.9-2.1,6.9-9.2c0-14.4-5.1-37.5-11.5-45.7c18.6-1.1,33.3-0.9,41.6,0.1
		c17.3,3,18.1,11.7,21.5,17.3c3.4,5.7,9.2,8.1,16.1,8.1c12.9,0,20.9-6.6,20.9-30.6c0-52.6-33.2-78-68-78c-28.6,0-39.6,6.3-66.7,6.3
		c-19.2,0-35.2-39.2-57.1-44.3c-9.7-21.5-31.3-23.9-44.7-13.1c-12.1-7.4-31.1-3.4-31.8,10.2c-13.9-4.3-31.9,3.2-24.2,21.5
		c-34.1,1-40.4,31.1-17.3,34.5c-29.8,16.9-16.2,46,8.8,39.8c1.8,20.7,10.1,54,10.1,77.1c0,32.1-14.5,39.5-34.4,39.5
		c-15.7,0-38.8-5.7-54.4-10.2v22.3c15.8,3.9,39.5,9,57.3,9c31.3,0,48.7-18.4,48.7-53.4c0-43-13.8-82.1-9.2-106.5l-1.1-1.4
		c-15.7,16.3-25.8,12-26.9,6.8c-2.2-10.5,16.1-23.4,26.6-27.9c0.2-0.7,0.5-1.4,0.8-2.1c-9.8,1.5-21.3,0.3-21.7-6.7
		c-0.5-8.3,16.2-15.7,38-13.9c0.4-0.3,0.8-0.7,1.3-1c-1.4-0.5-2.8-1.2-4.7-2.2c-5.6-2.9-7-7.7-5.2-11.2c2-3.8,8.2-5.4,13.2-5.2
		c7.8,0.2,14.5,2.1,19.4,4c0.6-0.2,1.1-0.5,1.6-0.7c-1.8-1.4-3.4-3-4.3-4.5c-1.3-2.3-1.7-5.5,0.9-7.6c3-2.4,10.8-3.3,17.8,3.1
		c1.4,1.3,2.7,2.6,3.8,3.8c0.8-0.1,1.6-0.3,2.4-0.4c-1.2-1.8-2.1-3.6-2.4-5.4c-0.4-2.4,0.4-4.9,3.1-5.8c3-1,6.9,0.6,8.8,3.5
		c2.1,3.2,3.4,7,4.3,9.8c-15.4,1.8-56.3,11.1-56.3,60.6c0,48.2,40,98.8,40,173.6c-0.1,27.1-6.1,54.4-30.7,86.1
		c-19,24.5-49.2,48.1-96.3,67.5c8.1,4,17.3,6,27.1,6L73.2,466.7L73.2,466.7z M261.6,163.4c4.7-14,8.8-24.6,16.4-32.7
		c8.1-8.5,17-11.2,36.6-11.2c27.1,0,49.8,27.4,49.8,65.7c0,5.7-7.6,5.7-10.1,0.4c-9.2-16.3-21.7-18.6-41.4-20.1
		c-14.5-0.9-32,0.4-48,1.1C262,166.8,261.1,164.7,261.6,163.4z M175.1,317.1c21.5,6,51.1,9.1,75.7,7.4c43.2-3,75.7-19.1,94-30.9
		c-11,27.7-52.2,45-92.1,49.8c-0.3,2-0.6,4-0.9,5.9c29.9-1.6,58.4-11.3,71.3-20.2c-7.4,27.3-44,38.2-77.3,39.8
		c-0.9,2.1-1.9,4.2-3,6.1c19.4,0.3,37.9-3.2,49-6.7c-9.9,19-44.3,34-79.2,34c-17.2,0-38.6-3.3-57.2-12.2
		C168.8,365.5,174,340.3,175.1,317.1z"/>
	<path class="st1" d="M0,357.1c16.4-3.3,32.5-6.3,32.5-6.3l2.1-8.8c-7.4-0.4-22.1-0.2-34.6,0.1C0,342.1,0,357.1,0,357.1z"/>
	<path class="st2" d="M176.6,93.3c5.7-1.9,14,3.7,18.4,12.6s3.3,17.6-2.4,19.5c-5.7,2-13.9-3.6-18.3-12.5c-0.6-1.2-1.1-2.4-1.5-3.6
		l1-0.3c1.8,1.7,4,2.2,5.5,1.3c2-1.3,1.8-4.8,0.1-7.9c-1.2-2.5-4-5.1-6.3-4.9l-0.4-0.5C173.5,95.2,174.8,93.9,176.6,93.3
		 M216.7,182.3c-25.6-5.6-53.7-13.1-68.7-35.1c-0.3-0.4-0.8-0.6-1.3-0.5c-0.5,0.1-0.8,0.6-0.8,1.1c-0.1,1.2,0.1,2.5,0.4,3.8l-2,0.8
		c-3.9-5.6-4.7-12.3-0.8-17.2c5.6-7,17.1-6.3,23.9-2l-0.9,1.9c-3.7-0.6-7.1-0.6-9.9,1c-2.3,1.4-2.6,3.5-1.2,6.1
		c12.4,23.1,48.6,28.1,91.5,24.8c4.4-0.3,5.5-2.3,6-4.5c3.7-14.9,10.5-28.1,20.6-38.2c-7.8,1.1-15.1,1.3-21.5,1.7
		c-22.2,1.4-34.9-1.5-38.8-4.7l0.7-1.9c2.4,0.8,4.8,1,5.3,0.3c0.7-0.9,0.2-1.5-0.9-2.5c-4.2-3.9-23.1-23.3-23.1-23.2
		c-2-16.4-25.9-17-35.4-0.9l-3.2-0.9c0.9-3.5,2.4-6.4,3.7-8.5c-19.9,4.5-31.3,22.4-33.3,39.7c-8.8,74.3,103.8,57.1,136,86.9
		c0.6,0.5,2.1,2.7,3.2,1.3C267.5,207.7,253.3,190.4,216.7,182.3"/>
	<path class="st2" d="M344.8,293.6c-18.3,11.7-50.8,27.8-94,30.9c-24.6,1.7-54.3-1.5-75.7-7.4c-0.3,7.1-1.1,14.5-2.3,22
		c12.1,3.1,33.6,7.2,64.6,8.1c-1.4,8.3-9.9,36.7-31.5,55c39.5,1.7,75.4-13.7,85.9-33.8c-11,3.5-29.6,7.1-49,6.7c1-1.9,2-3.9,3-6.1
		c33.2-1.6,69.9-12.6,77.3-39.8c-12.9,8.9-41.4,18.6-71.3,20.2c0.4-1.9,0.7-3.9,0.9-5.9C292.6,338.6,333.8,321.3,344.8,293.6z"/>
</g>
</svg>
