<?xml version="1.0" encoding="utf-8"?>
<!-- Generator: Adobe Illustrator 24.3.0, SVG Export Plug-In . SVG Version: 6.00 Build 0)  -->
<svg version="1.1" id="Layer_1" xmlns="http://www.w3.org/2000/svg" xmlns:xlink="http://www.w3.org/1999/xlink" x="0px" y="0px"
	 viewBox="0 0 2847.6 427.1" style="enable-background:new 0 0 2847.6 427.1;" xml:space="preserve">
<style type="text/css">
	.st0{fill:#FF6900;}
	.st1{fill:#FFFFFF;}
</style>
<g>
	<g>
		<path class="st0" d="M191.1,0.2c124.2,0,219.7,85.5,219.7,212.3c0,127.5-95.4,214.4-219.7,214.4H51.7c-28.1,0-51.5-18.6-51.5-51
			V53.3c0-32.4,23.3-53.1,51.5-53.1H191.1z"/>
		<path d="M67.1,426.9c35.6-19.7,53.3-37.8,65.6-54.8c23.9,10.6,46.8,15.2,67.5,15.2c38.8,0,71.9-17.9,89.1-49.8
			c17.7-10.7,29.5-32.6,30.3-48.2c11.1-13.9,13.1-31.5,9.7-43.3c-0.8-2.8-3.1-2.9-7.1-0.5c-35,21-68.8,31-101.1,31
			c-19.6,0-39.7-3.1-61.1-9.3c-1.5-22.9-6.2-42.1-8-53.8c-2.5-15.4,1.1-26.8,17.9-26.8c12.4,0,35.3,3.1,53.6,11.5
			c18.1,8.2,28.9,24.5,36.5,24.5c3.1,0,6.3-1.9,6.3-8.4c0-13.1-4.7-34.3-10.5-41.8c17-1,30.5-0.8,38,0.1
			c15.8,2.7,16.5,10.7,19.7,15.8c3.1,5.2,8.4,7.4,14.7,7.4c11.8,0,19.1-6.1,19.1-27.9c0-48.1-30.3-71.3-62.2-71.3
			c-26.1,0-36.2,5.7-61,5.7c-17.6,0-32.2-35.8-52.2-40.5c-8.8-19.6-28.6-21.9-40.8-12c-11.1-6.7-28.4-3.1-29.1,9.3
			C89.3,55.1,72.8,62,79.9,78.8c-31.2,0.9-37,28.4-15.8,31.5c-27.2,15.4-14.8,42,8.1,36.4c1.6,18.9,9.3,49.4,9.3,70.5
			c0,29.3-13.3,36.1-31.5,36.1c-14.4,0-35.4-5.2-49.7-9.3v20.4c14.5,3.6,36.1,8.2,52.4,8.2c28.6,0,44.5-16.8,44.5-48.8
			c0-39.3-12.6-75-8.4-97.4l-1-1.3c-14.3,14.9-23.6,11-24.6,6.2c-2-9.6,14.7-21.4,24.3-25.5c0.2-0.6,0.4-1.3,0.7-2
			c-9,1.4-19.5,0.2-19.8-6.2C67.8,90,83,83.2,103,84.9c0.4-0.3,0.8-0.6,1.2-1c-1.3-0.5-2.6-1.1-4.3-2c-5.2-2.7-6.4-7.1-4.7-10.3
			c1.8-3.5,7.5-4.9,12.1-4.8c7.2,0.2,13.3,1.9,17.7,3.7c0.5-0.2,1-0.4,1.5-0.6c-1.7-1.3-3.1-2.7-3.9-4.1c-1.2-2.1-1.5-5,0.9-6.9
			c2.8-2.2,9.9-3,16.3,2.8c1.3,1.2,2.4,2.4,3.5,3.5c0.7-0.1,1.4-0.3,2.2-0.4c-1.1-1.6-1.9-3.3-2.2-4.9c-0.4-2.2,0.3-4.5,2.9-5.3
			c2.8-0.9,6.3,0.5,8.1,3.2c2,2.9,3.1,6.4,3.9,9c-14.1,1.6-51.5,10.2-51.5,55.4c0,44.1,36.6,90.4,36.6,158.7
			c-0.1,24.8-5.5,49.7-28,78.7c-17.4,22.4-45,44-88,61.8c7.4,3.6,15.9,5.5,24.8,5.5L67.1,426.9L67.1,426.9z M239.4,149.6
			c4.3-12.8,8.1-22.5,15-29.9c7.4-7.8,15.5-10.2,33.5-10.2c24.8,0,45.5,25.1,45.5,60.1c0,5.2-7,5.2-9.2,0.4
			c-8.4-14.9-19.9-17-37.8-18.4c-13.3-0.8-29.3,0.3-43.9,1C239.7,152.7,239,150.8,239.4,149.6z M160.3,290.1
			c19.6,5.4,46.7,8.4,69.2,6.8c39.5-2.8,69.2-17.5,85.9-28.2c-10,25.3-47.7,41.1-84.2,45.6c-0.2,1.8-0.5,3.6-0.8,5.4
			c27.4-1.5,53.4-10.4,65.2-18.5c-6.7,24.9-40.2,35-70.6,36.4c-0.9,2-1.8,3.8-2.7,5.6c17.7,0.3,34.7-3,44.8-6.1
			c-9.1,17.4-40.5,31.1-72.4,31.1c-15.7,0-35.3-3.1-52.3-11.2C154.6,334.4,159.3,311.4,160.3,290.1z"/>
		<path d="M0.2,326.7c15-3,29.7-5.7,29.7-5.7l1.9-8.1c-6.8-0.3-20.2-0.2-31.6,0.1C0.2,313,0.2,326.7,0.2,326.7z"/>
		<path class="st1" d="M161.7,85.5c5.2-1.8,12.8,3.4,16.8,11.5c4,8.1,3,16.1-2.2,17.8c-5.2,1.8-12.7-3.3-16.7-11.5
			c-0.5-1.1-1-2.2-1.3-3.3l0.9-0.3c1.7,1.6,3.7,2,5,1.2c1.8-1.2,1.6-4.4,0.1-7.2c-1.1-2.3-3.7-4.7-5.8-4.5l-0.4-0.5
			C158.9,87.3,160.1,86.1,161.7,85.5 M198.4,166.9c-23.4-5.2-49.1-12-62.8-32.1c-0.3-0.4-0.7-0.5-1.2-0.4c-0.4,0.1-0.7,0.5-0.8,1
			c0,1.1,0.1,2.3,0.3,3.5l-1.9,0.7c-3.6-5.1-4.3-11.3-0.8-15.7c5.2-6.4,15.6-5.7,21.8-1.8l-0.8,1.7c-3.3-0.6-6.5-0.6-9,1
			c-2.1,1.3-2.4,3.2-1.1,5.6c11.4,21.1,44.4,25.7,83.6,22.6c4.1-0.3,5-2.1,5.5-4.1c3.4-13.6,9.6-25.7,18.8-35
			c-7.2,1-13.8,1.2-19.6,1.5c-20.3,1.3-31.9-1.4-35.5-4.3l0.7-1.8c2.2,0.7,4.4,0.9,4.9,0.3c0.6-0.9,0.1-1.4-0.8-2.3
			c-3.8-3.6-21.1-21.3-21.1-21.2c-1.9-15-23.7-15.5-32.4-0.8l-3-0.8c0.9-3.2,2.2-5.9,3.4-7.8c-18.2,4.1-28.6,20.5-30.5,36.3
			c-8.1,67.9,94.9,52.2,124.4,79.4c0.6,0.4,2,2.4,3,1.2C244.8,190.1,231.8,174.3,198.4,166.9"/>
		<path class="st1" d="M315.4,268.7c-16.7,10.7-46.4,25.5-85.9,28.2c-22.5,1.6-49.6-1.3-69.2-6.8c-0.3,6.5-1,13.3-2.1,20.1
			c11,2.8,30.7,6.6,59.1,7.4c-1.3,7.6-9,33.5-28.8,50.3c36.1,1.5,68.9-12.5,78.5-30.9c-10.1,3.2-27.1,6.5-44.8,6.1
			c0.9-1.7,1.8-3.6,2.7-5.6c30.4-1.4,63.9-11.5,70.6-36.4c-11.8,8.1-37.8,17-65.2,18.5c0.3-1.7,0.6-3.5,0.8-5.4
			C267.7,309.8,305.4,294,315.4,268.7z"/>
	</g>
	<g>
		<g>
			<path d="M2844.5,284.5l-69.8-152.2c-8-16.6-18.6-23.9-34.6-23.9h-2.7c-16.6,0-27.2,7.3-35.2,23.9l-69.8,152.2
				c-6.6,15.3-2,28.6,12,33.9c12.6,4.7,24.6,2,31.9-12.6l16-33.2c14,4.7,31.9,7.3,47.8,7.3c17.3,0,33.2-2.7,45.9-7.3l15.3,33.2
				c6.6,14.6,19.9,17.3,31.9,12.6C2845.8,313.1,2851.1,299.1,2844.5,284.5z M2738.8,234c-10.6,0-21.9-1.3-30.6-4l29.9-66.4
				l29.9,66.4C2759.4,232.7,2749.5,234,2738.8,234z"/>
			<path d="M2593.3,270.5H2580V131c0-16-12-25.3-25.9-25.3c-14,0-25.3,9.3-25.3,25.3v139.5h-89V131c0-16-11.3-25.3-25.9-25.3
				c-14.6,0-25.9,9.3-25.9,25.3v164.1c0,14,9.3,25.3,25.3,25.3h154.8V343c0,16,11.3,25.3,25.3,25.3c14.6,0,25.3-9.3,25.3-25.3v-47.2
				C2618.6,279.2,2608.6,270.5,2593.3,270.5"/>
			<path d="M2335.5,270.5h-13.3V131c0-16-12-25.3-25.9-25.3c-14,0-25.3,9.3-25.3,25.3v139.5h-89V131c0-16-11.3-25.3-25.9-25.3
				s-25.9,9.3-25.9,25.3v164.1c0,14,9.3,25.3,25.3,25.3h154.8V343c0,16,11.3,25.3,25.3,25.3c14.6,0,25.3-9.3,25.3-25.3v-47.2
				C2360.7,279.2,2350.8,270.5,2335.5,270.5"/>
			<path d="M2049.1,107.7h-2c-15.3,0-25.3,7.3-35.9,22.6l-83.7,118.9V131c0-16-10.6-25.3-24.6-25.3c-14.6,0-25.3,9.3-25.3,25.3
				v160.1c0,17.3,11.3,28.6,28.6,28.6h2.7c16,0,26.6-8,36.5-22.6l83.7-118.9v118.9c0,16,10.6,25.3,24.6,25.3
				c14,0,24.6-9.3,24.6-25.3V136.3C2078.3,119,2067.7,107.7,2049.1,107.7"/>
			<path d="M1799.2,107.7h-143.5c-16.6,0-25.3,11.3-25.3,25.3v164.1c0,16,12,25.3,25.9,25.3c14,0,25.3-9.3,25.3-25.3V157.6h91.7
				v139.5c0,16,11.3,25.3,25.9,25.3c14,0,25.9-9.3,25.9-25.9V132.3C1825.2,119,1815.9,107.7,1799.2,107.7"/>
		</g>
		<g>
			<path d="M1427.8,106.4c-61.8,0-109,46.5-109,108.3c0,62.5,47.2,108.3,109,108.3c61.1,0,109-47.2,109-109
				C1536.1,151.6,1488.9,106.4,1427.8,106.4z M1427.8,273.9c-33.9,0-57.8-25.3-57.8-59.8c0-33.9,24.6-59.1,57.8-59.1
				c33.9,0,57.8,25.3,57.8,59.1C1485.6,248.6,1462.3,273.9,1427.8,273.9z"/>
			<path d="M1282.9,270.5h-13.3V133c0-14-9.3-25.3-25.3-25.3h-117.6c-14,0-23.3,9.3-23.3,25.3v33.2c0,23.9-0.7,42.5-4.7,62.5
				c-4,19.3-9.3,31.9-16.6,41.9h-6c-16.6,0-24.6,10.6-24.6,25.3V343c0,16,11.3,25.3,25.3,25.3c14.6,0,25.3-9.3,25.3-25.3v-22.6H1257
				V343c0,16,11.3,25.3,25.3,25.3c14.6,0,25.3-9.3,25.3-25.3v-47.2C1308.2,281.2,1300.2,270.5,1282.9,270.5z M1218.5,270.5h-83.7
				c5.3-11.3,9.3-21.3,12.6-35.9c3.3-16,4.7-31.9,5.3-52.5l0.7-24.6h65.1L1218.5,270.5L1218.5,270.5z"/>
			<path d="M938.1,106.4c-61.8,0-109,46.5-109,108.3c0,62.5,47.2,108.3,109,108.3c61.1,0,109-47.2,109-109
				C1047,151.6,999.9,106.4,938.1,106.4z M938.1,273.9c-33.9,0-57.8-25.3-57.8-59.8c0-33.9,24.6-59.1,57.8-59.1
				c33.9,0,57.8,25.3,57.8,59.1C995.9,248.6,973.3,273.9,938.1,273.9z"/>
			<path d="M791.9,270.5h-13.3V133c0-14-9.3-25.3-25.3-25.3H635.7c-14,0-23.3,9.3-23.3,25.3v33.2c0,23.9,0,42.5-4.7,62.5
				c-4,19.3-9.3,31.9-16.6,41.9h-5.3c-16.6,0-24.6,10.6-24.6,25.3V343c0,16,11.3,25.3,25.3,25.3c14.6,0,25.3-9.3,25.3-25.3v-22.6
				h154.8V343c0,16,11.3,25.3,25.3,25.3c14.6,0,25.3-9.3,25.3-25.3v-47.2C817.1,281.2,809.2,270.5,791.9,270.5z M727.4,270.5h-83.7
				c5.3-11.3,9.3-21.3,12.6-35.9c3.3-16,4.7-31.9,5.3-52.5l0.7-24.6h65.1L727.4,270.5z"/>
		</g>
	</g>
</g>
</svg>
