<?xml version="1.0" encoding="utf-8"?>
<!-- Generator: Adobe Illustrator 24.3.0, SVG Export Plug-In . SVG Version: 6.00 Build 0)  -->
<svg version="1.1" id="Слой_1" xmlns="http://www.w3.org/2000/svg" xmlns:xlink="http://www.w3.org/1999/xlink" x="0px" y="0px"
	 viewBox="0 0 67.5 119.4" style="enable-background:new 0 0 67.5 119.4;" xml:space="preserve">
<style type="text/css">
	.st0{fill:#FF6900;}
	.st1{fill:#FFFFFF;}
</style>
<g>
	<g id="RU_Dodo_Pizza_Tall_Version_CMYK_1_">
		<g>
			<g id="RU_Tall_Logo_CMYK_2_">
				<g>
					<path d="M12.6,93.7h-0.7v-7.5c0-0.7-0.5-1.4-1.4-1.4H4.1c-0.7,0-1.3,0.5-1.3,1.4V88c0,1.3,0,2.3-0.2,3.4
						c-0.2,1.1-0.5,1.7-0.9,2.3H1.4c-0.9,0-1.3,0.6-1.3,1.4v2.6c0,0.9,0.6,1.4,1.4,1.4c0.8,0,1.4-0.5,1.4-1.4v-1.2h8.4v1.2
						c0,0.9,0.6,1.4,1.4,1.4c0.8,0,1.4-0.5,1.4-1.4v-2.6C14,94.3,13.5,93.7,12.6,93.7z M9.1,93.7H4.6c0.3-0.6,0.5-1.1,0.7-2
						c0.2-0.9,0.3-1.7,0.3-2.8l0-1.3h3.5V93.7z"/>
					<path d="M20.5,84.8c-3.3,0-5.9,2.5-5.9,5.9c0,3.4,2.6,5.9,5.9,5.9c3.3,0,5.9-2.6,5.9-5.9C26.5,87.2,23.9,84.8,20.5,84.8z
						 M20.5,93.9c-1.8,0-3.2-1.4-3.2-3.3c0-1.8,1.3-3.2,3.2-3.2c1.8,0,3.2,1.4,3.2,3.2C23.7,92.5,22.4,93.9,20.5,93.9z"/>
					<path d="M39.3,93.7h-0.7v-7.5c0-0.7-0.5-1.4-1.4-1.4h-6.4c-0.7,0-1.3,0.5-1.3,1.4V88c0,1.3,0,2.3-0.2,3.4
						c-0.2,1.1-0.5,1.7-0.9,2.3h-0.3c-0.9,0-1.3,0.6-1.3,1.4v2.6c0,0.9,0.6,1.4,1.4,1.4c0.8,0,1.4-0.5,1.4-1.4v-1.2h8.4v1.2
						c0,0.9,0.6,1.4,1.4,1.4c0.8,0,1.4-0.5,1.4-1.4v-2.6C40.7,94.3,40.2,93.7,39.3,93.7z M35.8,93.7h-4.5c0.3-0.6,0.5-1.1,0.7-2
						c0.2-0.9,0.3-1.7,0.3-2.8l0-1.3h3.5L35.8,93.7L35.8,93.7z"/>
					<path d="M47.1,84.8c-3.3,0-5.9,2.5-5.9,5.9c0,3.4,2.6,5.9,5.9,5.9c3.3,0,5.9-2.6,5.9-5.9C53.1,87.2,50.5,84.8,47.1,84.8z
						 M47.1,93.9c-1.8,0-3.2-1.4-3.2-3.3c0-1.8,1.3-3.2,3.2-3.2c1.8,0,3.2,1.4,3.2,3.2C50.3,92.5,49,93.9,47.1,93.9z"/>
				</g>
				<g>
					<path d="M9.3,105.1H1.5c-0.9,0-1.4,0.6-1.4,1.4v8.9c0,0.9,0.6,1.4,1.4,1.4c0.8,0,1.4-0.5,1.4-1.4v-7.6h5v7.6
						c0,0.9,0.6,1.4,1.4,1.4c0.8,0,1.4-0.5,1.4-1.4v-8.9C10.7,105.7,10.2,105.1,9.3,105.1z"/>
					<path d="M22.9,105.1h-0.1c-0.8,0-1.4,0.4-1.9,1.2l-4.6,6.5v-6.3c0-0.9-0.6-1.4-1.3-1.4c-0.8,0-1.4,0.5-1.4,1.4v8.6
						c0,0.9,0.6,1.6,1.5,1.6h0.1c0.9,0,1.4-0.4,2-1.2l4.6-6.5v6.3c0,0.9,0.6,1.4,1.3,1.4c0.8,0,1.3-0.5,1.3-1.4v-8.6
						C24.5,105.7,23.9,105.1,22.9,105.1z"/>
					<path d="M38.5,114h-0.7v-7.6c0-0.9-0.6-1.4-1.4-1.4c-0.8,0-1.4,0.5-1.4,1.4v7.6h-4.9v-7.6c0-0.9-0.6-1.4-1.4-1.4
						c-0.8,0-1.4,0.5-1.4,1.4v8.9c0,0.7,0.5,1.4,1.4,1.4h8.4v1.2c0,0.9,0.6,1.4,1.4,1.4c0.8,0,1.4-0.5,1.4-1.4v-2.6
						C39.8,114.4,39.3,114,38.5,114z"/>
					<path d="M52.5,114h-0.7v-7.6c0-0.9-0.6-1.4-1.4-1.4c-0.8,0-1.4,0.5-1.4,1.4v7.6h-4.9v-7.6c0-0.9-0.6-1.4-1.4-1.4
						c-0.8,0-1.4,0.5-1.4,1.4v8.9c0,0.7,0.5,1.4,1.4,1.4h8.4v1.2c0,0.9,0.6,1.4,1.4,1.4c0.8,0,1.4-0.5,1.4-1.4v-2.6
						C53.8,114.4,53.3,114,52.5,114z"/>
					<path d="M66.1,114.7l-3.8-8.3c-0.4-0.9-1-1.3-1.9-1.3h-0.1c-0.9,0-1.5,0.4-1.9,1.3l-3.8,8.3c-0.4,0.8-0.1,1.5,0.6,1.8
						c0.7,0.3,1.3,0.1,1.7-0.7l0.9-1.8c0.8,0.3,1.7,0.4,2.6,0.4c1,0,1.8-0.1,2.5-0.4l0.8,1.8c0.4,0.8,1.1,0.9,1.7,0.7
						C66.2,116.3,66.5,115.5,66.1,114.7z M60.4,112c-0.6,0-1.2-0.1-1.7-0.2l1.6-3.6l1.6,3.6C61.5,111.9,61,112,60.4,112z"/>
				</g>
			</g>
			<g>
				<path class="st0" d="M31.4,0.1c20.4,0,36,14,36,34.8c0,20.9-15.7,35.2-36,35.2H8.5c-4.6,0-8.4-3.1-8.4-8.4V8.8
					c0-5.3,3.8-8.7,8.4-8.7H31.4z"/>
				<path d="M48.2,28.3c2.6,0.5,2.7,1.8,3.2,2.6c0.5,0.8,1.4,1.2,2.4,1.2c1.9,0,3.1-1,3.1-4.6c0-7.9-5-11.7-10.2-11.7
					c-4.3,0-5.9,0.9-10,0.9c-2.9,0-5.3-5.9-8.6-6.6c-1.4-3.2-4.7-3.6-6.7-2c-1.8-1.1-4.7-0.5-4.8,1.5c-2.1-0.6-4.8,0.5-3.6,3.2
					c-5.1,0.1-6.1,4.7-2.6,5.2c-4.5,2.5-2.4,6.9,1.3,6c0.3,3.1,1.5,8.1,1.5,11.6c0,4.8-2.2,5.9-5.2,5.9c-2.4,0-5.8-0.9-8.2-1.5v3.4
					C2.4,44,6,44.7,8.7,44.7c4.7,0,7.3-2.8,7.3-8c0-6.4-2.1-12.3-1.4-16l-0.2-0.2c-2.3,2.5-3.9,1.8-4,1c-0.3-1.6,2.4-3.5,4-4.2
					c0-0.1,0.1-0.2,0.1-0.3c-1.5,0.2-3.2,0-3.3-1c-0.1-1.2,2.4-2.4,5.7-2.1c0.1-0.1,0.1-0.1,0.2-0.2c-0.2-0.1-0.4-0.2-0.7-0.3
					c-0.8-0.4-1.1-1.2-0.8-1.7c0.3-0.6,1.2-0.8,2-0.8c1.2,0,2.2,0.3,2.9,0.6c0.1,0,0.2-0.1,0.2-0.1c-0.3-0.2-0.5-0.4-0.6-0.7
					c-0.2-0.3-0.3-0.8,0.1-1.1c0.5-0.4,1.6-0.5,2.7,0.5c0.2,0.2,0.4,0.4,0.6,0.6c0.1,0,0.2,0,0.4-0.1c-0.2-0.3-0.3-0.5-0.4-0.8
					C23.4,9.5,23.5,9.1,24,9c0.5-0.1,1,0.1,1.3,0.5c0.3,0.5,0.5,1.1,0.6,1.5c-2.3,0.3-8.4,1.7-8.4,9.1c0,7.2,6,14.8,6,26
					c0,4.1-0.9,8.2-4.6,12.9c-2.9,3.7-7.4,7.2-14.4,10.1c0,0,0,0,0,0c0.3,0.1,0.6,0.2,0.8,0.3c0.1,0,0.2,0.1,0.3,0.1
					c0.2,0.1,0.4,0.1,0.6,0.2c0.1,0,0.3,0.1,0.4,0.1c0.2,0,0.3,0.1,0.5,0.1c0.2,0,0.3,0,0.5,0.1c0.1,0,0.3,0,0.4,0
					c0.2,0,0.3,0,0.5,0H11c5.8-3.2,8.7-6.2,10.7-9c3.9,1.7,7.7,2.5,11.1,2.5c6.4,0,11.8-2.9,14.6-8.2c2.9-1.7,4.8-5.3,5-7.9
					c1.8-2.3,2.1-5.2,1.6-7.1c-0.1-0.5-0.5-0.5-1.2-0.1c-5.7,3.4-11.3,5.1-16.6,5.1c-3.2,0-6.5-0.5-10-1.5C26,40.1,25.3,37,25,35
					c-0.4-2.5,0.2-4.4,2.9-4.4c2,0,5.8,0.5,8.8,1.9c3,1.4,4.7,4,6,4c0.5,0,1-0.3,1-1.4c0-2.2-0.8-5.6-1.7-6.9
					C44.8,28.2,47,28.2,48.2,28.3z M26.3,47.6c3.2,0.9,7.7,1.4,11.4,1.1c6.5-0.5,11.4-2.9,14.1-4.6c-1.6,4.2-7.8,6.7-13.8,7.5
					c0,0.3-0.1,0.6-0.1,0.9c4.5-0.2,8.8-1.7,10.7-3c-1.1,4.1-6.6,5.7-11.6,6c-0.1,0.3-0.3,0.6-0.4,0.9c2.9,0.1,5.7-0.5,7.3-1
					c-1.5,2.8-6.6,5.1-11.9,5.1c-2.6,0-5.8-0.5-8.6-1.8C25.4,54.9,26.2,51.1,26.3,47.6z M40,31.8c-0.2,0.2-0.4-0.1-0.5-0.2
					c-4.8-4.5-21.7-1.9-20.4-13c0.3-2.6,2-5.3,5-6c-0.2,0.3-0.4,0.7-0.6,1.3l0.5,0.1c1.4-2.4,5-2.3,5.3,0.1c0,0,2.8,2.9,3.5,3.5
					c0.2,0.1,0.2,0.2,0.1,0.4c-0.1,0.1-0.4,0.1-0.8,0L32,18.3c0.6,0.5,2.5,0.9,5.8,0.7c1-0.1,2-0.1,3.2-0.3
					c-1.5,1.5-2.5,3.5-3.1,5.7c-0.1,0.3-0.2,0.6-0.9,0.7c-6.4,0.5-11.9-0.3-13.7-3.7c-0.2-0.4-0.2-0.7,0.2-0.9
					c0.4-0.2,0.9-0.2,1.5-0.2l0.1-0.3c-1-0.6-2.7-0.8-3.6,0.3c-0.6,0.7-0.5,1.7,0.1,2.6l0.3-0.1c0-0.2-0.1-0.4-0.1-0.6
					c0-0.1,0.1-0.1,0.1-0.2c0.1,0,0.1,0,0.2,0.1c2.2,3.3,6.5,4.4,10.3,5.3C38.1,28.6,40.2,31.2,40,31.8z M39.8,25.1
					c-0.4,0-0.6-0.3-0.5-0.5c0.7-2.1,1.3-3.7,2.5-4.9c1.2-1.3,2.5-1.7,5.5-1.7c4.1,0,7.5,4.1,7.5,9.9c0,0.9-1.1,0.8-1.5,0.1
					c-1.4-2.4-3.3-2.8-6.2-3C44.8,24.8,42.2,25,39.8,25.1z M27,15.4c0.3,0.5,0.3,1,0,1.2c-0.2,0.1-0.5,0.1-0.8-0.2l-0.2,0
					c0.1,0.2,0.1,0.4,0.2,0.5c0.7,1.3,1.9,2.2,2.7,1.9c0.9-0.3,1-1.6,0.4-2.9c-0.7-1.3-1.9-2.2-2.8-1.9c-0.3,0.1-0.5,0.3-0.6,0.6
					l0.1,0.1C26.4,14.7,26.8,15,27,15.4z M5.2,51.4c-1.1-0.1-3.3,0-5.2,0v2.2c2.5-0.5,4.9-0.9,4.9-0.9L5.2,51.4z"/>
				<path class="st1" d="M51.8,44.1c-2.7,1.8-7.6,4.2-14.1,4.6c-3.7,0.3-8.1-0.2-11.4-1.1c0,1.1-0.2,2.2-0.3,3.3
					c1.8,0.5,5,1.1,9.7,1.2c-0.2,1.3-1.5,5.5-4.7,8.2c5.9,0.2,11.3-2.1,12.9-5.1c-1.7,0.5-4.4,1.1-7.3,1c0.2-0.3,0.3-0.6,0.4-0.9
					c5-0.2,10.5-1.9,11.6-6c-1.9,1.3-6.2,2.8-10.7,3c0.1-0.3,0.1-0.6,0.1-0.9C44,50.9,50.1,48.3,51.8,44.1z"/>
				<path class="st1" d="M26.6,14.1c0.9-0.3,2.1,0.6,2.8,1.9c0.7,1.3,0.5,2.6-0.4,2.9c-0.9,0.3-2.1-0.5-2.7-1.9
					c-0.1-0.2-0.2-0.4-0.2-0.5l0.2,0c0.3,0.3,0.6,0.3,0.8,0.2c0.3-0.2,0.3-0.7,0-1.2c-0.2-0.4-0.6-0.8-1-0.7L26,14.6
					C26.1,14.3,26.3,14.1,26.6,14.1 M32.6,27.4c-3.8-0.8-8.1-2-10.3-5.3c0-0.1-0.1-0.1-0.2-0.1c-0.1,0-0.1,0.1-0.1,0.2
					c0,0.2,0,0.4,0.1,0.6l-0.3,0.1c-0.6-0.8-0.7-1.8-0.1-2.6c0.8-1,2.6-0.9,3.6-0.3L25,20.3c-0.5-0.1-1.1-0.1-1.5,0.2
					c-0.3,0.2-0.4,0.5-0.2,0.9c1.9,3.5,7.3,4.2,13.7,3.7c0.7-0.1,0.8-0.4,0.9-0.7c0.6-2.2,1.6-4.2,3.1-5.7c-1.2,0.2-2.3,0.2-3.2,0.3
					c-3.3,0.2-5.2-0.2-5.8-0.7l0.1-0.3c0.4,0.1,0.7,0.1,0.8,0c0.1-0.1,0-0.2-0.1-0.4c-0.6-0.6-3.5-3.5-3.5-3.5
					c-0.3-2.5-3.9-2.5-5.3-0.1l-0.5-0.1c0.1-0.5,0.4-1,0.6-1.3c-3,0.7-4.7,3.4-5,6c-1.3,11.1,15.6,8.6,20.4,13
					c0.1,0.1,0.3,0.4,0.5,0.2C40.2,31.2,38.1,28.6,32.6,27.4"/>
			</g>
		</g>
	</g>
</g>
</svg>
