<?xml version="1.0" encoding="utf-8"?>
<!-- Generator: Adobe Illustrator 24.3.0, SVG Export Plug-In . SVG Version: 6.00 Build 0)  -->
<svg version="1.1" id="Слой_1" xmlns="http://www.w3.org/2000/svg" xmlns:xlink="http://www.w3.org/1999/xlink" x="0px" y="0px"
	 viewBox="0 0 68 120" style="enable-background:new 0 0 68 120;" xml:space="preserve">
<style type="text/css">
	.st0{fill:#FF6900;}
	.st1{fill:#FFFFFF;}
</style>
<g id="RU_Dodo_Pizza_Tall_Version_CMYK_1_">
	<g>
		<g id="RU_Tall_Logo_CMYK_2_">
			<g>
				<path d="M12.9,94h-0.7v-7.5c0-0.7-0.5-1.4-1.4-1.4H4.4c-0.7,0-1.3,0.5-1.3,1.4v1.8c0,1.3,0,2.3-0.2,3.4C2.7,92.8,2.4,93.5,2,94
					H1.7c-0.9,0-1.3,0.6-1.3,1.4V98c0,0.9,0.6,1.4,1.4,1.4c0.8,0,1.4-0.5,1.4-1.4v-1.2h8.4V98c0,0.9,0.6,1.4,1.4,1.4
					c0.8,0,1.4-0.5,1.4-1.4v-2.6C14.2,94.6,13.8,94,12.9,94z M9.4,94H4.8c0.3-0.6,0.5-1.1,0.7-2c0.2-0.9,0.3-1.7,0.3-2.8l0-1.3h3.5
					V94z"/>
				<path d="M20.8,85.1c-3.3,0-5.9,2.5-5.9,5.9c0,3.4,2.6,5.9,5.9,5.9c3.3,0,5.9-2.6,5.9-5.9C26.7,87.6,24.1,85.1,20.8,85.1z
					 M20.8,94.2c-1.8,0-3.2-1.4-3.2-3.3c0-1.8,1.3-3.2,3.2-3.2c1.8,0,3.2,1.4,3.2,3.2C24,92.8,22.7,94.2,20.8,94.2z"/>
				<path d="M39.6,94h-0.7v-7.5c0-0.7-0.5-1.4-1.4-1.4h-6.4c-0.7,0-1.3,0.5-1.3,1.4v1.8c0,1.3,0,2.3-0.2,3.4
					c-0.2,1.1-0.5,1.7-0.9,2.3h-0.3c-0.9,0-1.3,0.6-1.3,1.4V98c0,0.9,0.6,1.4,1.4,1.4c0.8,0,1.4-0.5,1.4-1.4v-1.2h8.4V98
					c0,0.9,0.6,1.4,1.4,1.4c0.8,0,1.4-0.5,1.4-1.4v-2.6C40.9,94.6,40.5,94,39.6,94z M36.1,94h-4.5c0.3-0.6,0.5-1.1,0.7-2
					c0.2-0.9,0.3-1.7,0.3-2.8l0-1.3h3.5V94z"/>
				<path d="M47.4,85.1c-3.3,0-5.9,2.5-5.9,5.9c0,3.4,2.6,5.9,5.9,5.9c3.3,0,5.9-2.6,5.9-5.9C53.3,87.6,50.7,85.1,47.4,85.1z
					 M47.4,94.2c-1.8,0-3.2-1.4-3.2-3.3c0-1.8,1.3-3.2,3.2-3.2c1.8,0,3.2,1.4,3.2,3.2C50.6,92.8,49.3,94.2,47.4,94.2z"/>
			</g>
			<g>
				<path d="M9.6,105.4H1.8c-0.9,0-1.4,0.6-1.4,1.4v8.9c0,0.9,0.6,1.4,1.4,1.4c0.8,0,1.4-0.5,1.4-1.4v-7.6h5v7.6
					c0,0.9,0.6,1.4,1.4,1.4c0.8,0,1.4-0.5,1.4-1.4v-8.9C11,106.1,10.5,105.4,9.6,105.4z"/>
				<path d="M23.2,105.4H23c-0.8,0-1.4,0.4-1.9,1.2l-4.6,6.5v-6.3c0-0.9-0.6-1.4-1.3-1.4c-0.8,0-1.4,0.5-1.4,1.4v8.6
					c0,0.9,0.6,1.6,1.5,1.6h0.1c0.9,0,1.4-0.4,2-1.2l4.6-6.5v6.3c0,0.9,0.6,1.4,1.3,1.4c0.8,0,1.3-0.5,1.3-1.4V107
					C24.8,106,24.2,105.4,23.2,105.4z"/>
				<path d="M38.7,114.3H38v-7.6c0-0.9-0.6-1.4-1.4-1.4c-0.8,0-1.4,0.5-1.4,1.4v7.6h-4.9v-7.6c0-0.9-0.6-1.4-1.4-1.4
					c-0.8,0-1.4,0.5-1.4,1.4v8.9c0,0.7,0.5,1.4,1.4,1.4h8.4v1.2c0,0.9,0.6,1.4,1.4,1.4c0.8,0,1.4-0.5,1.4-1.4v-2.6
					C40.1,114.8,39.5,114.3,38.7,114.3z"/>
				<path d="M52.7,114.3H52v-7.6c0-0.9-0.6-1.4-1.4-1.4c-0.8,0-1.4,0.5-1.4,1.4v7.6h-4.9v-7.6c0-0.9-0.6-1.4-1.4-1.4
					c-0.8,0-1.4,0.5-1.4,1.4v8.9c0,0.7,0.5,1.4,1.4,1.4h8.4v1.2c0,0.9,0.6,1.4,1.4,1.4c0.8,0,1.4-0.5,1.4-1.4v-2.6
					C54.1,114.8,53.6,114.3,52.7,114.3z"/>
				<path d="M66.4,115l-3.8-8.3c-0.4-0.9-1-1.3-1.9-1.3h-0.1c-0.9,0-1.5,0.4-1.9,1.3l-3.8,8.3c-0.4,0.8-0.1,1.5,0.6,1.8
					c0.7,0.3,1.3,0.1,1.7-0.7l0.9-1.8c0.8,0.3,1.7,0.4,2.6,0.4c1,0,1.8-0.1,2.5-0.4l0.8,1.8c0.4,0.8,1.1,0.9,1.7,0.7
					C66.4,116.6,66.7,115.8,66.4,115z M60.6,112.3c-0.6,0-1.2-0.1-1.7-0.2l1.6-3.6l1.6,3.6C61.8,112.2,61.2,112.3,60.6,112.3z"/>
			</g>
		</g>
		<g>
			<path class="st0" d="M31.6,0.4c20.4,0,36,14,36,34.8c0,20.9-15.7,35.2-36,35.2H8.8c-4.6,0-8.4-3.1-8.4-8.4V9.1
				c0-5.3,3.8-8.7,8.4-8.7H31.6z"/>
			<path d="M48.5,28.7c2.6,0.5,2.7,1.8,3.2,2.6c0.5,0.8,1.4,1.2,2.4,1.2c1.9,0,3.1-1,3.1-4.6c0-7.9-5-11.7-10.2-11.7
				c-4.3,0-5.9,0.9-10,0.9c-2.9,0-5.3-5.9-8.6-6.6c-1.4-3.2-4.7-3.6-6.7-2C20,7.4,17.1,8,17,10c-2.1-0.6-4.8,0.5-3.6,3.2
				c-5.1,0.1-6.1,4.7-2.6,5.2c-4.5,2.5-2.4,6.9,1.3,6c0.3,3.1,1.5,8.1,1.5,11.6c0,4.8-2.2,5.9-5.2,5.9c-2.4,0-5.8-0.9-8.2-1.5v3.4
				c2.4,0.6,5.9,1.3,8.6,1.3c4.7,0,7.3-2.8,7.3-8c0-6.4-2.1-12.3-1.4-16l-0.2-0.2c-2.3,2.4-3.9,1.8-4,1c-0.3-1.6,2.4-3.5,4-4.2
				c0-0.1,0.1-0.2,0.1-0.3c-1.5,0.2-3.2,0-3.3-1c-0.1-1.2,2.4-2.4,5.7-2.1c0.1-0.1,0.1-0.1,0.2-0.2c-0.2-0.1-0.4-0.2-0.7-0.3
				c-0.8-0.4-1.1-1.2-0.8-1.7c0.3-0.6,1.2-0.8,2-0.8c1.2,0,2.2,0.3,2.9,0.6c0.1,0,0.2-0.1,0.2-0.1c-0.3-0.2-0.5-0.4-0.6-0.7
				c-0.2-0.3-0.3-0.8,0.1-1.1c0.5-0.4,1.6-0.5,2.7,0.5c0.2,0.2,0.4,0.4,0.6,0.6c0.1,0,0.2,0,0.4-0.1c-0.2-0.3-0.3-0.5-0.4-0.8
				c-0.1-0.4,0.1-0.7,0.5-0.9c0.5-0.1,1,0.1,1.3,0.5c0.3,0.5,0.5,1.1,0.6,1.5c-2.3,0.3-8.4,1.7-8.4,9.1c0,7.2,6,14.8,6,26
				c0,4.1-0.9,8.2-4.6,12.9c-2.9,3.7-7.4,7.2-14.4,10.1c0,0,0,0,0,0c0.3,0.1,0.6,0.2,0.8,0.4c0.1,0,0.2,0.1,0.3,0.1
				c0.2,0.1,0.4,0.1,0.6,0.2c0.1,0,0.3,0.1,0.4,0.1c0.2,0,0.3,0.1,0.5,0.1c0.2,0,0.3,0,0.5,0.1c0.1,0,0.3,0,0.4,0c0.2,0,0.3,0,0.5,0
				h2.5c5.8-3.2,8.7-6.2,10.7-9c3.9,1.7,7.7,2.5,11.1,2.5c6.4,0,11.8-2.9,14.6-8.2c2.9-1.7,4.8-5.3,5-7.9c1.8-2.3,2.1-5.2,1.6-7.1
				c-0.1-0.5-0.5-0.5-1.2-0.1c-5.7,3.4-11.3,5.1-16.6,5.1c-3.2,0-6.5-0.5-10-1.5c-0.3-3.8-1-6.9-1.3-8.8c-0.4-2.5,0.2-4.4,2.9-4.4
				c2,0,5.8,0.5,8.8,1.9c3,1.4,4.7,4,6,4c0.5,0,1-0.3,1-1.4c0-2.2-0.8-5.6-1.7-6.9C45,28.5,47.3,28.5,48.5,28.7z M26.6,48
				c3.2,0.9,7.7,1.4,11.4,1.1c6.5-0.5,11.4-2.9,14.1-4.6c-1.6,4.2-7.8,6.7-13.8,7.5c0,0.3-0.1,0.6-0.1,0.9c4.5-0.2,8.8-1.7,10.7-3
				c-1.1,4.1-6.6,5.7-11.6,6c-0.1,0.3-0.3,0.6-0.4,0.9c2.9,0.1,5.7-0.5,7.3-1c-1.5,2.8-6.6,5.1-11.9,5.1c-2.6,0-5.8-0.5-8.6-1.8
				C25.7,55.2,26.4,51.4,26.6,48z M40.3,32.1c-0.2,0.2-0.4-0.1-0.5-0.2c-4.8-4.5-21.7-1.9-20.4-13c0.3-2.6,2-5.3,5-6
				c-0.2,0.3-0.4,0.7-0.6,1.3l0.5,0.1c1.4-2.4,5-2.3,5.3,0.1c0,0,2.8,2.9,3.5,3.5c0.2,0.1,0.2,0.2,0.1,0.4c-0.1,0.1-0.4,0.1-0.8,0
				l-0.1,0.3c0.6,0.5,2.5,0.9,5.8,0.7c1-0.1,2-0.1,3.2-0.3c-1.5,1.5-2.5,3.5-3.1,5.7c-0.1,0.3-0.2,0.6-0.9,0.7
				c-6.4,0.5-11.9-0.3-13.7-3.7c-0.2-0.4-0.2-0.7,0.2-0.9c0.4-0.2,0.9-0.2,1.5-0.2l0.1-0.3c-1-0.6-2.7-0.8-3.6,0.3
				c-0.6,0.7-0.5,1.7,0.1,2.6l0.3-0.1c0-0.2-0.1-0.4-0.1-0.6c0-0.1,0.1-0.1,0.1-0.2c0.1,0,0.1,0,0.2,0.1c2.2,3.3,6.5,4.4,10.3,5.3
				C38.3,28.9,40.4,31.5,40.3,32.1z M40.1,25.4c-0.4,0-0.6-0.3-0.5-0.5c0.7-2.1,1.3-3.7,2.5-4.9c1.2-1.3,2.5-1.7,5.5-1.7
				c4.1,0,7.5,4.1,7.5,9.9c0,0.9-1.1,0.8-1.5,0.1c-1.4-2.4-3.3-2.8-6.2-3C45.1,25.1,42.5,25.3,40.1,25.4z M27.2,15.7
				c0.3,0.5,0.3,1,0,1.2c-0.2,0.1-0.5,0.1-0.8-0.2l-0.2,0c0.1,0.2,0.1,0.4,0.2,0.5c0.7,1.3,1.9,2.2,2.7,1.9c0.9-0.3,1-1.6,0.4-2.9
				c-0.7-1.3-1.9-2.2-2.8-1.9c-0.3,0.1-0.5,0.3-0.6,0.6l0.1,0.1C26.6,15,27.1,15.4,27.2,15.7z M5.5,51.7c-1.1-0.1-3.3,0-5.2,0v2.2
				C2.8,53.5,5.2,53,5.2,53L5.5,51.7z"/>
			<path class="st1" d="M52,44.4c-2.7,1.8-7.6,4.2-14.1,4.6c-3.7,0.3-8.1-0.2-11.4-1.1c0,1.1-0.2,2.2-0.3,3.3c1.8,0.5,5,1.1,9.7,1.2
				c-0.2,1.3-1.5,5.5-4.7,8.2c5.9,0.2,11.3-2.1,12.9-5.1c-1.7,0.5-4.4,1.1-7.3,1c0.2-0.3,0.3-0.6,0.4-0.9c5-0.2,10.5-1.9,11.6-6
				c-1.9,1.3-6.2,2.8-10.7,3c0.1-0.3,0.1-0.6,0.1-0.9C44.2,51.2,50.4,48.6,52,44.4z"/>
			<path class="st1" d="M26.8,14.4c0.9-0.3,2.1,0.6,2.8,1.9c0.7,1.3,0.5,2.6-0.4,2.9c-0.9,0.3-2.1-0.5-2.7-1.9
				c-0.1-0.2-0.2-0.4-0.2-0.5l0.2,0c0.3,0.3,0.6,0.3,0.8,0.2c0.3-0.2,0.3-0.7,0-1.2c-0.2-0.4-0.6-0.8-1-0.7l-0.1-0.1
				C26.4,14.7,26.6,14.5,26.8,14.4 M32.8,27.7c-3.8-0.8-8.1-2-10.3-5.3c0-0.1-0.1-0.1-0.2-0.1c-0.1,0-0.1,0.1-0.1,0.2
				c0,0.2,0,0.4,0.1,0.6L22,23.3c-0.6-0.8-0.7-1.8-0.1-2.6c0.8-1,2.6-0.9,3.6-0.3l-0.1,0.3c-0.5-0.1-1.1-0.1-1.5,0.2
				c-0.3,0.2-0.4,0.5-0.2,0.9c1.9,3.5,7.3,4.2,13.7,3.7c0.7-0.1,0.8-0.4,0.9-0.7c0.6-2.2,1.6-4.2,3.1-5.7c-1.2,0.2-2.3,0.2-3.2,0.3
				c-3.3,0.2-5.2-0.2-5.8-0.7l0.1-0.3c0.4,0.1,0.7,0.1,0.8,0c0.1-0.1,0-0.2-0.1-0.4c-0.6-0.6-3.5-3.5-3.5-3.5
				c-0.3-2.5-3.9-2.5-5.3-0.1l-0.5-0.1c0.1-0.5,0.4-1,0.6-1.3c-3,0.7-4.7,3.4-5,6C18,30.1,34.9,27.5,39.8,32
				c0.1,0.1,0.3,0.4,0.5,0.2C40.4,31.5,38.3,28.9,32.8,27.7"/>
		</g>
	</g>
</g>
</svg>
