<?xml version="1.0" encoding="utf-8"?>
<!-- Generator: Adobe Illustrator 24.3.0, SVG Export Plug-In . SVG Version: 6.00 Build 0)  -->
<svg version="1.1" id="Слой_1" xmlns="http://www.w3.org/2000/svg" xmlns:xlink="http://www.w3.org/1999/xlink" x="0px" y="0px"
	 viewBox="0 0 68 71" style="enable-background:new 0 0 68 71;" xml:space="preserve">
<style type="text/css">
	.st0{fill:#FF6900;}
	.st1{fill:#231F20;}
	.st2{fill:#FFFFFF;}
</style>
<g>
	<path class="st0" d="M31.6,0.5c20.4,0,36,14,36,34.8c0,20.9-15.7,35.2-36,35.2H8.8c-4.6,0-8.4-3.1-8.4-8.4V9.2
		c0-5.3,3.8-8.7,8.4-8.7H31.6z"/>
	<path d="M11.3,70.5c5.8-3.2,8.7-6.2,10.8-9C26,63.3,29.7,64,33.1,64c6.4,0,11.8-2.9,14.6-8.2c2.9-1.7,4.8-5.3,5-7.9
		c1.8-2.3,2.1-5.2,1.6-7.1c-0.1-0.5-0.5-0.5-1.2-0.1c-5.7,3.4-11.3,5.1-16.6,5.1c-3.2,0-6.5-0.5-10-1.5c-0.3-3.8-1-6.9-1.3-8.8
		c-0.4-2.5,0.2-4.4,2.9-4.4c2,0,5.8,0.5,8.8,1.9c3,1.4,4.7,4,6,4c0.5,0,1-0.3,1-1.4c0-2.2-0.8-5.6-1.7-6.9c2.8-0.2,5-0.1,6.2,0
		c2.6,0.5,2.7,1.8,3.2,2.6c0.5,0.8,1.4,1.2,2.4,1.2c1.9,0,3.1-1,3.1-4.6c0-7.9-5-11.7-10.2-11.7c-4.3,0-5.9,0.9-10,0.9
		c-2.9,0-5.3-5.9-8.6-6.6c-1.4-3.2-4.7-3.6-6.7-2C20,7.5,17.1,8.1,17,10.2c-2.1-0.6-4.8,0.5-3.6,3.2c-5.1,0.1-6.1,4.7-2.6,5.2
		c-4.5,2.5-2.4,6.9,1.3,6c0.3,3.1,1.5,8.1,1.5,11.6c0,4.8-2.2,5.9-5.2,5.9c-2.4,0-5.8-0.9-8.2-1.5v3.4c2.4,0.6,5.9,1.3,8.6,1.3
		c4.7,0,7.3-2.8,7.3-8c0-6.4-2.1-12.3-1.4-16L14.7,21c-2.3,2.4-3.9,1.8-4,1c-0.3-1.6,2.4-3.5,4-4.2c0-0.1,0.1-0.2,0.1-0.3
		c-1.5,0.2-3.2,0-3.3-1c-0.1-1.2,2.4-2.4,5.7-2.1c0.1-0.1,0.1-0.1,0.2-0.2c-0.2-0.1-0.4-0.2-0.7-0.3c-0.8-0.4-1.1-1.2-0.8-1.7
		c0.3-0.6,1.2-0.8,2-0.8c1.2,0,2.2,0.3,2.9,0.6c0.1,0,0.2-0.1,0.2-0.1c-0.3-0.2-0.5-0.4-0.6-0.7c-0.2-0.3-0.3-0.8,0.1-1.1
		c0.5-0.4,1.6-0.5,2.7,0.5c0.2,0.2,0.4,0.4,0.6,0.6c0.1,0,0.2,0,0.4-0.1c-0.2-0.3-0.3-0.5-0.4-0.8c-0.1-0.4,0.1-0.7,0.5-0.9
		c0.5-0.1,1,0.1,1.3,0.5c0.3,0.5,0.5,1.1,0.6,1.5c-2.3,0.3-8.4,1.7-8.4,9.1c0,7.2,6,14.8,6,26c0,4.1-0.9,8.2-4.6,12.9
		c-2.9,3.7-7.4,7.2-14.4,10.1c1.2,0.6,2.6,0.9,4.1,0.9H11.3z M39.6,25c0.7-2.1,1.3-3.7,2.5-4.9c1.2-1.3,2.5-1.7,5.5-1.7
		c4.1,0,7.5,4.1,7.5,9.9c0,0.9-1.1,0.8-1.5,0.1c-1.4-2.4-3.3-2.8-6.2-3c-2.2-0.1-4.8,0.1-7.2,0.2C39.6,25.5,39.5,25.2,39.6,25z
		 M26.6,48.1c3.2,0.9,7.7,1.4,11.4,1.1c6.5-0.5,11.4-2.9,14.1-4.6c-1.6,4.2-7.8,6.7-13.8,7.5c0,0.3-0.1,0.6-0.1,0.9
		c4.5-0.2,8.8-1.7,10.7-3c-1.1,4.1-6.6,5.7-11.6,6c-0.1,0.3-0.3,0.6-0.4,0.9c2.9,0.1,5.7-0.5,7.3-1c-1.5,2.8-6.6,5.1-11.9,5.1
		c-2.6,0-5.8-0.5-8.6-1.8C25.7,55.3,26.4,51.5,26.6,48.1z"/>
	<path class="st1" d="M0.3,54.1c2.5-0.5,4.9-0.9,4.9-0.9l0.3-1.3c-1.1-0.1-3.3,0-5.2,0V54.1z"/>
	<path class="st2" d="M26.8,14.5c0.9-0.3,2.1,0.6,2.8,1.9c0.7,1.3,0.5,2.6-0.4,2.9c-0.9,0.3-2.1-0.5-2.7-1.9
		c-0.1-0.2-0.2-0.4-0.2-0.5l0.2,0c0.3,0.3,0.6,0.3,0.8,0.2c0.3-0.2,0.3-0.7,0-1.2c-0.2-0.4-0.6-0.8-1-0.7L26.2,15
		C26.4,14.8,26.6,14.6,26.8,14.5 M32.8,27.8c-3.8-0.8-8.1-2-10.3-5.3c0-0.1-0.1-0.1-0.2-0.1c-0.1,0-0.1,0.1-0.1,0.2
		c0,0.2,0,0.4,0.1,0.6L22,23.4c-0.6-0.8-0.7-1.8-0.1-2.6c0.8-1,2.6-0.9,3.6-0.3l-0.1,0.3c-0.5-0.1-1.1-0.1-1.5,0.2
		c-0.3,0.2-0.4,0.5-0.2,0.9c1.9,3.5,7.3,4.2,13.7,3.7c0.7-0.1,0.8-0.4,0.9-0.7c0.6-2.2,1.6-4.2,3.1-5.7c-1.2,0.2-2.3,0.2-3.2,0.3
		c-3.3,0.2-5.2-0.2-5.8-0.7l0.1-0.3c0.4,0.1,0.7,0.1,0.8,0c0.1-0.1,0-0.2-0.1-0.4c-0.6-0.6-3.5-3.5-3.5-3.5
		c-0.3-2.5-3.9-2.5-5.3-0.1l-0.5-0.1c0.1-0.5,0.4-1,0.6-1.3c-3,0.7-4.7,3.4-5,6c-1.3,11.1,15.6,8.6,20.4,13c0.1,0.1,0.3,0.4,0.5,0.2
		C40.4,31.7,38.3,29.1,32.8,27.8"/>
	<path class="st2" d="M52,44.5c-2.7,1.8-7.6,4.2-14.1,4.6c-3.7,0.3-8.1-0.2-11.4-1.1c0,1.1-0.2,2.2-0.3,3.3c1.8,0.5,5,1.1,9.7,1.2
		c-0.2,1.3-1.5,5.5-4.7,8.2c5.9,0.2,11.3-2.1,12.9-5.1c-1.7,0.5-4.4,1.1-7.3,1c0.2-0.3,0.3-0.6,0.4-0.9c5-0.2,10.5-1.9,11.6-6
		c-1.9,1.3-6.2,2.8-10.7,3c0.1-0.3,0.1-0.6,0.1-0.9C44.2,51.3,50.4,48.7,52,44.5z"/>
</g>
</svg>
