<?xml version="1.0" encoding="utf-8"?>
<!-- Generator: Adobe Illustrator 24.3.0, SVG Export Plug-In . SVG Version: 6.00 Build 0)  -->
<svg version="1.1" id="Layer_1" xmlns="http://www.w3.org/2000/svg" xmlns:xlink="http://www.w3.org/1999/xlink" x="0px" y="0px"
	 viewBox="0 0 468 70" style="enable-background:new 0 0 468 70;" xml:space="preserve">
<style type="text/css">
	.st0{fill:#FF6900;}
	.st1{fill:#FFFFFF;}
</style>
<g>
	<g>
		<path class="st0" d="M31.9,0c20.4,0,36,14,36,34.8c0,20.9-15.7,35.2-36,35.2H9c-4.6,0-8.4-3.1-8.4-8.4V8.7C0.6,3.4,4.4,0,9,0H31.9
			z"/>
		<path d="M11.5,70c5.8-3.2,8.7-6.2,10.8-9c3.9,1.7,7.7,2.5,11.1,2.5c6.4,0,11.8-2.9,14.6-8.2c2.9-1.7,4.8-5.3,5-7.9
			c1.8-2.3,2.1-5.2,1.6-7.1c-0.1-0.5-0.5-0.5-1.2-0.1c-5.7,3.4-11.3,5.1-16.6,5.1c-3.2,0-6.5-0.5-10-1.5c-0.3-3.8-1-6.9-1.3-8.8
			c-0.4-2.5,0.2-4.4,2.9-4.4c2,0,5.8,0.5,8.8,1.9s4.7,4,6,4c0.5,0,1-0.3,1-1.4c0-2.2-0.8-5.6-1.7-6.9c2.8-0.2,5-0.1,6.2,0
			c2.6,0.5,2.7,1.8,3.2,2.6c0.5,0.8,1.4,1.2,2.4,1.2c1.9,0,3.1-1,3.1-4.6c0-7.9-5-11.7-10.2-11.7c-4.3,0-5.9,0.9-10,0.9
			c-2.9,0-5.3-5.9-8.6-6.6c-1.4-3.2-4.7-3.6-6.7-2c-1.8-1.1-4.7-0.5-4.8,1.5c-2.1-0.6-4.8,0.5-3.6,3.2c-5.1,0.1-6.1,4.7-2.6,5.2
			c-4.5,2.5-2.4,6.9,1.3,6c0.3,3.1,1.5,8.1,1.5,11.6c0,4.8-2.2,5.9-5.2,5.9c-2.4,0-5.8-0.9-8.2-1.5v3.4c2.4,0.6,5.9,1.3,8.6,1.3
			c4.7,0,7.3-2.8,7.3-8c0-6.4-2.1-12.3-1.4-16l0.1-0.1c-2.3,2.4-3.9,1.8-4,1c-0.3-1.6,2.4-3.5,4-4.2c0-0.1,0.1-0.2,0.1-0.3
			c-1.5,0.2-3.2,0-3.3-1c-0.1-1.2,2.4-2.4,5.7-2.1c0.1-0.1,0.1-0.1,0.2-0.2c-0.2-0.1-0.4-0.2-0.7-0.3c-0.8-0.4-1.1-1.2-0.8-1.7
			c0.3-0.6,1.2-0.8,2-0.8c1.2,0,2.2,0.3,2.9,0.6c0.1,0,0.2-0.1,0.2-0.1c-0.3-0.2-0.5-0.4-0.6-0.7c-0.2-0.3-0.3-0.8,0.1-1.1
			c0.5-0.4,1.6-0.5,2.7,0.5c0.2,0.2,0.4,0.4,0.6,0.6c0.1,0,0.2,0,0.4-0.1c-0.2-0.3-0.3-0.5-0.4-0.8c-0.1-0.4,0.1-0.7,0.5-0.9
			c0.5-0.1,1,0.1,1.3,0.5c0.3,0.5,0.5,1.1,0.6,1.5C24.1,11.2,18,12.6,18,20c0,7.2,6,14.8,6,26c0,4.1-0.9,8.2-4.6,12.9
			C16.5,62.6,12,66.1,5,69c1.2,0.6,2.6,0.9,4.1,0.9L11.5,70L11.5,70z M39.8,24.5c0.7-2.1,1.3-3.7,2.5-4.9c1.2-1.3,2.5-1.7,5.5-1.7
			c4.1,0,7.5,4.1,7.5,9.9c0,0.9-1.1,0.8-1.5,0.1c-1.4-2.4-3.3-2.8-6.2-3c-2.2-0.1-4.8,0.1-7.2,0.2C39.9,25.1,39.7,24.8,39.8,24.5z
			 M26.8,47.6c3.2,0.9,7.7,1.4,11.4,1.1c6.5-0.5,11.4-2.9,14.1-4.6c-1.6,4.2-7.8,6.7-13.8,7.5c0,0.3-0.1,0.6-0.1,0.9
			c4.5-0.2,8.8-1.7,10.7-3c-1.1,4.1-6.6,5.7-11.6,6c-0.1,0.3-0.3,0.6-0.4,0.9c2.9,0.1,5.7-0.5,7.3-1c-1.5,2.8-6.6,5.1-11.9,5.1
			c-2.6,0-5.8-0.5-8.6-1.8C25.9,54.9,26.7,51.1,26.8,47.6z"/>
		<path d="M0.6,53.6c2.5-0.5,4.9-0.9,4.9-0.9l0.3-1.3c-1.1-0.1-3.3,0-5.2,0V53.6z"/>
		<path class="st1" d="M27.1,14c0.9-0.3,2.1,0.6,2.8,1.9c0.7,1.3,0.5,2.6-0.4,2.9c-0.9,0.3-2.1-0.5-2.7-1.9
			c-0.1-0.2-0.2-0.4-0.2-0.5h0.2c0.3,0.3,0.6,0.3,0.8,0.2c0.3-0.2,0.3-0.7,0-1.2c-0.2-0.4-0.6-0.8-1-0.7l-0.1-0.1
			C26.6,14.3,26.8,14.1,27.1,14 M33.1,27.4c-3.8-0.8-8.1-2-10.3-5.3c0-0.1-0.1-0.1-0.2-0.1c-0.1,0-0.1,0.1-0.1,0.2
			c0,0.2,0,0.4,0.1,0.6l-0.3,0.1c-0.6-0.8-0.7-1.8-0.1-2.6c0.8-1,2.6-0.9,3.6-0.3l-0.1,0.3c-0.5-0.1-1.1-0.1-1.5,0.2
			c-0.3,0.2-0.4,0.5-0.2,0.9c1.9,3.5,7.3,4.2,13.7,3.7c0.7-0.1,0.8-0.4,0.9-0.7c0.6-2.2,1.6-4.2,3.1-5.7c-1.2,0.2-2.3,0.2-3.2,0.3
			c-3.3,0.2-5.2-0.2-5.8-0.7l0.1-0.3c0.4,0.1,0.7,0.1,0.8,0c0.1-0.1,0-0.2-0.1-0.4C32.9,17,30,14.1,30,14.1
			c-0.3-2.5-3.9-2.5-5.3-0.1l-0.5-0.1c0.1-0.5,0.4-1,0.6-1.3c-3,0.7-4.7,3.4-5,6c-1.3,11.1,15.6,8.6,20.4,13
			c0.1,0.1,0.3,0.4,0.5,0.2C40.7,31.2,38.5,28.6,33.1,27.4"/>
		<path class="st1" d="M52.3,44.1c-2.7,1.8-7.6,4.2-14.1,4.6c-3.7,0.3-8.1-0.2-11.4-1.1c0,1.1-0.2,2.2-0.3,3.3
			c1.8,0.5,5,1.1,9.7,1.2c-0.2,1.3-1.5,5.5-4.7,8.2c5.9,0.2,11.3-2.1,12.9-5.1c-1.7,0.5-4.4,1.1-7.3,1c0.2-0.3,0.3-0.6,0.4-0.9
			c5-0.2,10.5-1.9,11.6-6c-1.9,1.3-6.2,2.8-10.7,3c0.1-0.3,0.1-0.6,0.1-0.9C44.4,50.8,50.6,48.2,52.3,44.1z"/>
	</g>
	<g>
		<g>
			<path d="M467.2,46.7l-11.4-25c-1.3-2.7-3.1-3.9-5.7-3.9h-0.4c-2.7,0-4.5,1.2-5.8,3.9l-11.4,25c-1.1,2.5-0.3,4.7,2,5.6
				c2.1,0.8,4,0.3,5.2-2.1l2.6-5.5c2.3,0.8,5.2,1.2,7.8,1.2c2.8,0,5.5-0.4,7.5-1.2l2.5,5.5c1.1,2.4,3.3,2.8,5.2,2.1
				C467.4,51.4,468.3,49.1,467.2,46.7z M449.9,38.4c-1.7,0-3.6-0.2-5-0.7l4.9-10.9l4.9,10.9C453.3,38.2,451.6,38.4,449.9,38.4z"/>
			<path d="M426,44.4h-2.2V21.5c0-2.6-2-4.1-4.3-4.1s-4.1,1.5-4.1,4.1v22.9h-14.6V21.5c0-2.6-1.9-4.1-4.3-4.1s-4.3,1.5-4.3,4.1v26.9
				c0,2.3,1.5,4.1,4.1,4.1h25.4v3.7c0,2.6,1.9,4.1,4.1,4.1c2.4,0,4.1-1.5,4.1-4.1v-7.7C430.1,45.8,428.5,44.4,426,44.4"/>
			<path d="M383.7,44.4h-2.2V21.5c0-2.6-2-4.1-4.3-4.1s-4.1,1.5-4.1,4.1v22.9h-14.6V21.5c0-2.6-1.9-4.1-4.3-4.1s-4.3,1.5-4.3,4.1
				v26.9c0,2.3,1.5,4.1,4.1,4.1h25.4v3.7c0,2.6,1.9,4.1,4.1,4.1c2.4,0,4.1-1.5,4.1-4.1v-7.7C387.8,45.8,386.2,44.4,383.7,44.4"/>
			<path d="M336.7,17.7h-0.3c-2.5,0-4.1,1.2-5.9,3.7l-13.7,19.5V21.5c0-2.6-1.7-4.1-4-4.1c-2.4,0-4.1,1.5-4.1,4.1v26.3
				c0,2.8,1.9,4.7,4.7,4.7h0.4c2.6,0,4.4-1.3,6-3.7l13.7-19.5v19.5c0,2.6,1.7,4.1,4,4.1s4-1.5,4-4.1V22.4
				C341.5,19.5,339.8,17.7,336.7,17.7"/>
			<path d="M295.7,17.7h-23.5c-2.7,0-4.1,1.9-4.1,4.1v26.9c0,2.6,2,4.1,4.3,4.1s4.1-1.5,4.1-4.1V25.9h15v22.9c0,2.6,1.9,4.1,4.3,4.1
				c2.3,0,4.3-1.5,4.3-4.3V21.7C300,19.5,298.4,17.7,295.7,17.7"/>
		</g>
		<g>
			<path d="M234.8,17.5c-10.1,0-17.9,7.6-17.9,17.8s7.7,17.8,17.9,17.8c10,0,17.9-7.7,17.9-17.9C252.5,24.9,244.8,17.5,234.8,17.5z
				 M234.8,44.9c-5.6,0-9.5-4.1-9.5-9.8c0-5.6,4-9.7,9.5-9.7c5.6,0,9.5,4.1,9.5,9.7C244.3,40.8,240.4,44.9,234.8,44.9z"/>
			<path d="M211,44.4h-2.2V21.8c0-2.3-1.5-4.1-4.1-4.1h-19.3c-2.3,0-3.8,1.5-3.8,4.1v5.5c0,3.9-0.1,7-0.8,10.2s-1.5,5.2-2.7,6.9h-1
				c-2.7,0-4,1.7-4,4.1v7.7c0,2.6,1.9,4.1,4.1,4.1c2.4,0,4.1-1.5,4.1-4.1v-3.7h25.5v3.7c0,2.6,1.9,4.1,4.1,4.1
				c2.4,0,4.1-1.5,4.1-4.1v-7.7C215.2,46.1,213.8,44.4,211,44.4z M200.4,44.4h-13.7c0.9-1.9,1.5-3.5,2.1-5.9
				c0.5-2.6,0.8-5.2,0.9-8.6l0.1-4h10.7v18.5H200.4z"/>
			<path d="M154.4,17.5c-10.1,0-17.9,7.6-17.9,17.8s7.7,17.8,17.9,17.8c10,0,17.9-7.7,17.9-17.9C172.3,24.9,164.6,17.5,154.4,17.5z
				 M154.4,44.9c-5.6,0-9.5-4.1-9.5-9.8c0-5.6,4-9.7,9.5-9.7c5.6,0,9.5,4.1,9.5,9.7C163.9,40.8,160.2,44.9,154.4,44.9z"/>
			<path d="M130.4,44.4h-2.2V21.8c0-2.3-1.5-4.1-4.1-4.1h-19.3c-2.3,0-3.8,1.5-3.8,4.1v5.5c0,3.9,0,7-0.8,10.2
				c-0.7,3.2-1.5,5.2-2.7,6.9h-0.9c-2.7,0-4,1.7-4,4.1v7.7c0,2.6,1.9,4.1,4.1,4.1c2.4,0,4.1-1.5,4.1-4.1v-3.7h25.4v3.7
				c0,2.6,1.9,4.1,4.1,4.1c2.4,0,4.1-1.5,4.1-4.1v-7.7C134.6,46.1,133.3,44.4,130.4,44.4z M119.9,44.4h-13.7
				c0.9-1.9,1.5-3.5,2.1-5.9c0.5-2.6,0.8-5.2,0.9-8.6l0.1-4H120L119.9,44.4z"/>
		</g>
	</g>
</g>
</svg>
