<?xml version="1.0" encoding="utf-8"?>
<!-- Generator: Adobe Illustrator 24.3.0, SVG Export Plug-In . SVG Version: 6.00 Build 0)  -->
<svg version="1.1" id="Слой_1" xmlns="http://www.w3.org/2000/svg" xmlns:xlink="http://www.w3.org/1999/xlink" x="0px" y="0px"
	 viewBox="0 0 853.6 321.2" style="enable-background:new 0 0 853.6 321.2;" xml:space="preserve">
<style type="text/css">
	.st0{fill:#FF6900;}
	.st1{fill:#FFFFFF;}
</style>
<g>
	<g>
		<g>
			<path d="M430.6,31.7h-33.3c-6.7,0-12.3,4.9-12.3,12.7v76.8c0,7.7,5.6,12.1,12.3,12.1h33.3c29.7,0,52.5-20.7,52.5-51.1
				C483.1,52,460.3,31.7,430.6,31.7z M430.6,109.6h-21V55.3h21c16.9,0,28.2,10,28.2,26.9C458.8,99.1,447.4,109.6,430.6,109.6z
				 M548.3,30.8c-29.4,0-52,22.1-52,51.7c0,29.9,22.6,51.7,52,51.7c29.4,0,52-22.6,52-52C600.3,52.7,577.6,30.8,548.3,30.8z
				 M548.3,111.1c-16.1,0-27.7-12.1-27.7-28.7c0-16.2,11.6-28.4,27.7-28.4c16.2,0,27.7,12.1,27.7,28.4C576,99,565,111.1,548.3,111.1
				z M662.4,31.7H629c-6.7,0-12.3,4.9-12.3,12.7v76.8c0,7.7,5.6,12.1,12.3,12.1h33.3c29.7,0,52.5-20.7,52.5-51.1
				C714.9,52,692.1,31.7,662.4,31.7z M662.4,109.6h-21V55.3h21c16.9,0,28.2,10,28.2,26.9C690.6,99.1,679.2,109.6,662.4,109.6z
				 M780,30.8c-29.4,0-52,22.1-52,51.7c0,29.9,22.6,51.7,52,51.7c29.4,0,52-22.6,52-52C832.1,52.7,809.4,30.8,780,30.8z M780,111.1
				c-16.1,0-27.7-12.1-27.7-28.7C752.3,66.1,764,54,780,54c16.2,0,27.7,12.1,27.7,28.4C807.8,99,796.8,111.1,780,111.1z"/>
			<path d="M438.6,187h-41c-6.7,0-12.1,4.4-12.1,12.1v78.3c0,7.7,5.6,12.1,12.5,12.1c6.7,0,12.1-4.4,12.1-12.1V259h28.6
				c22.1,0,36.1-15.6,36.1-36.1C474.8,202.2,460.8,187,438.6,187z M438.6,235.9h-28.6v-25.8h28.6c8,0,12.3,5.9,12.3,13
				C451,230.1,446.7,235.9,438.6,235.9z"/>
			<path d="M506.3,186.2c-6.9,0-12.7,4.6-12.7,12.3v78.8c0,7.7,5.7,12.3,12.7,12.3c6.9,0,12.7-4.6,12.7-12.3v-78.8
				C518.9,190.7,513.2,186.2,506.3,186.2z"/>
			<path d="M621.8,265.3h-51.1l50.6-45.5c7.2-6.4,10.2-11.6,10.2-18.6v-1c0-8.4-5.1-13.3-14.3-13.3h-64.5c-7.7,0-12.1,5.4-12.1,12
				c0,6.7,4.4,11.3,12.1,11.3H600l-48.7,44c-9.5,8.5-11.8,13.6-11.8,19.9v1.1c0,8.2,5.3,13.3,14.1,13.3h68.3
				c7.7,0,12.1-5.3,12.1-11.8C634,270,629.6,265.3,621.8,265.3z"/>
			<path d="M728.7,265.3h-51.1l50.6-45.5c7.2-6.4,10.2-11.6,10.2-18.6v-1c0-8.4-5.1-13.3-14.3-13.3h-64.5c-7.7,0-12.1,5.4-12.1,12
				c0,6.7,4.4,11.3,12.1,11.3h47.3l-48.7,44c-9.5,8.5-11.8,13.6-11.8,19.9v1.1c0,8.2,5.3,13.3,14.1,13.3h68.3
				c7.7,0,12.1-5.3,12.1-11.8C740.8,270,736.4,265.3,728.7,265.3z"/>
			<path d="M852.2,271.3l-33.5-72.9c-3.8-8-9-11.5-16.6-11.5h-1.3c-7.9,0-13.1,3.4-16.9,11.5l-33.5,72.9c-3.3,7.2-1,13.6,5.6,16.1
				c5.9,2.3,11.8,1,15.1-5.9l7.6-15.9c6.7,2.3,15.1,3.4,23,3.4c8.4,0,15.8-1.1,22-3.4l7.2,15.8c3.1,6.9,9.5,8.2,15.3,6.1
				C852.7,284.9,855.3,278.2,852.2,271.3z M801.6,247.2c-5.1,0-10.5-0.6-14.6-1.8l14.3-31.9l14.3,31.9
				C811.6,246.5,806.7,247.2,801.6,247.2z"/>
		</g>
	</g>
	<g>
		<path class="st0" d="M143.7,0.2C237.2,0.2,309,64.4,309,159.8c0,95.9-71.7,161.2-165.2,161.2H38.9c-21.2,0-38.7-14-38.7-38.4V40
			c0-24.3,17.6-39.9,38.7-39.9L143.7,0.2L143.7,0.2z"/>
		<path d="M50.5,321.1c26.8-14.9,40.1-28.5,49.3-41.2c18,8,35.2,11.5,50.8,11.5c29.2,0,54-13.4,67-37.4c13.3-8,22.2-24.5,22.7-36.3
			c8.3-10.5,9.9-23.7,7.3-32.6c-0.6-2.1-2.3-2.2-5.3-0.4c-26.3,15.8-51.8,23.3-76.1,23.3c-14.8,0-29.8-2.3-45.9-7
			c-1.1-17.2-4.7-31.7-6-40.4c-1.9-11.6,0.8-20.1,13.5-20.1c9.3,0,26.5,2.4,40.3,8.6c13.7,6.2,21.8,18.4,27.4,18.4
			c2.3,0,4.7-1.4,4.7-6.3c0-9.9-3.5-25.8-7.9-31.4c12.7-0.7,22.9-0.6,28.6,0c11.9,2.1,12.4,8,14.8,11.9c2.3,3.9,6.3,5.6,11.1,5.6
			c8.8,0,14.3-4.5,14.3-21c0-36.1-22.8-53.7-46.8-53.7c-19.7,0-27.2,4.3-45.9,4.3c-13.2,0-24.2-26.9-39.2-30.5
			c-6.6-14.8-21.5-16.5-30.7-9c-8.3-5.1-21.4-2.3-21.9,7c-9.6-3-22,2.2-16.6,14.8c-23.4,0.7-27.8,21.4-11.9,23.7
			c-20.5,11.6-11.1,31.6,6.1,27.4c1.2,14.2,7,37.2,7,53c0,22.1-10,27.1-23.7,27.1c-10.8,0-26.6-3.9-37.4-7v15.4
			c10.9,2.7,27.2,6.2,39.4,6.2c21.5,0,33.5-12.7,33.5-36.7c0-29.6-9.4-56.4-6.4-73.3l-0.8-1c-10.8,11.2-17.7,8.3-18.5,4.6
			c-1.5-7.2,11-16.1,18.2-19.2c0.1-0.5,0.3-1,0.5-1.5c-6.7,1.1-14.7,0.2-14.9-4.6c-0.3-5.7,11.1-10.8,26.1-9.5
			c0.3-0.2,0.6-0.5,0.9-0.7c-1-0.4-2-0.8-3.2-1.5c-3.9-2-4.8-5.3-3.5-7.7c1.4-2.7,5.6-3.7,9.1-3.6c5.4,0.1,10,1.4,13.3,2.8
			c0.4-0.2,0.8-0.3,1.1-0.5c-1.2-1-2.3-2-3-3.1c-0.9-1.6-1.1-3.8,0.6-5.2c2.1-1.7,7.4-2.2,12.2,2.1c1,0.9,1.8,1.8,2.6,2.6
			c0.6-0.1,1.1-0.2,1.6-0.3c-0.8-1.2-1.4-2.5-1.7-3.7c-0.3-1.6,0.2-3.3,2.2-4c2.1-0.7,4.7,0.4,6.1,2.4c1.5,2.2,2.3,4.9,2.9,6.7
			c-10.6,1.2-38.7,7.7-38.7,41.7c0,33.1,27.6,68,27.6,119.3c0,18.7-4.2,37.4-21.1,59.2c-13.1,16.8-33.8,33.1-66.2,46.4
			c5.5,2.7,11.9,4.2,18.7,4.2L50.5,321.1L50.5,321.1z M180.1,112.5c3.3-9.7,6.1-16.9,11.3-22.5c5.5-5.9,11.7-7.7,25.2-7.7
			c18.7,0,34.2,18.8,34.2,45.2c0,3.9-5.3,3.9-6.9,0.3c-6.3-11.2-14.9-12.8-28.5-13.8c-10-0.6-22.1,0.3-33,0.7
			C180.4,114.9,179.8,113.4,180.1,112.5z M120.6,218.2c14.8,4.1,35.2,6.3,52.1,5.1c29.8-2.1,52.1-13.2,64.6-21.2
			c-7.6,19.1-35.8,30.9-63.3,34.2c-0.2,1.4-0.4,2.8-0.6,4c20.6-1.1,40.2-7.8,49-13.9c-5.1,18.7-30.3,26.3-53.1,27.4
			c-0.6,1.5-1.3,2.8-2,4.2c13.3,0.2,26.1-2.2,33.6-4.6c-6.8,13.1-30.4,23.4-54.5,23.4c-11.8,0-26.5-2.3-39.3-8.4
			C116.3,251.5,119.9,234.2,120.6,218.2z"/>
		<path d="M0.2,245.7c11.3-2.2,22.4-4.3,22.4-4.3l1.4-6.1c-5.1-0.3-15.2-0.1-23.8,0.1V245.7z"/>
		<path class="st1" d="M121.6,64.3c3.9-1.3,9.6,2.6,12.6,8.7c3,6.1,2.3,12.1-1.7,13.4c-3.9,1.4-9.5-2.5-12.6-8.6
			c-0.4-0.8-0.7-1.7-1-2.5l0.7-0.2c1.2,1.2,2.8,1.5,3.8,0.9c1.4-0.9,1.2-3.3,0.1-5.4c-0.8-1.7-2.8-3.5-4.4-3.3l-0.3-0.4
			C119.5,65.6,120.4,64.7,121.6,64.3 M149.2,125.5c-17.6-3.9-36.9-9-47.2-24.1c-0.2-0.3-0.6-0.4-0.9-0.3c-0.3,0.1-0.6,0.4-0.6,0.7
			c0,0.8,0.1,1.7,0.3,2.6l-1.4,0.5c-2.7-3.8-3.3-8.5-0.6-11.8c3.9-4.8,11.7-4.3,16.4-1.3l-0.6,1.3c-2.5-0.4-4.9-0.4-6.8,0.7
			c-1.6,1-1.8,2.4-0.8,4.2c8.5,15.9,33.4,19.3,62.9,17.1c3-0.2,3.8-1.6,4.1-3.1c2.6-10.2,7.2-19.3,14.1-26.3
			c-5.4,0.7-10.4,0.9-14.8,1.1c-15.3,1-24-1.1-26.7-3.2l0.5-1.3c1.6,0.6,3.3,0.7,3.7,0.2c0.5-0.6,0.1-1.1-0.6-1.7
			c-2.9-2.7-15.9-16-15.9-16c-1.4-11.3-17.8-11.7-24.4-0.6l-2.2-0.6c0.6-2.4,1.6-4.4,2.5-5.9C96.6,61,88.8,73.3,87.4,85.2
			c-6.1,51.1,71.4,39.3,93.6,59.7c0.4,0.3,1.5,1.8,2.2,0.9C184.1,143,174.4,131.1,149.2,125.5"/>
		<path class="st1" d="M237.3,202.1c-12.6,8.1-34.9,19.2-64.6,21.2c-16.9,1.2-37.3-1-52.1-5.1c-0.2,4.9-0.7,10-1.6,15.1
			c8.3,2.2,23.1,5,44.5,5.5c-1,5.7-6.8,25.2-21.7,37.8c27.2,1.1,51.8-9.4,59.1-23.2c-7.6,2.4-20.4,4.9-33.6,4.6
			c0.7-1.3,1.4-2.7,2-4.2c22.9-1.1,48-8.6,53.1-27.4c-8.8,6.1-28.4,12.8-49,13.9c0.2-1.3,0.5-2.7,0.6-4
			C201.4,233,229.7,221.1,237.3,202.1z"/>
	</g>
</g>
</svg>
