<?xml version="1.0" encoding="utf-8"?>
<!-- Generator: Adobe Illustrator 24.3.0, SVG Export Plug-In . SVG Version: 6.00 Build 0)  -->
<svg version="1.1" id="Слой_1" xmlns="http://www.w3.org/2000/svg" xmlns:xlink="http://www.w3.org/1999/xlink" x="0px" y="0px"
	 viewBox="0 0 1405.2 474.2" style="enable-background:new 0 0 1405.2 474.2;" xml:space="preserve">
<style type="text/css">
	.st0{fill:#FF6900;}
	.st1{fill:#FFFFFF;}
</style>
<g>
	<g>
		<g>
			<path d="M683.6,281.1h-98.8c-11.3,0-17.5,7.8-17.5,17.3v113c0,11.1,8,17.5,18,17.5c9.7,0,17.5-6.4,17.5-17.5v-95.9h63.1v95.9
				c0,11.1,7.8,17.5,17.7,17.5c9.7,0,17.7-6.6,17.7-17.7V298.4C701.3,288.9,695,281.1,683.6,281.1z"/>
			<path d="M855.6,281.1h-1.4c-10.4,0-17.3,5.2-24.6,15.6L772,378.5v-79.9c0-11.1-7.1-17.5-16.8-17.5c-9.9,0-17.2,6.4-17.2,17.5
				v108.9c0,11.8,7.6,19.9,19.6,19.9h1.7c11.1,0,18.2-5.7,25.1-15.6l57.7-81.8v79.9c0,11.1,7.1,17.5,17,17.5c9.7,0,17-6.4,17-17.5
				V301C876,288.7,868.6,281.1,855.6,281.1z"/>
			<path d="M1052.7,393.1h-9v-95.9c0-11.1-8-17.5-18-17.5c-9.7,0-17.5,6.4-17.5,17.5v95.9h-61.4v-95.9c0-11.1-7.6-17.5-17.7-17.5
				c-9.9,0-17.7,6.4-17.7,17.5v113c0,9.5,6.4,17.2,17.5,17.2h106.3V443c0,11.1,7.6,17.5,17.2,17.5c9.9,0,17.5-6.4,17.5-17.5v-32.4
				C1070,399.1,1063.1,393.1,1052.7,393.1z"/>
			<path d="M1230.2,393.1h-9v-95.9c0-11.1-8-17.5-18-17.5c-9.7,0-17.5,6.4-17.5,17.5v95.9h-61.4v-95.9c0-11.1-7.6-17.5-17.7-17.5
				c-9.9,0-17.7,6.4-17.7,17.5v113c0,9.5,6.4,17.2,17.5,17.2h106.3V443c0,11.1,7.6,17.5,17.2,17.5c9.9,0,17.5-6.4,17.5-17.5v-32.4
				C1247.5,399.1,1240.6,393.1,1230.2,393.1z"/>
			<path d="M1402.9,402.6l-48.2-104.9c-5.4-11.6-13-16.5-23.9-16.5h-1.9c-11.3,0-18.9,5-24.3,16.5l-48.2,104.9
				c-4.7,10.4-1.4,19.6,8,23.2c8.5,3.3,17,1.4,21.7-8.5l10.9-22.9c9.7,3.3,21.7,5,33.1,5c12.1,0,22.7-1.7,31.7-5l10.4,22.7
				c4.5,9.9,13.7,11.8,22,8.7C1403.7,422.2,1407.4,412.5,1402.9,402.6z M1330.2,367.9c-7.3,0-15.1-0.9-21-2.6l20.6-45.8l20.6,45.8
				C1344.6,366.9,1337.5,367.9,1330.2,367.9z"/>
		</g>
		<g>
			<path d="M726.1,158.8h-9V64c0-9.5-6.4-17.2-17.5-17.2h-81.1c-9.5,0-15.8,6.4-15.8,17.5v22.9c0,16.5-0.2,29.3-3.1,43
				c-2.8,13.5-6.4,21.7-11.6,28.6h-4c-11.3,0-16.8,7.1-16.8,17.3v32.6c0,11.1,7.6,17.5,17.3,17.5c9.9,0,17.5-6.4,17.5-17.5v-15.6
				h106.6v15.6c0,11.1,7.6,17.5,17.2,17.5c9.9,0,17.5-6.4,17.5-17.5V176C743.4,165.9,738,158.8,726.1,158.8z M681.7,158.8h-57.4
				c3.5-7.6,6.4-14.4,8.7-24.8c2.4-10.9,3.3-21.7,3.5-35.9l0.2-17h44.9V158.8z"/>
			<path d="M826.6,45.6c-42.3,0-74.9,31.9-74.9,74.4c0,43,32.6,74.4,74.9,74.4s74.9-32.6,74.9-74.9C901.5,77,868.9,45.6,826.6,45.6z
				 M826.6,161.2c-23.2,0-39.9-17.5-39.9-41.4c0-23.4,16.8-40.9,39.9-40.9c23.4,0,39.9,17.5,39.9,40.9
				C866.5,143.7,850.7,161.2,826.6,161.2z"/>
			<path d="M1163.3,45.6c-42.3,0-74.9,31.9-74.9,74.4c0,43,32.6,74.4,74.9,74.4c42.3,0,74.9-32.6,74.9-74.9
				C1238.2,77,1205.6,45.6,1163.3,45.6z M1163.3,161.2c-23.2,0-39.9-17.5-39.9-41.4c0-23.4,16.8-40.9,39.9-40.9
				c23.4,0,39.9,17.5,39.9,40.9C1203.3,143.7,1187.4,161.2,1163.3,161.2z"/>
			<path d="M1064.1,158.8h-9V64c0-9.5-6.4-17.2-17.5-17.2h-81.1c-9.5,0-15.8,6.4-15.8,17.5v22.9c0,16.5-0.2,29.3-3.1,43
				c-2.8,13.5-6.4,21.7-11.6,28.6h-4c-11.3,0-16.8,7.1-16.8,17.3v32.6c0,11.1,7.6,17.5,17.3,17.5c9.9,0,17.5-6.4,17.5-17.5v-15.6
				h106.6v15.6c0,11.1,7.6,17.5,17.2,17.5c9.9,0,17.5-6.4,17.5-17.5V176C1081.3,165.9,1075.9,158.8,1064.1,158.8z M1019.6,158.8
				h-57.4c3.5-7.6,6.4-14.4,8.7-24.8c2.4-10.9,3.3-21.7,3.5-35.9l0.2-17h44.9L1019.6,158.8L1019.6,158.8z"/>
		</g>
	</g>
	<g>
		<path class="st0" d="M212.2,0.4C350,0.4,455.9,95.2,455.9,236c0,141.5-105.9,237.9-243.8,237.9H57.5c-31.2,0-57.1-20.7-57.1-56.6
			v-358c0-36,25.9-58.9,57.1-58.9L212.2,0.4L212.2,0.4z"/>
		<path d="M108,248.5c0-43.6-14-83.3-9.4-108.1l-1.1-1.4c-15.9,16.6-26.2,12.2-27.3,6.9c-2.3-10.7,16.3-23.8,27-28.3
			c0.2-0.7,0.5-1.4,0.8-2.2c-9.9,1.5-21.6,0.3-22-6.8c-0.5-8.4,16.4-16,38.6-14.1c0.4-0.4,0.8-0.7,1.3-1.1c-1.4-0.6-2.9-1.2-4.7-2.2
			c-5.7-2.9-7.1-7.8-5.2-11.4c2-3.9,8.3-5.4,13.4-5.3c8,0.2,14.7,2.1,19.7,4.1c0.6-0.2,1.1-0.5,1.7-0.7c-1.8-1.4-3.4-3-4.4-4.6
			c-1.4-2.3-1.7-5.6,0.9-7.7c3.1-2.4,10.9-3.3,18,3.1c1.5,1.3,2.7,2.6,3.8,3.9c0.8-0.1,1.6-0.3,2.4-0.4c-1.2-1.8-2.1-3.7-2.4-5.4
			c-0.4-2.4,0.4-5,3.2-5.9c3.1-1,7,0.6,9,3.6c2.2,3.2,3.5,7.1,4.3,9.9c-15.6,1.8-57.1,11.3-57.1,61.5c0,48.9,40.6,100.3,40.6,176.1
			c-0.1,27.5-6.1,55.2-31.1,87.4c-19.3,24.9-49.9,48.8-97.7,68.5c8.2,4,17.6,6.1,27.5,6.1h17.2c39.5-21.9,59.1-42,72.7-60.8
			c26.5,11.8,52,16.9,75,16.9c43.1,0,79.8-19.8,98.9-55.2c19.7-11.8,32.8-36.1,33.6-53.5c12.3-15.4,14.5-34.9,10.8-48.1
			c-0.9-3.1-3.4-3.2-7.9-0.5C319,295.9,281.4,307,245.5,307c-21.7,0-44-3.5-67.8-10.3c-1.7-25.4-6.9-46.8-8.9-59.7
			c-2.8-17.1,1.2-29.7,19.9-29.7c13.7,0,39.2,3.5,59.5,12.7c20.1,9.2,32.1,27.2,40.5,27.2c3.4,0,7-2.1,7-9.3
			c0-14.6-5.2-38-11.7-46.4c18.8-1.1,33.8-0.9,42.2,0.1c17.5,3,18.4,11.8,21.8,17.6c3.5,5.7,9.3,8.2,16.4,8.2c13,0,21.2-6.7,21.2-31
			c0-53.3-33.7-79.2-69-79.2c-29,0-40.2,6.4-67.7,6.4c-19.5,0-35.7-39.7-57.9-45c-9.8-21.8-31.8-24.3-45.3-13.3
			c-12.3-7.5-31.5-3.4-32.3,10.4C99.3,61.3,81,68.9,88.9,87.5c-34.6,1-41,31.6-17.6,35c-30.2,17.1-16.4,46.6,8.9,40.4
			c1.8,21,10.3,54.8,10.3,78.2c0,32.5-14.8,40.1-34.9,40.1c-15.9,0-39.3-5.8-55.2-10.3v22.7c16,4,40.1,9.1,58.1,9.1
			C90.3,302.6,108,284,108,248.5z M178.1,322.1c21.8,6,51.9,9.3,76.8,7.5c43.9-3.1,76.8-19.4,95.4-31.3
			c-11.1,28.1-52.9,45.6-93.4,50.6c-0.3,2-0.6,4.1-0.9,6c30.4-1.6,59.2-11.5,72.3-20.5c-7.5,27.7-44.7,38.8-78.4,40.4
			c-0.9,2.2-2,4.2-3,6.2c19.6,0.4,38.5-3.3,49.7-6.8c-10.1,19.3-44.9,34.5-80.4,34.5c-17.4,0-39.2-3.4-58-12.4
			C171.7,371.3,177,345.7,178.1,322.1z M265.8,166.1c4.8-14.2,8.9-25,16.7-33.2c8.2-8.6,17.2-11.3,37.2-11.3
			c27.5,0,50.5,27.8,50.5,66.7c0,5.8-7.8,5.7-10.2,0.5c-9.4-16.5-22-18.9-42-20.4c-14.7-0.9-32.5,0.4-48.7,1.1
			C266.2,169.6,265.4,167.5,265.8,166.1z"/>
		<path d="M0.4,362.7c16.6-3.3,33-6.4,33-6.4l2.1-9c-7.5-0.4-22.4-0.2-35.1,0.1V362.7z"/>
		<path class="st1" d="M179.6,95c5.8-2,14.2,3.8,18.6,12.8c4.5,9,3.4,17.9-2.4,19.8c-5.8,2-14.1-3.7-18.6-12.7
			c-0.6-1.2-1.1-2.4-1.5-3.6l1-0.3c1.9,1.8,4.1,2.3,5.6,1.3c2-1.3,1.8-4.9,0.1-8c-1.2-2.5-4.1-5.2-6.4-5l-0.4-0.5
			C176.4,96.9,177.8,95.6,179.6,95 M220.3,185.4c-26-5.7-54.5-13.3-69.7-35.6c-0.3-0.4-0.8-0.6-1.3-0.5c-0.5,0.1-0.8,0.6-0.8,1.1
			c-0.1,1.2,0.1,2.6,0.4,3.9l-2.1,0.8c-4-5.6-4.8-12.5-0.8-17.4c5.7-7.1,17.3-6.4,24.2-2l-0.9,1.9c-3.7-0.6-7.3-0.6-10,1.1
			c-2.3,1.4-2.7,3.5-1.2,6.2c12.6,23.4,49.3,28.5,92.8,25.1c4.5-0.4,5.5-2.4,6.1-4.5c3.8-15.1,10.6-28.5,20.9-38.8
			c-7.9,1.1-15.3,1.4-21.8,1.7c-22.5,1.4-35.4-1.5-39.4-4.7l0.7-2c2.4,0.8,4.9,1,5.4,0.3c0.7-0.9,0.2-1.5-0.9-2.5
			c-4.3-4-23.5-23.7-23.4-23.6c-2.1-16.6-26.3-17.2-36-0.9l-3.3-0.9c1-3.6,2.4-6.5,3.7-8.6c-20.2,4.6-31.7,22.7-33.8,40.3
			c-9,75.4,105.4,58,138,88.2c0.6,0.5,2.2,2.7,3.3,1.3C271.8,211.1,257.4,193.6,220.3,185.4"/>
		<path class="st1" d="M350.2,298.3c-18.5,11.9-51.5,28.2-95.4,31.3c-24.9,1.8-55.1-1.5-76.8-7.5c-0.3,7.3-1.1,14.7-2.3,22.3
			c12.3,3.1,34.1,7.3,65.6,8.2c-1.4,8.5-10,37.2-32,55.8c40.1,1.7,76.5-13.9,87.2-34.3c-11.2,3.5-30,7.2-49.7,6.8c1-1.9,2-4,3-6.2
			c33.7-1.6,70.9-12.7,78.4-40.4c-13.1,9-42,18.9-72.3,20.5c0.4-1.9,0.7-3.9,0.9-6C297.3,343.9,339.1,326.4,350.2,298.3z"/>
	</g>
</g>
</svg>
