<?xml version="1.0" encoding="utf-8"?>
<!-- Generator: Adobe Illustrator 24.3.0, SVG Export Plug-In . SVG Version: 6.00 Build 0)  -->
<svg version="1.1" id="Слой_1" xmlns="http://www.w3.org/2000/svg" xmlns:xlink="http://www.w3.org/1999/xlink" x="0px" y="0px"
	 viewBox="0 0 179 61" style="enable-background:new 0 0 179 61;" xml:space="preserve">
<style type="text/css">
	.st0{fill:#FF6900;}
	.st1{fill:#FFFFFF;}
</style>
<g>
	<g>
		<g>
			<path d="M87.1,36H74.5c-1.4,0-2.2,1-2.2,2.2v14.4c0,1.4,1,2.2,2.3,2.2c1.2,0,2.2-0.8,2.2-2.2V40.4h8v12.2c0,1.4,1,2.2,2.3,2.2
				c1.2,0,2.3-0.8,2.3-2.3V38.2C89.4,37,88.6,36,87.1,36z"/>
			<path d="M109,36h-0.2c-1.3,0-2.2,0.7-3.1,2l-7.3,10.4V38.3c0-1.4-0.9-2.2-2.1-2.2c-1.3,0-2.2,0.8-2.2,2.2v13.9
				c0,1.5,1,2.5,2.5,2.5h0.2c1.4,0,2.3-0.7,3.2-2l7.3-10.4v10.2c0,1.4,0.9,2.2,2.2,2.2c1.2,0,2.2-0.8,2.2-2.2V38.6
				C111.6,37,110.7,36,109,36z"/>
			<path d="M134.1,50.3H133V38.1c0-1.4-1-2.2-2.3-2.2c-1.2,0-2.2,0.8-2.2,2.2v12.2h-7.8V38.1c0-1.4-1-2.2-2.3-2.2s-2.3,0.8-2.3,2.2
				v14.4c0,1.2,0.8,2.2,2.2,2.2h13.5v2c0,1.4,1,2.2,2.2,2.2c1.3,0,2.2-0.8,2.2-2.2v-4.1C136.3,51.2,135.5,50.3,134.1,50.3z"/>
			<path d="M156.7,50.3h-1.1V38.1c0-1.4-1-2.2-2.3-2.2c-1.2,0-2.2,0.8-2.2,2.2v12.2h-7.8V38.1c0-1.4-1-2.2-2.3-2.2s-2.3,0.8-2.3,2.2
				v14.4c0,1.2,0.8,2.2,2.2,2.2h13.5v2c0,1.4,1,2.2,2.2,2.2c1.3,0,2.2-0.8,2.2-2.2v-4.1C158.9,51.2,158.1,50.3,156.7,50.3z"/>
			<path d="M178.7,51.5l-6.1-13.4c-0.7-1.5-1.7-2.1-3-2.1h-0.2c-1.4,0-2.4,0.6-3.1,2.1l-6.1,13.4c-0.6,1.3-0.2,2.5,1,2.9
				c1.1,0.4,2.2,0.2,2.8-1.1l1.4-2.9c1.2,0.4,2.8,0.6,4.2,0.6c1.5,0,2.9-0.2,4-0.6l1.3,2.9c0.6,1.3,1.7,1.5,2.8,1.1
				C178.8,54,179.3,52.8,178.7,51.5z M169.5,47.2c-0.9,0-1.9-0.1-2.7-0.3l2.6-5.8l2.6,5.8C171.3,47,170.4,47.2,169.5,47.2z"/>
		</g>
		<g>
			<path d="M92.5,20.4h-1.1v-12c0-1.2-0.8-2.2-2.2-2.2H78.8c-1.2,0-2,0.8-2,2.2v2.9c0,2.1,0,3.7-0.4,5.5c-0.4,1.7-0.8,2.8-1.5,3.6
				h-0.5c-1.4,0-2.1,0.9-2.1,2.2v4.2c0,1.4,1,2.2,2.2,2.2c1.3,0,2.2-0.8,2.2-2.2v-2h13.6v2c0,1.4,1,2.2,2.2,2.2
				c1.3,0,2.2-0.8,2.2-2.2v-4.2C94.7,21.4,94,20.4,92.5,20.4z M86.9,20.4h-7.3c0.5-1,0.8-1.8,1.1-3.2c0.3-1.4,0.4-2.8,0.5-4.6v-2.2
				h5.7C86.9,10.4,86.9,20.4,86.9,20.4z"/>
			<path d="M105.3,6c-5.4,0-9.5,4.1-9.5,9.5c0,5.5,4.2,9.5,9.5,9.5c5.4,0,9.5-4.2,9.5-9.5C114.9,10,110.7,6,105.3,6z M105.3,20.8
				c-2.9,0-5.1-2.2-5.1-5.3c0-3,2.1-5.2,5.1-5.2s5.1,2.2,5.1,5.2C110.4,18.5,108.4,20.8,105.3,20.8z"/>
			<path d="M148.2,6c-5.4,0-9.5,4.1-9.5,9.5c0,5.5,4.2,9.5,9.5,9.5c5.4,0,9.5-4.2,9.5-9.5C157.8,10,153.6,6,148.2,6z M148.2,20.8
				c-2.9,0-5.1-2.2-5.1-5.3c0-3,2.1-5.2,5.1-5.2s5.1,2.2,5.1,5.2C153.3,18.5,151.3,20.8,148.2,20.8z"/>
			<path d="M135.6,20.4h-1.1v-12c0-1.2-0.8-2.2-2.2-2.2H122c-1.2,0-2,0.8-2,2.2v2.9c0,2.1,0,3.7-0.4,5.5c-0.4,1.7-0.8,2.8-1.5,3.6
				h-0.5c-1.4,0-2.1,0.9-2.1,2.2v4.2c0,1.4,1,2.2,2.2,2.2c1.3,0,2.2-0.8,2.2-2.2v-2h13.6v2c0,1.4,1,2.2,2.2,2.2
				c1.3,0,2.2-0.8,2.2-2.2v-4.2C137.8,21.4,137.1,20.4,135.6,20.4z M129.9,20.4h-7.3c0.5-1,0.8-1.8,1.1-3.2s0.4-2.8,0.5-4.6v-2.2
				h5.7V20.4z"/>
		</g>
	</g>
	<g>
		<path class="st0" d="M27.1,0.3c17.5,0,31,12,31,30S44.6,60.7,27,60.7H7.4c-4,0-7.3-2.6-7.3-7.2V7.8c0-4.6,3.3-7.5,7.3-7.5H27.1z"
			/>
		<path d="M13.8,31.9c0-5.6-1.8-10.6-1.2-13.8l-0.1-0.2c-2,2.1-3.3,1.6-3.5,0.9c-0.3-1.4,2.1-3,3.4-3.6c0-0.1,0.1-0.2,0.1-0.3
			c-1.3,0.2-2.8,0-2.8-0.9c-0.1-1.1,2.1-2,4.9-1.8c0.1,0,0.1-0.1,0.2-0.1c-0.2-0.1-0.4-0.2-0.6-0.3c-0.7-0.4-0.9-1-0.7-1.5
			c0.3-0.5,1.1-0.7,1.7-0.7c1,0,1.9,0.3,2.5,0.5c0.1,0,0.1-0.1,0.2-0.1c-0.2-0.2-0.4-0.4-0.6-0.6c-0.2-0.3-0.2-0.7,0.1-1
			c0.4-0.3,1.4-0.4,2.3,0.4C19.9,9,20,9.1,20.2,9.3c0.1,0,0.2,0,0.3-0.1c-0.1-0.2-0.3-0.5-0.3-0.7c-0.1-0.3,0-0.6,0.4-0.7
			s0.9,0.1,1.1,0.5c0.3,0.4,0.4,0.9,0.5,1.3c-2,0.2-7.3,1.4-7.3,7.8c0,6.2,5.2,12.8,5.2,22.4c0,3.5-0.8,7-4,11.1
			c-2.5,3.2-6.4,6.2-12.4,8.7c1,0.5,2.2,0.8,3.5,0.8h2.2c5-2.8,7.5-5.3,9.3-7.7c3.4,1.5,6.6,2.1,9.5,2.1c5.5,0,10.2-2.5,12.6-7
			c2.5-1.5,4.2-4.6,4.3-6.8c1.6-2,1.9-4.4,1.4-6.1c-0.1-0.4-0.4-0.4-1-0.1c-4.9,3-9.7,4.4-14.3,4.4c-2.8,0-5.6-0.4-8.6-1.3
			c-0.2-3.2-0.9-6-1.1-7.6c-0.4-2.2,0.1-3.8,2.5-3.8c1.8,0,5,0.4,7.6,1.6c2.6,1.2,4.1,3.5,5.2,3.5c0.4,0,0.9-0.3,0.9-1.2
			c0-1.9-0.7-4.8-1.5-5.9c2.4-0.1,4.3-0.1,5.4,0c2.2,0.4,2.3,1.5,2.8,2.2c0.4,0.7,1.2,1,2.1,1c1.7,0,2.7-0.9,2.7-4
			c0-6.8-4.3-10.1-8.8-10.1c-3.7,0-5.1,0.8-8.6,0.8c-2.5,0-4.5-5.1-7.4-5.7c-1.2-2.8-4-3.1-5.8-1.7c-1.6-1-4-0.4-4.1,1.3
			c-1.8-0.6-4.1,0.4-3.1,2.8c-4.4,0.1-5.2,4-2.2,4.5c-3.8,2.2-2.1,5.9,1.1,5.1c0.2,2.7,1.3,7,1.3,10c0,4.1-1.9,5.1-4.4,5.1
			c-2,0-5-0.7-7-1.3v2.9c2,0.5,5.1,1.2,7.4,1.2C11.5,38.8,13.8,36.4,13.8,31.9z M22.7,41.3c2.8,0.8,6.6,1.2,9.8,1
			c5.6-0.4,9.8-2.5,12.1-4c-1.4,3.6-6.7,5.8-11.9,6.4c0,0.3-0.1,0.5-0.1,0.8c3.9-0.2,7.5-1.5,9.2-2.6c-1,3.5-5.7,4.9-10,5.1
			c-0.1,0.3-0.2,0.5-0.4,0.8c2.5,0,4.9-0.4,6.3-0.9c-1.2,2.4-5.6,4.4-10.1,4.4c-2.2,0-5-0.4-7.4-1.6C21.9,47.5,22.6,44.3,22.7,41.3z
			 M33.9,21.4c0.6-1.8,1.1-3.2,2.1-4.2c1-1.1,2.2-1.4,4.7-1.4c3.5,0,6.4,3.5,6.4,8.5c0,0.7-1,0.7-1.3,0.1c-1.2-2.1-2.8-2.4-5.4-2.6
			c-1.9-0.1-4.1,0-6.2,0.1C33.9,21.8,33.8,21.6,33.9,21.4z"/>
		<path d="M0.1,46.4c2.1-0.4,4.2-0.8,4.2-0.8l0.3-1.1c-1,0-2.9,0-4.5,0C0.1,44.5,0.1,46.4,0.1,46.4z"/>
		<path class="st1" d="M22.9,12.3c0.7-0.2,1.8,0.5,2.4,1.6c0.6,1.1,0.4,2.3-0.3,2.5c-0.7,0.3-1.8-0.5-2.4-1.6
			c-0.1-0.2-0.1-0.3-0.2-0.5h0.1c0.2,0.2,0.5,0.3,0.7,0.2c0.3-0.2,0.2-0.6,0-1c-0.2-0.3-0.5-0.7-0.8-0.6l-0.1-0.1
			C22.5,12.6,22.7,12.4,22.9,12.3 M28.1,23.8c-3.3-0.7-6.9-1.7-8.9-4.5c0-0.1-0.1-0.1-0.2-0.1c0,0.1,0,0.1,0,0.2c0,0.2,0,0.3,0,0.5
			L18.7,20c-0.5-0.7-0.6-1.6-0.1-2.2c0.7-0.9,2.2-0.8,3.1-0.3l-0.1,0.2c-0.5-0.1-0.9-0.1-1.3,0.1c-0.3,0.3-0.3,0.5-0.1,0.9
			c1.6,3,6.3,3.6,11.8,3.2c0.6,0,0.7-0.3,0.8-0.6c0.5-1.9,1.4-3.6,2.7-4.9c-1,0.1-2,0.2-2.8,0.2c-2.9,0.2-4.5-0.2-5-0.6l0.1-0.2
			c0.3,0.1,0.6,0.1,0.7,0c0.1-0.1,0-0.2-0.1-0.3c-0.5-0.5-3-3-3-3c-0.3-2.2-3.4-2.3-4.7-0.2l-0.4-0.1c0.1-0.5,0.3-0.8,0.5-1.1
			c-2.6,0.6-4,2.9-4.3,5.1c-1.1,9.6,13.4,7.4,17.6,11.2c0.1,0.1,0.3,0.3,0.4,0.2C34.7,27.1,32.8,24.9,28.1,23.8"/>
		<path class="st1" d="M44.6,38.2c-2.4,1.5-6.6,3.6-12.1,4c-3.2,0.2-7-0.2-9.8-1c0,0.9-0.1,1.9-0.3,2.8c1.6,0.4,4.3,0.9,8.4,1
			c-0.2,1.1-1.3,4.7-4.1,7.1c5.1,0.2,9.7-1.8,11.1-4.4c-1.4,0.5-3.8,0.9-6.3,0.9c0.1-0.2,0.3-0.5,0.4-0.8c4.3-0.2,9-1.6,10-5.1
			c-1.7,1.1-5.3,2.4-9.2,2.6c0-0.2,0.1-0.5,0.1-0.8C37.9,44,43.2,41.8,44.6,38.2z"/>
	</g>
</g>
</svg>
