<?xml version="1.0" encoding="utf-8"?>
<!-- Generator: Adobe Illustrator 24.3.0, SVG Export Plug-In . SVG Version: 6.00 Build 0)  -->
<svg version="1.1" id="Layer_1" xmlns="http://www.w3.org/2000/svg" xmlns:xlink="http://www.w3.org/1999/xlink" x="0px" y="0px"
	 viewBox="0 0 376 43" style="enable-background:new 0 0 376 43;" xml:space="preserve">
<g>
	<g>
		<g>
			<path d="M375.1,29.3l-11.4-25c-1.3-2.7-3.1-3.9-5.7-3.9h-0.4c-2.7,0-4.5,1.2-5.8,3.9l-11.4,25c-1.1,2.5-0.3,4.7,2,5.6
				c2.1,0.8,4,0.3,5.2-2.1l2.6-5.5c2.3,0.8,5.2,1.2,7.8,1.2c2.8,0,5.5-0.4,7.5-1.2l2.5,5.5c1.1,2.4,3.3,2.8,5.2,2.1
				C375.3,34.1,376.1,31.8,375.1,29.3z M357.7,21.1c-1.7,0-3.6-0.2-5-0.7l4.9-10.9l4.9,10.9C361.1,20.8,359.5,21.1,357.7,21.1z"/>
			<path d="M333.8,27.1h-2.1V4.2c0-2.6-2-4.1-4.3-4.1s-4.1,1.5-4.1,4.1v22.9h-14.6V4.2c0-2.6-1.9-4.1-4.3-4.1s-4.3,1.5-4.3,4.1v26.9
				c0,2.3,1.5,4.1,4.1,4.1h25.5v3.7c0,2.6,1.9,4.1,4.1,4.1c2.4,0,4.1-1.5,4.1-4.1v-7.7C338,28.5,336.4,27.1,333.8,27.1"/>
			<path d="M291.5,27.1h-2.2V4.2c0-2.6-2-4.1-4.3-4.1s-4.1,1.5-4.1,4.1v22.9h-14.6V4.2c0-2.6-1.9-4.1-4.3-4.1s-4.3,1.5-4.3,4.1v26.9
				c0,2.3,1.5,4.1,4.1,4.1h25.4v3.7c0,2.6,1.9,4.1,4.1,4.1c2.4,0,4.1-1.5,4.1-4.1v-7.7C295.7,28.5,294.1,27.1,291.5,27.1"/>
			<path d="M244.6,0.4h-0.3c-2.5,0-4.1,1.2-5.9,3.7l-13.7,19.5V4.2c0-2.6-1.7-4.1-4-4.1c-2.4,0-4.1,1.5-4.1,4.1v26.3
				c0,2.8,1.9,4.7,4.7,4.7h0.4c2.6,0,4.4-1.3,6-3.7L241.4,12v19.5c0,2.6,1.7,4.1,4,4.1s4-1.5,4-4.1V5.1
				C249.4,2.2,247.6,0.4,244.6,0.4"/>
			<path d="M203.6,0.4h-23.5c-2.7,0-4.1,1.9-4.1,4.1v26.9c0,2.6,2,4.1,4.3,4.1s4.1-1.5,4.1-4.1V8.6h15v22.9c0,2.6,1.9,4.1,4.3,4.1
				c2.3,0,4.3-1.5,4.3-4.3V4.4C207.8,2.2,206.3,0.4,203.6,0.4"/>
		</g>
		<g>
			<path d="M142.6,0.2c-10.1,0-17.9,7.6-17.9,17.8s7.7,17.8,17.9,17.8c10,0,17.9-7.7,17.9-17.9C160.4,7.6,152.7,0.2,142.6,0.2z
				 M142.6,27.6c-5.6,0-9.5-4.1-9.5-9.8c0-5.6,4-9.7,9.5-9.7c5.6,0,9.5,4.1,9.5,9.7C152.1,23.5,148.3,27.6,142.6,27.6z"/>
			<path d="M118.9,27.1h-2.2V4.5c0-2.3-1.5-4.1-4.1-4.1H93.3c-2.3,0-3.8,1.5-3.8,4.1V10c0,3.9-0.1,7-0.8,10.2
				c-0.7,3.2-1.5,5.2-2.7,6.9h-1c-2.7,0-4,1.7-4,4.1v7.7c0,2.6,1.9,4.1,4.1,4.1c2.4,0,4.1-1.5,4.1-4.1v-3.7h25.4v3.7
				c0,2.6,1.9,4.1,4.1,4.1c2.4,0,4.1-1.5,4.1-4.1v-7.7C123,28.8,121.7,27.1,118.9,27.1z M108.3,27.1H94.6c0.9-1.9,1.5-3.5,2.1-5.9
				c0.5-2.6,0.8-5.2,0.9-8.6l0.1-4h10.7v18.5H108.3z"/>
			<path d="M62.3,0.2C52.2,0.2,44.4,7.8,44.4,18s7.7,17.8,17.9,17.8c10,0,17.9-7.7,17.9-17.9C80.2,7.6,72.4,0.2,62.3,0.2z
				 M62.3,27.6c-5.6,0-9.5-4.1-9.5-9.8c0-5.6,4-9.7,9.5-9.7c5.6,0,9.5,4.1,9.5,9.7C71.8,23.5,68.1,27.6,62.3,27.6z"/>
			<path d="M38.3,27.1h-2.2V4.5c0-2.3-1.5-4.1-4.1-4.1H12.7c-2.3,0-3.8,1.5-3.8,4.1V10c0,3.9,0,7-0.8,10.2c-0.7,3.2-1.5,5.2-2.7,6.9
				H4.5c-2.7,0-4,1.7-4,4.1v7.7c0,2.6,1.9,4.1,4.1,4.1c2.4,0,4.1-1.5,4.1-4.1v-3.7h25.4v3.7c0,2.6,1.9,4.1,4.1,4.1
				c2.4,0,4.1-1.5,4.1-4.1v-7.7C42.4,28.8,41.1,27.1,38.3,27.1z M27.7,27.1H14c0.9-1.9,1.5-3.5,2.1-5.9c0.5-2.6,0.8-5.2,0.9-8.6
				l0.1-4h10.6V27.1z"/>
		</g>
	</g>
</g>
</svg>
