<svg width="429" height="71" viewBox="0 0 429 71" fill="none" xmlns="http://www.w3.org/2000/svg">
<g clip-path="url(#clip0_104_37)">
<path d="M112.9 18.12H101.42C99.1 18.12 97.18 19.82 97.18 22.47V48.93C97.18 51.59 99.1 53.11 101.42 53.11H112.9C123.13 53.11 130.99 45.99 130.99 35.53C130.99 25.13 123.13 18.12 112.9 18.12ZM112.9 44.97H105.66V26.26H112.9C118.72 26.26 122.62 29.71 122.62 35.53C122.62 41.35 118.72 44.97 112.9 44.97Z" fill="black"/>
<path d="M153.43 17.84C143.31 17.84 135.51 25.47 135.51 35.65C135.51 45.94 143.31 53.46 153.43 53.46C163.55 53.46 171.35 45.66 171.35 35.54C171.36 25.36 163.55 17.84 153.43 17.84ZM153.43 45.48C147.89 45.48 143.88 41.3 143.88 35.59C143.88 29.99 147.89 25.81 153.43 25.81C159.03 25.81 162.98 29.99 162.98 35.59C162.99 41.3 159.2 45.48 153.43 45.48Z" fill="black"/>
<path d="M192.73 18.12H181.25C178.93 18.12 177.01 19.82 177.01 22.47V48.93C177.01 51.59 178.93 53.11 181.25 53.11H192.73C202.96 53.11 210.82 45.99 210.82 35.53C210.82 25.13 202.96 18.12 192.73 18.12ZM192.73 44.97H185.49V26.26H192.73C198.55 26.26 202.45 29.71 202.45 35.53C202.45 41.35 198.55 44.97 192.73 44.97Z" fill="black"/>
<path d="M233.26 17.84C223.14 17.84 215.34 25.47 215.34 35.65C215.34 45.94 223.14 53.46 233.26 53.46C243.38 53.46 251.18 45.66 251.18 35.54C251.18 25.36 243.38 17.84 233.26 17.84ZM233.26 45.48C227.72 45.48 223.71 41.3 223.71 35.59C223.71 29.99 227.72 25.81 233.26 25.81C238.86 25.81 242.81 29.99 242.81 35.59C242.81 41.3 239.03 45.48 233.26 45.48Z" fill="black"/>
<path d="M285.72 18.12H271.59C269.27 18.12 267.41 19.65 267.41 22.3V49.27C267.41 51.93 269.33 53.45 271.71 53.45C274.03 53.45 275.89 51.92 275.89 49.27V42.94H285.73C293.36 42.94 298.17 37.57 298.17 30.5C298.16 23.38 293.35 18.12 285.72 18.12ZM285.72 34.97H275.88V26.09H285.72C288.49 26.09 289.96 28.13 289.96 30.56C289.96 32.99 288.49 34.97 285.72 34.97Z" fill="black"/>
<path d="M309.01 17.84C306.64 17.84 304.66 19.42 304.66 22.08V49.22C304.66 51.88 306.64 53.46 309.01 53.46C311.38 53.46 313.36 51.88 313.36 49.22V22.08C313.37 19.42 311.39 17.84 309.01 17.84Z" fill="black"/>
<path d="M348.81 45.08H331.23L348.64 29.42C351.13 27.22 352.15 25.41 352.15 23.03V22.7C352.15 19.82 350.4 18.12 347.23 18.12H325.01C322.35 18.12 320.83 19.99 320.83 22.25C320.83 24.57 322.36 26.15 325.01 26.15H341.29L324.5 41.3C321.22 44.24 320.43 45.99 320.43 48.14V48.54C320.43 51.37 322.24 53.12 325.29 53.12H348.81C351.47 53.12 352.99 51.31 352.99 49.05C353 46.72 351.47 45.08 348.81 45.08Z" fill="black"/>
<path d="M385.62 45.08H368.04L385.45 29.42C387.94 27.22 388.95 25.41 388.95 23.03V22.7C388.95 19.82 387.2 18.12 384.03 18.12H361.81C359.15 18.12 357.63 19.99 357.63 22.25C357.63 24.57 359.16 26.15 361.81 26.15H378.09L361.31 41.3C358.03 44.24 357.24 45.99 357.24 48.14V48.54C357.24 51.37 359.05 53.12 362.1 53.12H385.62C388.28 53.12 389.8 51.31 389.8 49.05C389.8 46.72 388.27 45.08 385.62 45.08Z" fill="black"/>
<path d="M428.13 47.18L416.6 22.08C415.3 19.31 413.49 18.12 410.89 18.12H410.44C407.73 18.12 405.92 19.31 404.62 22.08L393.09 47.18C391.96 49.67 392.75 51.87 395.01 52.72C397.04 53.51 399.08 53.06 400.21 50.69L402.81 45.21C405.13 46 408.01 46.4 410.72 46.4C413.6 46.4 416.15 46 418.3 45.21L420.79 50.64C421.86 53.01 424.07 53.47 426.05 52.73C428.3 51.87 429.2 49.55 428.13 47.18ZM410.72 38.87C408.97 38.87 407.1 38.64 405.69 38.25L410.61 27.28L415.53 38.25C414.16 38.64 412.47 38.87 410.72 38.87Z" fill="black"/>
<path d="M32.15 0.609985C52.53 0.609985 68.19 14.63 68.19 35.44C68.19 56.36 52.54 70.61 32.15 70.61H9.29C4.67 70.61 0.84 67.56 0.84 62.24V9.31998C0.84 4.00998 4.67 0.609985 9.29 0.609985H32.15Z" fill="#FF6900"/>
<path d="M11.82 70.61C17.67 67.37 20.57 64.4 22.58 61.62C26.5 63.37 30.26 64.12 33.66 64.12C40.03 64.12 45.45 61.19 48.28 55.96C51.19 54.21 53.12 50.62 53.24 48.05C55.05 45.77 55.39 42.89 54.83 40.94C54.7 40.48 54.32 40.46 53.67 40.86C47.93 44.3 42.38 45.94 37.08 45.94C33.86 45.94 30.57 45.43 27.06 44.41C26.81 40.65 26.04 37.5 25.75 35.59C25.34 33.07 25.92 31.2 28.69 31.2C30.72 31.2 34.48 31.72 37.49 33.08C40.47 34.43 42.24 37.1 43.47 37.1C43.97 37.1 44.5 36.79 44.5 35.73C44.5 33.58 43.73 30.11 42.78 28.87C45.56 28.71 47.78 28.74 49.02 28.88C51.61 29.33 51.73 30.63 52.24 31.48C52.75 32.33 53.62 32.7 54.66 32.7C56.59 32.7 57.79 31.71 57.79 28.12C57.79 20.24 52.81 16.41 47.59 16.41C43.3 16.41 41.65 17.35 37.58 17.35C34.69 17.35 32.3 11.48 29.02 10.7C27.57 7.47999 24.32 7.10999 22.32 8.72999C20.5 7.61999 17.66 8.21999 17.54 10.26C15.45 9.60999 12.75 10.74 13.91 13.49C8.8 13.64 7.84 18.16 11.31 18.66C6.84 21.19 8.88 25.55 12.63 24.63C12.89 27.73 14.15 32.74 14.15 36.19C14.15 41 11.97 42.11 8.99 42.11C6.63 42.11 3.18 41.25 0.830002 40.59V43.94C3.2 44.53 6.76 45.29 9.42 45.29C14.12 45.29 16.73 42.53 16.73 37.28C16.73 30.83 14.67 24.97 15.34 21.3L15.17 21.09C12.82 23.54 11.3 22.89 11.13 22.1C10.8 20.52 13.54 18.59 15.11 17.91C15.14 17.81 15.18 17.7 15.22 17.59C13.75 17.82 12.02 17.63 11.96 16.58C11.89 15.33 14.39 14.22 17.66 14.5C17.72 14.45 17.79 14.4 17.85 14.34C17.64 14.26 17.42 14.16 17.15 14.01C16.3 13.58 16.1 12.85 16.38 12.33C16.68 11.75 17.61 11.53 18.36 11.54C19.54 11.56 20.54 11.85 21.27 12.15C21.35 12.11 21.44 12.08 21.52 12.05C21.25 11.84 21.01 11.61 20.87 11.37C20.67 11.02 20.62 10.55 21.01 10.24C21.47 9.87999 22.63 9.74999 23.68 10.7C23.9 10.9 24.08 11.09 24.25 11.27C24.37 11.25 24.48 11.23 24.6 11.21C24.43 10.94 24.29 10.66 24.24 10.41C24.18 10.06 24.29 9.67999 24.71 9.53999C25.16 9.38999 25.74 9.62999 26.04 10.07C26.36 10.54 26.55 11.13 26.68 11.54C24.37 11.81 18.23 13.21 18.23 20.63C18.23 27.86 24.24 35.46 24.24 46.66C24.23 50.73 23.33 54.82 19.64 59.58C16.79 63.25 12.26 66.8 5.2 69.71C6.41 70.3 7.8 70.62 9.27 70.62H11.82V70.61ZM40.08 25.12C40.79 23.01 41.4 21.43 42.55 20.21C43.76 18.93 45.1 18.53 48.04 18.53C52.11 18.53 55.51 22.64 55.51 28.39C55.51 29.24 54.36 29.24 54 28.46C52.62 26.02 50.74 25.67 47.79 25.45C45.61 25.32 42.98 25.51 40.59 25.61C40.14 25.63 40.01 25.32 40.08 25.12ZM27.11 48.18C30.33 49.07 34.78 49.55 38.47 49.29C44.96 48.83 49.83 46.42 52.57 44.66C50.92 48.82 44.75 51.4 38.76 52.13C38.72 52.43 38.68 52.73 38.62 53.01C43.11 52.77 47.38 51.31 49.31 49.98C48.2 54.07 42.71 55.72 37.72 55.95C37.58 56.27 37.43 56.57 37.28 56.86C40.18 56.91 42.97 56.37 44.62 55.85C43.13 58.7 37.98 60.95 32.74 60.95C30.16 60.95 26.95 60.45 24.16 59.12C26.17 55.44 26.95 51.66 27.11 48.18Z" fill="black"/>
<path d="M0.84 54.17C3.3 53.68 5.72 53.23 5.72 53.23L6.03 51.9C4.92 51.84 2.72 51.87 0.84 51.92V54.17Z" fill="black"/>
<path d="M27.33 14.5999C28.19 14.3099 29.42 15.1599 30.08 16.4899C30.74 17.8199 30.58 19.1299 29.72 19.4199C28.87 19.7199 27.64 18.8699 26.98 17.5399C26.89 17.3599 26.82 17.1799 26.76 16.9999L26.91 16.9599C27.18 17.2199 27.51 17.2899 27.73 17.1499C28.03 16.9499 28 16.4299 27.75 15.9699C27.57 15.5999 27.15 15.2099 26.8 15.2399L26.74 15.1599C26.87 14.8899 27.06 14.6899 27.33 14.5999ZM33.35 27.9599C29.5 27.1199 25.3 25.9999 23.05 22.6999C23.01 22.6399 22.93 22.6099 22.86 22.6299C22.79 22.6499 22.74 22.7099 22.73 22.7899C22.72 22.9699 22.75 23.1699 22.79 23.3599L22.49 23.4699C21.9 22.6399 21.78 21.6199 22.36 20.8999C23.2 19.8499 24.92 19.9599 25.94 20.6099L25.81 20.8899C25.26 20.7999 24.74 20.7999 24.33 21.0499C23.98 21.2599 23.94 21.5699 24.15 21.9699C26.01 25.4299 31.43 26.1899 37.87 25.6899C38.53 25.6399 38.69 25.3399 38.77 25.0199C39.33 22.7899 40.34 20.7999 41.85 19.2799C40.68 19.4399 39.58 19.4799 38.63 19.5299C35.3 19.7399 33.4 19.2999 32.81 18.8299L32.92 18.5399C33.27 18.6599 33.64 18.6899 33.72 18.5899C33.82 18.4499 33.74 18.3599 33.58 18.2199C32.95 17.6299 30.11 14.7199 30.12 14.7399C29.81 12.2799 26.23 12.1899 24.8 14.6099L24.31 14.4799C24.45 13.9499 24.66 13.5199 24.86 13.1999C21.87 13.8799 20.17 16.5599 19.86 19.1499C18.53 30.2899 35.44 27.7199 40.27 32.1799C40.36 32.2499 40.59 32.5799 40.76 32.3699C40.96 31.7699 38.83 29.1699 33.35 27.9599Z" fill="white"/>
<path d="M52.56 44.66C49.82 46.42 44.95 48.84 38.46 49.29C34.77 49.55 30.32 49.07 27.1 48.18C27.05 49.25 26.94 50.36 26.76 51.48C28.57 51.95 31.8 52.56 36.46 52.69C36.25 53.94 34.98 58.19 31.73 60.94C37.66 61.19 43.04 58.88 44.62 55.87C42.96 56.39 40.18 56.93 37.28 56.88C37.43 56.59 37.58 56.29 37.72 55.97C42.71 55.73 48.2 54.09 49.31 50C47.38 51.33 43.11 52.79 38.62 53.03C38.67 52.74 38.72 52.45 38.76 52.15C44.73 51.4 50.91 48.81 52.56 44.66Z" fill="white"/>
</g>
<defs>
<clipPath id="clip0_104_37">
<rect width="429" height="71" fill="white"/>
</clipPath>
</defs>
</svg>
