<svg width="429" height="71" viewBox="0 0 429 71" fill="none" xmlns="http://www.w3.org/2000/svg">
<g clip-path="url(#clip0_104_53)">
<path d="M112.9 18.1H101.4C99.1 18.1 97.2 19.8 97.2 22.4V48.9C97.2 51.6 99.1 53.1 101.4 53.1H112.9C123.1 53.1 131 46 131 35.5C131 25.1 123.1 18.1 112.9 18.1ZM112.9 45H105.7V26.3H112.9C118.7 26.3 122.6 29.8 122.6 35.6C122.6 41.4 118.7 45 112.9 45Z" fill="white"/>
<path d="M153.4 17.8C143.3 17.8 135.5 25.4 135.5 35.6C135.5 45.9 143.3 53.4001 153.4 53.4001C163.5 53.4001 171.3 45.6 171.3 35.5C171.4 25.4 163.6 17.8 153.4 17.8ZM153.4 45.5C147.9 45.5 143.8 41.3 143.8 35.6C143.8 30 147.8 25.8 153.4 25.8C159 25.8 163 30 163 35.6C163 41.3 159.2 45.5 153.4 45.5Z" fill="white"/>
<path d="M192.7 18.1H181.2C178.9 18.1 177 19.8 177 22.4V48.9C177 51.6 178.9 53.1 181.2 53.1H192.7C202.9 53.1 210.8 46 210.8 35.5C210.8 25.1 203 18.1 192.7 18.1ZM192.7 45H185.5V26.3H192.7C198.5 26.3 202.4 29.8 202.4 35.6C202.4 41.4 198.6 45 192.7 45Z" fill="white"/>
<path d="M233.3 17.8C223.2 17.8 215.4 25.4 215.4 35.6C215.4 45.9 223.2 53.4001 233.3 53.4001C243.4 53.4001 251.2 45.6 251.2 35.5C251.2 25.4 243.4 17.8 233.3 17.8ZM233.3 45.5C227.8 45.5 223.8 41.3 223.8 35.6C223.8 30 227.8 25.8 233.3 25.8C238.9 25.8 242.8 30 242.8 35.6C242.8 41.3 239 45.5 233.3 45.5Z" fill="white"/>
<path d="M285.7 18.1H271.6C269.3 18.1 267.4 19.6 267.4 22.3V49.3C267.4 52 269.3 53.5 271.7 53.5C274 53.5 275.9 52 275.9 49.3V43H285.7C293.3 43 298.1 37.6 298.1 30.6C298.2 23.4 293.4 18.1 285.7 18.1ZM285.7 35H275.9V26.1H285.7C288.5 26.1 289.9 28.1 289.9 30.6C290 33 288.5 35 285.7 35Z" fill="white"/>
<path d="M309 17.8C306.6 17.8 304.6 19.4 304.6 22V49.1C304.6 51.8 306.6 53.3001 309 53.3001C311.4 53.3001 313.4 51.7 313.4 49.1V22.1C313.4 19.4 311.4 17.8 309 17.8Z" fill="white"/>
<path d="M348.8 45.1H331.2L348.6 29.4C351.1 27.2 352.1 25.4 352.1 23V22.7C352.1 19.8 350.3 18.1 347.2 18.1H325C322.3 18.1 320.8 20 320.8 22.2C320.8 24.5 322.3 26.1 325 26.1H341.3L324.5 41.2C321.2 44.1 320.4 45.9 320.4 48V48.4C320.4 51.2 322.2 53 325.3 53H348.8C351.5 53 353 51.2 353 48.9C353 46.7 351.5 45.1 348.8 45.1Z" fill="white"/>
<path d="M385.6 45.1H368L385.4 29.4C387.9 27.2 388.9 25.4 388.9 23V22.7C388.9 19.8 387.1 18.1 384 18.1H361.8C359.1 18.1 357.6 20 357.6 22.2C357.6 24.5 359.1 26.1 361.8 26.1H378.1L361.3 41.2C358 44.1 357.2 45.9 357.2 48V48.4C357.2 51.2 359 53 362.1 53H385.6C388.3 53 389.8 51.2 389.8 48.9C389.8 46.7 388.3 45.1 385.6 45.1Z" fill="white"/>
<path d="M428.1 47.2L416.6 22.1C415.3 19.3 413.5 18.1 410.9 18.1H410.4C407.7 18.1 405.9 19.3 404.6 22.1L393.1 47.2C392 49.7 392.8 51.9 395 52.7C397 53.5 399.1 53 400.2 50.7L402.8 45.2C405.1 46 408 46.4 410.7 46.4C413.6 46.4 416.1 46 418.3 45.2L420.8 50.6C421.9 53 424.1 53.4 426.1 52.7C428.3 51.9 429.2 49.5 428.1 47.2ZM410.7 38.9C408.9 38.9 407.1 38.7 405.7 38.3L410.6 27.3L415.5 38.3C414.2 38.6 412.5 38.9 410.7 38.9Z" fill="white"/>
<path d="M32.2 0.599976C52.6 0.599976 68.2 14.6 68.2 35.4C68.2 56.3 52.5 70.6 32.2 70.6H9.29999C4.69999 70.6 0.799988 67.5 0.799988 62.2V9.29998C0.799988 3.99998 4.59999 0.599976 9.29999 0.599976H32.2Z" fill="#FF6900"/>
<path d="M11.8 70.5999C17.6 67.3999 20.6 64.3999 22.6 61.5999C26.5 63.3999 30.3 64.0999 33.7 64.0999C40.1 64.0999 45.5 61.1999 48.3 55.8999C51.2 54.0999 53.1 50.5999 53.3 47.9999C55.1 45.6999 55.5 42.7999 54.9 40.8999C54.8 40.3999 54.4 40.3999 53.7 40.7999C48 44.1999 42.4 45.8999 37.1 45.8999C33.9 45.8999 30.6 45.3999 27.1 44.3999C26.9 40.5999 26.1 37.4999 25.8 35.5999C25.4 33.0999 26 31.1999 28.7 31.1999C30.7 31.1999 34.5 31.6999 37.5 33.0999C40.5 34.3999 42.3 37.0999 43.5 37.0999C44 37.0999 44.5 36.7999 44.5 35.6999C44.5 33.4999 43.7 30.0999 42.8 28.7999C45.6 28.5999 47.8 28.6999 49 28.7999C51.6 29.2999 51.7 30.4999 52.2 31.3999C52.7 32.1999 53.6 32.5999 54.6 32.5999C56.5 32.5999 57.7 31.5999 57.7 27.9999C57.7 20.0999 52.7 16.2999 47.5 16.2999C43.2 16.2999 41.6 17.1999 37.5 17.1999C34.6 17.1999 32.2 11.2999 28.9 10.4999C27.4 7.29993 24.2 6.89993 22.2 8.49993C20.4 7.39993 17.5 7.99993 17.4 9.99993C15.3 9.29993 12.6 10.4999 13.8 13.1999C8.69998 13.3999 7.69998 17.8999 11.2 18.3999C6.69998 20.8999 8.79998 25.2999 12.5 24.3999C12.8 27.4999 14 32.4999 14 35.9999C14 40.7999 11.8 41.8999 8.79998 41.8999C6.39998 41.8999 2.99998 40.9999 0.599976 40.3999V43.6999C2.99998 44.2999 6.49998 44.9999 9.19998 44.9999C13.9 44.9999 16.5 42.1999 16.5 36.9999C16.5 30.5999 14.4 24.6999 15.1 20.9999L14.9 20.7999C12.6 23.2999 11 22.5999 10.9 21.7999C10.6 20.1999 13.3 18.2999 14.9 17.5999C14.9 17.4999 15 17.3999 15 17.2999C13.5 17.4999 11.8 17.2999 11.7 16.2999C11.6 15.0999 14.1 13.8999 17.4 14.1999C17.5 14.1999 17.5 14.0999 17.6 13.9999C17.4 13.8999 17.2 13.7999 16.9 13.6999C16.1 13.2999 15.9 12.4999 16.1 11.9999C16.4 11.3999 17.3 11.1999 18.1 11.1999C19.3 11.1999 20.3 11.4999 21 11.7999C21.1 11.7999 21.2 11.6999 21.2 11.6999C20.9 11.4999 20.7 11.2999 20.5 10.9999C20.3 10.6999 20.3 10.1999 20.6 9.89993C21.1 9.49993 22.2 9.39993 23.3 10.3999C23.5 10.5999 23.7 10.7999 23.9 10.9999C24 10.9999 24.1 10.9999 24.2 10.8999C24 10.5999 23.9 10.3999 23.8 10.0999C23.7 9.79993 23.8 9.39993 24.3 9.19993C24.8 8.99993 25.3 9.29993 25.6 9.69993C25.9 10.1999 26.1 10.7999 26.2 11.1999C23.9 11.4999 17.7 12.8999 17.7 20.2999C17.7 27.4999 23.7 35.0999 23.7 46.2999C23.7 50.3999 22.8 54.4999 19.1 59.1999C16.3 62.8999 11.7 66.3999 4.69998 69.2999C5.89998 69.8999 7.29998 70.1999 8.79998 70.1999L11.8 70.5999ZM40.1 25.0999C40.8 22.9999 41.4 21.3999 42.6 20.1999C43.8 18.8999 45.2 18.4999 48.1 18.4999C52.2 18.4999 55.6 22.5999 55.6 28.3999C55.6 29.1999 54.4 29.1999 54.1 28.4999C52.7 26.0999 50.8 25.6999 47.9 25.4999C45.7 25.3999 43.1 25.5999 40.7 25.6999C40.1 25.5999 40 25.2999 40.1 25.0999ZM27.1 48.1999C30.3 49.0999 34.8 49.5999 38.5 49.2999C45 48.7999 49.9 46.3999 52.6 44.6999C50.9 48.8999 44.8 51.3999 38.8 52.1999C38.8 52.4999 38.7 52.7999 38.7 53.0999C43.2 52.8999 47.5 51.3999 49.4 50.0999C48.3 54.1999 42.8 55.7999 37.8 56.0999C37.7 56.3999 37.5 56.6999 37.4 56.9999C40.3 57.0999 43.1 56.4999 44.7 55.9999C43.2 58.7999 38.1 61.0999 32.8 61.0999C30.2 61.0999 27 60.5999 24.2 59.2999C26.2 55.3999 27 51.6999 27.1 48.1999Z" fill="black"/>
<path d="M0.799988 54.2C3.29999 53.7 5.69999 53.3 5.69999 53.3L5.99999 52C4.89999 51.9 2.69999 52 0.799988 52C0.799988 51.9 0.799988 54.2 0.799988 54.2Z" fill="black"/>
<path d="M27.3 14.6C28.2 14.3 29.4 15.2 30.1 16.5C30.8 17.8 30.6 19.1 29.7 19.4C28.9 19.7 27.6 18.9 27 17.5C26.9 17.3 26.8 17.1 26.8 17H27C27.3 17.3 27.6 17.3 27.8 17.2C28.1 17 28.1 16.5 27.8 16C27.6 15.6 27.2 15.2 26.8 15.3L26.7 15.2C26.9 14.9 27.1 14.7 27.3 14.6ZM33.3 28C29.5 27.2 25.3 26 23 22.7C23 22.6 22.9 22.6 22.8 22.6C22.7 22.6 22.7 22.7 22.7 22.8C22.7 23 22.7 23.2 22.8 23.4L22.5 23.5C21.9 22.7 21.8 21.7 22.4 20.9C23.2 19.9 25 20 26 20.6L25.9 20.9C25.4 20.8 24.8 20.8 24.4 21.1C24.1 21.3 24 21.6 24.2 22C26.1 25.5 31.5 26.2 37.9 25.7C38.6 25.7 38.7 25.4 38.8 25C39.4 22.8 40.4 20.8 41.9 19.3C40.7 19.5 39.6 19.5 38.7 19.5C35.4 19.7 33.5 19.3 32.9 18.8L33 18.5C33.3 18.6 33.7 18.7 33.8 18.5C33.9 18.4 33.8 18.3 33.7 18.1C33.1 17.5 30.2 14.6 30.2 14.6C29.9 12.1 26.3 12.1 24.9 14.5L24.4 14.4C24.5 13.9 24.7 13.4 24.9 13.1C21.9 13.8 20.2 16.5 19.9 19.1C18.6 30.2 35.5 27.7 40.3 32.1C40.4 32.2 40.6 32.5 40.8 32.3C41 31.8 38.8 29.2 33.3 28Z" fill="white"/>
<path d="M52.6 44.7C49.9 46.5 45 48.9 38.5 49.3C34.8 49.6 30.4 49.1 27.1 48.2C27.1 49.3 26.9 50.4 26.8 51.5C28.6 52 31.8 52.6 36.5 52.7C36.3 53.9 35 58.2 31.8 60.9C37.7 61.1 43.1 58.8 44.7 55.8C43 56.3 40.3 56.9 37.4 56.8C37.6 56.5 37.7 56.2 37.8 55.9C42.8 55.7 48.3 54 49.4 49.9C47.5 51.2 43.2 52.7 38.7 52.9C38.8 52.6 38.8 52.3 38.8 52C44.7 51.4 50.9 48.8 52.6 44.7Z" fill="white"/>
</g>
<defs>
<clipPath id="clip0_104_53">
<rect width="429" height="71" fill="white"/>
</clipPath>
</defs>
</svg>
