<?xml version="1.0" encoding="utf-8"?>
<!-- Generator: Adobe Illustrator 22.0.1, SVG Export Plug-In . SVG Version: 6.00 Build 0)  -->
<svg version="1.1" id="Слой_1" xmlns="http://www.w3.org/2000/svg" xmlns:xlink="http://www.w3.org/1999/xlink" x="0px" y="0px"
	 viewBox="0 0 593.2 200" style="enable-background:new 0 0 593.2 200;" xml:space="preserve">
<style type="text/css">
	.st0{fill:#FF6900;}
	.st1{fill:#FFFFFF;}
</style>
<g>
	<g>
		<path class="st0" d="M89.4,0c58.3,0,102.9,40,102.9,99.4c0,59.7-44.9,100.6-102.9,100.6H24c-13.1,0-24-8.9-24-24V24.9
			C0,9.7,10.9,0,24,0H89.4z"/>
		<path d="M14.9,146.6c-4.9-0.3-9.7-0.3-14.9,0v6.6c8.6-1.7,14-2.9,14-2.9L14.9,146.6z M153.4,52.6c-5.7-5.1-13.1-7.7-19.7-7.7
			c-9.4,0-17.1,2.6-28.6,2.6C97.1,48,90,30.6,80.6,28.6c-4-9.1-13.4-10.3-19.1-5.7c-5.1-3.1-13.4-1.4-13.7,4.3
			c-6-1.7-13.7,1.4-10.3,9.1C22.6,37.1,20,50,30,51.7c-12.9,7.1-7.1,19.4,3.7,16.9c2,18.6,10.6,43.1-3.4,49.1
			c-1.7,0.6-7.7,2-19.7-0.6c-3.7-0.9-7.1-1.7-10.6-2.9v9.7c10.3,2.6,20.6,4.3,27.1,3.7c18-2,18.9-16.9,18-30
			c-0.9-12.6-5.4-28-3.7-38.3l-0.6-0.6C34.3,66,29.7,64,29.4,61.7c-0.9-4.6,6.9-10,11.4-12c0-0.3,0.3-0.6,0.3-0.9
			c-4.3,0.6-9.1,0-9.4-2.9c-0.3-3.4,6.9-6.9,16.3-6c0.3-0.3,0.3-0.3,0.6-0.6c-0.6-0.3-1.1-0.6-2-0.9c-2.3-1.1-3.1-3.4-2.3-4.9
			c0.9-1.7,3.4-2.3,5.7-2.3c3.4,0,6.3,0.9,8.3,1.7c0.3,0,0.6-0.3,0.6-0.3c-0.9-0.6-1.4-1.1-1.7-2c-0.6-0.9-0.9-2.3,0.3-3.1
			c1.4-1.1,4.6-1.4,7.7,1.4c0.6,0.6,1.1,1.1,1.7,1.7c0.3,0,0.6,0,1.1-0.3c-0.6-0.9-0.9-1.4-1.1-2.3c-0.3-1.1,0.3-2,1.4-2.6
			c1.4-0.3,2.9,0.3,3.7,1.4c0.9,1.4,1.4,3.1,1.7,4.3c-6.6,0.9-14.3,3.1-19.1,9.7l0,0l0,0l0,0C50,47.4,48,57.4,50.9,66.6
			c1.7,9.7,5.7,18.9,9.1,28l0,0l0,0c0,0,0,0,0,0.3l0,0c7.4,21.7,21.7,74.6-48,102.9c4,1.4,8,2.3,12,2.3h7.1
			c14.3-7.7,24-16.3,30.9-25.7c31.7,14,60.9,6.9,73.4-16.3c8.3-4.9,13.7-15.1,14.3-22.6c5.1-6.6,6-14.9,4.6-20.3
			c-0.3-1.4-1.4-1.4-3.4-0.3c-26,15.4-48.9,18-76,10.3C74,114.3,72,105.4,71.1,100C70.3,89.1,74,83.7,94,90.3
			c12.9,3.4,18.9,9.4,23.7,12.6c2.3,1.7,4.9,3.4,6.6,2.3c1.1-0.6,1.1-2.6,1.1-4.9c-0.3-6-2.9-16-5.7-19.7c8-0.6,14.3-0.3,17.7,0
			c7.4,1.4,8,5.1,9.1,6.9c2.3,6.3,14.3,4.9,15.4-0.9C163.4,77.1,164.3,62.6,153.4,52.6z M74.9,136c9.1,2.6,22,4,32.6,3.1
			c18.6-1.4,32.6-8.3,40.3-13.1c-4.6,12-22.3,19.1-39.4,21.4c0,0.9-0.3,1.7-0.3,2.6c12.9-0.6,25.1-4.9,30.6-8.6
			c-3.1,11.7-18.9,16.3-33.1,17.1c-0.3,0.9-0.9,1.7-1.1,2.6c8.3,0.3,16.3-1.4,20.9-2.9c-6.3,12.3-34.9,20.6-58.6,9.4
			C72.3,156.6,74.6,146,74.9,136z M156.3,79.4c-0.3,2.6-3.1,2.3-4.3,0.3c-4-6.9-9.4-8-17.7-8.6c-6.3-0.3-13.7,0.3-20.6,0.6
			c-1.1,0-1.7-0.9-1.4-1.4c1.4-5.7,6.3-16.9,11.4-17.7c2.6-0.3,8-1.1,11.1-1.1C149.1,51.4,156.9,67.7,156.3,79.4z"/>
		<path class="st1" d="M76,40c2.3-0.9,5.4,1.4,7.1,4.9c1.7,3.4,1.4,6.9-0.9,7.7c-2.3,0.9-5.4-1.4-7.1-4.9c-0.3-0.6-0.3-0.9-0.6-1.4
			h0.3c0.9,0.6,1.7,0.9,2.3,0.6c0.9-0.6,0.6-2,0-3.1c-0.6-0.9-1.7-2-2.6-2l-0.3-0.3C74.9,40.9,75.1,40.3,76,40 M92.9,78.3
			C82,76,69.7,72.6,63.4,63.1c0-0.3-0.3-0.3-0.6-0.3c-0.3,0-0.3,0.3-0.3,0.6c0,0.6,0,1.1,0.3,1.7L62,65.4c-1.7-2.3-2-5.1-0.3-7.4
			c2.3-2.9,7.4-2.6,10.3-0.9L71.4,58c-1.4-0.3-3.1-0.3-4.3,0.6c-0.9,0.6-1.1,1.4-0.6,2.6c5.4,10,20.9,12,39.1,10.6
			c2-0.3,2.3-1.1,2.6-2c1.7-6.3,4.6-12,8.9-16.3c-3.4,0.6-6.6,0.6-9.1,0.9c-9.4,0.6-14.9-0.6-16.6-2l0.3-0.9c1.1,0.3,2,0.3,2.3,0
			c0.3-0.3,0-0.6-0.3-1.1c-1.7-1.7-10-10-10-10c-0.9-6.9-11.1-7.1-15.1-0.3l-1.4-0.3c0.3-1.4,1.1-2.9,1.7-3.7
			c-8.6,2-13.4,9.7-14.3,17.1c-3.7,32,44.6,24.6,58.3,37.1c0.3,0.3,0.9,1.1,1.4,0.6C114.6,89.1,108.6,81.7,92.9,78.3"/>
		<path class="st1" d="M147.7,126c-7.7,5.1-21.7,12-40.3,13.1c-10.6,0.9-23.1-0.6-32.6-3.1c0,3.1-0.6,6.3-0.9,9.4
			c5.1,1.4,14.3,3.1,27.7,3.4c-0.6,3.7-4.3,15.7-13.4,23.7c16.9,0.6,32.3-6,36.9-14.6c-4.9,1.4-12.6,3.1-20.9,2.9
			c0.6-0.9,0.9-1.7,1.1-2.6c14.3-0.6,30-5.4,33.1-17.1c-5.4,3.7-17.7,8-30.6,8.6c0.3-0.9,0.3-1.7,0.3-2.6
			C125.4,145.1,143.1,137.7,147.7,126"/>
	</g>
	<g>
		<g>
			<path d="M268.3,19.7h-20.9c-4.3,0-7.7,3.1-7.7,8v48c0,4.9,3.4,7.4,7.7,7.4h20.9c18.6,0,32.9-12.9,32.9-31.7
				C300.9,32.3,286.9,19.7,268.3,19.7z M268.3,68.3h-13.1v-34h13.1c10.6,0,17.7,6.3,17.7,16.9S278.9,68.3,268.3,68.3z"/>
			<path d="M412.6,19.7h-20.9c-4.3,0-7.7,3.1-7.7,8v48c0,4.9,3.4,7.4,7.7,7.4h20.9c18.6,0,32.9-12.9,32.9-31.7
				C445.4,32.3,431.1,19.7,412.6,19.7z M412.6,68.3h-13.1v-34h13.1c10.6,0,17.7,6.3,17.7,16.9S423.1,68.3,412.6,68.3z"/>
			<path d="M486,19.1c-18.3,0-32.6,13.7-32.6,32.3s14,32.3,32.6,32.3c18.3,0,32.6-14,32.6-32.6C518.6,32.9,504.3,19.1,486,19.1z
				 M486,69.1c-10,0-17.4-7.4-17.4-18c0-10,7.1-17.7,17.4-17.7c10,0,17.4,7.4,17.4,17.7C503.4,61.7,496.6,69.1,486,69.1z"/>
			<path d="M341.4,19.1c-18.3,0-32.6,13.7-32.6,32.3s14,32.3,32.6,32.3c18.3,0,32.6-14,32.6-32.6C374,32.9,360,19.1,341.4,19.1z
				 M341.4,69.1c-10,0-17.4-7.4-17.4-18c0-10,7.1-17.7,17.4-17.7c10,0,17.4,7.4,17.4,17.7C358.9,61.7,352,69.1,341.4,69.1z"/>
		</g>
		<g>
			<path d="M273.1,116.3h-25.7c-4.3,0-7.4,2.9-7.4,7.4v48.9c0,4.9,3.4,7.4,7.7,7.4c4.3,0,7.4-2.9,7.4-7.4v-11.4h17.7
				c13.7,0,22.6-9.7,22.6-22.6C295.7,126,287.1,116.3,273.1,116.3z M273.1,146.9h-17.7v-16h17.7c5.1,0,7.7,3.7,7.7,8
				C280.9,143.4,278.3,146.9,273.1,146.9z"/>
			<path d="M315.4,116c-4.3,0-8,2.9-8,7.7v49.1c0,4.9,3.7,7.7,8,7.7c4.3,0,8-2.9,8-7.7v-49.1C323.4,118.9,319.7,116,315.4,116z"/>
			<path d="M387.4,165.1h-31.7l31.4-28.3c4.6-4,6.3-7.1,6.3-11.4v-0.6c0-5.1-3.1-8.3-8.9-8.3h-40.3c-4.9,0-7.4,3.4-7.4,7.4
				c0,4.3,2.9,7.1,7.4,7.1h29.4l-30.3,27.4c-6,5.4-7.4,8.6-7.4,12.3v0.6c0,5.1,3.1,8.3,8.9,8.3h42.6c4.9,0,7.4-3.1,7.4-7.4
				C395.1,168.3,392.3,165.1,387.4,165.1z"/>
			<path d="M454,165.1h-31.7l31.4-28.3c4.6-4,6.3-7.1,6.3-11.4v-0.6c0-5.1-3.1-8.3-8.9-8.3h-40.3c-4.9,0-7.4,3.4-7.4,7.4
				c0,4.3,2.9,7.1,7.4,7.1h29.4L410,158.6c-6,5.4-7.4,8.6-7.4,12.3v0.6c0,5.1,3.1,8.3,8.9,8.3H454c4.9,0,7.4-3.1,7.4-7.4
				C461.7,168.3,458.9,165.1,454,165.1z"/>
			<path d="M530.9,169.1L510,123.7c-2.3-5.1-5.7-7.1-10.3-7.1h-0.9c-4.9,0-8.3,2.3-10.6,7.1l-20.9,45.4c-2,4.6-0.6,8.6,3.4,10
				c3.7,1.4,7.4,0.6,9.4-3.7l4.6-10c4.3,1.4,9.4,2.3,14.3,2.3c5.1,0,9.7-0.9,13.7-2.3l4.6,9.7c2,4.3,6,5.1,9.4,3.7
				C531.1,177.4,532.9,173.4,530.9,169.1z M499.4,154c-3.1,0-6.6-0.3-9.1-1.1l8.9-19.7l8.9,19.7C505.7,153.4,502.6,154,499.4,154z"
				/>
		</g>
	</g>
</g>
</svg>
