<svg id="Layer_1" data-name="Layer 1" xmlns="http://www.w3.org/2000/svg" viewBox="0 0 1024 1024"><defs><style>.cls-1{fill:#fff;}</style></defs><title>google</title><path class="cls-1" d="M1013.88,523.77a602.15,602.15,0,0,0-8.84-104H522.11V616.89H798.66A237,237,0,0,1,696.32,772.47V900.4h165c96.88-89.17,152.57-220.86,152.57-376.63Z"/><path class="cls-1" d="M522.11,1024c138.09,0,254.54-45.34,339.39-123.6l-165-127.93C650.6,803.7,591.34,821.39,522.3,821.39c-133.57,0-246.82-90.12-287.46-211.27H64.58V742A512.07,512.07,0,0,0,522.11,1024Z"/><path class="cls-1" d="M234.65,610.12a306.63,306.63,0,0,1,0-196V282.21H64.58a512.49,512.49,0,0,0,0,459.79Z"/><path class="cls-1" d="M522.11,202.63a278.23,278.23,0,0,1,196.41,76.76L864.69,133.21A492.06,492.06,0,0,0,522.11,0,511.9,511.9,0,0,0,64.58,282.21L234.65,414.09C275.1,292.74,388.54,202.63,522.11,202.63Z"/></svg>