<svg width="468" height="71" viewBox="0 0 468 71" fill="none" xmlns="http://www.w3.org/2000/svg">
<g clip-path="url(#clip0_104_2)">
<path d="M32.067 0.541016C52.45 0.541016 68.105 14.563 68.105 35.371C68.105 56.291 52.451 70.54 32.067 70.54H9.20597C4.58897 70.54 0.758972 67.487 0.758972 62.172V9.24802C0.758972 3.93302 4.58797 0.541016 9.20597 0.541016H32.067Z" fill="#FF6900"/>
<path d="M11.734 70.5469C17.582 67.3089 20.483 64.3419 22.493 61.5569C26.409 63.3019 30.178 64.0519 33.574 64.0519C39.94 64.0519 45.367 61.1199 48.196 55.8889C51.108 54.1409 53.039 50.5479 53.16 47.9809C54.974 45.6989 55.309 42.8189 54.752 40.8749C54.619 40.4109 54.242 40.3979 53.59 40.7949C47.853 44.2339 42.298 45.8729 36.996 45.8729C33.781 45.8729 30.484 45.3619 26.976 44.3469C26.726 40.5859 25.953 37.4339 25.666 35.5229C25.256 32.9989 25.839 31.132 28.609 31.132C30.641 31.132 34.401 31.6479 37.405 33.0139C40.381 34.3669 42.151 37.0309 43.388 37.0309C43.89 37.0309 44.419 36.7189 44.419 35.6559C44.419 33.5019 43.651 30.0339 42.696 28.7989C45.48 28.6399 47.692 28.6679 48.936 28.8089C51.528 29.2599 51.65 30.5609 52.161 31.4089C52.671 32.2569 53.537 32.6269 54.578 32.6269C56.506 32.6269 57.708 31.6329 57.708 28.0429C57.708 20.1579 52.731 16.3369 47.51 16.3369C43.224 16.3369 41.569 17.2799 37.499 17.2799C34.612 17.2799 32.22 11.4059 28.939 10.6329C27.49 7.40995 24.24 7.04595 22.238 8.66595C20.42 7.55995 17.578 8.15595 17.461 10.1979C15.37 9.55095 12.669 10.6789 13.833 13.4269C8.72001 13.5719 7.76601 18.0929 11.235 18.5979C6.76901 21.1259 8.81001 25.4909 12.558 24.5629C12.822 27.6639 14.079 32.6699 14.079 36.1279C14.079 40.9359 11.898 42.0519 8.91701 42.0519C6.56101 42.0519 3.10301 41.1959 0.76001 40.5279V43.8799C3.13101 44.4699 6.68701 45.2259 9.35501 45.2259C14.054 45.2259 16.661 42.4689 16.661 37.2189C16.661 30.7719 14.598 24.9109 15.275 21.2389L15.11 21.0259C12.762 23.4759 11.236 22.8279 11.069 22.0389C10.734 20.4589 13.483 18.5259 15.053 17.8539C15.083 17.7509 15.123 17.6429 15.166 17.5339C13.697 17.7609 11.971 17.5749 11.911 16.5229C11.84 15.2759 14.342 14.1629 17.612 14.4399C17.674 14.3879 17.738 14.3359 17.801 14.2829C17.595 14.2009 17.376 14.0979 17.1 13.9559C16.255 13.5209 16.049 12.7969 16.326 12.2719C16.629 11.6949 17.553 11.4689 18.304 11.4849C19.481 11.5099 20.482 11.7949 21.214 12.0919C21.297 12.0569 21.38 12.0219 21.459 11.9919C21.187 11.7799 20.951 11.5479 20.813 11.3119C20.611 10.9649 20.561 10.4879 20.953 10.1789C21.41 9.81795 22.571 9.68995 23.62 10.6429C23.837 10.8399 24.021 11.0299 24.187 11.2139C24.304 11.1919 24.421 11.1689 24.54 11.1499C24.367 10.8829 24.229 10.6039 24.184 10.3459C24.123 9.99195 24.238 9.61095 24.654 9.47695C25.108 9.32995 25.682 9.56295 25.981 10.0049C26.301 10.4789 26.496 11.0609 26.619 11.4759C24.306 11.7449 18.171 13.1459 18.171 20.5609C18.171 27.7919 24.178 35.3869 24.178 46.5939C24.168 50.6659 23.27 54.7509 19.578 59.5099C16.727 63.1849 12.198 66.7309 5.13601 69.6419C6.34801 70.2359 7.73701 70.5479 9.20701 70.5479L11.734 70.5469ZM39.999 25.0489C40.705 22.9429 41.32 21.3539 42.466 20.1419C43.674 18.8649 45.016 18.4669 47.961 18.4669C52.028 18.4669 55.426 22.5779 55.426 28.3259C55.426 29.1799 54.28 29.1739 53.912 28.3929C52.528 25.9499 50.654 25.5989 47.703 25.3819C45.525 25.2539 42.897 25.4389 40.504 25.5409C40.056 25.5629 39.931 25.2509 39.999 25.0489ZM27.024 48.1099C30.242 49.0039 34.691 49.4809 38.381 49.2219C44.868 48.7669 49.737 46.3519 52.478 44.5929C50.832 48.7519 44.655 51.3359 38.666 52.0669C38.627 52.3699 38.582 52.6649 38.528 52.9509C43.02 52.7119 47.286 51.2519 49.22 49.9189C48.114 54.0099 42.62 55.6539 37.631 55.8909C37.49 56.2119 37.342 56.5159 37.188 56.8029C40.093 56.8549 42.874 56.3159 44.532 55.7939C43.04 58.6409 37.894 60.8899 32.652 60.8899C30.075 60.8899 26.861 60.3879 24.071 59.0599C26.087 55.3729 26.864 51.5939 27.024 48.1099Z" fill="black"/>
<path d="M0.758972 54.1039C3.21697 53.6159 5.63597 53.163 5.63597 53.163L5.94397 51.8379C4.83397 51.7819 2.63497 51.808 0.758972 51.858V54.1039Z" fill="black"/>
<path d="M27.251 14.532C28.11 14.243 29.344 15.09 30.004 16.418C30.664 17.746 30.501 19.062 29.644 19.345C28.793 19.646 27.564 18.799 26.9 17.465C26.81 17.285 26.74 17.106 26.68 16.93L26.83 16.888C27.105 17.149 27.434 17.221 27.653 17.08C27.955 16.882 27.923 16.355 27.669 15.9C27.487 15.528 27.066 15.137 26.717 15.167L26.656 15.088C26.785 14.822 26.983 14.625 27.251 14.532ZM33.27 27.892C29.425 27.047 25.215 25.931 22.971 22.631C22.929 22.57 22.853 22.542 22.781 22.562C22.71 22.582 22.659 22.647 22.656 22.721C22.648 22.901 22.672 23.098 22.712 23.295L22.407 23.41C21.815 22.577 21.695 21.564 22.281 20.837C23.126 19.79 24.84 19.898 25.863 20.543L25.733 20.825C25.184 20.733 24.661 20.733 24.253 20.981C23.906 21.192 23.858 21.505 24.072 21.903C25.936 25.368 31.355 26.119 37.795 25.618C38.46 25.566 38.613 25.266 38.699 24.946C39.258 22.715 40.272 20.727 41.782 19.21C40.608 19.375 39.516 19.412 38.563 19.464C35.237 19.674 33.335 19.237 32.741 18.763L32.85 18.474C33.204 18.596 33.571 18.623 33.647 18.52C33.751 18.379 33.671 18.291 33.509 18.149C32.878 17.557 30.04 14.649 30.046 14.666C29.739 12.206 26.158 12.118 24.731 14.537L24.246 14.407C24.387 13.876 24.599 13.444 24.797 13.129C21.806 13.805 20.105 16.488 19.797 19.082C18.471 30.226 35.374 27.651 40.204 32.114C40.296 32.186 40.525 32.513 40.691 32.306C40.878 31.699 38.75 29.104 33.27 27.892Z" fill="white"/>
<path d="M52.474 44.587C49.734 46.344 44.86 48.763 38.377 49.218C34.689 49.477 30.235 48.997 27.019 48.104C26.97 49.176 26.861 50.284 26.677 51.401C28.489 51.867 31.717 52.482 36.373 52.613C36.166 53.865 34.894 58.114 31.641 60.861C37.572 61.11 42.947 58.803 44.527 55.788C42.87 56.31 40.086 56.849 37.183 56.797C37.337 56.51 37.485 56.207 37.626 55.885C42.611 55.649 48.11 54.001 49.216 49.913C47.283 51.245 43.013 52.706 38.524 52.945C38.578 52.66 38.623 52.364 38.662 52.061C44.647 51.33 50.828 48.743 52.474 44.587Z" fill="white"/>
<path d="M467.412 47.183L455.965 22.217C454.657 19.491 452.912 18.292 450.296 18.292H449.86C447.134 18.292 445.39 19.491 444.082 22.217L432.635 47.183C431.545 49.69 432.308 51.871 434.597 52.743C436.668 53.506 438.631 53.07 439.83 50.672L442.447 45.221C444.736 45.984 447.68 46.42 450.297 46.42C453.132 46.42 455.748 45.984 457.82 45.221L460.327 50.672C461.417 53.07 463.598 53.507 465.56 52.743C467.63 51.871 468.502 49.582 467.412 47.183ZM450.077 38.897C448.333 38.897 446.479 38.679 445.062 38.243L449.968 27.341L454.874 38.243C453.457 38.679 451.822 38.897 450.077 38.897Z" fill="white"/>
<path d="M426.202 44.8941H424.022V21.9991C424.022 19.3821 422.06 17.8561 419.77 17.8561C417.481 17.8561 415.627 19.3821 415.627 21.9991V44.8941H401.018V21.9991C401.018 19.3821 399.165 17.8561 396.766 17.8561C394.367 17.8561 392.514 19.3821 392.514 21.9991V48.9271C392.514 51.2161 394.04 53.0701 396.657 53.0701H422.059V56.7771C422.059 59.3941 423.912 60.9201 426.202 60.9201C428.6 60.9201 430.345 59.3941 430.345 56.7771V49.0361C430.344 46.3111 428.709 44.8941 426.202 44.8941Z" fill="white"/>
<path d="M383.901 44.8941H381.721V21.9991C381.721 19.3821 379.759 17.8561 377.469 17.8561C375.18 17.8561 373.326 19.3821 373.326 21.9991V44.8941H358.717V21.9991C358.717 19.3821 356.864 17.8561 354.465 17.8561C352.066 17.8561 350.213 19.3821 350.213 21.9991V48.9271C350.213 51.2161 351.739 53.0701 354.356 53.0701H379.758V56.7771C379.758 59.3941 381.611 60.9201 383.901 60.9201C386.299 60.9201 388.044 59.3941 388.044 56.7771V49.0361C388.044 46.3111 386.409 44.8941 383.901 44.8941Z" fill="white"/>
<path d="M336.912 18.1831H336.585C334.077 18.1831 332.442 19.3821 330.698 21.8901L316.961 41.4051V21.9991C316.961 19.3821 315.217 17.8561 312.927 17.8561C310.529 17.8561 308.784 19.3821 308.784 21.9991V48.2731C308.784 51.1081 310.637 52.9611 313.472 52.9611H313.908C316.525 52.9611 318.269 51.6531 319.904 49.2541L333.641 29.7391V49.2541C333.641 51.8711 335.385 53.3971 337.675 53.3971C339.965 53.3971 341.709 51.8711 341.709 49.2541V22.8711C341.709 20.0371 339.965 18.1831 336.912 18.1831Z" fill="white"/>
<path d="M295.92 18.183H272.371C269.645 18.183 268.228 20.036 268.228 22.326V49.254C268.228 51.871 270.19 53.397 272.48 53.397C274.769 53.397 276.623 51.871 276.623 49.254V26.36H291.668V49.255C291.668 51.872 293.521 53.398 295.92 53.398C298.209 53.398 300.172 51.872 300.172 49.146V22.217C300.172 20.037 298.646 18.183 295.92 18.183Z" fill="white"/>
<path d="M234.977 17.9651C224.838 17.9651 217.097 25.5971 217.097 35.7361C217.097 45.9841 224.838 53.5071 234.977 53.5071C245.007 53.5071 252.857 45.7661 252.857 35.6271C252.747 25.3791 245.007 17.9651 234.977 17.9651ZM234.977 45.4391C229.417 45.4391 225.492 41.2961 225.492 35.6271C225.492 30.0671 229.526 25.9241 234.977 25.9241C240.537 25.9241 244.462 30.0671 244.462 35.6271C244.462 41.2961 240.646 45.4391 234.977 45.4391Z" fill="white"/>
<path d="M211.21 44.894H209.03V22.326C209.03 20.037 207.504 18.183 204.887 18.183H185.59C183.3 18.183 181.774 19.709 181.774 22.326V27.777C181.774 31.702 181.665 34.754 181.011 38.025C180.357 41.187 179.485 43.258 178.285 44.893H177.304C174.578 44.893 173.27 46.637 173.27 49.036V56.777C173.27 59.394 175.123 60.92 177.413 60.92C179.811 60.92 181.556 59.394 181.556 56.777V53.07H206.958V56.777C206.958 59.394 208.811 60.92 211.101 60.92C213.499 60.92 215.244 59.394 215.244 56.777V49.036C215.353 46.638 214.044 44.894 211.21 44.894ZM200.635 44.894H186.898C187.77 43.041 188.424 41.405 188.969 39.007C189.514 36.39 189.732 33.774 189.841 30.394L189.95 26.36H200.634L200.635 44.894Z" fill="white"/>
<path d="M154.627 17.9651C144.488 17.9651 136.747 25.5971 136.747 35.7361C136.747 45.9841 144.488 53.5071 154.627 53.5071C164.657 53.5071 172.507 45.7661 172.507 35.6271C172.507 25.3791 164.766 17.9651 154.627 17.9651ZM154.627 45.4391C149.067 45.4391 145.142 41.2961 145.142 35.6271C145.142 30.0671 149.176 25.9241 154.627 25.9241C160.187 25.9241 164.112 30.0671 164.112 35.6271C164.112 41.2961 160.406 45.4391 154.627 45.4391Z" fill="white"/>
<path d="M130.642 44.894H128.462V22.326C128.462 20.037 126.936 18.183 124.319 18.183H105.022C102.733 18.183 101.206 19.709 101.206 22.326V27.777C101.206 31.702 101.206 34.754 100.443 38.025C99.789 41.187 98.917 43.258 97.717 44.893H96.845C94.119 44.893 92.811 46.637 92.811 49.036V56.777C92.811 59.394 94.664 60.92 96.954 60.92C99.352 60.92 101.097 59.394 101.097 56.777V53.07H126.5V56.777C126.5 59.394 128.353 60.92 130.643 60.92C133.041 60.92 134.786 59.394 134.786 56.777V49.036C134.785 46.638 133.477 44.894 130.642 44.894ZM120.067 44.894H106.33C107.202 43.041 107.856 41.405 108.401 39.007C108.946 36.39 109.164 33.774 109.273 30.394L109.382 26.36H120.066L120.067 44.894Z" fill="white"/>
</g>
<defs>
<clipPath id="clip0_104_2">
<rect width="468" height="71" fill="white"/>
</clipPath>
</defs>
</svg>
