<svg width="468" height="71" viewBox="0 0 468 71" fill="none" xmlns="http://www.w3.org/2000/svg">
<g clip-path="url(#clip0_101_2)">
<path d="M32.067 0.541016C52.45 0.541016 68.105 14.563 68.105 35.371C68.105 56.291 52.451 70.54 32.067 70.54H9.20601C4.589 70.54 0.759003 67.487 0.759003 62.172V9.24802C0.759003 3.93302 4.58801 0.541016 9.20601 0.541016H32.067Z" fill="#FF6900"/>
<path d="M11.734 70.547C17.582 67.309 20.483 64.342 22.493 61.557C26.409 63.302 30.178 64.052 33.574 64.052C39.94 64.052 45.367 61.12 48.196 55.889C51.108 54.141 53.039 50.548 53.16 47.981C54.974 45.699 55.309 42.819 54.752 40.875C54.619 40.411 54.242 40.398 53.59 40.795C47.853 44.234 42.298 45.873 36.996 45.873C33.781 45.873 30.484 45.362 26.976 44.347C26.726 40.586 25.953 37.434 25.666 35.523C25.256 32.999 25.839 31.132 28.609 31.132C30.641 31.132 34.401 31.648 37.405 33.014C40.381 34.367 42.151 37.031 43.388 37.031C43.89 37.031 44.419 36.719 44.419 35.656C44.419 33.502 43.651 30.034 42.696 28.799C45.48 28.64 47.692 28.668 48.936 28.809C51.528 29.26 51.65 30.561 52.161 31.409C52.671 32.257 53.537 32.627 54.578 32.627C56.506 32.627 57.708 31.633 57.708 28.043C57.708 20.158 52.731 16.337 47.51 16.337C43.224 16.337 41.569 17.28 37.499 17.28C34.612 17.28 32.22 11.406 28.939 10.633C27.49 7.41001 24.24 7.04601 22.238 8.66601C20.42 7.56001 17.578 8.15601 17.461 10.198C15.37 9.55101 12.669 10.679 13.833 13.427C8.72001 13.572 7.76601 18.093 11.235 18.598C6.76901 21.126 8.81001 25.491 12.558 24.563C12.822 27.664 14.079 32.67 14.079 36.128C14.079 40.936 11.898 42.052 8.91701 42.052C6.56101 42.052 3.10301 41.196 0.76001 40.528V43.88C3.13101 44.47 6.68701 45.226 9.35501 45.226C14.054 45.226 16.661 42.469 16.661 37.219C16.661 30.772 14.598 24.911 15.275 21.239L15.11 21.026C12.762 23.476 11.236 22.828 11.069 22.039C10.734 20.459 13.483 18.526 15.053 17.854C15.083 17.751 15.123 17.643 15.166 17.534C13.697 17.761 11.971 17.575 11.911 16.523C11.84 15.276 14.342 14.163 17.612 14.44C17.674 14.388 17.738 14.336 17.801 14.283C17.595 14.201 17.376 14.098 17.1 13.956C16.255 13.521 16.049 12.797 16.326 12.272C16.629 11.695 17.553 11.469 18.304 11.485C19.481 11.51 20.482 11.795 21.214 12.092C21.297 12.057 21.38 12.022 21.459 11.992C21.187 11.78 20.951 11.548 20.813 11.312C20.611 10.965 20.561 10.488 20.953 10.179C21.41 9.81801 22.571 9.69001 23.62 10.643C23.837 10.84 24.021 11.03 24.187 11.214C24.304 11.192 24.421 11.169 24.54 11.15C24.367 10.883 24.229 10.604 24.184 10.346C24.123 9.99201 24.238 9.61101 24.654 9.47701C25.108 9.33001 25.682 9.56301 25.981 10.005C26.301 10.479 26.496 11.061 26.619 11.476C24.306 11.745 18.171 13.146 18.171 20.561C18.171 27.792 24.178 35.387 24.178 46.594C24.168 50.666 23.27 54.751 19.578 59.51C16.727 63.185 12.198 66.731 5.13601 69.642C6.34801 70.236 7.73701 70.548 9.20701 70.548L11.734 70.547ZM39.999 25.049C40.705 22.943 41.32 21.354 42.466 20.142C43.674 18.865 45.016 18.467 47.961 18.467C52.028 18.467 55.426 22.578 55.426 28.326C55.426 29.18 54.28 29.174 53.912 28.393C52.528 25.95 50.654 25.599 47.703 25.382C45.525 25.254 42.897 25.439 40.504 25.541C40.056 25.563 39.931 25.251 39.999 25.049ZM27.024 48.11C30.242 49.004 34.691 49.481 38.381 49.222C44.868 48.767 49.737 46.352 52.478 44.593C50.832 48.752 44.655 51.336 38.666 52.067C38.627 52.37 38.582 52.665 38.528 52.951C43.02 52.712 47.286 51.252 49.22 49.919C48.114 54.01 42.62 55.654 37.631 55.891C37.49 56.212 37.342 56.516 37.188 56.803C40.093 56.855 42.874 56.316 44.532 55.794C43.04 58.641 37.894 60.89 32.652 60.89C30.075 60.89 26.861 60.388 24.071 59.06C26.087 55.373 26.864 51.594 27.024 48.11Z" fill="black"/>
<path d="M0.759003 54.104C3.217 53.616 5.63601 53.163 5.63601 53.163L5.944 51.838C4.834 51.782 2.635 51.808 0.759003 51.858V54.104Z" fill="black"/>
<path d="M27.251 14.532C28.11 14.243 29.344 15.09 30.004 16.418C30.664 17.746 30.501 19.062 29.644 19.345C28.793 19.646 27.564 18.799 26.9 17.465C26.81 17.285 26.74 17.106 26.68 16.93L26.83 16.888C27.105 17.149 27.434 17.221 27.653 17.08C27.955 16.882 27.923 16.355 27.669 15.9C27.487 15.528 27.066 15.137 26.717 15.167L26.656 15.088C26.785 14.822 26.983 14.625 27.251 14.532ZM33.27 27.892C29.425 27.047 25.215 25.931 22.971 22.631C22.929 22.57 22.853 22.542 22.781 22.562C22.71 22.582 22.659 22.647 22.656 22.721C22.648 22.901 22.672 23.098 22.712 23.295L22.407 23.41C21.815 22.577 21.695 21.564 22.281 20.837C23.126 19.79 24.84 19.898 25.863 20.543L25.733 20.825C25.184 20.733 24.661 20.733 24.253 20.981C23.906 21.192 23.858 21.505 24.072 21.903C25.936 25.368 31.355 26.119 37.795 25.618C38.46 25.566 38.613 25.266 38.699 24.946C39.258 22.715 40.272 20.727 41.782 19.21C40.608 19.375 39.516 19.412 38.563 19.464C35.237 19.674 33.335 19.237 32.741 18.763L32.85 18.474C33.204 18.596 33.571 18.623 33.647 18.52C33.751 18.379 33.671 18.291 33.509 18.149C32.878 17.557 30.04 14.649 30.046 14.666C29.739 12.206 26.158 12.118 24.731 14.537L24.246 14.407C24.387 13.876 24.599 13.444 24.797 13.129C21.806 13.805 20.105 16.488 19.797 19.082C18.471 30.226 35.374 27.651 40.204 32.114C40.296 32.186 40.525 32.513 40.691 32.306C40.878 31.699 38.75 29.104 33.27 27.892Z" fill="white"/>
<path d="M52.474 44.587C49.734 46.344 44.86 48.763 38.377 49.218C34.689 49.477 30.235 48.997 27.019 48.104C26.97 49.176 26.861 50.284 26.677 51.401C28.489 51.867 31.717 52.482 36.373 52.613C36.166 53.865 34.894 58.114 31.641 60.861C37.572 61.11 42.947 58.803 44.527 55.788C42.87 56.31 40.086 56.849 37.183 56.797C37.337 56.51 37.485 56.207 37.626 55.885C42.611 55.649 48.11 54.001 49.216 49.913C47.283 51.245 43.013 52.706 38.524 52.945C38.578 52.66 38.623 52.364 38.662 52.061C44.647 51.33 50.828 48.743 52.474 44.587Z" fill="white"/>
<path d="M467.412 47.183L455.965 22.217C454.657 19.491 452.912 18.292 450.296 18.292H449.86C447.134 18.292 445.39 19.491 444.082 22.217L432.635 47.183C431.545 49.69 432.308 51.871 434.597 52.743C436.668 53.506 438.631 53.07 439.83 50.672L442.447 45.221C444.736 45.984 447.68 46.42 450.297 46.42C453.132 46.42 455.748 45.984 457.82 45.221L460.327 50.672C461.417 53.07 463.598 53.507 465.56 52.743C467.63 51.871 468.502 49.582 467.412 47.183ZM450.077 38.897C448.333 38.897 446.479 38.679 445.062 38.243L449.968 27.341L454.874 38.243C453.457 38.679 451.822 38.897 450.077 38.897Z" fill="black"/>
<path d="M426.202 44.894H424.022V21.999C424.022 19.382 422.06 17.856 419.77 17.856C417.481 17.856 415.627 19.382 415.627 21.999V44.894H401.018V21.999C401.018 19.382 399.165 17.856 396.766 17.856C394.367 17.856 392.514 19.382 392.514 21.999V48.927C392.514 51.216 394.04 53.07 396.657 53.07H422.059V56.777C422.059 59.394 423.912 60.92 426.202 60.92C428.6 60.92 430.345 59.394 430.345 56.777V49.036C430.344 46.311 428.709 44.894 426.202 44.894Z" fill="black"/>
<path d="M383.901 44.894H381.721V21.999C381.721 19.382 379.759 17.856 377.469 17.856C375.18 17.856 373.326 19.382 373.326 21.999V44.894H358.717V21.999C358.717 19.382 356.864 17.856 354.465 17.856C352.066 17.856 350.213 19.382 350.213 21.999V48.927C350.213 51.216 351.739 53.07 354.356 53.07H379.758V56.777C379.758 59.394 381.611 60.92 383.901 60.92C386.299 60.92 388.044 59.394 388.044 56.777V49.036C388.044 46.311 386.409 44.894 383.901 44.894Z" fill="black"/>
<path d="M336.912 18.183H336.585C334.077 18.183 332.442 19.382 330.698 21.89L316.961 41.405V21.999C316.961 19.382 315.217 17.856 312.927 17.856C310.529 17.856 308.784 19.382 308.784 21.999V48.273C308.784 51.108 310.637 52.961 313.472 52.961H313.908C316.525 52.961 318.269 51.653 319.904 49.254L333.641 29.739V49.254C333.641 51.871 335.385 53.397 337.675 53.397C339.965 53.397 341.709 51.871 341.709 49.254V22.871C341.709 20.037 339.965 18.183 336.912 18.183Z" fill="black"/>
<path d="M295.92 18.183H272.371C269.645 18.183 268.228 20.036 268.228 22.326V49.254C268.228 51.871 270.19 53.397 272.48 53.397C274.769 53.397 276.623 51.871 276.623 49.254V26.36H291.668V49.255C291.668 51.872 293.521 53.398 295.92 53.398C298.209 53.398 300.172 51.872 300.172 49.146V22.217C300.172 20.037 298.646 18.183 295.92 18.183Z" fill="black"/>
<path d="M234.977 17.965C224.838 17.965 217.097 25.597 217.097 35.736C217.097 45.984 224.838 53.507 234.977 53.507C245.007 53.507 252.857 45.766 252.857 35.627C252.747 25.379 245.007 17.965 234.977 17.965ZM234.977 45.439C229.417 45.439 225.492 41.296 225.492 35.627C225.492 30.067 229.526 25.924 234.977 25.924C240.537 25.924 244.462 30.067 244.462 35.627C244.462 41.296 240.646 45.439 234.977 45.439Z" fill="black"/>
<path d="M211.21 44.894H209.03V22.326C209.03 20.037 207.504 18.183 204.887 18.183H185.59C183.3 18.183 181.774 19.709 181.774 22.326V27.777C181.774 31.702 181.665 34.754 181.011 38.025C180.357 41.187 179.485 43.258 178.285 44.893H177.304C174.578 44.893 173.27 46.637 173.27 49.036V56.777C173.27 59.394 175.123 60.92 177.413 60.92C179.811 60.92 181.556 59.394 181.556 56.777V53.07H206.958V56.777C206.958 59.394 208.811 60.92 211.101 60.92C213.499 60.92 215.244 59.394 215.244 56.777V49.036C215.353 46.638 214.044 44.894 211.21 44.894ZM200.635 44.894H186.898C187.77 43.041 188.424 41.405 188.969 39.007C189.514 36.39 189.732 33.774 189.841 30.394L189.95 26.36H200.634L200.635 44.894Z" fill="black"/>
<path d="M154.627 17.965C144.488 17.965 136.747 25.597 136.747 35.736C136.747 45.984 144.488 53.507 154.627 53.507C164.657 53.507 172.507 45.766 172.507 35.627C172.507 25.379 164.766 17.965 154.627 17.965ZM154.627 45.439C149.067 45.439 145.142 41.296 145.142 35.627C145.142 30.067 149.176 25.924 154.627 25.924C160.187 25.924 164.112 30.067 164.112 35.627C164.112 41.296 160.406 45.439 154.627 45.439Z" fill="black"/>
<path d="M130.642 44.894H128.462V22.326C128.462 20.037 126.936 18.183 124.319 18.183H105.022C102.733 18.183 101.206 19.709 101.206 22.326V27.777C101.206 31.702 101.206 34.754 100.443 38.025C99.789 41.187 98.917 43.258 97.717 44.893H96.845C94.119 44.893 92.811 46.637 92.811 49.036V56.777C92.811 59.394 94.664 60.92 96.954 60.92C99.352 60.92 101.097 59.394 101.097 56.777V53.07H126.5V56.777C126.5 59.394 128.353 60.92 130.643 60.92C133.041 60.92 134.786 59.394 134.786 56.777V49.036C134.785 46.638 133.477 44.894 130.642 44.894ZM120.067 44.894H106.33C107.202 43.041 107.856 41.405 108.401 39.007C108.946 36.39 109.164 33.774 109.273 30.394L109.382 26.36H120.066L120.067 44.894Z" fill="black"/>
</g>
<defs>
<clipPath id="clip0_101_2">
<rect width="468" height="71" fill="white"/>
</clipPath>
</defs>
</svg>
