<svg id="Layer_1" data-name="Layer 1" xmlns="http://www.w3.org/2000/svg" viewBox="0 0 1002.76 676.63"><defs><style>.cls-1{fill:#ff6900;}.cls-2,.cls-4,.cls-6{fill:#fff;}.cls-2{stroke:#fff;stroke-miterlimit:10;stroke-width:2.66px;}.cls-3{fill:none;}.cls-3,.cls-5,.cls-6{stroke:#231f20;stroke-linecap:round;stroke-linejoin:round;stroke-width:3.71px;}.cls-5{fill:#231f20;}</style></defs><path class="cls-1" d="M283.56,48.12C275.6,38.2,264,33.05,249,32.81c-18.89-.3-41.84,1.82-57.42,6.49-12.23,3.66-17.8,8.76-29.48,16C140.62,68.7,126,93.12,134.15,140.12c8,45.92,18.09,50.46,22.37,51.06a6.77,6.77,0,0,0,.93.07h.15a1.87,1.87,0,0,0,1.77-2,1.74,1.74,0,0,0-.24-.82l-.24-.33c-5.62-7.9-7.1-20.73-2.86-29,1.56-3.05,4-6.7,7-6.8h.13c3.09,0,6,3.76,6.92,5.23a1.86,1.86,0,0,0,3.19-1.91,16.8,16.8,0,0,0-1.27-1.78c.18-4.06,1.84-26.05,17.54-30.51,10.95-3.11,25.38-9.48,33.27-17.92.32,4,0,9.93-3.83,12.79a1.86,1.86,0,0,0,.85,3.33c.18,0,16.37,2.14,25.36-9.65a11.33,11.33,0,0,1,0,5.37,1.86,1.86,0,0,0,1.89,2.44,74.71,74.71,0,0,0,17.92-3.9c12.4-4.44,26.14-14.79,28.05-24.08C295.7,78.92,294.78,62.1,283.56,48.12Z"/><path class="cls-2" d="M435,575.63c.13-.17,12.06-16.69,6.5-37-4.61-16.91-24.1-18.71-39.64-17.23a98.7,98.7,0,0,0-37.23,11.42c-2.74,1.45-5.63,2.89-8.62,4.29l-.16.07c-25.56,12-59.32,21.81-84.4,28.23-30.38,7.78-54.93,12.33-55.17,12.38a1.84,1.84,0,0,1-1.28-.23c-3-1.76-6.23-6.24-9.33-11.69-2.3,22.56-10.62,39.45-24.81,50.25-9.49,7.22-21.44,11.36-35,12.3,22.09,3.1,38.95.06,50-3.54,14.92-4.87,22.56-11.69,22.63-11.76a1.84,1.84,0,0,1,1.24-.48c1.47,0,114.72-.56,177.55-17.74a1.74,1.74,0,0,1,.74-.2C415.64,589.76,429.19,583.54,435,575.63Z"/><path class="cls-2" d="M220.43,256c-.54-2.05-1.05-4.1-1.56-6.16l-.55-2.22a35.12,35.12,0,0,0-2.08-5.66,42.45,42.45,0,0,1-22.32-11.38c-9.86-9.52-14.86-23.09-17.4-33.94A17,17,0,0,1,170,198a14.8,14.8,0,0,1-2.66-.26c-.67,9.61-3.94,46-15.71,61.31a96.64,96.64,0,0,0,9.27,27.87c9.69,18.25,23.65,26.71,41.49,25.15a38.83,38.83,0,0,0,14.5-3.86C224.9,282.25,222.74,264.71,220.43,256Z"/><path class="cls-2" d="M173.22,171.3a1.82,1.82,0,0,1,1.89-1.81,1.85,1.85,0,0,1,1.82,1.89c0,.38-.54,37.87,19.28,57a38.53,38.53,0,0,0,17.62,9.76c-6.69-12.64-18.36-28-18.51-28.19a1.86,1.86,0,0,1,.37-2.62c10.88-8.1,22.09,5.47,31.09,16.37,5.11,6.19,10.9,13.17,14,12.49a31.26,31.26,0,0,0,4.3-2.65,45.5,45.5,0,0,0,7.44-7.19c1.1-1.32,2.28-2.86,3.49-4.64,6.91-10.48,11.6-24.54,14.79-39.27l2.83-15.67a415.14,415.14,0,0,0,4.18-58.26c-4,2.55-8.68,5.83-12.84,7.32a74.52,74.52,0,0,1-17.92,3.9h-.13a1.86,1.86,0,0,1-1.89-2.44,11,11,0,0,0,0-5.24c-6.78,8.75-17.53,9.74-22.53,9.68a26.34,26.34,0,0,1-2.86-.16,1.85,1.85,0,0,1-.84-3.33c3.63-2.7,4.14-8.4,3.84-12.68-7.91,8.38-22.26,14.72-33.15,17.81-15.71,4.46-17.37,26.45-17.54,30.51a18.71,18.71,0,0,1,1.27,1.78,1.87,1.87,0,0,1-.65,2.55,2,2,0,0,1-2.67-.64c-.84-1.4-3.54-4.87-6.45-5.21h-.09a2.82,2.82,0,0,0-.41,0c-3,.13-5.43,3.76-7,6.8-4.24,8.29-2.77,21.12,2.85,29l.24.33a2.07,2.07,0,0,1,.15.34,20.93,20.93,0,0,0,1.9,2.17c2.95,2.84,7.77,5.45,14.31,2.39A113.47,113.47,0,0,1,173.22,171.3Zm34.87,7.09a2.9,2.9,0,1,1,2.9-2.89A2.89,2.89,0,0,1,208.09,178.39Zm12.42,8.82a2.89,2.89,0,1,1,2.78-3A2.89,2.89,0,0,1,220.51,187.21ZM258.6,179a2.9,2.9,0,1,1,2.9-2.89A2.89,2.89,0,0,1,258.6,179Zm7.82,6.86a2.9,2.9,0,1,1,2.9-2.9A2.9,2.9,0,0,1,266.42,185.88Zm-19-51.66c.15-.09,15.61-8.3,28,5.79a1.86,1.86,0,1,1-2.8,2.44,19,19,0,0,0-23.38-5,1.87,1.87,0,0,1-2.52-.75A1.85,1.85,0,0,1,247.39,134.22Zm-3.87,20.94c.13-.11,13.52-11.14,28.57,2.24a1.86,1.86,0,0,1,.15,2.62,1.87,1.87,0,0,1-2.62.16,23.89,23.89,0,0,0-7.13-4.51,5.93,5.93,0,0,1,1.2,7,5.83,5.83,0,0,1-3.44,3,5.93,5.93,0,0,1-4.06-11.13A17.26,17.26,0,0,0,245.91,158a1.86,1.86,0,0,1-2.39-2.84ZM234.93,185c4.06.06,8.34-.75,8.86-1.64.17-1.79-3.57-13.19-7.15-22.69a1.86,1.86,0,0,1,3.48-1.31c1.83,4.86,7.78,21,7.34,24.53-.54,4.28-8.2,4.82-12,4.82h-.55a1.86,1.86,0,1,1,.05-3.71Zm-7.82,18.62c4.72-3.09,14.3-2.31,15.37-2.21a1.86,1.86,0,0,1-.33,3.7c-2.58-.24-9.92-.4-13,1.62a1.81,1.81,0,0,1-1,.3,1.83,1.83,0,0,1-1.55-.84A1.86,1.86,0,0,1,227.11,203.63Zm-3.05-49.15a1.85,1.85,0,0,1,.17,2.62,1.83,1.83,0,0,1-1.39.63,1.86,1.86,0,0,1-1.23-.46,23.8,23.8,0,0,0-7.22-4.5,5.95,5.95,0,1,1-6.16-1.15,17.07,17.07,0,0,0-10.33,3.62,1.86,1.86,0,1,1-2.42-2.82C195.61,152.31,208.93,141.2,224.06,154.48Zm-30.59-22.26c.13-.12,13.52-11.39,28.55-.22a1.86,1.86,0,0,1-2.22,3,19,19,0,0,0-23.91.05,1.85,1.85,0,0,1-1.2.45,1.86,1.86,0,0,1-1.22-3.26Zm-1.55,44.55a2.89,2.89,0,1,1-2.78,3A2.89,2.89,0,0,1,191.92,176.77Z"/><path class="cls-1" d="M456.38,537.76c5.93,21.72-6.42,38.72-6.95,39.44-4.83,6.56-14.92,12.42-30,17.42l-4.69,1.56,4.93.25c1.52.08,3.24.13,5.1.13,11.12,0,27.56-1.85,40.14-11.1,10.48-7.7,16.72-19.28,18.57-34.42,3.81-31.26-9.66-63.73-21.54-92.39-5.89-14.18-11.45-27.58-14.17-39.23-1.46-6.23-2.85-13.25-4.32-20.7-6.76-34.15-15.17-76.64-39.07-88.82-61.35-31.25-110.35-43.12-119.55-45.19l-.94-.21-5.25,28.86"/><path class="cls-1" d="M449.57,458.65c-5.88-14.18-11.44-27.58-14.17-39.23-1.45-6.23-2.84-13.25-4.31-20.7-6.76-34.15-15.17-76.64-39.07-88.82-61.35-31.25-110.35-43.12-119.55-45.19l-.94-.21-5.25,28.86c-.41,2.59-10,64.28-23.7,129.57-13.39,63.71-26,108.57-37.35,133.32l-.08.18v.19c0,.7,0,1.4-.07,2.09l0,.24.11.22c4.1,8.18,7.62,13.38,10.44,15.44l.32.23.4-.07c4.26-.81,26.91-5.2,54.27-12.2,23.82-6.1,57.58-15.85,83.15-27.7l.38-.18.12-.41A47.32,47.32,0,0,1,358.73,524l.24-.43-.21-.44c-2-4.07-8.89-18.8-15.9-37.45-7.55-20.05-16.69-48.76-17.43-71.72a.93.93,0,0,1,.92-1,.79.79,0,0,1,.63.23.94.94,0,0,1,.31.66c.72,22.7,9.8,51.19,17.29,71.09,6,15.9,11.88,28.9,14.85,35.23l.69,1.46.92-1.32a51.22,51.22,0,0,1,3.59-4.59c7.58-8.58,21.8-18.39,46.51-16.35a.9.9,0,0,1,.63.32.93.93,0,0,1-.78,1.53c-19.15-1.58-34.24,3.67-44.85,15.6a49.87,49.87,0,0,0-8.94,14.53l-.89,2.25,2.17-1.07c1.65-.82,3.21-1.62,4.65-2.38a101.66,101.66,0,0,1,38.28-11.74c23.8-2.25,38.53,4.42,42.59,19.28,5.93,21.72-6.42,38.72-6.95,39.44-4.83,6.56-14.92,12.42-30,17.42l-4.69,1.56,4.93.25c1.52.08,3.24.13,5.1.13,11.12,0,27.56-1.85,40.14-11.1,10.47-7.7,16.72-19.28,18.57-34.42C474.93,519.78,461.46,487.31,449.57,458.65Z"/><path class="cls-3" d="M127.37,626.44c61.1,16.37,92.43-12,92.43-12s189.35-.5,216.78-37.72c0,0,12.68-17.11,6.8-38.63-4.9-18-25-20.18-41.61-18.6a101.12,101.12,0,0,0-37.93,11.63C313.54,557.89,216,575.89,216,575.89c-9.36-5.53-22.62-42.66-22.62-42.66-18.89,7,2.06,34-6.33,40.78s-28.67.89-28.67.89-41.48-10-45.06-2.15c-3.3,7.23,38.35,16.75,38.35,16.75-5.69,2.45-40,3.22-48.65,3.38a12.16,12.16,0,0,0-5.63,1.33c-1.9,1-5,3.81.82,7.48,9.54,6,50.62,2.71,50.62,2.71"/><path class="cls-3" d="M148.75,617.57s-37.34,2.17-43-4.11,5.82-8.13,5.82-8.13"/><polygon class="cls-4" points="123.59 554.04 140.23 579.79 162.67 587.56 197.89 570.8 214.42 530.62 199.26 492.56 146.58 505.49 123.59 554.04"/><path class="cls-1" d="M214.49,313.42a42.86,42.86,0,0,1-12.44,2.82c-19,1.67-34.36-7.62-44.54-26.87A98.9,98.9,0,0,1,148.19,262l-.13-.72-.69.25a450.15,450.15,0,0,0-59,26.89C59.43,304.36,22.69,329.74,12,360.22c-14.88,42.33,6,81.61,21.27,110.29,6.19,11.62,11.53,21.67,13.56,29.91v.06c.21,1.11,21.9,111.09,67.24,122.3a106.68,106.68,0,0,0,25.49,3.29c15.4,0,28.86-4,39.19-11.87,13.53-10.29,21.48-26.58,23.64-48.4l.29-2.94-1.44,2.57c-2.91,5.17-5.76,9-8.48,11.41-11.82,10.43-22.8,12.62-29.92,12.62a31,31,0,0,1-11.94-2.21l-.1,0c-.3-.08-.86-.24-1.61-.5l-.77-.28c-.83-.31-1.81-.72-2.91-1.25a59.4,59.4,0,0,1-11.21-7.9c-.32-.32-.65-.64-1-1a42.7,42.7,0,0,1-3.48-4.17l-.17-.23h0c-1-1.5-1.92-3-2.59-4.15-.22-.4-.44-.79-.65-1.19l-.28-.54c-5.35-10.58-6.95-23.76-4.75-39.24,4.78-33.51,33.9-90.13,59.6-140.08,12.7-24.69,24.69-48,31.11-63.81,1.16-2.85,2.25-5.77,3.25-8.69l.44-1.29Z"/><path class="cls-4" d="M87.41,289.37C58.48,305.3,21.75,330.68,11,361.16c-14.88,42.33,6,81.61,21.27,110.29,6.18,11.63,11.53,21.67,13.55,29.91l0,.06c.21,1.11,21.9,111.09,67.24,122.3A106.66,106.66,0,0,0,138.59,627c1.66,0,3.3,0,4.91-.15A109.94,109.94,0,0,1,123,623.72c-45.35-11.21-67-121.19-67.25-122.3v-.06c-2-8.24-7.37-18.28-13.56-29.91C27,442.77,6.05,403.49,20.94,361.16c10.71-30.48,37.54-55.86,66.47-71.79"/><path class="cls-3" d="M279.22,105.08s5,133.08-50.32,136.2-53.76-69.94-53.76-69.94"/><path class="cls-3" d="M171.55,156.59s-8.86-14.86-17.31,1.68,4.23,46.78,23.35,36.11"/><path class="cls-3" d="M165.35,195.83s-2.4,46.6-16,63.18"/><path class="cls-3" d="M222.26,240.55s-1.08,9.46,6.32,18.92c0,0,18.75,51-26.31,54.93S149.39,259,149.39,259,32.14,299.47,11.14,359.2,38.89,471.48,45.93,500.11c0,0,21.53,111.74,68.16,123.27s88.74-5.82,90.41-67.09"/><path class="cls-3" d="M244.78,156.58s12.12-10.25,26.14,2.21"/><circle class="cls-5" cx="258.47" cy="159.96" r="4.07"/><path class="cls-3" d="M196.75,153.83s12.05-10.33,26.15,2"/><circle class="cls-5" cx="210.45" cy="157.13" r="4.07"/><path class="cls-3" d="M248.34,135.84s14.17-7.74,25.68,5.39"/><path class="cls-3" d="M194.75,133.62S207,123.08,221,133.49"/><path class="cls-3" d="M238.45,160s7.64,20.31,7.23,23.64-10.71,3.2-10.71,3.2"/><path class="cls-3" d="M170,154.49s.15-27.6,18.92-32.93,30.82-14.36,35-20.62c0,0,3.24,13.44-3.94,18.77,0,0,18.08,2.55,25.72-12.28,0,0,2.55,6.25,1.16,10.42,0,0,33.77-2.31,38.09-23.4s-1.74-59.13-42.3-59.78S176.5,45,157.37,56.91C138.64,68.57,113.45,89,126.53,139.66s30.84,49.73,30.84,49.73"/><path class="cls-6" d="M265.64,293.26s-38.72,251.46-73.39,282c-21.71,19.16-40.67,10.14-40.67,10.14s-35.87-8.57-28.67-59.1,71.75-157.12,90.63-203.6c14-34.51,11-57.31,8.45-66.78-.73-2.77-1.41-5.56-2.1-8.35-3.22-12.85-23-38.81-23-38.81,16.17-12,34.44,32.44,44.72,29.1,0,0,22.27-9.09,30.85-53.81L276,164.44s8.88-.75,8.07,11.82-10,70.77-10,70.77Z"/><path class="cls-3" d="M120.38,496.93s-29.82,13.46-32,51"/><path class="cls-3" d="M398.18,596.47s67.11,12.37,74.13-45.24c5.76-47.21-27.58-97.15-35.73-132s-14.28-95.07-43.87-110.13c-69.2-35.25-121.65-45.68-121.65-45.68"/><path class="cls-3" d="M355.19,535.42s9.06-38.86,56.15-35"/><path class="cls-3" d="M24.2,364.84s38-4.24,96.18,49.19"/><path class="cls-3" d="M360.31,523.71S328.05,458.22,326.64,414"/><circle class="cls-1" cx="192.1" cy="179.66" r="2.89"/><circle class="cls-1" cx="208.16" cy="175.5" r="2.89"/><circle class="cls-1" cx="220.46" cy="184.32" r="2.89"/><circle class="cls-1" cx="258.67" cy="176.13" r="2.89"/><circle class="cls-1" cx="266.49" cy="182.98" r="2.89"/><path class="cls-5" d="M242.38,203.27s-9.87-.91-14.19,1.92"/></svg>