<svg id="Layer_1" data-name="Layer 1" xmlns="http://www.w3.org/2000/svg" viewBox="0 0 1002.76 676.63"><defs><style>.cls-1{fill:#ff6900;}.cls-2{fill:#fff;}.cls-3,.cls-4,.cls-6,.cls-7,.cls-8{fill:none;}.cls-3,.cls-4,.cls-5,.cls-6{stroke:#231f20;}.cls-3,.cls-4,.cls-5,.cls-6,.cls-8{stroke-linecap:round;stroke-linejoin:round;}.cls-3{stroke-width:4.18px;}.cls-4{stroke-width:3.67px;}.cls-5,.cls-9{fill:#231f20;}.cls-5{stroke-width:2.68px;}.cls-6{stroke-width:3.95px;}.cls-8{stroke:#fff;stroke-width:0;}</style></defs><path class="cls-1" d="M483.57,301.29l-33.48,50.57c-28.95,45.4-40.52,58.5-45.12,61.49-2,1.3-5.19,1.42-9.5.38-25.06-6.05-77.17-49.21-89.65-71a47.74,47.74,0,0,0-28.67-22.13,22.52,22.52,0,0,0-6.87-.9l-154.57,2.5-7,2.6h0a18.86,18.86,0,0,0-4.64,2.76c-3.12,2.23-8.17,6-18.07,12.33-21.88,14-45.74,53-63.2,89.27-6.15,12.77-7.61,20.2-7.46,36.88.1,10.07,4.8,32.31,14.5,46.24a246.43,246.43,0,0,0,36.06,40.54L73.07,571c-1.06,54.69-7,59.37,138,59.8,91.17.27,97.06-13.45,92.9-26.64-14.71-46.67-1.51-114.31,3-134.35,12.84,7,35.73,17.31,59.37,17.31,1.57,0,3.14,0,4.71-.14,24.89-1.5,50.64-3.05,67.47-22.28,23.35-26.67,56.4-79.78,79.19-148.88Z"/><path class="cls-2" d="M67,634.74s-5.57-90.92,20.61-159.85c0,0-21.39,125.9-3.76,159.85Z"/><path class="cls-3" d="M67,634.74s-5.57-90.92,20.61-159.85"/><path class="cls-4" d="M111.74,326.44s-14.71.61-37.63,15.29c-23.37,15-46.31,61.17-59.47,88.52-26.09,54.2,52.93,121.9,52.93,121.9"/><path class="cls-2" d="M259.2,369.08l0,0c24.25-21.48,21.11-34.48,16.94-66.55a58.88,58.88,0,0,0-15.89-33.26c-22-22.86-17.43-55.37-10.5-61.07,5.58-4.58,8.79-.39,10.22,2.55a9.5,9.5,0,0,1,2-2.55,8,8,0,0,1,4.19-2c6.91-9.74,17.81-28.38,15.23-46.2-3.71-25.68-38.51-21.66-38.51-21.66s-10.26-12.07-33.79-13.89c-2.77.2-5.68.53-8.73,1C150,133.68,113.67,168.2,117,251.64c2.92,72.18-19.93,74.18-34.74,111a16.73,16.73,0,0,0,13.34,22.78l3.83.51,37.19-3.43,42.3-9.78L219.09,369l23.59-1.23Z"/><polygon class="cls-5" points="432.81 270.5 423.73 283.39 438.64 278.85 432.81 270.5"/><path class="cls-2" d="M393.6,415.4s6.41,9.55,19.77,3.1,79.2-117.21,79.2-117.21l-11.74-3.66Z"/><path class="cls-4" d="M412.74,245.18a14.24,14.24,0,0,1,11.89-6.42H478a14.23,14.23,0,0,1,7.34,2"/><path class="cls-4" d="M410.42,252v54.3a14.21,14.21,0,0,0,14.21,14.22H463"/><polygon class="cls-2" points="481.87 303.88 484.82 297.91 474.08 278.57 460.4 266.94 445 247.82 444.38 240.32 449.96 232.73 456.01 225.83 465.57 222.07 484.82 225.39 509.14 240.83 517.71 255.03 523.81 277.91 521.26 302.19 515.75 316.28 481.87 303.88"/><path class="cls-1" d="M540.64,209.09A12.1,12.1,0,0,0,538,188.45a11.94,11.94,0,0,0-3.42,1.87l-88.17,69.22a12.1,12.1,0,0,0-2.05,17h0a12.15,12.15,0,0,0,4.73,3.65,12.22,12.22,0,0,0,3.42-1.88Z"/><path class="cls-4" d="M260,320.46s29.6-2,44.21,23.48S389.3,426,406,415.17s78.83-116,78.83-116-9.3-28.48-26.56-32.25"/><path class="cls-4" d="M297.52,462.28s37,25.36,73.43,23.17c24.75-1.49,49.89-3,66.22-21.66,20.24-23.13,54.75-75.17,78.88-148.42,0,0,23.12-40.07-9.51-76.48"/><path class="cls-4" d="M473.64,261.54s27,14,18.06-7.82"/><path class="cls-4" d="M303.15,465.78s-35.64,110,2.91,169.15"/><rect class="cls-6" x="421.79" y="220.62" width="136.3" height="24.21" rx="12.1" transform="translate(-39.14 352.19) rotate(-38.13)"/><path class="cls-6" d="M480.59,224.68s-27.77-10.2-27,9.63"/><path class="cls-6" d="M453.61,230.79s-16.81,8.88-6.38,20.08"/><path class="cls-1" d="M450.68,188.48a6.76,6.76,0,0,1-4.71-1.92l-48.25-47.27a6.73,6.73,0,0,1,9.42-9.62l43.14,42.25,64.56-74.61A6.74,6.74,0,1,1,525,106.12l-69.25,80a6.7,6.7,0,0,1-4.82,2.32Z"/><path class="cls-7" d="M489,127.14a14.13,14.13,0,0,1,3.19,9v8"/><path class="cls-7" d="M410.42,151.73V136.1a14.21,14.21,0,0,1,.3-2.93"/><path class="cls-4" d="M412.74,128.3a14.24,14.24,0,0,1,11.89-6.42H478a14.23,14.23,0,0,1,7.34,2"/><path class="cls-4" d="M410.42,158.59v30.87a14.22,14.22,0,0,0,14.21,14.22H478a14.22,14.22,0,0,0,14.22-14.22V151.53"/><path class="cls-8" d="M492.22,144.05,525,106.12a6.74,6.74,0,0,0-10.19-8.81L489,127.14"/><path class="cls-8" d="M410.42,151.73l-12.7-12.44a6.73,6.73,0,0,1,9.42-9.62l3.58,3.5"/><polyline class="cls-8" points="410.72 133.17 450.28 171.92 489.03 127.14"/><path class="cls-8" d="M410.42,151.73,446,186.56a6.76,6.76,0,0,0,4.71,1.92H451a6.7,6.7,0,0,0,4.82-2.32l36.44-42.1"/><path class="cls-4" d="M288.22,194.33s5.09,58.06-10.61,77.44"/><path class="cls-4" d="M273.9,369l0,0c24.24-21.48,21.11-34.48,16.94-66.56A59.68,59.68,0,0,0,274.8,269c-21.79-22.85-17.23-55.2-10.32-60.88,8-6.56,11.13,4.85,11.13,4.85s24.25-27.38,20.54-53.06-38.52-21.65-38.52-21.65-16.25-19.14-54.76-12.86c-50.41,8.21-86.75,42.73-83.38,126.17S93.81,315.15,80.55,373.2c0,0-1.18,23.8,88.19,6.29S273.9,369,273.9,369Z"/><path class="cls-9" d="M273.9,369.08l0,0c24.24-21.48,21.11-34.48,16.94-66.55a59.61,59.61,0,0,0-16.08-33.44c-21.79-22.85-17.23-55.21-10.32-60.89,5.59-4.58,8.8-.39,10.23,2.55.63-1.1,2.2.41,2.9-.17,1.59-1.3,2.09-4.26,3.31-4.38,6.9-9.74,17.8-28.38,15.23-46.2-3.71-25.68-38.52-21.66-38.52-21.66s-10.26-12.07-33.78-13.89c-2.78.2-5.69.53-8.74,1-50.41,8.22-86.75,42.74-83.37,126.18s-27.69,73.09-41,131.15l23.38,3.13,37.19-3.43,42.31-9.78L233.78,369l23.59-1.23Z"/></svg>