<svg id="Layer_1" data-name="Layer 1" xmlns="http://www.w3.org/2000/svg" viewBox="0 0 1003.24 837.8"><defs><style>.cls-1{fill:#ff6900;}.cls-2{stroke:#000;stroke-width:0.7px;}.cls-10,.cls-2{stroke-miterlimit:10;}.cls-10,.cls-3,.cls-6{fill:none;}.cls-10,.cls-3,.cls-5,.cls-7{stroke:#231f20;}.cls-3,.cls-5,.cls-6,.cls-7{stroke-linecap:round;stroke-linejoin:round;}.cls-10,.cls-3,.cls-5,.cls-6,.cls-7{stroke-width:4.18px;}.cls-4,.cls-5{fill:#fff;}.cls-6{stroke:#fff;}.cls-7,.cls-8{fill:#231f20;}.cls-9{fill:#f3f9f7;}</style></defs><path class="cls-1" d="M302.63,439.57s118.94-11.49,162.44,20.36c39.79,29.14,35.41,88,35.41,88l-14.23-13.11-26-42.48L376.14,459Z"/><path class="cls-1" d="M111.67,681.93a2.09,2.09,0,0,1-2.41-.11,75.85,75.85,0,0,0-21-10.75c-15.87-5.07-29.56-2.89-40.69,6.5a2.09,2.09,0,1,1-2.69-3.2c12.15-10.25,27.64-12.76,44.77-7.25A79.66,79.66,0,0,1,106.57,675c-12.12-26-59.53-19-60-19a2.09,2.09,0,0,1-.64-4.13,111.58,111.58,0,0,1,29.77,0c20.66,3,33.42,12.61,36.92,27.82A2.1,2.1,0,0,1,111.67,681.93Z"/><path class="cls-1" d="M131.39,759.84a32.91,32.91,0,0,1-1.8-6.19L110.38,651.42a58.64,58.64,0,0,1-10.59-6.61,57.15,57.15,0,1,1,87.54-68.22L477,532.38a32.76,32.76,0,0,1,10.33.14c-5.23-33-16.28-62.79-38.43-72-58.22-24.11-146.51-19.65-164.56-18.43,3.71,6.82,11.67,24,6,37.35-3.32,7.81-10.68,12.92-21.87,15.2-17.56,3.58-32.95-3.45-44.5-20.31a91.85,91.85,0,0,1-11.28-23.59c-9.29,6-35,33.76-82.2,61.39-30.57,17.89-50.29,41.91-63,59.46A275.91,275.91,0,0,0,38.2,622c-4.86,10.43-12.05,23.91-9.75,31.09,1.89,5.9,3.53,11,.34,16.43C21.2,682.41,7.71,711,9.33,721.78a52.1,52.1,0,0,0,4.18,14.61A26.3,26.3,0,0,1,14.63,739c.21-.3.44-.62.69-.94,8.57-11.33,27-28.8,54.15-18.63,19.45,7.3,28.1,5.84,31.93,3.34a6.53,6.53,0,0,0,3.13-4.74,2.09,2.09,0,0,1,4.18.15,10.65,10.65,0,0,1-4.87,8c-6.72,4.52-18.78,3.57-35.84-2.83-24.6-9.22-41.47,6.84-49.34,17.23a27.78,27.78,0,0,0-2.6,4c1.58,5.69,7.37,20.11,26.33,26.64M98.8,682.49a2.12,2.12,0,0,1-1.13.33,2.09,2.09,0,0,1-1.28-.44,75.85,75.85,0,0,0-21-10.75c-15.87-5.07-29.56-2.88-40.69,6.51a2.09,2.09,0,0,1-2.7-3.2c12.16-10.26,27.65-12.76,44.78-7.25a80.2,80.2,0,0,1,16.93,7.84c-12.12-26-59.53-19-60-18.95a2.09,2.09,0,0,1-.64-4.14,111.58,111.58,0,0,1,29.77,0c20.66,3,33.42,12.61,36.92,27.82A2.09,2.09,0,0,1,98.8,682.49Z"/><path class="cls-2" d="M289.52,249.54c-2.8-3.35-9.9-2.16-12.41-1.43a2.1,2.1,0,0,1-1.94-.4,42.65,42.65,0,0,0-11.61-6.45c-9-3.27-17.32-2.72-24.76,1.64-18.38,10.77-22.75,29.86-22.79,30a2.09,2.09,0,1,1-4.08-.89,51.44,51.44,0,0,1,6.37-14.71,85,85,0,0,0-13.63-3.67c-8.26-1.5-20.2-2.23-30.11,2.77-8.93,4.51-14.9,13-17.75,25.22-5.63,24.2-1.22,34.31,3.47,38.53a8,8,0,0,1,2.63,6.36,8.26,8.26,0,0,1-3.37,6.24c-6.68,4.88-7.85,11.07-3.58,18.93,7.87,14.51,17,17.84,21.32,18.59a24.87,24.87,0,0,1,0-8.61c1.15-6,3.52-9.56,7-10.7a7.92,7.92,0,0,1,3.21-.33c-1.58-7.86-4-27.22,6.45-42.49,6.38-9.33,16.42-15.42,29.9-18.18a2.09,2.09,0,0,1,2.24-3.42,75.74,75.74,0,0,0,24,4.29h.28c16.68,0,28.52-6.72,35.18-20C290.85,260.4,292.25,252.81,289.52,249.54Z"/><path class="cls-3" d="M280.7,440.62s102.81-9,168.85,18.34,38.17,225.23,38.17,225.23"/><polygon class="cls-4" points="44.55 775.51 32.22 758.9 19.23 736.69 31.89 725.38 43.94 719.25 57.55 719.05 75.15 724 89.83 727.11 102.17 726.19 106.47 719.89 106.47 719.89 137.51 768.6 107.82 776.19 72.09 780.81 44.55 775.51"/><path class="cls-4" d="M517.31,694.55,179.48,783.32a30.44,30.44,0,0,1-36.76-24L118.21,628.8a30.44,30.44,0,0,1,25.53-35.74l344.63-52.6A30.43,30.43,0,0,1,522.66,565l17.71,94.32A30.43,30.43,0,0,1,517.31,694.55Z"/><path class="cls-5" d="M506.1,688.87,168.26,777.64a30.43,30.43,0,0,1-36.75-24L107,623.12a30.43,30.43,0,0,1,25.53-35.73l344.63-52.61a30.44,30.44,0,0,1,34.29,24.5l17.71,94.32A30.43,30.43,0,0,1,506.1,688.87Z"/><path class="cls-3" d="M263.12,617.75l-42.45,5.86a10.78,10.78,0,0,1-12.38-8.88l-1.06-6.48a10.75,10.75,0,0,1,8.87-12.37L258.55,590a10.78,10.78,0,0,1,12.38,8.88l1.07,6.48A10.77,10.77,0,0,1,263.12,617.75Z"/><rect class="cls-3" x="213.29" y="637.02" width="255" height="28.1" rx="10.77" transform="translate(-116.26 75.62) rotate(-10.83)"/><path class="cls-3" d="M288.33,715.84l-50,10a10.77,10.77,0,0,1-12.6-8.55l-1.23-6.45a10.77,10.77,0,0,1,8.55-12.6l50-10a10.76,10.76,0,0,1,12.6,8.55l1.24,6.45A10.78,10.78,0,0,1,288.33,715.84Z"/><circle class="cls-5" cx="134.98" cy="600.21" r="55.06"/><circle class="cls-1" cx="134.98" cy="600.21" r="37.44"/><ellipse cx="121.67" cy="589.91" rx="4.51" ry="11.87" transform="translate(-132.23 43.71) rotate(-13.28)"/><ellipse cx="142.46" cy="585" rx="4.51" ry="11.87" transform="translate(-130.55 48.36) rotate(-13.28)"/><path class="cls-3" d="M161,594.62c.09.33.18.66.26,1,2.72,11.56-3.83,23.3-15,28.21a28,28,0,0,1-4.81,1.6c-14,3.31-27.95-4.68-31-17.81l-.21-1"/><path class="cls-3" d="M282,284.72s32.48,114.8-15.6,131.69S201,368.33,201,368.33"/><path class="cls-3" d="M194.05,356.21s-11.63-10.87-14.87,5.91,15.69,40.27,29.87,25.95"/><path class="cls-3" d="M218.13,401.87s6.31,29.38-4.36,46"/><path class="cls-3" d="M225.18,288.56s44.93,17.37,62.06-16.71-10.92-25.73-10.92-25.73-19.39-16.37-38.77-5-23.78,31.41-23.78,31.41"/><path class="cls-6" d="M229.73,274.33s6.62-21.66,28.28-21.41"/><path class="cls-3" d="M221.29,256.36s-55.35-24-66.72,24.85c-5.71,24.54-1.4,35.6,4.11,40.56a6,6,0,0,1-.58,9.35c-5.64,4.12-10,10.95-4.18,21.62,11.35,20.92,25.76,19.89,25.76,19.89"/><path class="cls-3" d="M190.19,353.65s-16.56-57.43,42.57-62.84"/><polygon class="cls-4" points="363.82 733.99 336.76 716.37 260.71 739.16 280.7 755.57 363.82 733.99"/><path class="cls-3" d="M271.94,413.84s0,19.47,8.76,26.78c0,0,28,44-12.8,52.34s-54.13-45.13-54.13-45.13-39.08,25.39-94.55,57.84-87.68,90.39-94.46,116.9S33,658.32,26.85,668.8,5.28,710.1,7.12,722.42a54.09,54.09,0,0,0,4.38,15.21c4.21,8.72-.49,9.75,5.35,2,8.48-11.2,26-27.57,51.75-17.93,37.42,14,37.88-3.27,37.88-3.27"/><path class="cls-4" d="M374.45,675,372,670.84,358.42,676,328.89,691.3l3.08-5.76,11.06-12,5.67-9.22-1.56-3.51h-7.36l-18.92,15.95L305.19,692l-10.06,5.56-6.6-.49-5.46-6.58-3.6-12.65-6.22-8.09-7.9-1,3.37,19.94,1.08,16.47-1.92,7.55s-100.19,34.25-146.21,37.25c-5.91.27-8.06,10.67-9.76-14.26l-32,16.47,7.48,9.64a45.29,45.29,0,0,0-2,11.85l21,36.89,109.35-27.28L284.05,745l23.07-1.54,16.81-5.7,25.94-16.49,12.32-11.67s3.07-3.37,0-4.65a30.64,30.64,0,0,0-4.84-1.67L371,693l2-8.69h-6.46Z"/><path class="cls-4" d="M35.09,654.6s51.29-8.25,61.82,24.12c0,0,1.27-26.35-33.77-29.7S35.09,654.6,35.09,654.6Z"/><path class="cls-3" d="M19.23,736.69S50,802.08,96.17,820.59C135.67,836.41,284.05,745,284.05,745s38.27,7,78.14-35.4"/><path class="cls-3" d="M341.16,713.05s30.27-16.39,31.69-24.08-8.49-3.54-8.49-3.54"/><path class="cls-3" d="M334.69,702.8s33.76-17.29,38.29-26.65c2.76-5.68-1-6.36-3-6.25a11.31,11.31,0,0,0-5.05,1.69c-6.85,4.07-34.06,20.09-39.7,20.93,0,0,28-27.64,21.89-31.69-6.61-4.41-34.22,23.52-34.22,23.52s-13,14.45-22.85,13.2-6.55-32.51-24.72-28.83c0,0,7.62,35.47,3,44.33,0,0-95.87,37.42-146.66,36.88"/><path class="cls-3" d="M33.21,654.85s56.29-8.74,64.33,26.22c0,0-36-28.08-64.33-4.2"/><path class="cls-7" d="M309.38,587.77l6-4.56a2.05,2.05,0,0,1,3.29,1.65l-.05,7.55a2,2,0,0,0,.87,1.7l6.2,4.32a2,2,0,0,1-.56,3.63L318,604.35a2,2,0,0,0-1.34,1.36l-2.2,7.22a2.05,2.05,0,0,1-3.63.6l-4.4-6.14a2,2,0,0,0-1.7-.86l-7.55.15a2.05,2.05,0,0,1-1.69-3.27l4.48-6.08a2,2,0,0,0,.29-1.88l-2.47-7.14a2,2,0,0,1,2.58-2.61l7.17,2.38A2.07,2.07,0,0,0,309.38,587.77Z"/><path class="cls-7" d="M351.09,579.05l6-4.55a2,2,0,0,1,3.28,1.65l0,7.55a2.06,2.06,0,0,0,.88,1.69l6.19,4.33a2,2,0,0,1-.55,3.63l-7.2,2.29a2.05,2.05,0,0,0-1.34,1.35l-2.19,7.23a2.05,2.05,0,0,1-3.63.59l-4.4-6.13a2.05,2.05,0,0,0-1.71-.86l-7.54.14a2,2,0,0,1-1.69-3.26l4.47-6.08a2.06,2.06,0,0,0,.29-1.89l-2.47-7.13a2.06,2.06,0,0,1,2.59-2.62l7.16,2.38A2,2,0,0,0,351.09,579.05Z"/><path class="cls-7" d="M392.81,570.34l6-4.55a2.05,2.05,0,0,1,3.29,1.65l-.05,7.55a2,2,0,0,0,.88,1.69l6.19,4.32a2.05,2.05,0,0,1-.55,3.64l-7.2,2.28a2.09,2.09,0,0,0-1.34,1.36l-2.2,7.22a2.05,2.05,0,0,1-3.63.6L389.83,590a2.07,2.07,0,0,0-1.71-.86l-7.55.14a2,2,0,0,1-1.69-3.26l4.48-6.08a2.06,2.06,0,0,0,.29-1.89l-2.47-7.13a2,2,0,0,1,2.58-2.62l7.17,2.38A2,2,0,0,0,392.81,570.34Z"/><path class="cls-3" d="M434.53,561.63l6-4.55a2.05,2.05,0,0,1,3.29,1.64l0,7.55a2,2,0,0,0,.87,1.7l6.2,4.32a2.06,2.06,0,0,1-.56,3.64l-7.19,2.28a2,2,0,0,0-1.34,1.36l-2.2,7.22a2.05,2.05,0,0,1-3.63.6l-4.4-6.14a2,2,0,0,0-1.7-.85l-7.55.14a2.05,2.05,0,0,1-1.69-3.27l4.48-6.07a2,2,0,0,0,.28-1.89l-2.46-7.14a2,2,0,0,1,2.58-2.61l7.16,2.38A2.09,2.09,0,0,0,434.53,561.63Z"/><path class="cls-3" d="M476.24,552.92l6-4.56a2,2,0,0,1,3.28,1.65l-.05,7.55a2.08,2.08,0,0,0,.88,1.7l6.19,4.32a2,2,0,0,1-.55,3.63l-7.2,2.29a2,2,0,0,0-1.34,1.36l-2.19,7.22a2.05,2.05,0,0,1-3.63.6l-4.4-6.14a2.05,2.05,0,0,0-1.71-.86l-7.54.15a2.05,2.05,0,0,1-1.69-3.27l4.47-6.08a2,2,0,0,0,.29-1.88l-2.47-7.14a2.05,2.05,0,0,1,2.59-2.61l7.16,2.38A2.07,2.07,0,0,0,476.24,552.92Z"/><path class="cls-3" d="M258.79,337.47s8.08-12.17,23.67-4.73"/><circle class="cls-8" cx="270.59" cy="335.25" r="3.75"/><path class="cls-3" d="M215.62,347.32s8-12.21,23.64-4.88"/><circle class="cls-8" cx="227.41" cy="345.03" r="3.75"/><path class="cls-3" d="M255.25,345s14.5,24.91,8.65,27.6a18.35,18.35,0,0,1-10.62,1.68"/><path class="cls-3" d="M256.63,318.23s10.54-10.47,24.07-1.81"/><path class="cls-3" d="M208.68,330s8.1-12.45,23.15-6.83"/><path class="cls-3" d="M261.12,387.53s-12.7,6.36-21.86,0"/><path class="cls-8" d="M11.81,746s14.43,27.47,28.59,27.67L19.23,736.69Z"/><path class="cls-4" d="M483.84,541.15s8-1.48,11.79-.87c0,0-2.88-3-12.39-3.7Z"/><path class="cls-3" d="M928.82,197.77s-6.49,31.12-9.11,41.58,0,45.65,0,45.65"/><path class="cls-5" d="M936.8,194.12l-443.59,48a30.44,30.44,0,0,1-33.64-28.24L450.76,81.37a30.42,30.42,0,0,1,29.6-32.44l446-11.24a30.42,30.42,0,0,1,31.13,28.4l6.37,95.75A30.44,30.44,0,0,1,936.8,194.12Z"/><path class="cls-4" d="M597.93,249.7l20.93-14.39,15.54-10.24,4.65-5.37L634,216.83l-17.78,6.42s-14.9-2.45-23.3,3.78c0,0-5.94,4-5.52,6.94l-50.15,5.33-2.15,10.4,26.66-2.41,26.18,1Z"/><path class="cls-3" d="M702.79,89,563.56,95.37a10.77,10.77,0,0,1-11.23-10.28L552,78.53a10.78,10.78,0,0,1,10.29-11.24L701.56,61a10.77,10.77,0,0,1,11.23,10.28l.29,6.56A10.77,10.77,0,0,1,702.79,89Z"/><rect class="cls-3" x="552.06" y="122.88" width="255" height="28.1" rx="10.77" transform="translate(-7.89 47.72) rotate(-4)"/><path class="cls-3" d="M689.52,190.18,569,199a10.78,10.78,0,0,1-11.5-10L557,182.4a10.78,10.78,0,0,1,10-11.49l120.54-8.76a10.78,10.78,0,0,1,11.5,10l.45,6.55A10.76,10.76,0,0,1,689.52,190.18Z"/><path class="cls-1" d="M598.28,445l-16,51.63a84.75,84.75,0,0,1-6.32,15L569.82,523a84.69,84.69,0,0,1-14.65,19.67h0a84.49,84.49,0,0,1-19.38,14.49l-7.33,4,.84,2.35,16,4.41,23.28,2.56,30.58-2.69,23.3-6.76,24.45-11.91,22.79-14.43,1.91-6.44L676,525.6,678.58,509,676,490.16l-21.43-17.94-4.29,1.49-9.25.74L631.71,466l-5.45-7.62,1.7-7.61,4.68-6.66-8.5-8.52-13.33,7.32Z"/><path class="cls-1" d="M813,603.85c-.33-5.86,17.59-71,22.07-86.63C831.71,521.1,808.07,560,808,560.17a2.11,2.11,0,0,1-1.59.73,2.1,2.1,0,0,1-1.58-3.46c.73-.85,73.51-85.35,92.57-116.79,17.69-29.19,27.87-136.16,29.18-150.58-24.75-8.52-38.58-4.15-43.92-2.28-1,12.28-9.2,47.26-18.78,76.63-7.56,23.15-27.9,75.69-41.76,87.39-21.89,18.48-63.76,49.77-67,53.44q-2.77,6.67-5.94,13.26c5.33,0,15.41.67,22.92,5.74a2.09,2.09,0,0,1,.56,2.91,2.07,2.07,0,0,1-1.73.92,2.12,2.12,0,0,1-1.17-.36c-7.68-5.19-19-5.13-22.65-5a269.51,269.51,0,0,1-32.54,50.68,2.09,2.09,0,0,1-3.23-2.66,266.08,266.08,0,0,0,32.55-50.93l.06-.13A269.92,269.92,0,0,0,758.48,484c12.7-39.15,13.6-76,2.59-106.46C753.61,356.88,742,343,726.4,336.22c-24.7-10.73-51.16.34-51.42.46a2.11,2.11,0,0,1-2-.16c-.11-.07-11.47-7.08-25-3.07-11.72,3.47-17.15,13.63-25.09,30.81-7.18,15.53-13,37.8-19.39,61.42-1.59,5.85-3.2,11.78-4.86,17.73,11.33-1,17-4.48,26.6-11.13,10.51-7.3,19.91-18,28-31.73a178.23,178.23,0,0,0,18.88-48.63l4.1.82c-.08.42-1,4.81-3,11.51a33.89,33.89,0,0,1,15.36,2c16.17,6,25.79,22.61,31.18,36.43,3-1.84,8.47-4.39,13.3-2.5,4.13,1.62,6.76,5.95,7.79,12.88,2.06,13.73-3.62,21.09-9.16,24.38-.56,5.75-3,26.33-10.81,42.24-.24,3.21-1.66,24.75,2.18,34.77a43.13,43.13,0,0,0,5.54-3,2.09,2.09,0,0,1,2.29,3.5c-7.83,5.12-20.4,9.2-37.36,12.1-9.6,1.65-18,2.44-21.4,2.72-.67,3.79-2.41,11.81-5.41,14.38a2.09,2.09,0,0,1-2.94-.23A2.08,2.08,0,0,1,664,541a5.58,5.58,0,0,0,1.17-1.81c-35.79,27.33-70.11,33.41-93.51,33.41h-1.54c-26.67-.3-44-8-44.71-8.35a2.09,2.09,0,0,1-.12-3.75,70.77,70.77,0,0,0,19.23-15.33c-5-29.42-9.24-79.28-1.41-151.11,4.11-37.64,9.92-66.17,11.44-73.28-20-8-38.4-5.3-43.41-3.66C496.58,367.71,491.32,435.19,489,490.13c-2.52,59.51,6.92,101,21.8,114.44,32.55,29.33,101.63,10.29,102.45,10.09a2.09,2.09,0,0,1,1,4.07c-.07,0-2.38.56-6.31,1.32-2.08,22.43-4.38,56.41-26.93,99.19-8.54,16.21-27.25,44.86-35.65,54.31l233-24.54c.31-29.51,19.35-79.46,25.63-93.77A111.43,111.43,0,0,0,813,603.85ZM663,349.31c-.21,0-11.55-.27-22.18,9.62-11.82,11-18.28,29.78-19.21,55.81a2.09,2.09,0,0,1-2.08,2h-.08a2.1,2.1,0,0,1-2-2.17c1-27.26,7.92-47,20.65-58.82,12-11.07,24.57-10.66,25.09-10.64a2.08,2.08,0,0,1,2,2.18A2.11,2.11,0,0,1,663,349.31Z"/><path class="cls-9" d="M806.91,464.2,760.11,514s14.35,4.3,16.45,12L747,520.61l8.48-18.88,48-41.88Z"/><path class="cls-10" d="M625.36,434.55s35.18,56.74,66.39,62.52c32.93,6.09,38.06-61.26,38.06-61.26"/><path class="cls-10" d="M632.7,445.87s-14,8.81-.78,21.33,21,5.05,21,5.05"/><path class="cls-10" d="M674.21,352.33s-19.83,100-93.12,93.54"/><path class="cls-3" d="M670.26,366.93s30.91-9.55,48.55,39c0,0,16.9-13.58,20,7.45s-12.58,24-12.58,24"/><path class="cls-3" d="M669.32,533.28c-73.64,60.47-143,29-143,29,56.14-29.75,66.76-147.86,90.19-198.59s57.68-28.95,57.68-28.95,63.81-27.42,88.88,42.06-15.21,153-50.15,195.29"/><path class="cls-10" d="M677.48,491.34s3.33,20-1.48,36"/><path class="cls-10" d="M718.9,479.11s-2.34,27.83,3.18,38.11"/><path class="cls-3" d="M663.15,347.22s-41.1-1.75-43.56,67.45"/><path class="cls-3" d="M680.91,405.42s9.68-11.27,23.86-3.7"/><path class="cls-3" d="M686.11,424.73s5.69-13.45,22.38-9"/><circle class="cls-8" cx="697.3" cy="420.36" r="3.75"/><path class="cls-3" d="M645.53,442.43s5.6-13.49,22.32-9.19"/><circle class="cls-8" cx="656.69" cy="437.99" r="3.75"/><path class="cls-3" d="M680.81,453.33s3.24-1.86,5.82-.79a1.5,1.5,0,0,0,2-.77c.58-1.3,1.91-2.9,5-3.62"/><path class="cls-3" d="M745.75,520.76S761,519.27,770.91,526"/><path class="cls-3" d="M753.32,504.11S794.86,457.52,818,438s53.52-129.32,54.21-149.35c0,0,26.58-11.05,56.62,0,0,0-10.25,121.15-29.62,153.1s-92.77,117.07-92.77,117.07"/><path class="cls-3" d="M818.16,545.06S802.83,597,803.24,604.43a113.82,113.82,0,0,1-9.14,52.35C783.72,680.46,761.42,743.6,770.91,764"/><path class="cls-3" d="M531.62,764S601.83,672.28,606,619"/><path class="cls-3" d="M729.81,513.19c-18.29,12-59.41,14.6-59.41,14.6s-1.8,12.05-5,14.76"/><path class="cls-3" d="M613.79,616.7s-82.53,19.59-116.29-10.83-22.35-184.44,7.2-286.39c0,0,28.54-10.54,52.33,0,0,0-31.73,112.13-14,214.41"/><path class="cls-3" d="M691.68,460.39c-5.78,1.38-13.06,6.34-13.06,6.34s6.82,8.81,18.8,2.33"/><path class="cls-3" d="M690.48,460.82c5.31-2.66,14.08-3.58,14.08-3.58s.46,11.14-12.86,13.91"/><path class="cls-3" d="M515.46,316.61s13.55-28,14.35-35.83,4.47-33.57,6.55-37.88"/><path class="cls-3" d="M552.4,317.71s6.59-22.83,11-27.41,22.41-22.24,25.13-29,17-19.18,26.14-23.76,25.63-14.43,23.42-18.84-21.9,4.58-21.9,4.58a33.52,33.52,0,0,0-24.61,4.58"/><path class="cls-3" d="M703.3,654.51s-21.85,23.25-52,34"/><circle class="cls-5" cx="481.26" cy="61.95" r="55.06"/><path class="cls-7" d="M741.92,76.72,748.5,73a2.05,2.05,0,0,1,3,2.08l-1.07,7.47a2.09,2.09,0,0,0,.64,1.8l5.56,5.11a2.05,2.05,0,0,1-1,3.53l-7.44,1.3a2,2,0,0,0-1.51,1.16l-3.14,6.87a2.06,2.06,0,0,1-3.68.1l-3.53-6.67a2.07,2.07,0,0,0-1.58-1.08l-7.5-.87A2,2,0,0,1,726,90.36l5.25-5.43a2.05,2.05,0,0,0,.54-1.83l-1.49-7.4a2,2,0,0,1,2.91-2.24L740,76.78A2.08,2.08,0,0,0,741.92,76.72Z"/><path class="cls-7" d="M784.43,73.69,791,70a2,2,0,0,1,3,2.08L793,79.54a2.09,2.09,0,0,0,.64,1.8l5.56,5.11a2.05,2.05,0,0,1-1,3.53l-7.44,1.3a2,2,0,0,0-1.51,1.16L786,99.31a2,2,0,0,1-3.67.1l-3.53-6.67a2.07,2.07,0,0,0-1.58-1.08l-7.5-.87a2,2,0,0,1-1.23-3.46l5.25-5.43a2.05,2.05,0,0,0,.54-1.83l-1.49-7.4a2,2,0,0,1,2.91-2.24l6.78,3.32A2.08,2.08,0,0,0,784.43,73.69Z"/><path class="cls-7" d="M826.94,70.66l6.58-3.7a2.05,2.05,0,0,1,3,2.08l-1.06,7.47a2,2,0,0,0,.64,1.8l5.56,5.11a2.05,2.05,0,0,1-1,3.53l-7.44,1.3a2.07,2.07,0,0,0-1.51,1.16l-3.15,6.87a2,2,0,0,1-3.67.1l-3.54-6.67a2,2,0,0,0-1.57-1.08l-7.5-.87A2,2,0,0,1,811,84.3l5.26-5.43a2,2,0,0,0,.54-1.83l-1.49-7.4a2,2,0,0,1,2.91-2.24L825,70.72A2,2,0,0,0,826.94,70.66Z"/><path class="cls-7" d="M869.45,67.63l6.58-3.7a2.05,2.05,0,0,1,3,2.08L878,73.48a2,2,0,0,0,.64,1.8l5.55,5.11a2.05,2.05,0,0,1-1,3.53l-7.44,1.3a2.05,2.05,0,0,0-1.51,1.17l-3.15,6.86a2,2,0,0,1-3.67.1l-3.54-6.67a2,2,0,0,0-1.57-1.08l-7.5-.87a2,2,0,0,1-1.24-3.46l5.26-5.42a2.07,2.07,0,0,0,.54-1.84l-1.49-7.4a2,2,0,0,1,2.91-2.24l6.78,3.32A2,2,0,0,0,869.45,67.63Z"/><path class="cls-7" d="M912,64.61l6.58-3.71a2.05,2.05,0,0,1,3,2.08l-1.06,7.47a2,2,0,0,0,.64,1.8l5.55,5.11a2.05,2.05,0,0,1-1,3.53l-7.44,1.3a2,2,0,0,0-1.51,1.17l-3.15,6.86a2.05,2.05,0,0,1-3.68.1l-3.53-6.67a2,2,0,0,0-1.57-1.08l-7.5-.87a2,2,0,0,1-1.24-3.46l5.26-5.42a2,2,0,0,0,.53-1.83l-1.48-7.41a2,2,0,0,1,2.91-2.24l6.78,3.32A2,2,0,0,0,912,64.61Z"/><circle class="cls-1" cx="481.26" cy="61.95" r="37.44"/><ellipse cx="469.27" cy="50.14" rx="4.51" ry="11.87" transform="translate(-2.66 53) rotate(-6.45)"/><ellipse cx="490.5" cy="47.74" rx="4.51" ry="11.87" transform="translate(-2.26 55.37) rotate(-6.45)"/><path class="cls-3" d="M507.76,59.49c.05.34.09.67.13,1,1.33,11.8-6.57,22.68-18.24,26.22a27.71,27.71,0,0,1-5,1c-14.31,1.62-27.19-8-28.71-21.37l-.09-1"/><path class="cls-4" d="M886.07,188.93S910,191.88,909,209.06s-42.32,2.6-42.32,2.6l-10.76-10.93-5.9-6.42Z"/><path class="cls-3" d="M881.2,285s9.52-28.86,3.74-39.82-16.54-25.31-19.33-33.08-24.83-16.6-24.83-16.6-14.53-5.43-15.41-11.15,11.3-2.06,17.17,0,16.43-.15,24.65,4S882,190.07,882,190.07"/><line class="cls-3" x1="914.19" y1="196.56" x2="896.65" y2="198.73"/></svg>