<svg id="Layer_1" data-name="Layer 1" xmlns="http://www.w3.org/2000/svg" viewBox="0 0 1002.76 676.63"><defs><style>.cls-1,.cls-2,.cls-6{fill:#fff;}.cls-1,.cls-6{stroke:#fff;}.cls-1,.cls-12,.cls-13,.cls-14,.cls-8{stroke-miterlimit:10;}.cls-1{stroke-width:2.58px;}.cls-3{fill:#ff6900;}.cls-11,.cls-4,.cls-7,.cls-9{fill:none;}.cls-11,.cls-12,.cls-13,.cls-14,.cls-4,.cls-5,.cls-7,.cls-8,.cls-9{stroke:#231f20;}.cls-11,.cls-4,.cls-5,.cls-6,.cls-7,.cls-9{stroke-linecap:round;stroke-linejoin:round;}.cls-4,.cls-5,.cls-6{stroke-width:3.6px;}.cls-10,.cls-12,.cls-13,.cls-14,.cls-5,.cls-8{fill:#231f20;}.cls-7{stroke-width:3.59px;}.cls-8{stroke-width:0.6px;}.cls-9{stroke-width:4.61px;}.cls-11{stroke-width:3.6px;}.cls-12{stroke-width:0.6px;}.cls-13{stroke-width:0.41px;}.cls-14{stroke-width:0.22px;}</style></defs><path class="cls-1" d="M284.32,413.2c8.74-8,20.76-23.68,22.42-34.31.94-6-1.53-7-3.88-6.75a6.73,6.73,0,0,0-4.57,2.7C289.8,386,239.72,427,239.72,427S219.11,441.69,215,466.91c0,0-47.24,116.32-58.94,110.47,0,0-10.25-37.09-3.46-44.22,0,0-30.58,7.93-66.35,27,12.56,40.59,31.25,78.81,58.33,98.77.93.69,1.85,1.39,2.75,2.11,4.19,3.33,22.14,15.44,41.92-4.35,22.61-22.6,54.81-172.21,54.81-172.21s24-12.64,25.93-26.48h7.84c-.21,3.68-.27,10.3,2.42,11.87,3.4,2,5.09-2.5,5.09-2.5.52-2.15.91-4.17,1.22-6.09l.51.1a7.48,7.48,0,0,0,3.25,5c3.4,2,5.09-2.49,5.09-2.49,0-.15.07-.29.1-.44l1,.44c2,1.68,4,1,5.5-.08a9.21,9.21,0,0,0,3.27-4.42C319.68,419.62,284.32,413.2,284.32,413.2Z"/><path class="cls-2" d="M306.68,226.32c-41.25-6.38-62.61-62.22-62.61-62.22L191.7,224.6s-15.18-9.86-13.85,12.91,15.46,19.55,15.46,19.55c1.36,5.09,3,10.46,4.93,15.82l-5.92,64.53-6.49,19.44,7.47,18.09L213,377.82l18.49-4.58,16-12.58,5-10.47-10.23-7.29-9-4.71h1.16l1.44-18.85.37.08a34.59,34.59,0,0,0,7.74.87c35.67,0,45.44-36.38,51.9-60.46,1.57-5.82,4.39-15.06,4.33-15.11l3.16-8.69h0A56.55,56.55,0,0,0,306.68,226.32Z"/><path class="cls-1" d="M386.55,502c-1.79,2.84-13.74-34.88-13.74-34.88s-14.88-1.09-36.76,13.84c0,0,1.76,31.59,32.12,103,0,0-22.21,1.28-28.25,3.45,0,0,.73,5.37,11.92,15.26,7.8,6.89,27,6.28,27,6.28,47-7.31,59.52-136.2,59.52-136.2,21.85-18.4,10.35-65.75,10.35-65.75l-41.85,38.07S406.18,471,386.55,502Z"/><path class="cls-3" d="M316.88,355.1s11.53,27.14,25.34,44.82c19.09,24.44,42.8,44.82,48.6,61.37a2.1,2.1,0,0,1-1.91,2.77l-21.83.87-45.84-50.41L306.89,361Z"/><path class="cls-2" d="M152.81,570.83s39.2-61.41,63-108l9.66,21-63.22,106.6L149.41,581Z"/><path class="cls-3" d="M124.14,542.73l25.46-8.91.77,1.61c-.31.05-.61.09-.91.15l7.64,40.13c3.19-1.39,11.61-10.68,32.67-56.26,11.75-25.42,22-50.56,23-53,4.19-25.16,23.94-39.83,25.36-40.85,1.74-1.43,50.07-41.15,58.24-51.83a8.55,8.55,0,0,1,5.8-3.38,5.15,5.15,0,0,1,4.53,1.42c1.44,1.51,1.87,3.92,1.33,7.39-1.65,10.53-12.36,24.82-20.65,33.11,4.78,1.53,13.67,5.44,18.81,14.38,5,8.76,5.14,20,.31,33.36a11,11,0,0,1-3.92,5.28,7,7,0,0,1-4,1.43,5.35,5.35,0,0,1-2.69-.74,6,6,0,0,1-2.89,2.47,4.4,4.4,0,0,1-1.46.25A5.12,5.12,0,0,1,289,468a7.41,7.41,0,0,1-2-1.67c-.11.49-.23,1-.35,1.5l-.06.21c-.12.31-1.22,3.05-3.64,3.91a4.35,4.35,0,0,1-1.46.25,5,5,0,0,1-2.59-.75l-1.49-10.86c-3.14.07-7.46-2.47-7.46-2.47-.73,10.41-21.16,23.45-21.16,23.45l-3.51,4.13c-2.36,10.84-23.31,106-43,151.43a537.1,537.1,0,0,1,50.35-24.53c28.74-12.21,71.35-27.24,112.54-30.23-2.57-6.42-10-25.42-17.41-47.17-12.17-36-18.27-61.94-18.1-77.19a1.8,1.8,0,0,1,1.8-1.78h0a1.81,1.81,0,0,1,1.78,1.82c-.07,6.24,1,14.14,2.8,22.91,6.45-4.37,25.46-15.86,45.55-14.52l-17.06-29.8-27.31-3.86a8.8,8.8,0,0,1-7.09-11.61l4.08-11.76c-2.71-3.05-11.92-14.65-22.43-41.57-9.16-23.46-51.76-27.24-70-27.77,6.1,3.19,12.87,7.86,11.92,12.57-.77,3.85-7,13.83-18.71,20.57a48.5,48.5,0,0,1-24.45,6.44,60.66,60.66,0,0,1-17.87-2.83A42.31,42.31,0,0,1,188,393.36c-5.22,10.34-13.84,19.16-21.46,26.94-2.83,2.89-5.5,5.62-7.79,8.22-3.32,3.77-4.63,7.57-3.89,11.29,1.75,8.77,14,14.86,14.14,14.92a1.8,1.8,0,0,1,0,3.23A22.35,22.35,0,0,1,159,460.51c-10.47,0-17.45-8.41-18.92-11.23-.13-.25-.27-.5-.41-.75l-.22-.38c-6.72-12,2.35-28.11,11.13-43.7,10-17.73,15.88-29.8,7.19-35.75-5.55-3.8-10.11-9.31-13.64-16.41a88.28,88.28,0,0,0-33.51,13C99.82,372.11,100,374.56,93.28,382,85,391.2,78.2,401.38,77.64,412.83c-.24,4.81-1.5,14.54-1,23.29l8.79,124Z"/><path class="cls-4" d="M248.5,174.71S202.59,258,191.24,224.6c0,0-15.18-9.86-13.86,12.91s15.47,19.55,15.47,19.55c7.18,26.9,22,61.81,50.66,61.81,46.6,0,47.43-63.9,57.2-79s9.21-47.44,9.21-47.44"/><path class="cls-4" d="M197.78,272.88s3.86,50.19-6,65.31"/><path class="cls-4" d="M243.61,164.1s31.73,83,92.58,58.18"/><path class="cls-4" d="M313.88,367.15c21.95-36-11.35-44-14.39-59.93s28.84-58.42,25-105.46-55.43-56.91-55.43-56.91-37.7-30.63-77.31,0-37.58,80.31-36.36,90.49c1.18,9.86-20.18,42.65-17.44,78,.16,2,.32,4,.42,6.08.43,8.58,3.18,35.68,20.74,47.72,20.79,14.25-30.59,57.18-17.77,80.05.22.39.45.78.66,1.18,1.4,2.68,11.57,15.42,26.61,7.9,0,0-25.47-12.4-10.81-29s44.23-38.1,29.58-69.6"/><path class="cls-4" d="M233.89,318.87v19.32s19.74,7.89,18.51,14.06-21.71,35.36-60.61,22.2"/><path class="cls-4" d="M233.89,338.19s67.72-2.48,80,29,22.81,41.79,22.81,41.79"/><path class="cls-5" d="M394.79,439l-56.9-8a7,7,0,0,1-5.64-9.23l38.22-110.11a7,7,0,0,1,7.47-4.66l62.44,7.67a7,7,0,0,1,5.66,9.54L402.28,434.63A7,7,0,0,1,394.79,439Z"/><ellipse class="cls-6" cx="430.42" cy="328.18" rx="6.48" ry="3.93" transform="translate(4.33 661.96) rotate(-75.4)"/><ellipse class="cls-6" cx="414.83" cy="335.4" rx="6.48" ry="3.93" transform="translate(-14.32 652.28) rotate(-75.4)"/><path class="cls-2" d="M406.55,446.88l1.26-11.11-10.32-3.26-11.24-5.94-8.11-10.32.47-7.48,1.7-2.25-1.7-5.85,5.42-3.86L405,409.31l6.79,2.69,1.7-5.57-10.8-7.64-10.28-13.9-2.7-8.54,4.39-4.3,3.91-.72-1.16-7.23,5-3,16.54,19.57,15.35,14.77s14.18,5.72,15.58,14.47,2.4,30,2.4,30l-4.55,20.49-32.23-.65Z"/><path class="cls-4" d="M417.07,394.93c-12.88-8-23.08-26.55-19.23-31.19,3.62-4.36,6.8.38,6.8.38s22.06,28.33,29.85,31.72"/><path class="cls-4" d="M398.84,373.53s-4.33-3.76-7.83.69c-3.73,4.74,10.22,25.11,23.31,32.79"/><path class="cls-4" d="M410.63,423.22c-15.09-1.53-33.35-15.6-31.94-21.46a4.82,4.82,0,0,1,3.91-4,5.58,5.58,0,0,1,4.11.95c4.48,3,20.47,13.49,29.65,14.28"/><path class="cls-4" d="M380.21,408.49c-1.54.29-3.24,3.15-2.54,5.66,1.88,6.79,15,20.45,30.14,21.62,0,0-1.5,46.7-36.58,87.74"/><path class="cls-4" d="M448.68,407s11.5,47.35-10.35,65.75c0,0-12.53,128.89-59.52,136.2,0,0-20.67,2-27-6.28"/><path class="cls-7" d="M292.88,410.38c9.33-7.43,22.15-22.06,23.93-32,1-5.57-1.64-6.51-4.14-6.28a7.49,7.49,0,0,0-4.88,2.51c-9.07,10.35-62.51,48.58-62.51,48.58s-22,13.68-26.37,37.18c0,0-50.42,108.34-62.9,102.89"/><path class="cls-4" d="M284.25,413.2s35.36,6.42,21,46.21a9.19,9.19,0,0,1-3.26,4.42c-1.54,1.09-3.56,1.76-5.51.08"/><path class="cls-4" d="M286.54,425.27s16.3,7.75,8.82,38.64c0,0-1.69,4.47-5.09,2.49s-3.48-6.75-3.48-6.75"/><path class="cls-4" d="M276.75,430.42s16,6.06,8.53,36.94c0,0-1.69,4.48-5.09,2.5S278,454.1,278,454.1"/><path class="cls-4" d="M199.83,640.8S287.45,588.86,368.17,584c0,0-36.7-89.7-36.31-126"/><path class="cls-4" d="M270,458c-1.89,13.84-25.93,26.48-25.93,26.48s-32.2,149.61-54.81,172.21c-19.78,19.79-37.73,7.68-41.92,4.35-.9-.72-1.82-1.42-2.75-2.11-27.08-20-45.77-58.18-58.33-98.77"/><path class="cls-4" d="M145.51,350.19S66,363.82,63.48,416a219.29,219.29,0,0,0,.65,23.59"/><path class="cls-4" d="M64.13,439.56s-1.38,64.38,12.79,125.25c0,0,3.62-1.85,9.34-4.66"/><line class="cls-4" x1="64.13" y1="439.56" x2="64.13" y2="439.56"/><path class="cls-4" d="M144.29,493.7,156,532.87c-12.37-.17-51.63,18.37-69.75,27.28"/><path class="cls-4" d="M364.13,434.66,382,466.31s-20-2.39-45.55,14.52"/><path class="cls-4" d="M386.55,502c-3.26-.82-13.74-34.88-13.74-34.88"/><line class="cls-4" x1="431.45" y1="360.99" x2="424.63" y2="378.15"/><polygon class="cls-5" points="414.32 407.01 416.6 412.99 409.77 411.33 409.77 406.43 414.32 407.01"/><path class="cls-8" d="M193.3,339.18a1.8,1.8,0,0,1-1.51.82,1.75,1.75,0,0,1-1-.29,1.8,1.8,0,0,1-.53-2.49c3.84-5.9,6.06-18.81,6.4-37.35.24-12.93-.52-24.48-.67-26.52-1.57-4.38-3.08-9.14-4.5-14.33a13,13,0,0,1-8.3-2.6c-4.53-3.4-7.09-9.72-7.62-18.79-.49-8.37,1.17-13.72,4.92-15.9,5-2.91,11.44,1.2,11.71,1.38a1.78,1.78,0,0,1,.73.93c1.44,4.25,3.41,6.43,6,6.66,12.78,1.15,38.13-39.2,47.48-56-2.8-5.59-4.31-9.45-4.51-10a1.8,1.8,0,0,1,3.37-1.28c.17.43,17,43.72,48.76,57.47a51.27,51.27,0,0,0,10.82,3.32c3.47-14.71,3.25-31.52,3.24-31.75a1.81,1.81,0,0,1,1.77-1.84h0a1.8,1.8,0,0,1,1.8,1.77c0,1,.24,17.43-3.25,32.36a50.35,50.35,0,0,0,13.52-.33,103.87,103.87,0,0,0,.75-22.55c-1.52-18.91-11.05-34-28.3-44.71a84.82,84.82,0,0,0-25.68-10.58,1.69,1.69,0,0,1-.79-.37,68.74,68.74,0,0,0-23.26-11.18c-18.47-4.87-35.9-1.1-51.82,11.21C151,178.7,157,232.85,157.22,235.14c.48,4-1.94,10.33-5.3,19.17-5.85,15.42-13.86,36.53-12.13,58.91l0,.5c.14,1.84.29,3.74.38,5.63.4,7.93,3,34.71,20,46.32,12.06,8.26,2.83,24.64-6.09,40.49-8.29,14.72-16.86,29.94-11.12,40.17l.2.36c.16.28.33.57.48.87.07.14,7.85,12.54,20.91,8.46-4.27-2.71-11.3-8.18-12.78-15.56-1-4.88.61-9.72,4.72-14.38,2.35-2.67,5.06-5.44,7.92-8.36,14.79-15.11,33.19-33.91,21.38-59.28a1.8,1.8,0,1,1,3.27-1.52"/><path class="cls-8" d="M307.49,228.25a46.53,46.53,0,0,1-5.33,12.55c-2.38,3.67-4.3,10.83-6.53,19.11-6.49,24.16-16.29,60.68-52.19,60.68a34.39,34.39,0,0,1-7.81-.88v16.56A192,192,0,0,1,269.54,339c23.12,4.14,38,12.26,44.45,24.14,11.74-21.4,2.42-31.32-6.62-40.93-4.45-4.73-8.65-9.2-9.71-14.76-1.29-6.76,3-17.31,8.37-30.66s12.27-30.38,15.33-48.71a54.51,54.51,0,0,1-7.51.53A53.89,53.89,0,0,1,307.49,228.25Z"/><path class="cls-9" d="M233,237.34s12.27-10.42,26.51,2.2"/><path class="cls-10" d="M242.51,236.73a4.13,4.13,0,1,1,1.83,5.55,4.13,4.13,0,0,1-1.83-5.55"/><path class="cls-9" d="M301.2,243c-14.24-12.62-26.52-2.2-26.52-2.2s2.17,34.06,1.08,36.7-11.58-1.75-11.58-1.75"/><path class="cls-10" d="M284.17,240.18a4.13,4.13,0,1,1,1.83,5.55,4.15,4.15,0,0,1-1.83-5.55"/><path class="cls-9" d="M262.92,292.14s-6.34-3.59-12.59-2.05"/><path class="cls-9" d="M259.32,220.8s-8.29-14.61-23.69-2.57"/><path class="cls-11" d="M383.39,148.38a32.56,32.56,0,0,1,2.47-12.87,28.92,28.92,0,0,1,6.87-10,31.09,31.09,0,0,1,10.5-6.44,37.39,37.39,0,0,1,13.31-2.29,36.19,36.19,0,0,1,13,2.29A31.28,31.28,0,0,1,440,125.55a29.08,29.08,0,0,1,6.88,10,32.74,32.74,0,0,1,2.47,12.87,33.42,33.42,0,0,1-2.47,13A29.92,29.92,0,0,1,440,171.49,30.68,30.68,0,0,1,429.59,178a36.19,36.19,0,0,1-13,2.29A37.39,37.39,0,0,1,403.23,178a30.5,30.5,0,0,1-10.5-6.52,29.75,29.75,0,0,1-6.87-10.14A33.23,33.23,0,0,1,383.39,148.38Zm130-17.63-104,113.57a7.17,7.17,0,0,1-5.55,2.56,8.26,8.26,0,0,1-5.2-1.85,7.63,7.63,0,0,1-2.65-4.68,6.26,6.26,0,0,1,1.94-5.55l104-113.58a7.16,7.16,0,0,1,5.56-2.55,8.29,8.29,0,0,1,5.2,1.85,7.64,7.64,0,0,1,2.64,4.67A6.26,6.26,0,0,1,513.36,130.75Zm-114.8,17.63q0,7.94,4.67,12.44t13.31,4.49q8.47,0,13-4.49t4.59-12.44q0-7.57-4.59-12.08t-13-4.49q-8.64,0-13.31,4.49T398.56,148.38Zm62.78,68.25a32.56,32.56,0,0,1,2.47-12.87,29.87,29.87,0,0,1,6.87-10,30.37,30.37,0,0,1,10.5-6.53,39.07,39.07,0,0,1,26.36,0A30.55,30.55,0,0,1,518,193.71a30,30,0,0,1,6.88,10,32.73,32.73,0,0,1,2.46,12.87,33.41,33.41,0,0,1-2.46,13A28.88,28.88,0,0,1,518,239.65a31.25,31.25,0,0,1-10.41,6.43,38.91,38.91,0,0,1-26.36,0,31.06,31.06,0,0,1-10.5-6.43,28.72,28.72,0,0,1-6.87-10.05A33.23,33.23,0,0,1,461.34,216.63Zm15.16,0q0,7.94,4.68,12.44t13.14,4.49q8.46,0,13.14-4.49t4.67-12.44q0-7.57-4.67-12.17t-13.14-4.58q-8.47,0-13.14,4.58T476.5,216.63Z"/><path class="cls-12" d="M318.51,36.34a37.92,37.92,0,0,1,9.63-9.57,46.63,46.63,0,0,1,12.21-6,47.65,47.65,0,0,1,27.33-.52,48,48,0,0,1,16.1,7.61A40.11,40.11,0,0,1,394.13,39a33.47,33.47,0,0,1,4.69,13,33.1,33.1,0,0,1-.92,13.47,34.07,34.07,0,0,1-5.2,11.09,42.05,42.05,0,0,1-7.64,8,47.56,47.56,0,0,1-8.91,5.66q-4.66,2.28-8.86,4.21-2.09.89-4.18,1.86c-1.4.64-2.74,1.28-4,1.9a79.77,79.77,0,0,0-7.82,4.41,11.76,11.76,0,0,0-5.24,7,6.14,6.14,0,0,1-3.72,4.45,8.57,8.57,0,0,1-10-2.79,6.18,6.18,0,0,1-.87-5.74,23.27,23.27,0,0,1,8-12.6,67.23,67.23,0,0,1,12.88-7.76c1.38-.58,2.78-1.2,4.18-1.85s2.86-1.31,4.4-2c2.8-1.29,5.41-2.57,7.85-3.85a42.27,42.27,0,0,0,6.57-4.21,25.15,25.15,0,0,0,5-5.19,20.6,20.6,0,0,0,3.13-6.63,19.37,19.37,0,0,0-2.21-15.36,24.42,24.42,0,0,0-6.57-7,34,34,0,0,0-10.89-5,32.13,32.13,0,0,0-18.51.42,33.47,33.47,0,0,0-8.18,4,26,26,0,0,0-6.5,6.25,6.66,6.66,0,0,1-5,3.09,7.66,7.66,0,0,1-5.19-1.45A8.33,8.33,0,0,1,317.28,42,6.27,6.27,0,0,1,318.51,36.34ZM320,132.87a10,10,0,0,1,5.42-6.63,11.63,11.63,0,0,1,8.56-.82,11.34,11.34,0,0,1,6.81,5.11,10.21,10.21,0,0,1,1.12,8.46,10.56,10.56,0,0,1-5.15,6.62,11,11,0,0,1-8.66.88,11.31,11.31,0,0,1-7.05-5.27A10.35,10.35,0,0,1,320,132.87Z"/><path class="cls-12" d="M20.08,203a16.64,16.64,0,0,1-2-6.46,15,15,0,0,1,.71-6.21A16.16,16.16,0,0,1,22,184.79a19.36,19.36,0,0,1,5.51-4.28,18.69,18.69,0,0,1,6.5-2.14,16.22,16.22,0,0,1,6.31.41,14.86,14.86,0,0,1,5.55,2.86,16.76,16.76,0,0,1,4.26,5.26,17.33,17.33,0,0,1,2,6.51,15.23,15.23,0,0,1-.67,6.29,15.67,15.67,0,0,1-3.15,5.5A18.64,18.64,0,0,1,43,209.42a19.26,19.26,0,0,1-6.63,2.2A15.7,15.7,0,0,1,30,211.2a15.2,15.2,0,0,1-5.6-2.95A17.07,17.07,0,0,1,20.08,203ZM27,199.26a8.48,8.48,0,0,0,5.15,4.53c2.15.6,4.53.21,7.16-1.19s4.19-3.12,4.85-5.23a8.59,8.59,0,0,0-.94-6.78,8.31,8.31,0,0,0-5-4.38c-2.12-.63-4.46-.25-7,1.12s-4.29,3.17-5,5.29A8.3,8.3,0,0,0,27,199.26Zm48-36-19.76,77a3.68,3.68,0,0,1-1.91,2.52,4.29,4.29,0,0,1-2.82.42,3.92,3.92,0,0,1-2.34-1.49,3.24,3.24,0,0,1-.47-3l19.76-77a3.68,3.68,0,0,1,1.91-2.52,4.29,4.29,0,0,1,2.82-.42,3.91,3.91,0,0,1,2.34,1.48A3.26,3.26,0,0,1,75,163.3Zm-2.8,51.77a16.64,16.64,0,0,1-2-6.46,15.44,15.44,0,0,1,3.88-11.78,20.16,20.16,0,0,1,12-6.41,15.78,15.78,0,0,1,6.33.44,15.57,15.57,0,0,1,5.57,2.9,16.69,16.69,0,0,1,4.26,5.27,17.28,17.28,0,0,1,2,6.5,14.81,14.81,0,0,1-.69,6.25,15.9,15.9,0,0,1-3.17,5.46,20.12,20.12,0,0,1-12,6.42,16.19,16.19,0,0,1-6.35-.38,14.82,14.82,0,0,1-5.57-2.9A17.23,17.23,0,0,1,72.19,215.07Zm6.91-3.69a8.48,8.48,0,0,0,5.15,4.53,9.39,9.39,0,0,0,7.08-1.15,9.38,9.38,0,0,0,4.89-5.24,8.5,8.5,0,0,0-.9-6.81,8.37,8.37,0,0,0-5.09-4.4,9.31,9.31,0,0,0-7.1,1.11,9.28,9.28,0,0,0-4.87,5.28A8.43,8.43,0,0,0,79.1,211.38Z"/><path class="cls-13" d="M62.91,303.29c-.85-3.63,1.05-8.77,4.67-9.62s7.62,2.91,8.47,6.53a6.75,6.75,0,0,1-13.14,3.09Z"/><path class="cls-13" d="M481.27,303.29c-.85-3.63,1.05-8.77,4.68-9.62s7.61,2.91,8.46,6.53a6.75,6.75,0,0,1-13.14,3.09Z"/><path class="cls-14" d="M24,348.06c.36-2,2.43-4.14,4.43-3.77s3.15,3.11,2.79,5.11A3.67,3.67,0,0,1,24,348.06Z"/><path class="cls-14" d="M484.22,85.06c.37-2,2.43-4.15,4.43-3.78s3.16,3.11,2.79,5.11a3.67,3.67,0,0,1-7.22-1.33Z"/><path class="cls-14" d="M375,216.87c.37-2,2.44-4.14,4.43-3.77s3.16,3.11,2.79,5.1a3.67,3.67,0,1,1-7.22-1.33Z"/></svg>