<?xml version="1.0" encoding="utf-8"?>
<!-- Generator: Adobe Illustrator 22.0.1, SVG Export Plug-In . SVG Version: 6.00 Build 0)  -->
<svg version="1.1" id="Layer_1" xmlns="http://www.w3.org/2000/svg" xmlns:xlink="http://www.w3.org/1999/xlink" x="0px" y="0px"
	 viewBox="0 0 536.1 536.1" style="enable-background:new 0 0 536.1 536.1;" xml:space="preserve">
<style type="text/css">
	.st0{fill:#FFFFFF;}
	.st1{fill:#FF6900;}
	.st2{fill:none;stroke:#000000;stroke-width:1.5;stroke-linecap:round;stroke-linejoin:round;stroke-miterlimit:10;}
	.st3{fill:#FFFFFF;stroke:#000000;stroke-width:1.5;stroke-linecap:round;stroke-linejoin:round;stroke-miterlimit:10;}
</style>
<g id="Cat">
	<path class="st0" d="M506.6,439.5c-4.4-12.8-33.2-15.5-40.4-17.7l-1.6,7.1c0,0,24.7,6.8,22.4,15.2c-2.4,8.4-37.2,21.1-43.8,20.8
		c-9.9-0.4-14.8,12.2-2.7,14.8c17.5,3.9,48.1-12.5,57.5-21.3c4.9-4.6,7.2-8.9,7.6-9.7l1.5,1.9C507,452.5,508.8,443.3,506.6,439.5z"
		/>
	<path class="st0" d="M402.8,307.2c-2.9-0.2-14.3,0.4-18.6,3.2c0,0-15.1-7.9-17.3-6.4c-2.2,1.5-0.8,9.6,6.3,17.5c3,3.4,3,3.4,3,3.4
		s-0.8,7.5,3.6,11.8c4.4,4.4,4.4,10.6,3.8,14s-2.4,14.9-2.8,17s3,31.3,2.5,34.8s-4.4,31.6-5,34c-0.7,2.5-5.2,11.9-5.2,11.9
		s-1.6-2.7-2.6-2.1c-0.9,0.6-4.9,4.9-4.7,6.7c0.3,1.8,1.1,2.9,1.1,2.9l3.9,0.2c0,0-0.3,1.4,2,1.7s4.6,0.3,7.8-2.6
		c3.2-2.9,2.7-0.9,3.8-4.1c1.1-3.2,8.7-26.5,10.1-28.6l0.4,2.2c0,0,3.7-7.8,5.5-9l2.1-1.7c0,0,7,17,10.6,20.5
		c1.2,1.1,2.8,1.7,2.8,1.7s-2.1-0.6-3.4,0.2c-1.3,0.8-4.8,4.9-4.5,6s1.6,3.3,2.7,3.4s3.4-0.3,3.4-0.3s6.1,0.9,10.4,0.3
		c8.4-1.1,9.8-4.3,9.8-4.3l7.6,1.9l-0.2,3.7l5.4,2.8l24.2-19.5c0,0,3.1-4.2-0.9-18.2c-4-14.1-7.9-30.4-15.8-38.9
		s-19.9-11.2-25.3-12.9c0,0-7-9.2-10.3-12.6s-5.7-10.3-5.4-12.1s3.3-11.1,2.6-14.5c-0.7-3.4,1.7-8.3,2.3-11.5
		c0.5-3.2,3.2-12.3-0.3-14C414.8,294.3,402.8,307.2,402.8,307.2z"/>
	<path class="st1" d="M501.5,437.4c-5.8-5.1-23-12.9-36.1-12.2l-0.8,3.8c0,0,27.8,8.1,25.4,16.6c-2.4,8.4-38.2,22.5-44.8,22.3
		c-9.9-0.4-16.8,9.4-4.8,12.1c17.5,3.9,47.9-12.3,57.5-21.3C508.5,448.4,505.1,440.5,501.5,437.4z"/>
	<path class="st0" d="M467.4,476c4.4-9,3.9-13.9-9.6-14.7c-6.6,2.3-12.3,3.8-14.6,3.7c-9.9-0.4-14.8,12.2-2.7,14.8
		C447.9,481.5,457.8,479.5,467.4,476z"/>
	<path class="st2" d="M506.6,439.5c-4.4-12.8-33.2-15.5-40.4-17.7l-1.6,7.1c0,0,24.7,6.8,22.4,15.2c-2.4,8.4-37.2,21.1-43.8,20.8
		c-9.9-0.4-14.8,12.2-2.7,14.8c17.5,3.9,48.1-12.5,57.5-21.3c4.9-4.6,7.2-8.9,7.6-9.7l1.5,1.9C507,452.5,508.8,443.3,506.6,439.5z"
		/>
	<path class="st1" d="M403.8,311.1c-2.9-0.2-14.8,0.3-19.1,3.1c0,0-15.6-11.6-17.9-10.1c-2.2,1.5-0.8,9.6,6.3,17.5
		c3,3.4,3,3.4,3,3.4s-0.8,7.5,3.6,11.8c4.4,4.4,4.4,10.6,3.8,14s-2.4,14.9-2.8,17s3,31.3,2.5,34.8s-4.4,31.6-5,34
		c-0.7,2.5-5.2,11.9-5.2,11.9s-1.6-2.7-2.6-2.1c-0.9,0.6-4.9,4.9-4.7,6.7c0.3,1.8,1.1,2.9,1.1,2.9l3.9,0.2c0,0-0.3,1.4,2,1.7
		s4.6,0.3,7.8-2.6c3.2-2.9,2.7-0.9,3.8-4.1c1.1-3.2,8.7-26.5,10.1-28.6l0.4,2.2c0,0,3.7-7.8,5.5-9l2.1-1.7c0,0,7.1,16.9,10.6,20.5
		c1.1,1.1,2.8,1.7,2.8,1.7s-2.5-0.1-3.4,0.2c-1.4,0.5-4.8,4.9-4.5,6s1.6,3.3,2.7,3.4s3.4-0.3,3.4-0.3s2.8,0.3,4.3,0.1
		c0,0,5.7,0.8,11.9-1.2l4.1-2.9l7.6,1.9l-0.2,3.7l5.4,2.8l24.2-19.5c0,0,3.1-4.2-0.9-18.2c-4-14.1-9.3-26.5-17.2-35
		c-7.9-8.5-19.9-11.2-25.3-12.9c0,0-5.6-13-9-16.5s-5.7-10.3-5.4-12.1s3.3-11.1,2.6-14.5c-0.7-3.4,1.7-8.3,2.3-11.5
		c0.5-3.2,2.5-10.8,0.9-11.3C415.8,297.5,403.8,311.1,403.8,311.1z"/>
	<path class="st0" d="M381.1,417.9c-1.2,8.4-2.5,17.4-2.9,18.7c-0.7,2.5-5.2,11.9-5.2,11.9s-1.6-2.7-2.6-2.1
		c-0.9,0.6-4.9,4.9-4.7,6.7c0.3,1.8,1.1,2.9,1.1,2.9l3.9,0.2c0,0-0.3,1.4,2,1.7c2.3,0.3,4.6,0.3,7.8-2.6s2.7-0.9,3.8-4.1
		c0.6-1.8,3.2-9.8,5.7-16.9C387.8,426.6,384.2,419,381.1,417.9z"/>
	<path class="st0" d="M438.5,363.6c-3.7-1.4-7-2.2-9.2-3c0,0-7-9.2-10.3-12.6c-3-3.1-5.2-9-5.4-11.5c-6.3,8.7-26.5,15.2-26.9,25.5
		c-0.3,8.1,4.6,15.5,20.8,16.6l0.2,2.5c0,0,1.6-2.6,3,1.6c0,0,4.2-2.2,6.5-3C431.7,374.9,435.8,370.3,438.5,363.6z"/>
	<path class="st0" d="M384.2,310.4c0,0-15.1-7.9-17.3-6.4c-2.2,1.5-0.8,9.6,6.3,17.5c3,3.4,3,3.4,3,3.4s-0.2,2,0.2,4.6
		c4.2,1.8,11.8,4.5,15.5,2.4c5.3-3,5.4-6.7,0.3-13.2c-3.9-4.9-2.7-7.3-0.9-10.6C388.4,308.6,385.8,309.3,384.2,310.4z"/>
	<path class="st2" d="M402.8,307.2c-2.9-0.2-14.3,0.4-18.6,3.2c0,0-15.1-7.9-17.3-6.4c-2.2,1.5-0.8,9.6,6.3,17.5c3,3.4,3,3.4,3,3.4
		s-0.8,7.5,3.6,11.8c4.4,4.4,4.4,10.6,3.8,14s-2.4,14.9-2.8,17s3,31.3,2.5,34.8s-4.4,31.6-5,34c-0.7,2.5-5.2,11.9-5.2,11.9
		s-1.6-2.7-2.6-2.1c-0.9,0.6-4.9,4.9-4.7,6.7c0.3,1.8,1.1,2.9,1.1,2.9l3.9,0.2c0,0-0.3,1.4,2,1.7s4.6,0.3,7.8-2.6
		c3.2-2.9,2.7-0.9,3.8-4.1c1.1-3.2,8.7-26.5,10.1-28.6l0.4,2.2c0,0,3.7-7.8,5.5-9l2.1-1.7c0,0,7,17,10.6,20.5
		c1.2,1.1,2.8,1.7,2.8,1.7s-2.1-0.6-3.4,0.2c-1.3,0.8-4.8,4.9-4.5,6s1.6,3.3,2.7,3.4s3.4-0.3,3.4-0.3s6.1,0.9,10.4,0.3
		c8.4-1.1,9.8-4.3,9.8-4.3l7.6,1.9l-0.2,3.7l5.4,2.8l24.2-19.5c0,0,3.1-4.2-0.9-18.2c-4-14.1-7.9-30.4-15.8-38.9
		s-19.9-11.2-25.3-12.9c0,0-7-9.2-10.3-12.6s-5.7-10.3-5.4-12.1s3.3-11.1,2.6-14.5c-0.7-3.4,1.7-8.3,2.3-11.5
		c0.5-3.2,3.2-12.3-0.3-14C414.8,294.3,402.8,307.2,402.8,307.2z"/>
	<path class="st0" d="M413.4,315.8c-0.6-1.3-3.5-3.6-3.5-3.6l1.4-1c-0.8-0.8-3.6-1.3-3.6-1.3l1.3-1.2l-3.2-0.2
		c2.2-4.2,9.9-11,11.9-10.9c0,0,0.7,1.3-1.5,9.4C414.5,313.2,413.4,315.8,413.4,315.8z"/>
	<path class="st2" d="M413.8,316.3c-0.7-1.3-3.7-3.4-3.7-3.4l1.4-0.9c-0.8-0.7-3.7-1.2-3.7-1.2l1.4-1.1l-3.3-0.2
		c2.3-4,10.2-10.5,12.3-10.4"/>
	<path class="st1" d="M412.9,391.2c-0.8,4-6,9.2-7.3,12.4c-1.2,3.2-5.7,13.1-6,18.6s0.4,7.8,1.9,8.9c0,0,1.5,2.7,4.8,2.3
		c0,0,4.2,1.9,6.6-5.3s2.6-13.4,3.4-14.3s14.3-9.4,16.5-11.9s8.5-9.9,7.9-13.6"/>
	<path class="st2" d="M369.9,309.5c0.1-1.1,2.8-1.5,12.1,4l-2.5,1.2l0.7,0.9c0,0-1.8,1.9-1.9,2.3l1.2,0.1l-1.5,3.2"/>
	<path class="st2" d="M400.6,326.4c-0.2-2.7,0.7-8.7,8.2-6.3"/>
	<path class="st2" d="M381.4,324.5c1.5-1.7,6.8-5.7,10.2,3.3"/>
	<path class="st0" d="M397.5,336.5c0,0,0-2.5-4-2.8c-2-0.1-3.3,0.5-4.2,1.3c-1.9,1.8-1.4,5,1,5.9c0.6,0.2,1.3,0.3,2,0.3
		c2.7-0.1,5.5-2.4,5.5-2.4L397.5,336.5z"/>
	<path class="st0" d="M403.6,339.4l-4,0.7l-1.7-1.2l-0.3,0.2l-1.4,1.6l-3.8,0.6c1,1.3,2.7,3.8,6.1,3.5
		C402,344.3,404.1,340.6,403.6,339.4z"/>
	<path class="st0" d="M403,332.1c-3.8,0.6-5.2,3.2-5.2,3.2l0.1,3.5c0,0,1.8,1,4.9,0.7c1.6-0.1,2.2-0.5,3-1.3c2.4-2.3,1-6.5-2.3-6.2
		C403.4,332.1,403.2,332.1,403,332.1z"/>
	<path d="M401,332.7c-0.3-0.9-2.7,0.4-3.6,0.8s-3.5-0.7-3.9,0.1s3.1,4.1,4.2,3.8S401.4,334.3,401,332.7z"/>
	<path class="st2" d="M397.5,336.5l0.4,2.3c0,0-2.8,2.3-5.5,2.4s-5-2.4-4.9-4.3"/>
	<path class="st2" d="M397.9,338.8c0,0,1.8,1,4.9,0.7c3.6-0.3,5.2-4.1,5.3-5.8"/>
	<path class="st2" d="M392.4,341.2c1,1.3,2.7,3.8,6.1,3.5c3.5-0.3,5.6-4.1,5.1-5.3"/>
	<path class="st1" d="M453.2,410.7c-1.3,2-8.9,1.7-12.5,4.6c-2.9,2.3-7.1,14.5-8.8,21.2c-0.2,0.9,0.8,4,1.7,7.5
		c1.2,4.6,8.2,3.3,8.2,3.3s-3,4.8-3.1,6.4s6,2.6,7.4,1.9c0,0,3.6,1.3,8.1,0.8s21.6-5,23.2-13.7c0.4-2.4-2.1-5.2-7.2-6.1
		c0,0,4.6-5.8-0.9-15.6"/>
	<path class="st0" d="M453.7,410.3c-0.3,1.7-3.3,1.6-6.5,2.5c-7.6,2.1-8,4.1-10.7,9.7c-4.3,9.3-3.3,9.3-3.3,9.3s1.8-2.4,3-4.6
		c2.6-4.6,4.1-8.4,5.9-9.1c3-1.2,8.8-1.9,10.7-4C454.6,412.2,453.7,410.3,453.7,410.3z"/>
	<path class="st0" d="M457.7,455.7c0.7-1.7,0.4-3.9-2.9-6c-8.7-5.4-13-2.4-13-2.4s-3,4.8-3.1,6.4s6,2.6,7.4,1.9c0,0,3.6,1.3,8.1,0.8
		C455,456.3,456.2,456.1,457.7,455.7z"/>
	<path class="st2" d="M453.2,410.7c-1.3,2-8.9,1.7-12.5,4.6c-2.9,2.3-7.1,14.5-8.8,21.2c-0.2,0.9,0.6,4.2,1.7,7.7
		c1.4,4.5,8.1,3.2,8.1,3.2s-3,4.8-3.1,6.4s6,2.6,7.4,1.9c0,0,3.6,1.3,8.1,0.8s22.8-5.5,23.2-13.7c0.1-2.4-2.1-5.2-7.2-6.1
		c0,0,4.6-5.8-0.9-15.6"/>
	<path class="st2" d="M467.7,448.5c-4,1.4-10.4,2.7-12.9,1.3c-2.6-1.4-8.3-4.6-13-2.4"/>
	<path class="st2" d="M460.9,435.6c0,0,5.4-0.4,9.3,1"/>
	
		<ellipse transform="matrix(0.8938 -0.4484 0.4484 0.8938 -101.8705 215.8042)" class="st0" cx="404.8" cy="323" rx="3.5" ry="3.3"/>
	
		<ellipse transform="matrix(0.5499 -0.8353 0.8353 0.5499 -97.9456 469.3688)" class="st0" cx="386.5" cy="325.6" rx="3.3" ry="3.5"/>
	
		<ellipse transform="matrix(0.8938 -0.4484 0.4484 0.8938 -101.8705 215.8042)" class="st2" cx="404.8" cy="323" rx="3.5" ry="3.3"/>
	
		<ellipse transform="matrix(0.5499 -0.8353 0.8353 0.5499 -97.9456 469.3688)" class="st2" cx="386.5" cy="325.6" rx="3.3" ry="3.5"/>
	<path class="st2" d="M389.6,378.1c4.3,2.2,8.7,10.8,10.8,15.1c1.4,2.8,4.3,12.7,3.5,14.6"/>
	<ellipse transform="matrix(0.1579 -0.9875 0.9875 0.1579 4.0378 654.7384)" cx="385.9" cy="325" rx="2.4" ry="2.6"/>
	<circle class="st0" cx="385.5" cy="324" r="1"/>
	<ellipse transform="matrix(0.1579 -0.9875 0.9875 0.1579 21.6928 670.5157)" cx="404" cy="322.5" rx="2.4" ry="2.6"/>
	<circle class="st0" cx="403.3" cy="321.3" r="1"/>
	<path class="st0" d="M409.7,380.7c0,0,3.7,5.9,3.3,8.7c-0.4,2.9-1.7,5.7-3.3,7.9c-1.6,2.2-3.7,5.3-5.4,9.7c0,0,5.2-5.8,7.1-7.7
		c3.2-3,5.1-7.5,5.3-9.9c0.2-4-2.5-13.4-2.5-13.4L409.7,380.7z"/>
	<path class="st2" d="M415.9,436.5c2.3,1.3,11.8,2.7,15.4,2.1"/>
	<path class="st0" d="M383.8,347c3.9,1.2,18.1,6.1,31.2-5.5c0,0,0.9,3.2,3.3,5.7c0,0-7.4,5.4-17.6,6.8s-17.2-1-17.2-1L383.8,347z"/>
	<path d="M383.8,347c3.9,1.2,16.5,3.8,25.8-1.6c0,0,0.8,2.6,3.2,5.2c0,0-1.9,2.1-12.1,3.4c-10.2,1.4-17.2-1-17.2-1L383.8,347z"/>
	<path class="st2" d="M383.8,347c3.9,1.2,19.1,5.7,31.2-5.5c0,0,0.9,3.2,3.3,5.7c0,0-7.4,5.4-17.6,6.8s-17.2-1-17.2-1L383.8,347z"/>
	<g>
		<g>
			<path class="st0" d="M399.3,357.1l-2.5,0.1c-0.7,0-2.1,1.3-2.2,2.1l0.6,6.1c-0.1,0.8,0.4,1.2,1,1.2l3.3-0.1
				c3-0.1,4.9-1.8,4.8-4.9C404.3,358.8,402.3,357.1,399.3,357.1z"/>
		</g>
	</g>
	<g>
		<path class="st1" d="M398.2,358.8l-2.7,0.1c-0.5,0-1.1,0.4-1.2,1.1l0.5,5.6c-0.1,0.6,0.3,1,0.9,1l2.7-0.1c2.4-0.1,4-1.5,4-4
			C402.3,360.2,400.7,358.8,398.2,358.8z"/>
	</g>
	<g>
		<path class="st2" d="M399.3,357.1l-2.5,0.1c-0.7,0-2.1,1.3-2.2,2.1l0.6,6.1c-0.1,0.8,0.4,1.2,1,1.2l3.3-0.1c3-0.1,4.9-1.8,4.8-4.9
			C404.3,358.8,402.3,357.1,399.3,357.1z"/>
	</g>
	<path class="st2" d="M398.6,352.9c-0.7,0.9-1.3,6.9,0.1,7.6"/>
	<path class="st2" d="M400.2,357.2c0,0,0.4-1.9-0.3-3.3"/>
	<path class="st2" d="M440.8,388.4c0.6,3.7-5.7,11.2-7.9,13.6s-15.7,10.9-16.5,11.9s-0.9,7.1-3.4,14.3s-6.6,5.3-6.6,5.3
		c-3.3,0.4-4.8-2.3-4.8-2.3c-1.6-1.1-2.2-3.4-1.9-8.9c0.3-5.5,4.8-15.4,6-18.6s6.4-8.4,7.3-12.4c0.8-4-3.6-11.2-3.6-11.2l-1.5,1.2
		c0,0-0.6-4.3-0.4-7.7"/>
	<path class="st2" d="M411.9,440.9c-0.8,0.5-1.6,3.1-1.2,5.2"/>
	<path class="st2" d="M415.6,441.4c-1,1.2-1.9,3.1-1.5,4.3"/>
	<path class="st2" d="M447.1,451.4c-0.6,1.3-1.4,2.5-1,4.2"/>
	<path class="st2" d="M442.5,450.3c-0.6,0.9-1.5,3.7-1.3,5.1"/>
	<path class="st2" d="M406.3,429.3c-0.4,1.1-0.2,2.1,0.1,4.1"/>
	<path class="st2" d="M401.6,427c-0.1,1.3-0.6,1.9,0,4.2"/>
	<path class="st2" d="M410.6,427.5c0.5,0.3,1,2.3,1,3.7"/>
	<path class="st2" d="M376,450.6c-2.3,0-5.2,4-5.2,5.6"/>
	<path class="st2" d="M391,337.1c0,0-16.1,5.3-21.8,17.9"/>
	<path class="st2" d="M393.2,338.6c-5.2,3.5-13.3,11.3-14.8,20.8"/>
	<path class="st2" d="M404,334.8c4-0.7,19.4,4.1,23.6,10.7"/>
	<path class="st2" d="M402,336.8c2.6,0.4,14.8,9.8,18.8,18.4"/>
</g>
<g id="Dog">
	<path class="st3" d="M152.7,350.7c-3,0.5-26.8,22-42.4,36.6c-0.3,0.3-1.4,1-1.4,1c-10.5,0.5-12.9,4.1-12.9,4.1
		c3.5-0.1,6.6,2.2,6.6,2.2c-7.2,1.2-8.8,5.1-8.8,5.1c2-0.3,3.2,0.3,3.2,0.3c-6.5,6.8-10.6,11.7-13.2,16.2
		c-4.3,7.6-14.6,28.1,3.4,44.8c18,16.7,34.8,7.1,34.8,7.1s1.9,5,23.4,4.4c26.8-0.7,28-1.2,31-3.3c0,0,9.6-4,9.1-9.2
		c-0.4-5.2-4.2-5.9-13.4-7.4s-17.1-1.7-17.1-1.7l1.5-2.5c0,0,14.8-1.6,21.4-8.2c0,0,11.6,17,15.2,20c3.6,3.1,12,8.3,18.8,4.9
		c0,0,4.2,1.9,7.8-0.5c0,0,3.3-1.9,2.5-3.6c0,0,2.8,0,6.1-1c7.7-2.2,5-5.8,3.6-8.6c-3.3-6.6-11.6-5.3-14.5-8.8
		c-2.3-2.7-4.3-28.2-6.2-36.9c-1.9-8.7,9.6-19.6,5.9-32.7C213.7,359.9,152.7,350.7,152.7,350.7z"/>
	<path d="M155.6,355.4c-4.7,1.2-58.9,44.2-70.3,62c-4.4,6.8-15.9,26.8,2,43.5c18,16.7,34.8,7.1,34.8,7.1s1.9,5,23.4,4.4
		c26.8-0.7,28-1.2,31-3.3c0,0,9.6-4,9.1-9.2c-0.4-5.2-4.2-5.9-13.4-7.4s-17.1-1.7-17.1-1.7l1.5-2.5c0,0,14.8-1.6,21.4-8.2
		c0,0,11.6,17,15.2,20c3.6,3.1,12,8.3,18.8,4.9c0,0,4.2,1.9,7.8-0.5c0,0,3.3-1.9,2.5-3.6c0,0,2.8,0,6.1-1c7.7-2.2,5-5.8,3.6-8.6
		c-3.3-6.6-11.6-5.3-14.5-8.8c-2.3-2.7-8.8-26.8-10.7-35.5s10.5-19.9,6.8-32.9C210.1,361,155.6,355.4,155.6,355.4z"/>
	<path class="st0" d="M204.1,416.9c0,0-1.9,6.6-1.8,16.7c0.1,10.1-5,0.2-5-10.3s0-18.5,0-18.5L204.1,416.9z"/>
	<path class="st3" d="M217.7,442.6c-1.6-1.9-3.1-15-4.5-25.7c-2.3,0.5-1.5,7.2-2,8.2c-0.2,0.4-0.9-2.9-1.3-2.6
		c-0.9,0.7-0.1,5.6-0.6,6.7c-0.7,1.5-1.8-1.8-1.8-1.8c-1.6,1,0,5.5-0.3,6.4c-0.2,0.6-1.9-1.8-1.9-1.8c-2.4,1.3-0.7,4.9-1.5,5.3
		l-6.2,15.3c0,0,14.5,10.8,18.3,13.3c1.3,0,2.7-0.3,4-1.2c0,0,3.3-1.9,2.5-3.6c0,0,2.8,0,6.1-1c7.7-2.2,5-5.8,3.6-8.6
		C228.9,444.8,220.6,446,217.7,442.6z"/>
	<path class="st3" d="M222.5,460.9c0-0.1-0.1-0.1-0.1-0.2s-0.1-0.1-0.1-0.2c-0.1-0.3-0.3-0.6-0.5-1c-0.1-0.1-0.1-0.2-0.2-0.3
		c-0.2-0.3-0.3-0.6-0.6-1c-0.8-1.3-1.8-2.7-3.2-4c-0.4-0.4-0.8-0.7-1.2-1c-0.1-0.1-0.3-0.2-0.4-0.3c-0.3-0.2-0.6-0.4-0.9-0.6
		c-0.3-0.2-0.6-0.4-1-0.5c-0.5-0.2-1-0.4-1.6-0.6l0,0c-6-1.7-6.8-4.6-7.2-8.1c0,0-1.1-5.2-2.2-12.1c-1.2-7.9-2.2-7-3.4-0.2
		c0,0-1.4-1.8-1.7-1.2c-0.8,1.2-0.2,5.2-0.4,5.8c0,0-1.6-1.9-2.1-1.3c-0.7,1.1,0.1,5.1-0.1,5.7c0,0-2.7-2.7-3.6-2.3
		c-0.8,0.3,0.2,4.4,0.2,4.4c-0.7,0-4.2-4.1-6.5-3c-0.5,0.2,0.7,2,1.3,3.3c0.5,1.1,0.4,1.8,0.4,1.8c-3.8-2.4-7-4.7-8.9-3.3l1.2,1.8
		c0.3,0.4,0.6,0.8,0.9,1.3c0.1,0.1,0.1,0.1,0.2,0.2c0.1,0.1,0.2,0.2,0.2,0.4c0.1,0.1,0.1,0.2,0.2,0.3c0.1,0.1,0.2,0.2,0.2,0.3
		c0.1,0.1,0.2,0.3,0.3,0.4s0.2,0.2,0.2,0.3c0.1,0.2,0.3,0.4,0.4,0.6c0.1,0.1,0.1,0.2,0.2,0.3c0.1,0.2,0.2,0.3,0.4,0.5
		c0.1,0.1,0.1,0.2,0.2,0.2c0.1,0.2,0.3,0.4,0.4,0.6c0,0.1,0.1,0.1,0.1,0.2c0.2,0.3,0.4,0.5,0.6,0.8c0,0.1,0.1,0.1,0.1,0.2
		c0.2,0.2,0.3,0.4,0.5,0.6c0.1,0.1,0.1,0.2,0.2,0.2c0.2,0.2,0.3,0.4,0.5,0.7l0.1,0.1c0.2,0.3,0.4,0.6,0.6,0.8l0,0
		c0.2,0.3,0.4,0.5,0.6,0.8c0,0.1,0.1,0.1,0.1,0.2c0.2,0.2,0.3,0.4,0.5,0.6c0,0.1,0.1,0.1,0.1,0.2c0.4,0.5,0.8,1,1.2,1.5
		c0,0.1,0.1,0.1,0.1,0.2c0.1,0.2,0.3,0.4,0.4,0.6c0,0.1,0.1,0.1,0.1,0.2c0.2,0.2,0.3,0.4,0.5,0.6c0,0,0,0.1,0.1,0.1
		c0.2,0.2,0.4,0.4,0.5,0.6l0.1,0.1c0.1,0.2,0.3,0.3,0.4,0.5c0,0.1,0.1,0.1,0.1,0.2c0.1,0.1,0.2,0.3,0.4,0.4l0.1,0.1
		c0.1,0.2,0.3,0.3,0.4,0.5c0,0,0,0.1,0.1,0.1c0.1,0.1,0.2,0.2,0.3,0.4l0.1,0.1c0.1,0.1,0.2,0.2,0.3,0.3l0.1,0.1
		c0.1,0.1,0.2,0.2,0.3,0.3c0.3,0.3,0.7,0.6,1.1,0.9c0.3,0.2,0.6,0.4,0.9,0.6c0.2,0.1,0.3,0.2,0.5,0.3c0.8,0.5,1.7,1.1,2.7,1.6
		c3.1,1.6,6.8,2.9,10.4,2.4c1.1-0.2,2.2-0.5,3.3-1l0,0l0,0c0,0,1.3,0.6,3.1,0.7c0.8,0,1.7,0,2.6-0.3c0.7-0.2,1.4-0.5,2-0.9
		c0,0,2.5-1.4,2.6-3C222.6,461.4,222.6,461.1,222.5,460.9z"/>
	<path d="M83.3,442.4c-3,1.5-16.5,4.2-22-0.4c0,0,10.1-1.2,9.3-9.7c-1.1-12-13.6-14.6-24.8-9.6c-7.8,3.5-12.4,14.3-8.5,26.2
		c5.3,16,24.3,22.7,51.6,12.1C109.7,453,83.3,442.4,83.3,442.4z"/>
	<path class="st2" d="M83.3,442.5c-3,1.5-16.5,4.2-22-0.4c0,0,10.2-0.8,9.2-10.3c-1.3-11.3-13.5-14-24.6-8.9
		c-7.8,3.5-12.4,14.3-8.5,26.2c5.3,16,24.3,22.7,51.6,12.1C109.7,453.1,83.3,442.5,83.3,442.5z"/>
	<path class="st3" d="M148.3,417.6c-0.6-0.5-1.4,0.2-1,0.9c2.6,4.1,5.8,11.1,6.8,14.2c1.4,4.6,2.1,10.6,1.7,14.5
		c-0.1,0.8,1,1,1.3,0.3C159.5,441.5,162.2,429,148.3,417.6z"/>
	<path class="st3" d="M155.7,421c-3.5-17.2-18.9-23.1-28.4-23.6c-0.9-0.1-1.1,1.2-0.3,1.5c3.9,1.1,9.1,4.3,14.6,8.1
		c6,4,10.4,9.8,12.6,14.6C154.7,422.3,155.9,421.9,155.7,421z"/>
	<path class="st2" d="M178.2,440.1c-2.6-3.9-10.7-17.1-9.5-21.8c1.3-4.7,1.7-10,1.7-10"/>
	<path class="st3" d="M216.5,370c-3.4-12.1-61.8-20.3-61.8-20.3c-1.1,0.3-7.6,4.7-7.6,4.7c2.4,9,10.5,30.4,40.8,33.6
		c12.1,1.3,27.7-6.6,30.1-11.4C218.1,376.6,217.5,373.5,216.5,370z"/>
	<path class="st1" d="M214,371.6c-2.7-9.5-36.8-18.1-52.2-20.6l-12.9,8.9c4.4,10.2,16,26,39,28.1c11.7,1.1,25.7-5.9,27.8-8.7
		C215.8,379.3,215,375,214,371.6z"/>
	<path class="st2" d="M216.5,370c-3.4-12.1-62.4-20.3-62.4-20.3c-1.1,0.3-7,4.7-7,4.7c2.4,9,10.5,30.4,40.8,33.6
		c12.1,1.3,27.7-6.6,30.1-11.4C218.1,376.6,217.5,373.5,216.5,370z"/>
	<path class="st2" d="M152.7,350.7c-3,0.5-26.8,22-42.4,36.6c-0.3,0.3-1.4,1-1.4,1c-10.5,0.5-12.9,4.1-12.9,4.1
		c3.5-0.1,6.6,2.2,6.6,2.2c-7.2,1.2-8.8,5.1-8.8,5.1c2-0.3,3.2,0.3,3.2,0.3c-6.5,6.8-10.6,11.7-13.2,16.2
		c-4.3,7.6-14.6,28.1,3.4,44.8c18,16.7,34.8,7.1,34.8,7.1s1.9,5,23.4,4.4c26.8-0.7,28-1.2,31-3.3c0,0,9.6-4,9.1-9.2
		c-0.4-5.2-4.2-5.9-13.4-7.4s-17.1-1.7-17.1-1.7l1.5-2.5c0,0,14.8-1.6,21.4-8.2c0,0,11.6,17,15.2,20c3.6,3.1,12,8.3,18.8,4.9
		c0,0,4.2,1.9,7.8-0.5c0,0,3.3-1.9,2.5-3.6c0,0,2.8,0,6.1-1c7.7-2.2,5-5.8,3.6-8.6c-3.3-6.6-11.6-5.3-14.5-8.8
		c-2.3-2.7-4.3-28.2-6.2-36.9c-1.9-8.7,9.6-19.6,5.9-32.7C213.7,359.9,152.7,350.7,152.7,350.7z"/>
	<path class="st3" d="M200.5,393.3c-25.7,5.3-36.6-12.2-42.5-10.4c-1.5,0.4-1.7,5.3,3.8,9.4c0,0-0.8,0.8-2.9,0.4
		c-0.9-0.2-1.6,0.8-1.1,1.5c1.3,2.1,3.8,4.9,8.3,4.7c0,0,0.3,0.7-1.2,1.1c-0.8,0.2-1,1.2-0.4,1.7c1.4,1,4,0.9,6.7,1.1
		c3.5,0.4,4,3.8,8.8,5.4c5.9,1.9,7.4-1.5,13.7,1c3.6,1.4,5.7,4,7.8,11c0.8,2.6,1.8,2.6,2.3-0.2c2.7-16.8,4.4-13.3,9.7-24.9
		c4.5-9.7,4.1-13.7,4.1-13.7S211.7,391,200.5,393.3z"/>
	<path class="st3" d="M59.9,466c-13.1-9-10.2-11.2-10.8-11.4c-0.7-0.3-2.4,1.6-2.4,1.6c-4.1-9,2.5-17.8,1.6-18.2c-2-1.1-4.6,0-4.6,0
		c0.5-5.3,11.5-7.6,11.5-7.6c-0.6-2.4-4.5-2.6-4.5-2.6c2.5-2.7,13.7-4.6,19.8,4c0-4.6-3.9-8.9-6.9-10c-2.5-0.8,1.6-4,1.6-4
		c-2.1-0.3-9.5-0.4-14.1,2.4c-1.6,0.9-0.9-5.2-0.9-5.2c-8.7,3.4-10.1,10.4-11.5,12.8c-0.9,1.5-3.7-2.4-3.7-2.4
		c-1,3-1.9,9.7,0.3,17.8c0.4,1.4-5-2.7-5-2.7c1.7,7.3,8.3,11.5,9,12.8s-3.3,0.1-3.3,0.1c2.3,3.7,5.5,6.3,8,7.7
		C48.3,463.6,53.8,465.3,59.9,466z"/>
	<path class="st3" d="M194.3,382.5c20.7-3.3,33.7-19.1,32.9-39.6c-0.9-23.7-15.4-8.5-9.4-26.3c3.8-11.3,1.1-15.9-2.9-15.8
		c-3.3,0.1-9.7,3.2-14.5,4.4c-3,0.8-13.1-0.3-18.2,0.1c-4.4,0.3-9.9,2.4-15,2.9c-5.5,0.6-10.2,0.3-13.2,1.4
		c-4.1,1.5-4.8,4.8,3.3,9.6c7.5,4.5-13.8,11.8-5.9,36C156.1,369.4,174.8,385.6,194.3,382.5z"/>
	<path d="M194.3,382.5c20.7-3.3,33.7-19.1,32.9-39.6c-0.3-7.7-2-11.3-4-13.2c-4.1-4,7.1-25.1-8.2-28.9c-4.5-1.1-11.7,9-16.6,9.4
		c-2,0.2-8.9-1-14-0.6c-4.4,0.3-9.2,2.5-14.3,3.1c-5.5,0.6-11.4-4.4-16-3c-4.2,1.2-2.9,27.6-2.9,27.6s-3.4,6.7,0.3,18.1
		C156.2,369.4,174.8,385.6,194.3,382.5z"/>
	<path class="st2" d="M194.3,382.5c20.7-3.3,33.7-19.1,32.9-39.6c-0.9-23.7-15.4-8.5-9.4-26.3c3.8-11.3,1.1-15.9-2.9-15.8
		c-3.3,0.1-9.7,3.2-14.5,4.4c-3,0.8-10.4-0.6-16.5,0c-4.4,0.4-11.6,2.5-16.7,3.1c-5.5,0.6-10.2,0.3-13.2,1.4
		c-4.1,1.5-4.8,4.8,3.3,9.6c7.5,4.5-13.8,11.8-5.9,36C156.1,369.4,174.8,385.6,194.3,382.5z"/>
	<path class="st3" d="M197.9,378.9c-18.3,2.5-27.8-4-33.6-9.7c-5.6-5.5-6.9-10.2-7.9-14.5c0,0,4.4,1.4,3.6,0.2
		c-0.9-1.3-2.8-4.2-2-8.5c0,0,2.7,1.6,2.8,0c0.2-3.8,1-7.4,3.5-8.2c0,0,0.3,4.2,1.5,4.4c1.2,0.2,3-2.4,3.2-1.4
		c0.4,2.3-2.3,11.6,0.9,12.5s8.8-4,10.7-8.2c0.2-0.4,0.8-0.3,0.9,0.1c0.4,1.6,2.7,4,4.1,4.5c4.3,1.7,10.2,0.2,12.5-3.3
		c1.1-1.6,1.3-3.2,1.2-4.3c0-0.7,0.7-1.1,1.3-0.7c3.1,2.4,8.5,7.4,10.5,6.7c5.3-1.9-0.6-9.7,0.4-13.3c0,0,1.9,1.9,2.9,1.1
		c0.7-0.5-0.3-5.8-0.3-5.8c4.2,0.8,4.6,5.6,5.1,8.2c0.2,0.8,2.8-1.6,2.8-1.6c1.7,3.5,0.4,5.8-0.8,8.8c-0.7,1.7,3.4-0.7,3.4-0.7
		c0.9,2-1.7,11.3-3,14.4C217.8,368.9,208.8,377.4,197.9,378.9z"/>
	<path class="st3" d="M184.3,324.8c-1.4-1.7-7.2-2-8.1,2.8c-1,4.8,3.2,6.6,6.3,2.9C185.4,326.8,185.1,325.9,184.3,324.8z"/>
	<path class="st3" d="M190.7,324.4c0.3-2.2,6.1-4.3,8.6-0.1c2.5,4.2-0.8,7.3-4.9,4.8C190.3,326.6,190.5,325.3,190.7,324.4z"/>
	<path class="st3" d="M191.8,347.1c-3.5,0-6.3,0.5-6.2,3c0.1,2.4,3.2,7.7,8.4,7c4.2-0.6,6.7-7.2,4.2-10.3
		C196.3,344.5,193.7,347.1,191.8,347.1z"/>
	<path d="M192.3,349.3c-2.4,0.4-6.7-1.4-6.5,2.1c0.1,1.4,2.9,6.4,8.1,5.7c4.2-0.6,6.5-7.5,4.7-9.4
		C196.8,345.9,194.3,349,192.3,349.3z"/>
	<path class="st3" d="M150.7,310.9c-2.3,1.5-3.3,4.2-3.5,7.5c0,0.7-2.1-2-2.1-2c-0.8,4.6,1.5,7.5,1.7,8.9c0.1,0.9-2.6-0.4-2.6-0.4
		c1.4,7.9,5.5,9.7,7.3,13c0.2,0.4,4.7-3.5,6.8-5.3c-5.3-2.2-4.6-7.8-4.6-7.8l4.1,4.1c-1.8-3.2-2.5-7.5-1.7-8.2c1.3-1.3,7.4,7,10,4
		c2.5-2.8,4.3-5.2,4.4-6.1C170.6,315.9,158.7,305.9,150.7,310.9z"/>
	<path class="st3" d="M217.2,300.9c-6.4-2-15.6,10.9-15.1,13.3c0,0,2.2,2.1,5.3,4.8c2.9,2.5,7.3-6.8,8.5-5.8
		c0.7,0.6,1.2,4.5,0.3,7.7c0.9-0.4,1.8-0.8,2.3-1.3c0,0,0.5,3.3-2.9,6.1c2.7,1.9,7.9,5.2,8.1,3.6c0.4-2.6,4.9-7.1,3.6-13.1
		c0,0-3.1,2.3-3.2,1.1c-0.1-1.6,3.2-5.2,1.7-8.7c0,0-2.5,2.1-2.8,1.2C221.9,305.2,220,301.8,217.2,300.9z"/>
	<path d="M177.3,361.6L177.3,361.6L177.3,361.6L177.3,361.6z"/>
	<path class="st1" d="M197.7,360.3c-2.7-0.5-4.5-2-4.5-2.1l0,0c0,0-2.3,2.6-3.7,3.5c-2.4,1.4-5.1,1.6-5.1,1.6
		c3.3,2.3,2.6,9.1,7.1,12.2c2.4,1.6,5.2,1.4,7.2,1.1C204.1,375.8,200.2,360.8,197.7,360.3z"/>
	<path class="st2" d="M198.2,360.4c-2.7-0.5-4.9-2.1-4.9-2.1l0,0c0,0-2.3,2.6-3.7,3.5c-2.4,1.4-5.1,1.6-5.1,1.6
		c3.3,2.3,2.6,9.1,7.1,12.2c2.4,1.6,5.3,1.6,7.2,1.1c7.8-2.2,5.3-12.6,3.7-15.9C202.2,360.5,200.6,360.8,198.2,360.4z"/>
	<path d="M202.3,360.8c0.9,1.3,2.2,5.4,1.7,9.5c1.2-4,1.4-8.1,4.7-12.9l0,0C207.3,358.8,202.3,360.8,202.3,360.8z"/>
	<path d="M184.5,363.3c-2.6,0.2-5.3-0.6-7.5-1.8c5.7,3,7.8,9.9,13.2,13.1c0.1,0.1,0.2,0.1,0.3,0.2
		C187.1,371.3,187.5,365.4,184.5,363.3z"/>
	<path class="st0" d="M197.5,371.3c-3.2-2.5-1.4-9.1-5.2-12l-2.2,2.1c0,0,1.7,1.1,2.2,3.3c0.5,2.2,2,5.4,3.2,6.2
		C197.5,372.2,197.5,371.3,197.5,371.3z"/>
	<path class="st2" d="M172.3,356.6c1.3,3.5,6.9,7.1,12.1,6.7c0,0,2.7-0.1,5.1-1.6c1.4-0.9,3.7-3.5,3.7-3.5s2.2,1.4,4.9,2.1
		c6.7,1.8,12.7-3,13.8-9.9"/>
	<path class="st3" d="M197.3,371.1c-3.4-3.5-1.2-9-5-11.9"/>
	
		<ellipse transform="matrix(0.9341 -0.3569 0.3569 0.9341 -105.277 94.2694)" class="st0" cx="202.8" cy="332.4" rx="3.2" ry="2.9"/>
	<circle cx="203.1" cy="331.7" r="3.1"/>
	
		<ellipse transform="matrix(0.6642 -0.7476 0.7476 0.6642 -178.1001 263.5079)" class="st0" cx="204.2" cy="330" rx="0.8" ry="0.8"/>
	<ellipse transform="matrix(0.5758 -0.8176 0.8176 0.5758 -187.5571 306.478)" class="st0" cx="201.6" cy="334" rx="0.7" ry="0.8"/>
	
		<ellipse transform="matrix(0.9341 -0.3569 0.3569 0.9341 -108.7241 85.3458)" class="st0" cx="176.9" cy="337.3" rx="3.3" ry="2.9"/>
	<circle cx="177.3" cy="336.5" r="3.1"/>
	
		<ellipse transform="matrix(0.6642 -0.7476 0.7476 0.6642 -190.4019 245.7757)" class="st0" cx="178.4" cy="334.8" rx="0.8" ry="0.8"/>
	
		<ellipse transform="matrix(0.5758 -0.8176 0.8176 0.5758 -202.4848 287.3618)" class="st0" cx="175.7" cy="338.8" rx="0.7" ry="0.8"/>
</g>
<g id="Pizza-dream">
	<circle class="st0" cx="122.4" cy="248.3" r="11.9"/>
	<circle class="st0" cx="149.5" cy="279.8" r="5.7"/>
	<path class="st0" d="M375.6,119.9c0-21.5-12.6-38.9-28.1-38.9c-1.9,0-3.8,0.3-5.6,0.8c-9.3-13.9-25.1-23-43-23
		c-21.7,0-40.2,13.4-47.9,32.3c-2.5-0.4-5-0.6-7.6-0.6c-24.9,0-45.1,20.2-45.1,45.1c0,14.6,6.9,27.5,17.7,35.8
		c-0.5,2.2-0.7,4.5-0.7,6.8c0,18,14.6,32.6,32.6,32.6c4.7,0,9.2-1,13.3-2.8c8.2,17.9,26.4,30.4,47.4,30.4
		c28.8,0,52.2-23.4,52.2-52.2c0-10.3-3-19.9-8.2-28C365.7,154.8,375.6,139,375.6,119.9z"/>
	<circle class="st2" cx="227.3" cy="246.3" r="11.9"/>
	<circle class="st2" cx="356.6" cy="251.2" r="11.2"/>
	<circle class="st2" cx="187.4" cy="280.4" r="5.7"/>
	<circle class="st2" cx="389.9" cy="267.2" r="5.7"/>
	<circle class="st2" cx="373.2" cy="289.2" r="3.7"/>
	<path class="st2" d="M375.6,119.9c0-21.5-12.6-38.9-28.1-38.9c-1.9,0-3.8,0.3-5.6,0.8c-9.3-13.9-25.1-23-43-23
		c-21.7,0-40.2,13.4-47.9,32.3c-2.5-0.4-5-0.6-7.6-0.6c-24.9,0-45.1,20.2-45.1,45.1c0,14.6,6.9,27.5,17.7,35.8
		c-0.5,2.2-0.7,4.5-0.7,6.8c0,18,14.6,32.6,32.6,32.6c4.7,0,9.2-1,13.3-2.8c8.2,17.9,26.4,30.4,47.4,30.4
		c28.8,0,52.2-23.4,52.2-52.2c0-10.3-3-19.9-8.2-28C365.7,154.8,375.6,139,375.6,119.9z"/>
	<path class="st3" d="M240.5,177c5.6-3.1,26-27.7,33.6-44.8c3.8-8.7,6.2-16.3,6.2-16.3c-2.1-6.8,3.2-12.3,3.2-12.3
		s12.3-0.9,27.1,5.6c14.8,6.5,21.2,13.6,26.5,22.3c0,0,0.5,8.6-12.7,14.8c0,0-36.9,24.2-79.8,35.4C242.3,182.2,240.5,177,240.5,177z
		"/>
	<path class="st1" d="M334.2,136c-14.5-22.7-41-27.8-53.1-28.1c-2,2.8-1.1,5-0.5,7.2c0.3,0.3,0.6,0.6,0.7,0.8c0,0,13.6,1.3,20.9,5.4
		c7.3,4,19.6,18,20.1,19.5c0.4,1.3,2.7,4.7,3,5.4C327.2,145.1,332.8,137,334.2,136z"/>
	<path class="st2" d="M241,177c5.6-3.1,26-27.7,33.6-44.8c3.8-8.7,6.2-16.3,6.2-16.3c-2.1-6.8,3.2-12.3,3.2-12.3s12.3-0.9,27.1,5.6
		c14.8,6.5,21.2,13.6,26.5,22.3c0,0,0.5,8.6-12.7,14.8c0,0-36.9,24.2-79.8,35.4C242.8,182.2,241,177,241,177z"/>
	<path class="st2" d="M280.8,115.8c0,0,13.6,1.3,20.9,5.4c7.3,4,19.6,18,20.1,19.5s3.1,5.5,3.1,5.5"/>
	<path class="st1" d="M245.1,181.6c42.9-11.2,79.8-35.4,79.8-35.4c13.2-6.1,14.4-11,12.7-14.8c-1.6-3.8-8.1-3.6-12-1.2
		c-3.3,2-5.8,6.9-3,12.2c-3.4,2.7-51.9,30.7-81.6,34.5C241,177,242.8,182.2,245.1,181.6z"/>
	<path class="st2" d="M245.1,181.6c42.9-11.2,79.8-35.4,79.8-35.4c13.2-6.1,14.4-11,12.7-14.8c-1.6-3.8-8.1-3.6-12-1.2
		c-3.3,2-5.8,6.9-3,12.2c-3.4,2.7-51.9,30.7-81.6,34.5C241,177,242.8,182.2,245.1,181.6z"/>
	<path class="st3" d="M285.6,129c4.3-5.1,4.3-11.9,0-14.6c-1.5-1-3.4-1.4-5.4-1.3c0,0.9,0.2,1.8,0.5,2.8c0,0-2.3,7.7-6.2,16.3
		c-0.4,0.9-0.8,1.7-1.2,2.6C277.4,135.3,282.3,133,285.6,129z"/>
	<path class="st1" d="M282.6,130.4c3.9-4.4,4.8-9.3,0.4-12c-1.5-0.9-2-1.4-4-1.4c0.1,0.8-1.4,8-4.7,15.6c-0.3,0.8-0.7,1.5-1.1,2.3
		C277.3,135.5,279.6,133.7,282.6,130.4z"/>
	<path class="st2" d="M285.6,129c4.3-5.1,4.3-11.9,0-14.6c-1.5-1-3.4-1.4-5.4-1.3c0,0.9,0.2,1.8,0.5,2.8c0,0-2.3,7.7-6.2,16.3
		c-0.4,0.9-0.8,1.7-1.2,2.6C277.4,135.3,282.3,133,285.6,129z"/>
	<path class="st3" d="M290.5,126.7c-5.4,5.4-7.9,14.2-3.2,16.3c4.2,1.9,8.2,0.9,14.2-3.8c9.1-7.1,8-16,3.3-17.8
		C299.5,119.3,295.8,121.3,290.5,126.7z"/>
	<path class="st1" d="M289.2,128c-4.7,4.7-6.8,12.3-2.8,14.2c3.7,1.7,7.4,1.2,12.3-3.3c6.4-5.8,5.4-13.3,1.2-14.9
		C295.4,122.2,293.9,123.3,289.2,128z"/>
	<path class="st2" d="M290.5,126.7c-5.4,5.4-7.9,14.2-3.2,16.3c4.2,1.9,8.2,0.9,14.2-3.8c9.1-7.1,8-16,3.3-17.8
		C299.5,119.3,295.8,121.3,290.5,126.7z"/>
	<path class="st3" d="M320.4,138.9c-3.5-2.9-7.3-2.9-14,0.1c-10.1,4.6-11.2,13.5-7.3,16.5c1.2,0.9,18.5-9.7,21.3-11.6
		C323.1,142.1,322.3,140.5,320.4,138.9z"/>
	<path class="st1" d="M315.7,141.8c-3.1-2.5-6.5-2.6-12.4,0.1c-8.9,4-7.9,10.9-4.4,13.5c1,0.8,14.4-7.7,16.9-9.3
		C318.1,144.6,317.4,143.2,315.7,141.8z"/>
	<path class="st2" d="M320.4,138.9c-3.5-2.9-7.3-2.9-14,0.1c-10.1,4.6-11.2,13.5-7.3,16.5c1.2,0.9,18.5-9.7,21.3-11.6
		C323.1,142.1,322.3,140.5,320.4,138.9z"/>
	<path class="st3" d="M267.8,145.2c-5.2,4.9-7.9,10.3-4.8,13.6c3.1,3.3,8.6,2.9,13.8-1.9c6.9-6.3,8.4-12.2,4.6-14.6
		C277.5,140,273,140.4,267.8,145.2z"/>
	<path class="st1" d="M266.7,146.3c-4.6,4.3-6.9,9.1-4.1,12.1s7.7,2.6,12.3-1.5c4.9-4.3,5.8-10.9,2.3-13
		C273.7,141.7,271.3,142,266.7,146.3z"/>
	<path class="st2" d="M267.8,145.2c-5.2,4.9-7.9,10.3-4.8,13.6c3.1,3.3,8.6,2.9,13.8-1.9c6.9-6.3,8.4-12.2,4.6-14.6
		C277.5,140,273,140.4,267.8,145.2z"/>
	<path class="st3" d="M296.4,157.1c-0.2-0.3-0.4-0.6-0.7-0.9c-3.3-3.3-7.7-4-13.9-0.5c-6.1,3.4-9.9,7.9-8.1,11.8
		C281.6,164.2,289.4,160.5,296.4,157.1z"/>
	<path class="st1" d="M292.2,159.2c-0.2-0.3-0.4-0.5-0.6-0.8c-2.9-2.8-6.7-3-10.8-1c-5.5,2.6-8.8,6.7-7.1,10
		C280.7,164.7,286,162.2,292.2,159.2z"/>
	<path class="st2" d="M296.4,157.1c-0.2-0.3-0.4-0.6-0.7-0.9c-3.3-3.3-7.7-4-13.9-0.5c-6.1,3.4-9.9,7.9-8.1,11.8
		C281.6,164.2,289.4,160.5,296.4,157.1z"/>
	<path class="st3" d="M265.2,163.1c-1.6-2.4-4.6-3.4-9-2.2c-5.7,7.2-11,13-14.1,15.3c2.2,3.2,12.3-0.4,18.8-3.9
		C264.1,170.5,267.8,167.1,265.2,163.1z"/>
	<path class="st1" d="M262,166.1c-1.4-2.1-4-3-7.9-1.9c-5,6.3-9.3,10-12,12.1c1.9,2.9,9.9,0.2,15.6-3
		C260.6,171.7,264.3,169.6,262,166.1z"/>
	<path class="st2" d="M265.2,163.1c-1.6-2.4-4.6-3.4-9-2.2c-5.7,7.2-11,13-14.1,15.3c2.2,3.2,12.3-0.4,18.8-3.9
		C264.1,170.5,267.8,167.1,265.2,163.1z"/>
</g>
</svg>
