<?xml version="1.0" encoding="UTF-8"?>
<svg width="286px" height="654px" viewBox="0 0 286 654" version="1.1" xmlns="http://www.w3.org/2000/svg" xmlns:xlink="http://www.w3.org/1999/xlink">
    <!-- Generator: Sketch 52.2 (67145) - http://www.bohemiancoding.com/sketch -->
    <title>Artboard</title>
    <desc>Created with Sketch.</desc>
    <g id="Artboard" stroke="none" stroke-width="1" fill="none" fill-rule="evenodd">
        <g id="11-copy">
            <path d="M86.3678078,572.298853 C86.3678078,572.298853 77.1739162,602.653789 63,610.338583 C63,610.338583 63.3830788,626.092411 74.8754433,624.939692 C85.984729,623.786973 94.7955418,614.56522 94.7955418,613.79674 C94.7955418,613.028261 98.6263299,590.742359 106.670985,580.367887 C114.332561,569.609175 86.3678078,572.298853 86.3678078,572.298853 Z" id="Path" fill="#FFFFFF"></path>
            <path d="M74.0247934,625.242533 C71.7438017,625.242533 69.4628099,624.485066 67.9421488,622.970133 C63,618.804065 63,610.47193 63,610.093196 C63,609.714463 63,609.33573 63.3801653,609.33573 C76.6859504,602.139795 86.1900826,572.977321 86.1900826,572.598588 C86.1900826,572.219854 86.5702479,572.219854 86.9504132,572.219854 C88.8512397,572.219854 105.578512,570.704921 108.619835,575.628455 C109.380165,577.143389 109,579.037056 107.479339,581.309456 C99.8760331,591.156525 96.0743802,612.365597 96.0743802,613.880531 C96.0743802,615.395464 86.9504132,624.8638 75.9256198,626 C74.785124,625.242533 74.4049587,625.242533 74.0247934,625.242533 Z M64.1404959,610.47193 C64.1404959,612.365597 64.9008264,618.804065 68.7024793,621.833932 C70.2231405,623.348866 72.5041322,623.727599 74.785124,623.727599 C85.0495868,622.591399 93.0330579,614.637997 93.7933884,613.123064 C93.7933884,610.850663 97.5950413,590.020325 105.578512,579.794523 C106.719008,578.279589 107.099174,577.143389 106.719008,576.007189 C105.198347,572.977321 94.1735537,572.598588 86.9504132,573.356055 C85.8099174,577.522122 77.0661157,602.897261 64.1404959,610.47193 Z" id="Shape" fill="#000000" fill-rule="nonzero"></path>
            <path d="M206.212209,2.13157334 C190.979651,-3.56827978 169.273256,0.991602719 157.087209,30.2508488 C144.901163,59.5100948 141.854651,72.8097521 135,75.0896933 C135,75.0896933 139.569767,87.6293702 152.517442,88.3893506 C152.517442,88.3893506 168.892442,107.768851 202.784884,105.8689 C236.677326,103.968949 248.101744,89.1493311 248.101744,89.1493311 C248.101744,89.1493311 242.389535,78.8895954 241.247093,73.9497227 C241.247093,73.9497227 248.863372,84.2094583 252.290698,85.7294192 C252.290698,85.7294192 261.811047,80.7895465 266,69.3898402 C266,69.3898402 254.956395,69.00985 249.244186,46.5904277 C244.293605,27.2109271 233.630814,10.8713481 224.110465,5.55148522 C215.732558,0.231622302 206.212209,2.13157334 206.212209,2.13157334 Z" id="Path" fill="#000000"></path>
            <path d="M187.985507,78.1020002 C190.673913,87.2868895 190.673913,107.95289 187.601449,109.101002 C184.528986,110.249113 178,109.483705 178,109.483705 C178,109.483705 192.594203,147.754078 201.811594,146.98867 C211.028986,145.840559 231,118.668595 231,118.668595 L221.782609,114.458854 C218.710145,112.928039 216.405797,109.866409 216.021739,106.422076 C214.869565,98.0025937 216.021739,81.9290374 217.173913,78.4847039 C218.710145,73.1268518 187.985507,78.1020002 187.985507,78.1020002 Z" id="Path" fill="#FFFFFF"></path>
            <path d="M200.957746,147 C191.450704,147 178.521127,112.892455 177,109.060146 C177,108.676915 177,108.293684 177,108.293684 C177,108.293684 177.380282,107.910454 177.760563,107.910454 C177.760563,107.910454 184.225352,108.676915 186.887324,107.527223 C189.169014,106.760761 189.929577,87.2159878 186.887324,77.2519857 C186.887324,77.2519857 186.887324,76.8687549 186.887324,76.485524 C186.887324,76.485524 187.267606,76.1022932 187.267606,76.1022932 C191.830986,75.3358315 214.267606,72.2699847 216.929577,75.3358315 C217.309859,75.7190623 217.309859,76.485524 217.309859,77.2519857 C216.169014,80.3178325 215.028169,96.4135281 216.169014,104.844607 C216.549296,108.293684 218.450704,110.9763 221.492958,112.125993 L230.619718,116.341532 C230.619718,116.341532 231,116.724763 231,116.724763 C231,116.724763 231,117.107994 231,117.491225 C230.239437,118.640917 211.225352,145.083846 201.71831,146.233538 C200.957746,147 200.957746,147 200.957746,147 Z M178.901408,109.826608 C183.084507,120.940302 194.492958,146.233538 200.957746,145.467077 C208.943662,144.700615 225.295775,122.856457 228.71831,118.257686 L220.732394,114.425378 C217.309859,112.892455 215.028169,109.443377 214.647887,105.611068 C213.507042,97.1799898 214.647887,80.7010634 215.788732,77.2519857 C215.408451,75.7190623 202.859155,76.1022932 188.788732,78.4016783 C191.070423,87.5992186 191.450704,107.910454 187.647887,109.443377 C184.985915,110.209839 180.802817,109.826608 178.901408,109.826608 Z" id="Shape" fill="#000000" fill-rule="nonzero"></path>
            <path d="M223.39898,70.8447214 C224.557617,72.0118078 232.66808,66.5654048 234.599142,55.6725989 C236.530205,44.7797931 231.12323,42.0565916 226.102467,48.2810521 C221.467917,54.1164838 223.39898,70.8447214 223.39898,70.8447214 Z" id="Path" fill="#FFFFFF"></path>
            <path d="M223.917609,72 C223.529836,72 223.142062,72 222.754289,71.622905 C222.754289,71.622905 222.366515,71.2458101 222.366515,71.2458101 C222.366515,70.4916201 220.427649,55.0307263 225.468702,48.6201117 C227.795342,45.603352 230.509756,44.472067 232.836396,45.226257 C235.55081,46.3575419 236.71413,50.5055866 235.55081,56.1620112 C233.999716,64.4581006 228.183116,70.1145251 225.080929,71.622905 C224.693156,72 224.305382,72 223.917609,72 Z M231.673076,46.7346369 C230.509756,46.7346369 228.570889,47.8659218 227.019796,49.7513966 C222.754289,54.6536313 223.917609,67.4748603 224.305382,70.4916201 C224.693156,70.4916201 225.080929,70.1145251 225.856476,69.7374302 C228.958663,67.8519553 232.836396,62.9497207 233.999716,56.5391061 C235.163036,50.8826816 233.999716,47.8659218 232.448623,47.1117318 C232.060849,46.7346369 232.060849,46.7346369 231.673076,46.7346369 Z" id="Shape" fill="#000000" fill-rule="nonzero"></path>
            <path d="M177.763014,53.0978569 C176.281496,51.1981206 172.5777,45.8788591 169.244283,48.9184371 C165.540488,52.3379624 170.725802,69.4355887 176.651875,71.7152722 C182.577949,73.9949557 180.726051,61.8366437 180.726051,61.8366437 L177.763014,53.0978569 Z" id="Path" fill="#FFFFFF"></path>
            <path d="M178.336542,73 C177.952975,73 177.18584,73 176.418706,72.6176471 C171.815899,70.7058824 167.980227,62.6764706 167.213093,56.1764706 C166.829526,53.5 166.829526,50.0588235 168.363795,48.1470588 C169.514496,47.3823529 170.281631,47 171.432332,47 C174.117303,47 176.418706,49.6764706 177.569407,51.5882353 C177.569407,51.9705882 177.952975,51.9705882 178.336542,52.3529412 C178.336542,52.3529412 178.336542,52.3529412 178.336542,52.7352941 L181.788647,61.5294118 C181.788647,62.2941176 182.939348,69.9411765 179.870811,72.2352941 C179.870811,72.6176471 179.487243,73 178.336542,73 Z M171.432332,48.5294118 C170.665198,48.5294118 170.281631,48.5294118 169.514496,49.2941176 C168.363795,50.0588235 168.363795,52.7352941 168.747362,55.7941176 C169.898063,61.9117647 173.350168,69.1764706 177.18584,71.0882353 C178.336542,71.4705882 179.103676,71.0882353 179.103676,71.0882353 C180.637945,69.9411765 180.637945,64.9705882 180.254378,62.2941176 L177.18584,53.5 C177.18584,53.5 176.802273,53.1176471 176.802273,52.7352941 C175.651571,51.2058824 173.350168,48.9117647 171.432332,48.5294118 C171.815899,48.5294118 171.815899,48.5294118 171.432332,48.5294118 Z" id="Shape" fill="#000000" fill-rule="nonzero"></path>
            <path d="M203.969183,99 C196.742383,99 185.712005,85.6086186 183.0495,81.0172878 C179.626279,75.6607353 159.086953,16.3560461 200.92632,14.0603808 C242.765687,11.7647154 226.410298,75.6607353 222.987077,81.0172878 C219.183498,86.7564513 208.533477,99 203.969183,99 Z" id="Path" fill="#FFFFFF"></path>
            <path d="M203.941559,100 C195.923395,100 184.468874,85.5546616 182.17797,81.7532568 C179.505249,77.191571 168.050729,45.2597704 177.97798,27.0130273 C182.17797,19.0300771 189.814317,14.8485318 200.88702,14.0882508 C211.959723,13.3279699 219.977887,17.5095152 224.941512,25.4924653 C235.632398,43.7392085 226.468782,77.5717115 223.79606,81.7532568 C220.359704,86.6950831 209.287001,100 203.941559,100 Z M202.796107,15.6088128 C202.032472,15.6088128 201.650655,15.6088128 200.505203,15.6088128 C190.196134,15.9889533 182.941605,20.1704986 179.123432,27.7733082 C169.577998,45.2597704 180.650701,76.8114305 183.323422,80.9929759 C186.377961,86.3149426 197.068847,98.4794381 203.941559,98.4794381 C207.759732,98.4794381 218.0688,87.0752236 222.268791,80.9929759 C224.941512,76.8114305 233.723311,43.7392085 223.414243,26.6328868 C219.214252,19.0300771 212.34154,15.6088128 202.796107,15.6088128 Z" id="Shape" fill="#000000" fill-rule="nonzero"></path>
            <path d="M199.426175,564.771315 C197.897792,575.116547 195.605219,586.61125 194.076836,613.432223 C192.548454,639.87004 214.327903,622.244829 214.327903,622.244829 C214.327903,622.244829 213.181616,599.255423 217.384668,575.116547 C221.969815,551.360828 199.426175,564.771315 199.426175,564.771315 Z" id="Path" fill="#FFFFFF"></path>
            <path d="M201.039166,629 C199.900583,629 198.761999,629 197.623415,628.239563 C193.828137,626.338469 192.689553,621.395627 193.069081,613.791254 C194.587192,590.597916 196.484832,578.811138 198.002943,569.305672 C198.002943,568.165016 198.382471,566.644141 198.761999,565.503486 C198.761999,565.503486 198.761999,565.123267 199.141527,564.743048 C199.521055,564.36283 210.147836,558.279331 215.840754,562.461736 C218.876977,564.743048 219.636033,569.305672 218.497449,576.149608 C214.322643,599.342945 215.461226,622.156064 215.461226,622.536283 C215.461226,622.916502 215.461226,622.916502 215.081698,623.29672 C213.943115,623.29672 207.111613,629 201.039166,629 Z M199.900583,565.883704 C199.900583,567.02436 199.521055,568.165016 199.521055,569.305672 C198.002943,578.811138 196.105304,590.597916 194.587192,613.791254 C194.207664,621.015408 195.346248,625.197814 198.382471,626.718688 C203.316334,629 211.665947,623.29672 213.184059,621.775846 C213.184059,618.353878 212.425003,597.061633 216.59981,575.38917 C217.738394,569.305672 216.979338,565.123267 214.70217,563.222174 C210.147836,560.560643 201.418694,565.123267 199.900583,565.883704 Z" id="Shape" fill="#000000" fill-rule="nonzero"></path>
            <path d="M201.17169,8.02812149 C196.956029,7.64697391 167.829642,10.6961545 170.129094,44.9994362 C170.129094,44.9994362 186.991739,45.3805837 192.740368,26.323205 C192.740368,26.323205 192.357126,35.4707468 190.824158,38.1387798 C190.824158,38.1387798 193.890093,38.1387798 195.423061,36.9953371 C196.956029,35.8518944 206.537077,22.8928769 208.070045,13.7453351 C208.070045,13.7453351 205.770593,31.6592711 215.351642,39.2822226 C215.351642,39.2822226 217.267851,33.1838614 216.501367,28.2289429 C216.501367,28.2289429 219.567303,31.6592711 218.800819,39.2822226 C218.800819,39.2822226 226.082416,42.3314032 227.615384,44.6182886 C227.615384,44.6182886 232.980771,33.565009 227.615384,21.3682866 C221.866755,7.64697391 201.17169,8.02812149 201.17169,8.02812149 Z" id="Path" fill="#000000"></path>
            <path d="M150.783734,268.382138 C148.106262,273.349927 112.53414,418.944363 110.239164,432.31918 C107.561692,446.076135 84.6119361,570.270864 83.0819523,576.002928 C81.5519685,581.734993 101.824253,587.849195 112.151644,582.881406 C112.151644,582.881406 145.428791,485.818448 146.958774,476.265007 C148.488758,466.711567 146.958774,446.84041 148.488758,441.108346 C150.018742,435.376281 189.415824,358.948755 195.918255,342.898975 C195.918255,342.898975 199.743214,426.204978 200.508206,431.937042 C201.655694,440.726208 201.273198,464.418741 198.21323,482.761347 C196.300751,494.225476 196.683247,581.734993 196.683247,581.734993 C196.683247,581.734993 208.923117,593.581259 221.927979,581.734993 C221.927979,581.734993 240.287784,514.860908 237.992808,475.88287 C235.697833,436.904832 253.292646,371.559297 255.587622,341.752562 C257.882597,311.945827 249.850182,268 249.850182,268 L150.783734,268.382138 Z" id="Path" fill="#FFFFFF"></path>
            <path d="M209.163633,588 C201.514595,588 195.777817,582.656361 195.777817,582.656361 C195.777817,582.656361 195.395365,582.274673 195.395365,581.892985 C195.395365,578.0761 195.012913,494.104637 196.925173,483.035672 C199.984788,464.714625 200.36724,441.049941 199.219884,432.271106 C198.45498,427.309156 195.395365,363.185493 195.012913,346.772889 C190.041038,357.841855 178.567481,381.124851 168.24128,401.736029 C158.679983,420.820452 149.883589,438.378121 149.118685,441.049941 C148.353781,443.72176 148.353781,450.210464 148.353781,456.699168 C148.353781,463.56956 148.353781,470.821641 147.588877,475.783591 C146.05907,485.325803 113.93311,578.457788 112.785755,582.656361 C112.785755,582.656361 112.785755,583.03805 112.403303,583.03805 C103.989361,587.236623 89.0737367,584.183115 84.101862,579.602854 C81.8071506,577.694411 81.8071506,576.167658 82.1896025,575.022592 C83.3369582,571.205707 95.1929671,507.845422 103.224457,465.859691 C106.284072,449.065398 108.961235,435.706302 109.726139,431.507729 C112.403303,417.385256 147.588877,272.343639 150.648493,267.381688 C150.648493,267 151.030945,267 151.413396,267 L250.085987,267 C250.468439,267 250.850891,267.381688 250.850891,267.763377 C250.850891,268.145065 258.88238,312.039239 256.587669,341.810939 C255.822765,352.879905 252.76315,368.529132 249.703535,386.46849 C243.966756,416.621879 237.465074,451.355529 238.994882,475.783591 C241.289593,514.715815 222.931902,581.129608 222.931902,581.892985 C222.931902,581.892985 222.931902,582.274673 222.931902,582.274673 C217.577575,586.854935 212.988152,588 209.163633,588 Z M196.925173,581.511296 C198.837432,583.03805 209.163633,591.435196 220.63719,581.511296 C221.784546,576.931034 238.61243,513.570749 236.70017,476.165279 C235.170363,451.355529 241.672045,416.621879 247.408823,386.46849 C250.468439,369.292509 253.528054,353.261593 254.292958,342.192628 C256.587669,314.711058 249.703535,275.015458 248.556179,269.290131 L151.030945,269.290131 C147.206426,279.214031 113.168206,418.91201 110.491043,432.652794 C109.726139,436.469679 107.048976,449.828775 103.989361,466.623068 C96.3403228,508.608799 84.101862,571.969084 82.9545063,575.785969 C82.5720544,576.931034 83.7194101,577.694411 84.101862,578.457788 C88.6912848,582.274673 102.459553,585.328181 110.491043,581.511296 C112.785755,575.404281 143.764358,484.562426 145.294166,475.401902 C146.05907,470.439952 146.05907,463.56956 146.05907,456.699168 C146.05907,449.828775 146.05907,443.340071 146.823974,440.286564 C147.588877,437.614744 156.002819,420.438763 165.946569,400.590963 C177.420126,377.307967 190.805942,350.971463 194.248009,342.192628 C194.248009,341.810939 194.630461,341.429251 195.012913,341.810939 C195.395365,341.810939 195.777817,342.192628 195.777817,342.574316 C195.777817,343.337693 199.602336,425.782402 200.36724,431.507729 C201.514595,440.286564 201.132143,463.951249 198.072528,482.653983 C196.542721,494.104637 196.925173,575.404281 196.925173,581.511296 Z" id="Shape" fill="#000000" fill-rule="nonzero"></path>
            <path d="M155.703646,267 C153.027133,271.964008 117.467747,417.447624 115.173593,430.812261 C112.49708,444.558744 88.0261043,574.386643 86.1143093,580.114345 C84.2025143,585.842046 106.761695,586.223893 117.085388,581.259885 C117.085388,581.259885 144.232876,485.798195 145.762312,476.252025 C147.291748,466.705856 151.880056,445.704285 153.409492,439.976583 C154.938928,434.630728 184.76293,365.516465 195.468982,339.932732 L194.321905,329.622869 C194.321905,329.622869 196.998418,333.823183 198.145494,336.496111 C198.910212,338.023498 199.292571,339.550885 199.292571,341.078272 C200.057289,354.824755 204.263238,425.848253 205.027956,431.194108 C206.175033,439.976583 205.792674,463.651082 202.733802,481.979727 C200.822007,493.43513 201.204366,586.223893 201.204366,586.223893 C201.204366,586.223893 213.439854,592.715288 226.44006,580.878038 C226.44006,580.878038 238.675548,515.582242 236.381394,476.633872 C234.08724,437.685503 257.793498,370.862319 259.705293,341.078272 C261.999446,311.294224 250.146318,268.909234 250.146318,268.909234 L155.703646,267 Z" id="Path" fill="#000000"></path>
            <path d="M208.992051,588 C201.353334,588 195.624296,582.65 195.624296,582.65 L195.24236,582.65 L195.24236,582.267857 C195.24236,578.446429 194.860424,494.375 196.770104,483.292857 C199.82559,464.95 200.207526,441.257143 199.061719,432.467857 C198.297847,427.5 195.24236,363.3 194.860424,346.867857 C189.895258,357.95 178.437182,381.260714 168.124914,401.896429 C158.576518,421.003571 149.791993,438.582143 149.028121,441.257143 C148.26425,443.932143 148.26425,450.428571 148.26425,456.925 C148.26425,463.803571 148.26425,471.064286 147.500378,476.032143 C145.972635,485.585714 113.890023,578.828571 112.744215,583.032143 L112.744215,583.414286 L112.362279,583.414286 C103.95969,587.617857 89.0641921,584.560714 84.0990259,579.975 C81.8074108,578.064286 81.8074108,576.535714 82.1893466,575.389286 C83.3351542,571.567857 95.1751658,508.132143 103.195819,466.096429 C106.251306,449.282143 108.924857,435.907143 109.688728,431.703571 C112.362279,417.564286 147.500378,272.35 150.555865,267.382143 L150.555865,267 L249.859188,267 L249.859188,267.764286 C249.859188,268.146429 257.879841,312.092857 255.588225,341.9 C254.824354,352.982143 251.768867,368.65 248.71338,386.610714 C242.984342,416.8 236.491433,451.575 238.019176,476.032143 C240.310791,515.010714 221.97787,581.503571 221.97787,582.267857 C217.39464,586.853571 212.811409,588 208.992051,588 Z M196.770104,581.503571 C198.679783,583.032143 208.992051,591.439286 220.450127,581.503571 C221.595934,576.917857 238.401112,513.482143 236.491433,476.032143 C234.963689,451.192857 241.456599,416.417857 247.185637,386.228571 C250.241123,369.032143 253.29661,352.982143 254.060482,341.9 C256.352097,314.385714 249.477252,274.642857 248.331444,268.910714 L150.937801,268.910714 C147.118442,278.846429 113.126151,418.710714 110.4526,432.467857 C109.688728,436.289286 107.015177,449.664286 103.95969,466.478571 C96.3209733,508.514286 84.0990259,571.95 82.9532184,575.771429 C82.5712825,576.917857 83.7170901,577.682143 84.0990259,578.446429 C88.6822562,582.267857 102.431947,585.325 110.4526,581.503571 C112.744215,575.389286 143.68102,484.439286 145.208763,475.267857 C145.972635,470.3 145.972635,463.421429 145.972635,456.542857 C145.972635,449.664286 145.972635,443.167857 146.736506,440.110714 C147.500378,437.435714 155.902967,420.239286 165.833299,400.367857 C177.291375,377.057143 190.65913,350.689286 194.096553,341.9 L195.624296,338.078571 L195.624296,341.9 C195.624296,342.664286 199.443655,425.207143 200.207526,430.939286 C201.353334,439.728571 200.971398,463.421429 197.915911,482.146429 C196.770104,493.992857 196.770104,575.389286 196.770104,581.503571 Z" id="Shape" fill="#000000" fill-rule="nonzero"></path>
            <path d="M151,166.474069 C151,166.474069 112.868803,212.843777 101.810756,206.382424 C90.7527087,199.921072 50.3336399,122.384838 46.1392082,119.724281 C38.8942808,115.163326 21.3539302,99.1999834 8.38932322,93.1187102 C-2.28741194,88.1776757 9.53325913,87.0374369 12.2024429,88.5577553 C16.3968746,90.4581531 23.26049,94.6390285 23.26049,94.6390285 C23.26049,94.6390285 20.5913063,77.9155271 23.26049,79.0557658 C25.9296738,79.815925 30.8867294,96.1593468 32.0306654,96.919506 C33.1746013,97.6796651 36.987721,103.000779 50.3336399,101.86054 C56.4346314,101.480461 56.8159434,98.0597447 58.7225033,93.4987898 C61.772999,86.6573574 65.9674307,82.0964024 69.0179264,83.6167207 C70.9244863,84.7569595 65.9674307,91.9784715 65.9674307,99.1999834 C65.9674307,105.281257 66.7300546,111.36253 65.9674307,116.303564 C65.2048067,121.244599 107.911747,172.935422 107.911747,172.935422 C109.436995,172.555342 127.358658,146.709931 127.358658,146.709931 L151,166.474069 Z" id="Path" fill="#FFFFFF"></path>
            <path d="M103.360803,208 C102.21859,208 101.457116,208 100.695641,207.239766 C93.4616312,203.05848 75.5669754,172.269006 61.0989558,147.181287 C53.4842086,133.877193 46.2501988,121.71345 45.1079868,120.573099 C42.8235626,119.052632 39.016189,116.011696 34.4473407,112.590643 C26.0711189,106.128655 15.7912102,97.7660819 7.79572567,93.9649123 C5.51130152,92.8245614 2.0846653,90.9239766 3.22687737,89.0233918 C4.36908945,86.7426901 10.4608872,86.7426901 12.7453113,87.8830409 C15.7912102,89.0233918 20.3600585,91.6842105 22.6444826,93.2046784 C21.8830079,88.2631579 21.1215332,79.9005848 22.6444826,78.380117 C23.02522,78 23.4059573,78 23.7866947,78 C25.3096441,78.380117 27.2133309,82.1812865 30.6399671,90.5438596 C31.7821792,92.8245614 32.5436539,95.4853801 32.9243913,95.8654971 C32.9243913,95.8654971 33.3051287,95.8654971 33.685866,96.245614 C35.2088154,97.7660819 39.3969264,101.187135 50.8190471,100.426901 C55.3878954,100.046784 56.5301075,97.7660819 58.0530569,94.3450292 C58.0530569,93.9649123 58.4337943,93.2046784 58.8145316,92.8245614 C61.4796931,87.122807 64.525592,83.3216374 67.1907535,82.1812865 C68.3329656,81.8011696 69.0944403,81.8011696 70.2366524,82.1812865 C71.7596018,82.9415205 70.9981271,85.2222222 69.855915,88.2631579 C68.7137029,91.3040936 67.5714909,94.7251462 67.5714909,98.5263158 C67.5714909,100.807018 67.5714909,103.467836 67.5714909,105.748538 C67.5714909,109.549708 67.9522282,112.97076 67.5714909,115.631579 C67.1907535,119.052632 92.3194191,150.982456 108.691126,171.128655 C110.97555,168.847953 120.874721,154.403509 127.347256,145.660819 C127.347256,145.660819 127.727993,145.280702 127.727993,145.280702 C127.727993,145.280702 128.108731,145.280702 128.489468,145.280702 L151.714447,165.046784 C152.095184,165.426901 152.095184,165.807018 151.714447,166.187135 C147.145599,171.508772 116.68661,208 103.360803,208 Z M8.17646303,88.6432749 C7.03425095,88.6432749 5.51130152,88.6432749 4.74982681,89.0233918 C4.36908945,89.0233918 4.36908945,89.4035088 4.36908945,89.4035088 C4.36908945,89.4035088 4.36908945,90.5438596 8.17646303,92.0643275 C16.5526849,96.245614 26.8325936,104.22807 35.2088154,111.070175 C39.3969264,114.491228 43.2043,117.532164 45.8694615,119.052632 C47.3924109,120.192982 52.7227339,128.935673 62.6219052,146.040936 C75.9477127,169.608187 94.6038433,201.538012 101.457116,205.339181 C110.214075,210.280702 138.388639,179.491228 149.430023,166.187135 L127.347256,147.561404 C119.351772,159.345029 109.4526,173.02924 107.929651,173.409357 C107.548913,173.409357 107.168176,173.409357 107.168176,173.02924 C99.9341663,164.28655 64.525592,120.573099 65.2870667,115.631579 C65.6678041,112.97076 65.6678041,109.549708 65.2870667,106.128655 C65.2870667,103.847953 65.2870667,101.187135 65.2870667,98.9064327 C65.2870667,94.7251462 66.8100162,90.9239766 67.5714909,87.8830409 C67.9522282,86.3625731 68.7137029,84.0818713 68.7137029,83.7017544 C68.3329656,83.7017544 67.5714909,83.7017544 67.1907535,83.7017544 C64.9063294,84.4619883 62.2411679,88.2631579 59.9567437,93.2046784 C59.5760064,93.5847953 59.5760064,94.3450292 59.195269,94.7251462 C57.6723196,98.5263158 56.5301075,101.187135 50.8190471,101.947368 C38.6354517,102.707602 34.4473407,98.5263158 32.5436539,97.005848 C32.5436539,97.005848 32.1629166,96.625731 32.1629166,96.625731 C31.7821792,96.245614 31.0207045,95.1052632 29.1170177,90.5438596 C27.9748056,87.122807 24.9289068,79.9005848 23.4059573,78.7602339 C22.6444826,80.2807018 23.4059573,87.502924 24.1674321,93.5847953 C24.1674321,93.9649123 24.1674321,94.3450292 23.7866947,94.3450292 C23.4059573,94.3450292 23.02522,94.3450292 23.02522,94.3450292 C23.02522,94.3450292 16.1719475,90.1637427 11.9838366,88.2631579 C10.4608872,89.0233918 9.3186751,88.6432749 8.17646303,88.6432749 Z" id="Shape" fill="#000000" fill-rule="nonzero"></path>
            <path d="M23,94 C24.2,98.9705882 25.4,101.264706 29,107 L23,94 Z" id="Path" fill="#FFFFFF"></path>
            <path d="M28.8,107 C28.4,107 28.4,107 28,106.631579 C24.8,101.473684 23.2,98.8947368 22,94.1052632 C22,93.7368421 22,93.3684211 22.8,93 C23.2,93 23.6,93 24,93.7368421 C25.2,98.1578947 26.4,100.736842 30,105.894737 C30,106.263158 30,106.631579 29.6,107 C28.8,107 28.8,107 28.8,107 Z" id="Path" fill="#000000"></path>
            <path d="M45,105 C45,105 54.2903226,105.727273 57,113 L45,105 Z" id="Path" fill="#FFFFFF"></path>
            <path d="M56.2571429,114 C55.8857143,114 55.5142857,114 55.5142857,113.615385 C53.2857143,106.307692 44.7428571,105.538462 44.7428571,105.538462 C44.3714286,105.538462 44,105.153846 44,104.769231 C44,104.384615 44.3714286,104 44.7428571,104 C45.1142857,104 54.4,104.769231 57,113.230769 C57,113.615385 56.6285714,114 56.2571429,114 C56.2571429,114 56.2571429,114 56.2571429,114 Z" id="Path" fill="#000000"></path>
            <path d="M95.4817136,611.615533 C95.4817136,611.615533 74.3982251,633.539313 68.2648467,616.615693 C65.9648298,610.46165 62.1314682,607 62.1314682,607 C62.1314682,607 39.5146352,617.000321 29.164559,620.077343 C18.4311468,623.154365 1.94769216,625.846759 1.18101985,630.462291 C0.414347543,633.154686 2.33102831,640.462612 2.33102831,641.231868 C2.33102831,641.231868 13.8311129,651.232189 28.3978867,648.539795 C42.9646606,646.232028 47.1813583,644.30889 55.2314175,644.693517 C62.8981405,645.462773 80.5316036,648.155167 88.964999,645.847401 C97.3983943,643.539634 103.915109,639.308729 103.915109,639.308729 C103.915109,639.308729 105.448454,626.231386 95.4817136,611.615533 Z" id="Path" fill="#000000"></path>
            <path d="M87.9563617,646.991343 C95.9881347,646.229851 102.490046,640.899403 102.490046,640.899403 C102.490046,640.899403 103.637442,637.09194 102.490046,632.142239 C98.6653923,637.09194 90.251154,638.234179 85.279104,638.995672 C75.7174695,639.757164 58.5065273,636.330448 50.4747543,635.949701 C42.4429813,635.949701 35.9410698,640.13791 21.4073853,639.757164 C14.1405431,639.757164 3.43151241,634.807463 2.66658165,631 C1.13672012,633.665224 2.66658165,640.518657 3.04904703,641.280149 C3.43151241,642.041642 14.5230085,651.179552 29.056693,648.514328 C43.5903774,646.229851 47.7974966,644.326119 55.8292696,644.706866 C63.0961119,645.087612 73.0402118,648.514328 87.9563617,646.991343 Z" id="Path" fill="#FFFFFF"></path>
            <path d="M22.906876,650 C10.6372911,650 1.43510236,642.692308 1.05167784,641.538462 C0.668253305,640.769231 -0.865444813,633.846154 0.668253305,630.384615 C0.668253305,630 1.05167784,630 1.43510236,630 C1.81852689,630 2.20195142,630.384615 2.20195142,630.769231 C2.96880048,634.230769 13.3212628,638.846154 20.2229043,639.230769 C28.2748194,639.230769 34.0261874,638.076923 38.6272817,636.923077 C42.461527,636.153846 45.5289233,635.384615 49.3631686,635.384615 C52.4305648,635.384615 57.0316592,636.153846 62.0161781,636.538462 C69.6846686,637.692308 78.5034328,638.846154 84.2548008,638.076923 C89.2393197,637.692308 97.6746593,636.153846 101.12548,631.538462 C101.12548,631.153846 101.508905,631.153846 101.892329,631.153846 C102.275754,631.153846 102.275754,631.538462 102.659178,631.923077 C103.426027,636.923077 102.659178,641.153846 102.659178,641.153846 C102.659178,641.153846 102.659178,641.538462 102.275754,641.538462 C101.892329,641.538462 95.3741121,646.923077 87.322197,647.692308 C76.2028856,648.846154 68.1509705,647.307692 61.249329,646.538462 C58.9487818,646.153846 56.2648101,645.769231 53.9642629,645.384615 C48.5963195,645 44.7620742,645.769231 37.8604327,646.923077 C35.176461,647.307692 31.7256402,648.076923 27.1245459,648.846154 C25.9742723,650 24.4405741,650 22.906876,650 Z M1.81852689,633.076923 C1.43510236,636.153846 2.20195142,640.384615 2.58537595,640.769231 C3.35222501,641.923077 14.0881118,650 27.5079704,647.692308 C31.7256402,646.923077 35.176461,646.538462 38.2438572,645.769231 C45.1454987,644.615385 48.979744,643.461538 54.3476875,644.230769 C56.6482346,644.230769 58.9487818,645 61.6327535,645.384615 C68.1509705,646.538462 76.5863102,647.692308 87.322197,646.538462 C94.2238385,645.769231 99.9752065,641.538462 101.12548,640.769231 C101.12548,640 101.508905,637.307692 101.12548,634.230769 C96.9078103,638.076923 90.0061687,639.230769 84.2548008,640 C78.1200083,640.384615 69.3012441,639.230769 61.6327535,638.461538 C56.6482346,637.692308 52.4305648,637.307692 49.3631686,637.307692 C45.9123478,637.307692 42.8449516,638.076923 39.3941308,638.846154 C34.4096119,640 28.658244,641.153846 20.2229043,641.153846 C14.0881118,640.769231 4.88592313,636.923077 1.81852689,633.076923 Z" id="Shape" fill="#000000" fill-rule="nonzero"></path>
            <path d="M74.4615385,635.500969 C69.4615385,634.345055 67.1538462,629.336097 63.6923077,625.868356 C61.3846154,623.941833 54.0769231,628.180183 50.2307692,629.721401 C45.6153846,631.647924 41.3846154,633.574446 38.6923077,633.574446 C36.7692308,633.574446 34.8461538,633.189142 33.6923077,632.418533 C31.3846154,630.49201 31,628.565488 31,628.180183 L34.8461538,627.02427 C34.8461538,627.02427 35.2307692,628.565488 36,629.721401 C36.7692308,630.106706 37.1538462,630.877315 38.3076923,630.877315 C40.6153846,630.877315 44.8461538,628.950792 49.0769231,627.02427 C57.5384615,623.171224 62.9230769,619.703484 66.7692308,623.941833 C69.4615385,626.638965 71.7692308,631.262619 75.6153846,632.418533 C79.0769231,633.189142 84.4615385,632.033228 91,627.409574 L90.6153846,632.418533 C86,634.73036 79.8461538,637.042187 74.4615385,635.500969 Z" id="Path" fill="#FFFFFF"></path>
            <path d="M193.560258,614.07235 C198.563493,610.639819 208.569963,598.435263 218.961297,612.928173 C227.043446,624.751336 234.74073,631.997791 239.359101,633.904753 C244.7472,636.193107 245.516929,642.295385 244.7472,647.253485 C243.977472,652.592978 202.412135,654.49994 190.866208,647.253485 C179.705145,640.00703 190.866208,615.216527 193.560258,609.877034 L193.560258,614.07235 Z" id="Path" fill="#000000"></path>
            <path d="M191.086384,647.233808 C202.210063,654.510304 244.019752,652.595437 244.786903,647.233808 C245.170478,643.404073 245.170478,639.957311 243.636177,636.893523 C226.758871,640.340285 209.881565,641.106232 195.30571,637.276497 C191.853534,636.127576 189.168508,633.446762 186.867057,630 C185.332757,636.893523 185.332757,643.787046 191.086384,647.233808 Z" id="Path" fill="#FFFFFF"></path>
            <path d="M219.542055,653 C208.142976,653 195.983957,651.47619 190.664387,648.047619 C185.724785,645 183.824939,638.904762 185.724785,629.761905 C185.724785,629.380952 186.104755,629 186.484724,629 C186.864693,629 187.244663,629 187.244663,629.380952 C189.524479,633.190476 192.184264,635.47619 195.224019,636.238095 C208.522945,639.666667 224.861626,639.666667 242.720184,635.857143 C243.100153,635.857143 243.480123,635.857143 243.480123,636.238095 C245,638.904762 245.379969,642.333333 244.620031,647.285714 C244.620031,648.428571 243.480123,649.190476 242.340215,649.571429 C238.540521,651.857143 229.421258,653 219.542055,653 Z M186.864693,632.428571 C185.724785,639.285714 187.244663,644.238095 191.424325,646.904762 C200.923558,653 233.220951,652.619048 241.580276,648.809524 C242.720184,648.428571 243.100153,647.666667 243.100153,647.666667 C243.480123,643.857143 243.480123,640.428571 242.340215,638.52381 C224.481657,642.333333 208.142976,642.333333 194.46408,638.52381 C191.804295,637.380952 189.144509,635.47619 186.864693,632.428571 Z" id="Shape" fill="#000000" fill-rule="nonzero"></path>
            <path d="M181.664987,108.014493 C172.890442,107.632915 156.104356,114.882901 150.381827,118.317105 C140.462776,124.422357 117.191157,151.514411 116.046651,153.422302 C114.902145,155.711771 135.121749,179.751199 143.13329,180.895934 L152.670838,175.553839 C152.670838,175.553839 158.77487,207.987987 158.77487,217.909021 C158.77487,230.501102 153.433842,246.908966 146.948309,262.172095 C146.948309,262.172095 192.347041,296.895713 256.057867,269.422081 C256.057867,269.422081 248.046326,249.580014 246.90182,230.501102 C245.757315,211.040613 251.479844,194.251171 251.479844,194.251171 C251.479844,194.251171 267.502926,195.777484 282,188.909076 C282,188.909076 275.895969,130.909187 254.913361,122.514466 C243.849805,118.317105 232.786248,117.172371 225.919213,114.501323 C225.156209,114.119745 224.393205,114.501323 224.011703,115.264479 C222.485696,119.843418 216.000162,132.817078 201.503088,130.909187 C182.809493,129.382874 181.664987,108.014493 181.664987,108.014493 Z" id="Path" fill="#FFFFFF"></path>
            <path d="M207.340995,281 C170.275725,281 146.966638,263.067283 146.584522,263.067283 C146.202406,263.067283 146.202406,262.304188 146.202406,261.922641 C153.844729,243.608376 158.048007,229.109583 158.048007,218.044715 C158.048007,209.650677 153.080497,182.942375 151.934148,176.83762 L143.145476,181.416186 C143.145476,181.416186 142.76336,181.416186 142.76336,181.416186 C135.121036,180.271544 118.69004,161.194185 115.633111,155.470978 C114.868878,154.326336 114.868878,153.563242 115.250995,153.181695 C116.397343,150.892412 140.088547,124.184109 150.023568,117.697807 C156.137426,113.882335 172.950539,106.632939 182.121327,107.014486 C182.503443,107.014486 182.885559,107.396033 182.885559,107.77758 C182.885559,108.540675 184.031908,128.381128 201.227136,130.670411 C215.365435,132.578147 221.479294,119.605543 223.007759,115.408524 C223.389875,114.263882 224.91834,113.500788 226.064688,114.263882 C229.121618,115.408524 232.560664,116.171618 237.146058,116.934712 C242.877801,118.079354 248.99166,119.605543 255.105518,121.894826 C276.504025,130.288864 282.617884,186.376299 283,188.665582 C283,189.04713 283,189.428677 282.617884,189.428677 C269.625934,195.533432 255.487635,195.151884 252.430705,195.151884 C251.284357,198.204262 247.463195,213.466149 248.227427,230.254225 C249.373776,248.950037 257.016099,268.79049 257.016099,268.79049 C257.016099,269.172037 257.016099,269.553585 256.633983,269.935132 C238.292406,278.32917 221.86141,281 207.340995,281 Z M147.73087,262.304188 C152.698381,266.11966 196.259626,294.354151 254.723402,269.553585 C253.194938,265.738113 246.698962,248.186942 245.93473,231.017319 C244.788381,211.558413 250.138008,194.770337 250.520124,194.38879 C250.520124,194.007243 250.90224,193.625696 251.284357,194.007243 C251.284357,194.007243 266.95112,195.151884 280.707303,189.04713 C279.943071,182.942375 273.447095,131.815053 253.95917,124.184109 C247.845311,121.894826 241.731452,120.368637 235.999709,119.223996 C231.796431,118.079354 227.975269,117.31626 224.91834,116.171618 C224.536224,116.171618 224.154107,116.171618 223.771991,116.553165 C222.243527,120.750184 215.365435,134.86743 200.462904,132.578147 C184.031908,130.288864 180.974979,113.119241 180.592862,108.922222 C172.186306,108.922222 156.137426,115.408524 150.405684,119.223996 C140.852779,125.32875 117.925808,151.655506 116.397343,153.944789 C116.779459,157.378714 134.73892,178.745356 142.381244,180.271544 L151.552032,175.311431 C151.552032,175.311431 151.934148,175.311431 152.316265,175.311431 C152.698381,175.311431 152.698381,175.692978 152.698381,176.074525 C153.080497,177.219167 158.81224,208.887583 158.81224,218.426262 C159.576472,229.491131 155.75531,243.989924 147.73087,262.304188 Z" id="Shape" fill="#000000" fill-rule="nonzero"></path>
            <path d="M275.579407,179.344935 C279.347644,191.943711 285,241.957032 285,250.737997 C285,259.518962 280.101292,317.931467 277.840349,332.439148 C275.202583,350.382859 276.333054,361.45451 274.072112,366.417665 C274.072112,366.417665 272.564817,370.999037 268.419756,373.671505 C268.419756,373.671505 267.289285,375.962192 263.521048,378.634659 C259.75281,380.925346 255.984573,388.560967 253.723631,385.124937 C251.462688,381.688908 258.622339,370.999037 258.999163,367.944789 C259.75281,360.690948 258.999163,348.855735 258.999163,348.855735 C254.854102,347.710392 257.115044,360.309167 252.969983,364.126978 C247.694451,368.708351 246.940804,364.89054 249.201746,351.146421 C251.462688,337.402302 258.245516,331.675586 260.883282,325.185308 C263.521048,318.695029 260.883282,295.024602 260.883282,275.935548 C261.260105,263.336773 260.129634,253.792246 260.129634,253.792246 C251.839512,220.577292 248.448099,174 248.448099,174 L275.579407,179.344935 Z" id="Path" fill="#FFFFFF"></path>
            <path d="M253.965048,387 C252.820942,387 252.439574,386.61828 251.676837,385.854839 C249.769995,383.182796 252.439574,377.83871 254.727785,373.258065 C255.87189,371.349462 256.634627,369.05914 257.015996,368.295699 C257.397364,362.188172 257.397364,353.026882 257.015996,350.354839 C256.253259,350.736559 255.87189,353.408602 255.490522,356.080645 C255.109153,359.516129 254.346416,363.333333 252.439574,365.623656 C250.9141,366.768817 249.007258,368.295699 247.481784,367.532258 C245.574941,366.387097 245.574941,362.188172 247.100415,351.88172 C248.625889,342.33871 252.439574,336.612903 255.490522,332.032258 C257.015996,329.741935 258.160101,327.833333 259.304206,325.543011 C260.82968,321.725806 260.448312,311.037634 260.066943,299.586022 C259.685575,291.951613 259.304206,283.935484 259.685575,276.682796 C260.066943,264.086022 258.922838,254.924731 258.922838,254.543011 C250.532731,221.715054 247.100415,175.526882 247.100415,174.763441 C247.100415,174.38172 247.100415,174.38172 247.481784,174 C247.481784,174 247.863152,174 248.244521,174 L275.703051,178.962366 C276.08442,178.962366 276.08442,179.344086 276.465788,179.725806 C280.279473,192.322581 286,242.327957 286,251.489247 C286,259.887097 281.04221,318.672043 278.753999,333.55914 C277.609893,341.956989 276.847157,349.209677 276.465788,354.935484 C276.08442,361.043011 275.703051,365.241935 274.558946,367.913978 C274.558946,367.913978 273.033472,372.494624 268.838418,375.548387 C268.45705,376.311828 267.312945,378.22043 263.880628,380.510753 C262.736523,381.274194 261.592417,382.801075 260.066943,383.946237 C257.778733,385.091398 255.87189,387 253.965048,387 Z M257.778733,348.446237 C257.778733,348.446237 258.160101,348.446237 258.54147,348.446237 C258.922838,348.446237 259.304206,348.827957 259.304206,349.209677 C259.304206,349.209677 259.685575,361.043011 259.304206,368.295699 C259.304206,369.44086 258.160101,371.349462 257.015996,374.021505 C255.109153,377.83871 252.439574,383.182796 253.965048,385.091398 C254.346416,385.473118 254.346416,385.473118 254.727785,385.473118 C255.87189,385.473118 257.397364,383.564516 259.304206,382.037634 C260.448312,380.892473 261.973786,379.365591 263.117891,378.22043 C266.550208,375.930108 267.694313,373.639785 267.694313,373.639785 C267.694313,373.639785 267.694313,373.258065 268.075682,373.258065 C271.889366,370.586022 273.41484,366.387097 273.41484,366.387097 C274.558946,364.096774 274.558946,359.516129 274.940314,353.790323 C275.321683,348.064516 275.703051,341.193548 277.228525,332.413978 C279.516736,317.908602 284.474526,259.123656 284.474526,250.725806 C284.474526,241.946237 279.135367,193.467742 275.321683,180.107527 L249.388626,175.145161 C250.151363,182.397849 253.583679,223.623656 261.211049,253.77957 C261.211049,253.77957 262.355154,263.322581 261.973786,276.301075 C261.973786,283.553763 261.973786,291.569892 262.355154,299.204301 C262.736523,311.419355 263.49926,321.725806 261.592417,325.924731 C260.448312,328.215054 259.304206,330.505376 257.778733,332.795699 C254.727785,337.376344 251.295468,342.72043 249.769995,351.88172 C247.863152,362.569892 248.625889,365.241935 249.388626,365.623656 C249.388626,365.623656 250.151363,366.005376 252.439574,364.096774 C253.965048,362.569892 254.727785,359.134409 255.109153,355.698925 C255.490522,352.645161 255.87189,349.973118 257.397364,348.827957 C256.634627,348.446237 257.397364,348.446237 257.778733,348.446237 Z" id="Shape" fill="#000000" fill-rule="nonzero"></path>
            <path d="M182.912247,113.016096 C174.130698,112.635049 161.149277,119.112845 155.422179,122.542267 C145.495211,128.639016 122.205014,155.693341 121.059595,157.598575 C119.914176,159.884856 135.568242,180.461385 143.204372,181.604526 L152.749534,176.26987 L150.458695,162.552184 C155.422179,162.552184 160.76747,197.227446 163.440116,221.99549 C164.585535,234.570035 158.094825,250.955049 151.604114,266.196922 C151.604114,266.196922 197.039087,300.872184 260.800771,273.436812 C260.800771,273.436812 252.782835,253.622377 251.637416,234.570035 C250.491996,215.136647 251.637416,194.560118 251.637416,194.560118 C251.637416,194.560118 271.87316,194.941165 286,187.701275 C286,187.701275 282.181935,132.449484 260.800771,124.066454 C249.728383,119.874939 237.892382,119.493892 231.019865,116.826564 C230.256252,116.445517 229.492639,116.826564 229.110833,117.588658 C227.583607,122.16122 218.038444,133.211578 203.529797,131.306344 C185.584892,130.163203 182.912247,113.016096 182.912247,113.016096 Z" id="Path" fill="#FF6900"></path>
            <path d="M207.958879,281 C170.893609,281 147.584522,263.026374 147.202406,263.026374 L146.820289,262.643956 L147.202406,261.879121 C154.844729,243.523077 159.048007,228.991209 159.048007,217.901099 C159.048007,209.487912 154.080497,182.718681 152.934148,176.6 L144.145476,181.571429 L143.76336,181.571429 C136.121036,180.424176 119.69004,161.303297 116.633111,155.567033 C115.868878,154.41978 115.868878,153.654945 116.250995,153.272527 C117.397343,150.978022 141.088547,124.208791 151.023568,117.707692 C155.608962,114.648352 165.926099,110.441758 174.332655,108.147253 C177.7717,107.382418 180.446514,107 183.121327,107 L183.885559,107 L183.885559,107.764835 C183.885559,108.52967 185.031908,128.415385 202.227136,130.70989 C216.365435,132.621978 222.479294,119.61978 224.007759,115.413187 C224.389875,114.265934 225.91834,113.501099 227.064688,114.265934 C230.121618,115.413187 233.560664,116.178022 238.146058,116.942857 C243.877801,118.09011 249.99166,119.61978 256.105518,121.914286 C277.504025,130.327473 283.617884,186.542857 284,188.837363 L284,189.21978 L283.617884,189.602198 C270.625934,195.720879 256.487635,195.338462 253.430705,195.338462 C252.284357,198.397802 248.463195,213.694505 249.227427,230.520879 C250.373776,249.259341 258.016099,269.145055 258.016099,269.145055 L258.398216,269.90989 L257.633983,270.292308 C238.91029,278.323077 222.479294,281 207.958879,281 Z M148.73087,262.261538 C153.698381,266.085714 197.259626,294.384615 255.723402,269.527473 C254.194938,265.703297 247.698962,248.112088 246.93473,230.903297 C245.788381,211.4 251.138008,194.573626 251.520124,194.191209 L251.520124,193.426374 L252.284357,193.426374 C252.284357,193.426374 267.95112,194.573626 281.707303,188.454945 C280.943071,182.336264 274.447095,131.092308 254.95917,123.443956 C248.845311,121.149451 242.731452,119.61978 236.999709,118.472527 C232.796431,117.325275 228.975269,116.56044 225.91834,115.413187 C225.536224,115.413187 225.154107,115.413187 224.771991,115.795604 C223.243527,120.002198 216.365435,134.151648 201.462904,131.857143 C185.031908,129.562637 181.974979,112.353846 181.592862,108.147253 C179.682281,108.147253 177.007468,108.52967 174.332655,109.294505 C165.543983,111.589011 155.226846,116.178022 151.405684,118.472527 C141.852779,124.591209 118.925808,150.978022 117.397343,153.272527 C117.779459,156.714286 135.73892,178.12967 143.381244,179.659341 L153.698381,173.923077 L153.698381,175.07033 C154.080497,176.217582 159.81224,207.958242 159.81224,217.518681 C160.194356,229.373626 156.373194,243.905495 148.73087,262.261538 Z" id="Shape" fill="#000000" fill-rule="nonzero"></path>
            <path d="M253.009657,195 L251.401931,195 C251.401931,192.727273 251.401931,190.454545 251.401931,187.80303 C251,182.878788 250.598069,177.954545 251.803863,173.030303 C252.205794,171.136364 253.009657,170 253.81352,170 C254.215451,170 255.019314,170 255.421245,170.757576 C256.627039,172.651515 257.832833,178.712121 256.225108,180.984848 L255.019314,180.227273 C256.225108,178.333333 255.019314,173.030303 254.215451,171.893939 C254.215451,171.893939 253.81352,172.651515 253.81352,173.409091 C253.009657,177.954545 253.411588,183.257576 253.81352,187.80303 C253.009657,190.454545 253.009657,192.727273 253.009657,195 Z" id="Path" fill="#000000"></path>
            <polygon id="Path" fill="#000000" points="151.6 162 150 162.384615 152.4 177 154 176.615385"></polygon>
            <path d="M203.190476,140 C202.047619,140 200.904762,140 200.142857,140 C193.666667,139.225 176.52381,131.8625 175,109 L176.52381,109 C177.666667,131.0875 194.047619,137.675 200.142857,138.45 C208.904762,139.6125 224.52381,136.125 229.47619,116.75 L231,117.1375 C226.809524,134.9625 212.714286,140 203.190476,140 Z" id="Path" fill="#000000"></path>
            <path d="M252,189 L252,187.526316 C263.012658,186.789474 272.126582,185.684211 281.240506,182 L282,183.473684 C272.506329,187.157895 263.392405,188.263158 252,189 Z" id="Path" fill="#000000"></path>
            <path d="M147.87013,179 C132.805195,169.049383 123.38961,154.506173 120,148.765432 L121.506494,148 C124.896104,153.740741 134.311688,168.283951 149,177.851852 L147.87013,179 Z" id="Path" fill="#000000"></path>
            <path d="M29.7674419,627 C29,627 29,626.236364 29,625.854545 C29,625.090909 29.3837209,623.945455 29.3837209,622.418182 C29.3837209,619.745455 29.7674419,617.454545 30.9186047,617.454545 C31.6860465,617.454545 33.6046512,618.218182 36.6744186,620.509091 C37.0581395,618.218182 37.8255814,614.781818 39.3604651,614.4 C40.8953488,614.018182 42.8139535,615.545455 44.3488372,617.072727 C44.7325581,615.163636 45.1162791,613.254545 46.2674419,612.872727 C47.4186047,612.490909 49.7209302,614.018182 51.6395349,615.163636 C51.6395349,613.636364 52.0232558,611.345455 53.1744186,610.581818 C53.5581395,610.2 54.3255814,610.2 54.7093023,610.2 C56.244186,610.581818 57.7790698,611.727273 58.5465116,612.872727 L60.0813953,606.763636 C60.0813953,606.381818 60.4651163,606 61.2325581,606 C61.6162791,606 62,606.381818 62,607.145455 L60.0813953,614.781818 C60.0813953,615.163636 59.6976744,615.163636 59.3139535,615.545455 C58.9302326,615.545455 58.5465116,615.545455 58.5465116,615.163636 C58.1627907,614.4 56.244186,611.727273 54.7093023,611.345455 C54.7093023,611.345455 54.7093023,611.345455 54.7093023,611.345455 C53.9418605,612.109091 53.5581395,614.781818 53.9418605,616.309091 C53.9418605,616.690909 53.9418605,617.072727 53.5581395,617.072727 C53.1744186,617.072727 52.7906977,617.072727 52.7906977,617.072727 C50.4883721,615.545455 48.1860465,614.018182 47.8023256,614.018182 C47.4186047,614.4 47.0348837,616.690909 47.0348837,618.981818 C47.0348837,619.363636 46.6511628,619.745455 46.2674419,619.745455 C45.8837209,619.745455 45.5,619.745455 45.5,619.363636 C43.9651163,617.454545 42.0465116,615.545455 41.2790698,615.545455 C40.5116279,615.545455 39.744186,618.6 39.744186,621.654545 C39.744186,622.036364 39.744186,622.036364 39.3604651,622.418182 C38.9767442,622.418182 38.5930233,622.418182 38.5930233,622.418182 C36.6744186,620.890909 33.9883721,618.981818 33.2209302,618.6 C32.8372093,619.363636 32.8372093,620.890909 32.8372093,622.418182 C32.8372093,623.945455 32.8372093,625.090909 32.4534884,626.236364 C30.5348837,626.618182 30.1511628,627 29.7674419,627 Z" id="Path" fill="#FFFFFF"></path>
            <path d="M209.076087,632.610169 C209.076087,632.610169 208.695652,632.610169 208.695652,632.610169 C208.315217,632.610169 208.315217,631.830508 208.695652,631.440678 C208.695652,631.440678 210.217391,628.322034 215.163043,624.813559 C209.076087,624.813559 203.369565,625.20339 203.369565,625.20339 C202.98913,625.20339 202.608696,625.20339 202.608696,624.813559 C202.608696,624.423729 202.608696,624.033898 202.608696,624.033898 C203.75,621.694915 207.173913,620.135593 210.217391,618.966102 C207.173913,618.966102 204.130435,619.355932 200.326087,620.525424 C199.945652,620.525424 199.565217,620.525424 199.184783,620.135593 C199.184783,619.745763 199.184783,619.355932 199.184783,618.966102 C199.184783,618.576271 204.130435,615.067797 208.695652,612.728814 C204.51087,612.338983 199.945652,612.728814 196.141304,614.288136 C195.76087,614.288136 195.380435,614.288136 195,613.898305 C195,613.508475 195,613.118644 195.380435,612.728814 C200.326087,610.779661 205.652174,610.389831 210.978261,611.559322 C212.880435,610.389831 214.782609,610 216.304348,610 C216.684783,610 217.065217,610.389831 217.065217,610.779661 C217.065217,611.169492 216.684783,611.559322 216.304348,611.559322 C215.543478,611.559322 214.402174,611.949153 213.641304,612.338983 C216.304348,613.118644 218.586957,614.288136 221.25,616.237288 C221.630435,616.237288 221.630435,616.627119 221.630435,617.016949 C221.630435,617.40678 221.25,617.79661 220.869565,617.79661 C220.108696,617.79661 218.967391,618.186441 217.826087,618.576271 C221.630435,619.745763 223.913043,620.915254 223.913043,620.915254 C224.293478,620.915254 224.293478,621.305085 224.293478,621.694915 C224.293478,622.084746 224.293478,622.474576 223.913043,622.474576 C222.391304,622.864407 220.869565,623.644068 219.728261,624.423729 C223.913043,625.20339 228.097826,626.372881 230,629.101695 C230,629.491525 230,629.881356 230,629.881356 C230,630.271186 229.619565,630.271186 229.23913,630.271186 C224.673913,630.271186 212.119565,630.661017 209.076087,633 C209.076087,632.610169 209.076087,632.610169 209.076087,632.610169 Z M217.445652,624.813559 C214.782609,626.372881 212.5,628.322034 211.358696,629.491525 C216.304348,627.932203 223.532609,627.932203 227.336957,627.932203 C225.054348,625.983051 221.25,625.20339 217.445652,624.813559 Z M214.021739,618.966102 C210.597826,620.135593 206.793478,621.305085 204.51087,623.254237 C207.173913,623.254237 211.73913,622.864407 216.684783,623.254237 C217.826087,622.474576 219.728261,621.694915 221.25,620.915254 C220.108696,620.135593 217.445652,619.355932 214.021739,618.966102 Z M211.358696,612.728814 C209.076087,613.898305 206.032609,615.847458 204.130435,617.016949 C207.934783,616.237288 211.358696,616.237288 214.021739,616.627119 C215.923913,616.237288 217.445652,615.457627 218.586957,615.457627 C216.304348,614.288136 214.021739,613.508475 211.358696,612.728814 Z" id="Shape" fill="#FFFFFF" fill-rule="nonzero"></path>
            <path d="M207,634.150943 C199.54902,637.130089 195.45098,631.544191 194.333333,628.565045 C193.960784,628.192651 193.588235,626.330685 192.843137,626.330685 C189.490196,626.703078 189.117647,624.841112 188,623.723932 L189.117647,620 C190.607843,622.606753 192.470588,623.723932 193.215686,623.351539 C195.45098,622.979146 196.196078,624.841112 196.941176,627.075472 C198.431373,630.054618 200.666667,633.406157 204.019608,631.916584 L207,634.150943 Z" id="Path" fill="#FFFFFF"></path>
            <path d="M261,315 C264.446809,316.892704 272.87234,319.163948 279,316.892704 L278.234043,322.570815 C278.234043,322.570815 272.489362,324.463519 261,320.299571 L261,315 Z" id="Path" fill="#000000"></path>
        </g>
    </g>
</svg>